<svg xmlns="http://www.w3.org/2000/svg" width="448" height="448"><g fill="#fff" fill-rule="evenodd"><path fill-rule="nonzero" d="M223.9 447.9C100.5 447.9 0 347.4 0 223.9 0 100.5 100.5 0 223.9 0c123.5 0 223.9 100.5 223.9 223.9.1 123.5-100.4 224-223.9 224zm0-422.2c-109.3 0-198.2 88.9-198.2 198.2 0 109.3 88.9 198.2 198.2 198.2 109.3 0 198.2-88.9 198.2-198.2 0-109.3-88.9-198.2-198.2-198.2z"/><path d="M137.662 163.082l21.905-21.905c14.048-14.047 28.234-22.183 42.56-24.408 14.324-2.23 27.467 2.64 39.43 14.6 17.662 17.66 20.79 37.48 9.386 59.45 25.592-14.188 46.662-13.006 63.213 3.545 28.79 28.79 25.104 61.265-11.057 97.426l-65.72 65.716-18.15-18.15c2.22-4.73 5.7-11.683 10.43-20.86l-99.09-99.094-21.91 9.388-17.32-17.314 46.314-48.4zm94.088 69.89l-12.1 12.1 40.68 40.68 17.317-17.316c7.232-7.232 11.092-14.43 11.58-21.592.485-7.163-2.192-13.665-8.033-19.506-7.51-7.51-15.264-10.814-23.262-9.91-7.997.904-16.724 6.085-26.182 15.543zM162.28 187.7l35.465 35.466 12.1-12.1c15.577-15.578 16.898-29.833 3.964-42.768-5.29-5.285-10.92-7.65-16.9-7.093-5.98.556-11.62 3.477-16.9 8.762L162.28 187.7z"/></g></svg>