<svg width="302" height="680" viewBox="0 0 302 680" fill="none" xmlns="http://www.w3.org/2000/svg">
<g clip-path="url(#clip0)">
<path d="M1.04855 380.045C1.10184 382.789 1.52814 385.467 3.44647 387.478C4.72536 388.824 6.37724 390.089 8.09575 390.649C11.2264 391.661 14.5168 391.675 17.8473 391.248C25.041 390.316 32.1149 388.877 39.1221 387.039C39.7083 386.879 40.3611 386.919 41.147 386.852C41.2136 387.572 41.3602 388.184 41.3335 388.784C40.7474 401.972 40.1612 415.161 39.5084 428.349C39.2953 432.719 38.9756 437.075 38.5892 441.418C38.2296 445.548 38.163 445.534 42.0529 446.92C42.6524 447.133 43.2252 447.386 44.0112 447.693C44.1844 450.503 44.4375 453.354 44.5174 456.192C44.8638 468.967 45.2102 481.756 45.4766 494.532C45.743 507.534 45.8496 520.523 46.156 533.525C46.5157 549.284 47.1019 565.044 47.4083 580.804C47.6614 593.806 47.8745 606.808 47.6614 619.796C47.4349 633.638 46.3825 647.452 44.9704 661.227C44.1311 669.38 43.9979 677.599 43.3185 685.766C42.266 698.381 41.0138 710.984 39.8548 723.599C39.2687 729.967 38.4028 736.322 38.1896 742.69C38.0297 747.725 37.5368 747.725 42.7989 750.15C43.4517 750.456 44.1178 750.762 44.9837 751.162C41.8398 759.488 43.7847 767.628 45.4633 775.767C45.8363 777.579 46.7688 778.965 48.2075 780.27C51.0318 782.828 53.5895 785.705 56.2006 788.503C57.1464 789.515 57.9458 790.661 58.7717 791.767C62.5151 796.749 67.2843 799.84 73.5855 800.892C78.2348 801.678 82.7775 802.677 87.4668 801.358C87.7732 801.265 88.0929 801.225 88.3993 801.132C92.7289 799.8 92.9287 799.267 93.5814 794.658C94.8603 785.665 91.9029 778.072 86.2944 771.318C81.9649 766.096 78.6344 760.314 76.05 754.08C75.8102 753.493 75.6237 752.894 75.2907 751.948C77.1691 751.375 78.9542 750.869 80.726 750.296C83.5635 749.377 83.5901 749.217 83.8832 746.286C85.0688 734.537 86.3477 722.787 87.4801 711.024C88.1195 704.456 88.5325 697.862 89.0387 691.281C90.0512 678.012 91.2102 664.757 92.0361 651.475C92.7821 639.473 93.4615 627.443 93.6214 615.413C93.8212 600.187 93.6347 584.947 93.3283 569.706C92.982 552.761 92.2093 535.843 91.8363 518.911C91.6098 508.906 91.7963 498.888 91.7963 488.777C94.5406 487.125 99.2565 486.192 106.97 485.886C107.063 486.659 107.223 487.458 107.236 488.257C107.329 496.783 107.29 505.309 107.489 513.835C107.836 528.529 108.449 543.223 108.688 557.917C109.035 578.166 109.301 598.402 109.288 618.651C109.274 631.32 108.222 643.962 106.93 656.578C106.184 663.771 105.771 671.005 105.358 678.239C104.452 693.865 103.24 709.465 101.241 724.998C100.455 731.113 100.322 737.308 99.7361 743.449C99.4963 745.953 100.828 747.232 102.773 748.098C104.798 749.017 106.917 749.723 109.235 750.603C108.595 752.974 107.902 755.105 107.476 757.277C105.971 764.924 107.663 772.29 109.634 779.617C110.407 782.495 112.112 784.24 115.283 784.267C116.455 784.28 117.614 784.64 118.773 784.586C125.727 784.307 132.241 786.078 138.716 788.383C143.418 790.048 148.227 791.54 153.103 792.526C158.738 793.672 164.52 794.258 170.235 792.966C173.006 792.34 175.67 791.234 178.454 790.315C178.561 784.36 177.282 779.338 172.939 775.314C169.302 771.944 165.199 769.333 160.963 766.842C156.926 764.457 152.903 762.033 148.96 759.515C145.083 757.037 141.806 753.866 138.436 750.323C139.994 749.817 141.247 749.31 142.552 749.004C144.484 748.551 145.376 747.552 145.523 745.487C145.949 739.546 146.535 733.604 147.135 727.676C148.134 717.924 149.253 708.199 150.172 698.448C150.665 693.252 150.758 688.03 151.158 682.822C152.077 670.925 153.103 659.056 153.996 647.159C154.435 641.431 154.862 635.676 154.955 629.934C155.195 614.801 155.488 599.667 155.341 584.547C155.181 568.254 154.489 551.962 154.115 535.669C153.849 524.066 153.796 512.45 153.489 500.846C153.236 490.842 152.703 480.837 152.357 470.832C152.117 463.918 151.984 457.004 151.811 450.277C152.104 449.944 152.21 449.704 152.384 449.651C155.834 448.625 156.98 446.44 156.953 442.764C156.846 431.373 157.166 419.97 157.326 408.567C157.339 407.754 157.433 406.941 157.513 405.822C158.605 406.395 159.444 406.808 160.244 407.274C165.306 410.232 170.381 413.163 175.39 416.2C176.842 417.079 178.081 417.159 179.547 416.32C183.05 414.308 186.674 412.483 190.164 410.445C201.754 403.677 213.304 396.857 224.881 390.063C225.613 389.623 226.359 389.223 227.199 388.757C227.971 389.57 228.717 390.303 229.397 391.102C234.286 396.883 241.013 396.963 246.782 393.779C253.416 390.103 258.598 384.641 262.142 377.913C263.381 375.569 263.66 372.638 263.993 369.92C264.18 368.362 264.713 367.456 266.032 366.683C272.466 362.9 278.847 359.05 285.241 355.213C289.171 352.855 289.944 350.577 288.572 346.021C288.345 345.262 288.479 344.329 288.639 343.516C292.502 324.107 296.405 304.684 300.295 285.274C301.148 280.997 302.027 276.721 302.84 272.432C303.053 271.286 303.146 270.1 303.106 268.941C303.039 266.743 301.601 265.624 299.496 266.13C298.577 266.344 297.737 266.863 296.885 267.303C268.536 281.797 240.174 296.304 211.825 310.798C210.8 311.318 209.747 311.811 208.601 312.37C208.282 311.891 207.989 311.584 207.842 311.225C205.831 306.189 203.872 301.113 201.821 296.091C201.235 294.652 201.288 293.507 202.314 292.281C204.072 290.176 204.418 288.045 203.286 285.274C197.758 271.779 192.602 258.124 187.047 244.642C184.782 239.141 181.785 233.945 179.267 228.536C176.216 221.995 170.901 217.879 164.64 214.868C159.524 212.404 154.049 210.925 148.4 210.326C143.431 209.793 138.436 209.406 133.453 209.087C132.255 209.007 131.508 208.54 130.776 207.688C127.818 204.264 127.019 200.108 127.006 195.792C127.006 194.779 127.698 193.527 128.471 192.794C135.718 185.933 141.367 177.767 147.241 169.801C150.532 165.338 151.744 159.929 152.757 154.601C155.128 142.132 156.633 129.556 156.74 116.847C156.753 115.501 157.06 114.103 157.539 112.837C158.605 110.053 159.817 107.322 161.029 104.604C164.84 96.0516 165.652 86.9395 165.785 77.7475C165.825 74.4703 165.599 71.1532 165.093 67.916C164.586 64.7188 163.001 61.9079 160.83 59.4567C159.058 57.4718 157.326 55.4336 155.621 53.3953C154.342 51.85 154.315 50.9708 155.847 49.9716C159.164 47.8135 160.363 44.7495 160.07 40.7929C162.402 40.9928 162.029 43.7371 163.894 44.5097C164.187 44.0568 164.573 43.6838 164.693 43.2308C165.772 39.0878 164.027 33.6259 160.563 31.2546C158.432 29.8025 156.607 28.2305 155.288 25.9525C154.582 24.7269 153.183 23.9143 151.891 22.7286C152.104 22.1825 152.397 21.4364 152.797 20.424C154.702 21.0768 156.46 21.6895 158.605 22.4356C158.472 21.4364 158.538 20.6904 158.259 20.1176C155.887 15.3617 151.971 12.7107 146.749 12.0579C145.43 11.8847 144.391 11.6183 143.352 10.7124C138.436 6.44946 133.027 4.86417 126.753 8.30118C125.967 7.40863 125.247 6.52939 124.461 5.70345C120.438 1.42716 115.323 1.1474 110.78 4.86417C109.834 5.62351 108.715 6.80916 107.729 6.76919C105.824 6.68926 104.079 5.66349 102.92 3.97162C102.507 3.37215 102.107 2.78598 101.561 2C99.7761 3.46539 100.562 5.49031 100.136 6.79584C96.9119 7.23546 93.9145 7.64842 90.4642 8.11468C89.7448 7.12887 89.5317 4.81089 87.0272 4.66435C85.7216 6.63597 87.1737 9.71329 84.3761 11.3385C81.392 9.58007 78.1549 8.10137 74.3582 9.54012C70.8545 10.8723 68.7231 13.5899 66.8314 16.8804C64.4201 14.709 64.4468 12.2844 65.7123 9.64669C61.6625 9.75327 59.3312 12.8706 57.9324 19.7579C52.5904 20.3441 48.0077 22.6221 44.9304 27.2314C43.1053 29.9757 42.2794 33.1196 42.1728 36.3701C42.3993 36.5033 42.6124 36.6232 42.8389 36.7565C44.2643 35.3044 45.6897 33.8523 47.3949 32.1205C47.7813 35.1179 48.1143 37.6623 48.4473 40.2201C40.8673 43.777 39.2287 49.2789 43.5982 56.4327C39.5884 63.4399 40.4143 70.4338 45.8762 72.4588C45.783 71.0067 45.7031 69.7145 45.6098 68.0892C46.4491 68.3956 47.0619 68.6354 48.0743 69.0084C41.0405 82.1437 39.7482 95.3988 46.7555 108.867C46.3292 109.28 46.0761 109.653 45.7297 109.813C42.1195 111.452 40.6408 114.476 40.2145 118.192C39.6949 122.722 40.1879 127.091 41.9463 131.341C43.4917 135.084 46.0627 137.456 50.1259 138.135C51.6978 138.401 53.2565 138.761 55.0683 139.121C55.4279 141.066 55.8276 143.024 56.1473 144.996C57.253 151.843 58.9848 158.531 61.3428 165.058C63.7274 171.653 67.7239 177.114 72.8928 181.684C77.1158 185.414 81.6052 188.851 86.108 192.248C87.4534 193.26 88.1595 194.22 87.973 195.911C87.6266 198.989 87.3868 202.039 85.7749 204.824C84.4161 207.182 82.5511 208.287 79.8334 208.434C74.9443 208.714 70.0685 209.18 65.1928 209.606C57.8658 210.232 51.0184 212.377 44.6906 216.174C43.0121 217.173 41.7199 218.452 40.5742 220.064C32.9275 230.868 27.8253 242.924 23.0561 255.14C18.2869 267.329 13.7575 279.625 9.14818 291.881C8.46877 293.666 8.00251 295.545 7.40303 297.357C6.4039 300.341 7.03003 302.299 9.65441 304.084C10.5336 304.684 11.4928 305.163 12.3987 305.723C13.3046 306.282 14.1838 306.882 15.1829 307.534C15.0497 308.294 14.9565 309.013 14.7966 309.706C10.8134 326.585 6.73694 343.45 2.86031 360.355C1.38159 366.803 0.822079 373.397 1.04855 380.045ZM8.69524 300.341C11.6793 298.862 14.4236 298.169 17.5542 299.635C16.9947 301.593 16.4485 303.498 15.7291 306.029C13.1714 303.924 9.88088 303.618 8.69524 300.341ZM49.3932 70.0475C51.9243 70.2207 54.149 70.5937 56.3471 70.4338C58.5186 70.274 60.6501 69.5813 63.1279 69.0484C60.8899 77.0681 61.6759 84.8879 64.1004 92.6679C57.8525 97.6502 55.2947 104.444 54.3356 112.384C53.3498 111.518 52.8435 110.972 52.2307 110.572C51.5247 110.106 50.7653 109.547 49.9793 109.44C48.4473 109.24 47.8479 108.254 47.3283 107.029C43.5583 98.1431 42.0263 89.111 45.2635 79.6925C46.4358 76.2821 47.5415 72.8717 49.3932 70.0475ZM151.851 44.3365C152.837 47.7069 154.142 50.7976 152.21 53.755C150.479 56.4061 148.574 58.9372 144.684 59.4434C145.869 57.1387 147.548 55.3137 146.802 52.5427C142.499 53.3554 138.249 54.0614 135.039 50.2647C135.225 49.0791 135.385 48 135.558 46.9343C135.358 46.8144 135.145 46.7078 134.946 46.5879C133.467 48.7993 132.881 51.89 129.657 52.3962C126.646 52.8625 124.341 51.2772 122.037 49.945C111.752 53.9282 105.864 54.1813 101.095 50.731C102.201 49.6786 103.386 48.746 104.332 47.6137C105.278 46.4947 106.73 45.5621 106.45 43.0443C105.451 44.1367 104.905 44.8428 104.239 45.4422C102.107 47.3606 100.136 49.532 97.7512 51.0374C94.1676 53.3021 90.331 53.5152 86.6941 50.8109C86.3877 50.5711 85.9481 50.5045 85.4552 50.318C84.909 51.064 84.4027 51.7434 83.9232 52.4228C80.8192 56.8323 76.8493 59.8031 71.2275 59.8431C69.7621 59.8564 69.2826 60.7356 68.6431 61.7747C67.1511 64.1993 65.4059 64.8121 62.6617 64.0794C61.8091 63.8396 60.9431 63.6131 59.7442 63.2801C60.2904 65.5581 62.4752 65.1185 63.3677 66.2375C59.3579 70.3806 48.887 69.7544 46.0228 65.4382C46.2892 64.5856 46.569 63.6398 46.9819 62.241C43.9179 63.7597 44.7705 66.5173 43.878 68.4622C41.893 65.3849 41.6532 62.161 43.7314 59.3102C45.1435 57.3785 45.3167 56.033 43.8513 53.9948C41.7332 51.0507 42.5058 45.8685 45.1169 43.7237C46.0628 42.9511 47.355 42.5781 48.514 42.0985C49.7262 41.6189 50.4589 42.5248 51.3382 43.1109C51.7511 43.3907 52.4172 43.3241 53.7494 43.5239C49.3133 39.5673 48.061 35.3976 50.1792 30.5485C49.0202 29.5361 48.0743 30.2288 47.1818 30.735C46.3026 31.2279 45.5032 31.854 44.664 32.4269C46.9287 24.7402 52.1774 21.2633 60.0906 21.503C59.238 17.7197 60.0506 14.6956 63.0214 12.0313C63.794 15.1086 64.2869 17.8529 67.4308 19.3982C68.9628 15.9079 70.7746 12.7906 74.3049 11.2053C78.1415 9.48683 81.3121 11.1121 84.3095 13.2835C86.8406 12.0979 87.3335 9.62005 88.2128 7.43528C90.3176 9.79323 87.0538 11.5384 87.7732 13.6832C89.3718 12.2178 90.624 10.446 92.3292 9.67332C94.1676 8.84737 96.4856 8.52767 98.4972 8.75414C100.309 8.96729 102.014 10.2062 104.279 11.232C103.346 9.04722 101.202 7.88821 101.814 5.84999C104.226 6.92905 106.517 7.96814 108.888 9.03388C111.486 5.9832 114.057 3.38546 118.187 3.85172C122.223 4.30466 123.995 7.74168 126.206 10.3927C133.44 6.54272 138.955 7.6351 144.231 13.7631C144.577 14.1628 144.87 14.6157 145.257 14.9754C145.456 15.1619 145.816 15.1752 146.109 15.2685C146.389 14.669 146.642 14.1361 146.922 13.5233C150.758 14.3626 153.956 15.8813 156.247 19.7046C152.877 19.2517 149.999 18.5323 147.268 20.3174C148.427 20.4506 149.586 20.5972 151.038 20.7703C150.612 21.4498 150.399 21.7828 150.186 22.1292C149.932 22.5288 149.679 22.9418 149.213 23.7145C153.489 25.02 155.581 27.9108 156.394 32.1471C150.772 28.9366 149.546 28.7101 147.521 30.322C149.333 30.8283 151.411 31.0681 153.103 31.9873C154.848 32.9331 156.247 34.5584 158.312 36.3435C158.312 34.3852 158.312 33.1329 158.312 31.7475C162.388 34.1321 163.507 36.3701 162.974 40.6331C161.416 39.7272 160.39 37.8089 158.125 37.9554C158.259 40.0736 158.685 42.0718 158.445 44.0035C158.192 45.9618 157.153 47.7336 155.141 48.5062C153.849 47.2673 154.275 45.1625 151.851 44.3365ZM156.18 70.234C156.1 65.6647 155.874 61.0687 153.29 57.0188C152.57 55.8732 152.956 55.0472 154.395 54.1014C156.207 56.2861 157.859 58.3643 159.604 60.3493C162.615 63.773 163.987 67.8361 164.267 72.2989C164.373 74.0973 164.333 75.9091 164.293 77.7208C164.027 88.1118 162.855 98.303 157.846 107.668C157.606 108.134 157.273 108.534 156.633 109.48C156.633 107.975 156.647 107.135 156.633 106.283C156.487 94.2665 156.394 82.2502 156.18 70.234ZM124.994 193.633C122.916 195.498 120.451 196.977 117.627 197.19C113.085 197.523 108.502 197.55 103.932 197.63C100.429 197.697 97.2849 196.444 94.1676 194.979C84.9489 190.663 77.2756 184.282 70.4682 176.875C67.9104 174.09 65.6191 170.813 64.1537 167.363C61.9556 162.194 60.397 156.732 58.9715 151.297C57.7992 146.821 57.2131 142.185 56.3871 137.789C53.7494 137.229 51.2582 136.75 48.7804 136.177C46.9153 135.75 45.5032 134.631 44.5574 132.993C41.4135 127.558 40.6674 121.789 42.2661 115.741C43.0121 112.904 45.0636 111.172 47.8745 110.679C50.5788 110.213 52.1375 112.144 53.5362 114.103C54.0292 114.795 54.5087 115.501 55.4013 116.794C55.5878 115.142 55.721 114.329 55.7743 113.503C56.2805 105.896 58.5452 99.1023 64.7665 94.1599C65.7656 93.3606 65.8189 92.5613 65.4592 91.3756C64.6999 88.8445 63.9405 86.2601 63.5809 83.649C62.8215 78.0938 63.2345 72.6053 65.4459 67.3565C65.7257 66.7038 66.1653 66.0643 66.6715 65.5714C68.0836 64.2126 69.589 62.9337 71.3208 61.3884C77.662 61.4283 82.1913 57.6316 85.9614 52.2896C90.1444 54.8474 94.2609 54.7142 98.4572 52.5294C99.0434 52.223 100.043 52.5561 100.815 52.7692C102.667 53.2621 104.439 54.0215 106.304 54.3811C111.046 55.287 115.602 54.4478 119.972 52.4228C120.918 51.9832 121.757 51.3038 122.929 52.0498C126.699 54.4611 130.483 54.7009 134.16 51.5436C137.41 54.6343 141.247 55.0472 145.31 54.2479C145.35 57.3785 142.472 58.3643 141.3 60.9887C145.55 61.8413 148.494 59.9763 151.891 57.1121C152.703 59.47 153.583 61.2951 153.916 63.2135C154.395 65.9178 154.635 68.702 154.675 71.4596C154.875 84.3418 154.822 97.2239 155.128 110.106C155.474 124.867 153.942 139.441 151.331 153.921C150.345 159.383 148.933 164.805 145.59 169.361C141.433 175.023 137.157 180.618 132.694 186.04C130.416 188.811 127.672 191.249 124.994 193.633ZM130.656 210.179C118.906 220.996 93.6614 221.196 84.0564 209.233C88.4659 205.543 89.1586 200.254 89.5849 194.659C101.468 200.801 113.218 200.92 125.367 196.018C125.727 201.227 126.873 206.249 130.656 210.179ZM198.637 294.133C192.988 299.768 186.434 304.084 179.094 307.188C177.828 307.721 176.483 308.121 175.137 308.427C172.526 309.04 172.073 308.827 170.928 306.362C168.41 300.953 165.932 295.518 163.494 290.083C163.121 289.23 162.775 288.245 162.815 287.339C162.988 283.622 163.361 279.918 163.561 276.202C163.641 274.576 164.267 272.924 163.574 271.273C163.241 271.379 162.881 271.406 162.868 271.486C159.591 294.346 160.35 317.459 158.672 340.746C157.992 340.239 157.433 339.973 157.06 339.533C155.288 337.428 152.863 336.722 150.319 336.269C149.053 336.056 147.788 335.87 146.509 335.83C138.942 335.617 131.375 335.404 124.062 337.868C118.413 339.773 112.791 341.745 107.13 343.623C102.787 345.062 98.4838 346.687 94.0344 347.686C79.3938 350.977 64.6999 354.027 50.0193 357.145C48.2742 357.518 46.4891 357.757 44.4375 358.104C44.8904 342.611 45.3434 327.45 45.783 312.224C48.3141 311.451 49.1001 309.493 49.8195 307.428C56.2539 288.937 61.1963 269.9 70.295 252.409C70.4549 252.089 70.2151 251.556 70.1618 251.117C69.922 251.064 69.6956 251.024 69.4558 250.97C59.7042 268.741 54.8818 288.444 48.0743 307.348C45.5299 307.681 43.838 306.202 41.9996 305.256C31.7152 299.994 20.9646 296.837 8.96167 297.623C9.48122 295.971 9.92084 294.266 10.547 292.614C15.3162 279.958 20.032 267.289 24.9344 254.687C28.6779 245.055 32.9808 235.69 37.9898 226.618C42.2261 218.945 48.6472 214.708 56.8534 212.644C57.3596 212.51 57.8792 212.324 58.3987 212.271C65.7923 211.418 73.1992 210.619 80.5927 209.753C81.7384 209.62 82.3512 210.179 83.0306 210.898C86.1879 214.216 90.0512 216.494 94.3674 217.839C107.143 221.809 119.279 220.21 130.336 212.67C133.08 210.818 135.558 210.166 138.609 210.725C139.555 210.898 140.514 210.925 141.473 211.018C148.48 211.711 155.434 212.684 162.002 215.441C169.102 218.425 174.738 222.875 178.321 229.949C187.633 248.319 195 267.489 202.047 286.806C202.54 288.151 202.42 289.324 201.634 290.416C200.702 291.708 199.743 293 198.637 294.133ZM44.2377 313.076C43.7714 328.117 43.3051 343.183 42.8389 358.49C38.3095 359.316 34.0732 360.102 29.2374 360.995C29.5038 359.489 29.6104 358.557 29.8235 357.651C31.8218 349.271 33.7801 340.892 35.8849 332.539C37.4036 326.571 39.1621 320.656 40.7607 314.702C41.2403 312.916 42.1195 312.197 44.2377 313.076ZM42.0929 310.958C42.4526 309.812 42.7456 308.867 43.092 307.721C44.5441 308.32 45.7564 308.813 47.2884 309.439C45.6631 310.878 44.1311 311.131 42.0929 310.958ZM186.008 366.989C185.222 368.175 183.357 368.481 182.051 367.775C180.959 367.176 179.92 366.47 178.494 365.591C179.826 364.845 180.719 364.352 181.612 363.859C181.985 363.659 182.358 363.432 182.757 363.313C183.743 363.033 185.915 363.939 186.274 364.965C186.474 365.564 186.367 366.47 186.008 366.989ZM185.781 362.06C185.968 361.767 186.407 361.647 186.74 361.448C186.874 361.674 187.14 361.927 187.1 362.127C187.047 362.433 186.78 362.713 186.434 363.259C186.088 362.647 185.701 362.207 185.781 362.06ZM166.838 383.762C165.506 382.776 164.333 381.91 162.721 380.724C165.719 379.219 168.183 377.98 170.648 376.741C172.02 377.713 173.272 378.606 174.884 379.752C171.953 381.217 169.422 382.469 166.838 383.762ZM170.754 383.602C172.646 384.721 174.351 385.706 176.496 386.972C173.765 388.331 171.54 389.423 169.236 390.569C167.491 389.463 165.812 388.424 163.76 387.132C166.278 385.866 168.396 384.801 170.754 383.602ZM172.673 375.888C173.632 375.355 174.511 374.823 175.417 374.356C179.2 372.411 179.2 372.425 182.424 375.302C182.517 375.382 182.477 375.649 182.504 375.822C176.509 379.312 176.802 379.552 172.673 375.888ZM166.451 377.021C164.999 376.008 163.667 375.076 161.935 373.877C164.533 372.545 166.598 371.506 168.783 370.386C170.222 371.372 171.594 372.305 173.445 373.57C170.714 374.916 168.636 375.942 166.451 377.021ZM170.395 369.6C172.833 368.348 174.778 367.362 176.816 366.323C178.281 367.242 179.68 368.135 181.572 369.334C179.054 370.64 177.042 371.692 174.977 372.771C173.499 371.745 172.153 370.813 170.395 369.6ZM185.941 369.081C185.595 371.266 185.342 372.798 184.982 375.089C183.29 373.81 182.104 372.918 180.586 371.759C182.531 370.786 183.983 370.053 185.941 369.081ZM184.689 377.061C184.343 378.18 184.143 378.832 183.89 379.672C183.237 379.139 182.837 378.819 181.998 378.14C182.984 377.753 183.597 377.5 184.689 377.061ZM182.664 384.028C181.225 384.881 179.64 385.507 178.108 386.253C176.296 385.134 174.618 384.095 172.513 382.789C175.404 381.35 177.828 380.151 180.173 378.992C180.945 379.512 181.465 379.872 181.985 380.218C182.238 380.391 182.531 380.551 182.771 380.751C184.143 381.883 184.169 383.135 182.664 384.028ZM178.401 393.073C177.202 392.181 175.897 391.208 174.218 389.956C177.269 388.477 179.8 387.252 182.677 385.853C182.89 391.088 182.704 391.382 178.401 393.073ZM180.373 397.536C178.934 398.109 177.961 397.03 176.776 395.884C178.468 395.072 179.84 394.392 181.438 393.62C181.585 395.365 182.011 396.897 180.373 397.536ZM177.642 399.121C176.349 399.854 175.084 400.574 173.738 401.333C172.579 400.68 171.514 400.067 170.328 399.388C174.911 396.337 175.564 396.55 177.642 399.121ZM168.277 398.309C166.625 397.363 165.093 396.484 163.121 395.351C166.491 393.7 169.422 392.274 172.46 390.795C173.818 391.741 175.111 392.634 177.002 393.939C173.738 395.565 171.021 396.923 168.277 398.309ZM161.309 394.419C159.524 393.34 157.792 392.314 155.874 391.155C162.188 387.412 162.974 387.438 166.998 391.568C165.079 392.527 163.254 393.446 161.309 394.419ZM155.314 389.437C154.235 389.996 153.33 389.996 152.357 389.33C151.531 388.757 150.652 388.251 149.386 387.452C153.276 385.48 156.74 383.682 160.244 382.003C160.696 381.79 161.496 381.963 161.989 382.229C162.988 382.789 163.867 383.535 165.266 384.534C161.576 386.346 158.418 387.838 155.314 389.437ZM142.792 383.575C148.813 380.524 154.555 377.62 160.27 374.716C161.815 375.742 163.094 376.608 164.72 377.687C163.627 378.34 162.948 378.792 162.215 379.165C158.605 381.004 154.862 382.603 151.425 384.707C148.307 386.612 145.736 386.413 142.792 383.575ZM136.597 379.991C138.929 378.806 141.074 377.727 143.352 376.568C144.617 377.474 145.829 378.34 147.308 379.392C143.591 381.257 140.514 384.401 136.597 379.991ZM145.137 375.662C146.455 374.969 147.468 374.436 148.494 373.903C152.051 372.078 152.131 372.092 155.221 375.262C154.981 375.435 154.742 375.649 154.475 375.795C153.17 376.488 151.811 377.074 150.559 377.833C149.373 378.553 148.4 378.433 147.415 377.554C146.735 376.954 146.016 376.395 145.137 375.662ZM153.569 371.332C155.741 370.24 157.766 369.201 159.817 368.162C161.189 369.134 162.721 369.6 163.587 371.172C160.257 372.558 157.313 376.355 153.569 371.332ZM161.456 367.322C170.568 362.673 179.267 358.25 188.206 353.694C188.672 357.771 186.994 359.649 183.876 361.021C179.214 363.086 174.738 365.591 170.182 367.895C168.689 368.655 167.157 369.361 165.612 370.107C164.253 369.188 163.041 368.375 161.456 367.322ZM175.763 357.544C179.88 355.013 184.089 352.708 188.699 351.176C184.569 353.641 180.399 356.066 175.763 357.544ZM175.164 355.493C171.913 352.708 168.929 350.164 165.639 347.34C170.221 344.995 174.538 342.744 178.894 340.612C179.44 340.346 180.359 340.439 180.946 340.719C183.903 342.144 186.807 343.676 189.765 345.195C189.738 346.727 189.938 348.152 188.379 348.938C183.93 351.15 179.48 353.348 175.164 355.493ZM163.374 345.168C173.072 340.333 182.398 335.683 192.349 330.714C191.59 335.31 190.963 339.147 190.231 343.596C187.313 342.104 184.822 340.945 182.451 339.587C180.573 338.507 178.947 338.587 177.069 339.627C173.432 341.638 169.702 343.45 166.012 345.355C165.306 345.728 164.613 346.167 163.374 345.168ZM162.255 343.929C160.03 343.183 160.417 341.518 160.47 340.093C160.99 326.065 161.522 312.037 162.082 298.023C162.149 296.397 162.402 294.772 162.641 292.494C163.334 293.813 163.734 294.519 164.08 295.252C165.612 298.529 167.118 301.819 168.663 305.083C171.061 310.132 171.074 310.132 176.683 310.172C179.533 317.326 182.424 324.613 185.488 332.34C177.455 336.349 169.782 340.186 162.255 343.929ZM206.856 313.236C204.845 314.289 203.153 315.408 201.301 316.114C196.146 318.085 192.948 321.402 192.922 327.224C192.922 327.863 192.509 328.783 192.003 329.076C190.391 329.995 188.659 330.688 186.86 331.514C183.85 323.973 180.945 316.726 178.001 309.359C186.367 306.069 193.361 301.326 199.889 295.332C202.26 301.406 204.512 307.201 206.856 313.236ZM265.246 362.367C271.933 358.25 278.581 354.107 285.268 349.991C285.868 349.618 286.587 349.485 287.36 349.192C287.786 351.23 286.933 352.336 285.415 353.228C278.74 357.158 272.12 361.154 265.459 365.111C265.046 365.364 264.553 365.457 264.1 365.617C263.181 363.912 264.047 363.113 265.246 362.367ZM263.434 361.261C262.674 358.49 262.128 355.999 261.316 353.601C260.05 349.858 258.505 349.405 255.321 351.55C254.202 350.377 253.109 349.205 252.31 348.366C254.002 346.567 255.907 344.969 257.266 343.01C259.864 339.267 261.076 334.924 261.449 330.421C261.582 328.663 261.409 326.798 260.956 325.079C260.21 322.242 258.691 321.296 255.827 321.282C253.482 321.282 251.351 321.975 249.686 323.574C247.941 325.239 246.435 327.144 244.717 329.076C244.011 328.863 243.118 328.53 242.199 328.29C235.045 326.451 227.412 330.954 228.078 339.573C228.424 344.116 230.356 347.726 233.886 350.497C238.189 353.867 242.266 353.495 245.956 349.485C247.608 347.686 247.608 347.686 250.152 348.712C249.366 350.071 248.567 351.43 247.674 352.962C245.623 352.176 244.61 353.494 243.864 355.173C243.478 356.052 243.131 356.958 242.892 357.877C242.146 360.742 241.466 363.632 240.694 366.75C237.656 366.337 236.75 368.575 236.124 370.893C235.551 373.037 235.285 375.276 234.845 377.687C217.274 387.945 199.543 398.282 181.332 408.913C181.239 407.807 181.145 407.474 181.199 407.181C182.331 400.467 183.49 393.753 184.609 387.039C186.634 374.863 188.619 362.686 190.644 350.51C192.096 341.798 193.588 333.099 195.013 324.386C195.426 321.882 196.665 320.217 198.983 319.031C219.285 308.72 239.561 298.329 259.85 287.965C272.279 281.61 284.682 275.256 297.111 268.928C298.39 268.275 299.656 267.303 301.601 268.155C301.481 269.434 301.481 270.793 301.228 272.099C299.283 282.117 297.284 292.134 295.286 302.152C292.489 316.234 289.651 330.315 286.88 344.409C286.467 346.514 285.615 347.979 283.656 349.125C277.688 352.629 271.866 356.372 265.978 360.009C265.219 360.488 264.38 360.821 263.434 361.261ZM248.767 346.514C247.128 346.261 245.982 346.993 244.917 348.219C241.853 351.723 238.309 352.016 234.699 349.112C231.248 346.341 229.543 342.691 229.637 338.268C229.73 333.885 232.487 330.741 236.804 329.728C239.894 329.009 242.639 329.942 245.503 331.42C246.169 330.395 246.648 329.449 247.314 328.676C248.687 327.091 249.992 325.399 251.617 324.12C253.442 322.681 255.814 322.162 257.919 323.307C259.877 324.373 260.09 326.638 260.01 328.676C259.797 333.872 258.412 338.747 255.427 343.05C253.842 345.315 251.844 346.993 248.767 346.514ZM229.09 387.492C230.809 386.532 232.541 385.573 234.153 384.667C234.925 385.32 235.431 385.733 236.444 386.572C236.511 384.747 236.524 383.522 236.617 382.296C236.857 379.019 237.003 375.729 237.443 372.465C237.643 370.986 237.923 369.281 239.614 368.468C241.013 369.081 241 370.293 241.067 371.452C241.293 375.062 241.48 378.673 241.746 382.283C241.839 383.562 242.119 384.841 242.319 386.119C242.559 386.119 242.785 386.119 243.025 386.119C243.171 385.68 243.478 385.227 243.451 384.801C243.225 380.977 243.105 377.141 242.652 373.344C241.986 367.682 243.091 362.34 244.877 357.051C245.196 356.106 245.396 355.026 246.941 354.534C247.354 356.092 247.954 357.478 248.061 358.903C248.394 363.579 248.513 368.255 248.767 372.931C248.873 374.942 249.073 376.954 249.339 378.952C249.406 379.379 249.966 379.725 250.618 380.484C250.458 375.902 250.378 371.879 250.152 367.869C249.926 363.939 249.433 360.035 249.313 356.106C249.259 354.587 249.752 352.975 250.352 351.55C251.018 349.964 252.497 349.964 253.109 351.563C253.789 353.321 254.268 355.226 254.455 357.105C254.988 362.726 255.321 368.348 255.774 373.97C255.84 374.703 255.561 375.755 257.039 375.822C257.093 375.062 257.239 374.343 257.186 373.624C256.826 368.215 256.453 362.806 256.04 357.398C255.867 355.213 256.027 353.188 257.919 351.736C259.624 352.309 259.797 353.801 260.21 355.066C261.635 359.449 262.115 363.979 262.448 368.561C262.688 371.892 262.102 374.982 260.463 377.767C256.933 383.722 252.204 388.664 246.302 392.247C239.788 396.204 232.381 394.126 229.09 387.492ZM180.333 413.815C181.252 410.592 181.252 410.592 183.823 409.1C199.21 400.187 214.583 391.275 229.97 382.376C231.435 381.537 232.914 380.724 234.712 379.725C235.338 381.883 234.646 382.909 233.02 383.628C231.368 384.361 229.783 385.24 228.224 386.146C213.237 394.885 198.264 403.651 183.277 412.403C182.438 412.896 181.505 413.243 180.333 413.815ZM179.24 409.073C178.055 408.487 177.109 408.074 176.203 407.567C170.608 404.477 165.039 401.36 159.458 398.256C144.937 390.183 130.416 382.123 115.922 374.037C114.696 373.344 113.577 372.451 111.846 371.279C117.174 367.895 122.33 365.79 127.192 363.246C132.894 369.96 135.958 368.335 139.395 364.392C141.846 364.671 144.484 365.164 146.003 362.234C146.109 362.02 146.535 361.954 146.828 361.834C149.36 360.808 151.891 359.796 154.502 358.743C156.047 360.035 157.539 361.234 158.965 362.5C160.403 363.766 161.815 364.125 163.587 363.073C165.226 362.1 166.984 361.328 168.729 360.528C169.169 360.315 169.742 360.382 170.248 360.329C166.971 362.686 163.507 364.485 160.044 366.257C152.277 370.213 144.484 374.156 136.731 378.153C135.678 378.699 134.16 378.912 134.266 380.911C135.532 381.643 136.89 382.456 138.263 383.229C149.107 389.343 159.99 395.405 170.781 401.626C172.886 402.838 174.564 403.158 176.563 401.573C177.722 400.653 179.187 400.107 181.012 399.121C180.346 402.825 179.813 405.809 179.24 409.073ZM153.463 350.484C154.249 349.724 154.995 348.765 156.58 350.257C155.488 350.684 154.622 351.017 153.756 351.35C153.649 351.057 153.556 350.764 153.463 350.484ZM153.516 355.04C153.356 355.812 153.196 356.572 153.036 357.331C152.85 357.278 152.663 357.238 152.477 357.185C152.663 356.439 152.85 355.679 153.036 354.933C153.196 354.973 153.356 355.013 153.516 355.04ZM158.272 351.323C161.482 353.907 164.52 356.359 167.824 359.023C167.078 359.449 166.625 359.716 166.158 359.956C161.336 362.447 161.456 362.273 157.193 359.076C154.808 357.278 154.702 355.253 155.101 352.709C156.22 352.216 157.259 351.763 158.272 351.323ZM139.875 393.393C134.839 390.409 129.83 387.372 124.874 384.254C121.73 382.283 119.079 379.712 116.721 376.754C137.663 387.971 158.418 399.481 179.374 411.191C178.468 412.736 177.788 413.882 177.056 415.121C176.043 414.588 175.284 414.228 174.564 413.802C162.988 407.021 151.411 400.24 139.875 393.393ZM111.1 750.749C112.711 750.922 114.27 751.162 115.842 751.269C121.917 751.668 127.965 751.748 134 750.829C135.252 750.643 136.438 750.429 137.517 751.615C144.284 759.062 152.85 764.044 161.456 768.96C165.346 771.171 168.996 773.716 172.233 776.86C175.683 780.217 176.776 784.347 176.736 789.182C175.097 789.795 173.539 790.448 171.94 790.954C166.065 792.833 160.084 792.153 154.249 791.074C149.053 790.128 143.978 788.423 138.942 786.745C132.867 784.72 126.819 782.788 120.292 783.028C118.6 783.094 116.908 782.668 115.216 782.628C112.925 782.575 111.766 781.323 111.18 779.258C108.528 769.919 106.837 760.581 111.1 750.749ZM46.6356 751.429C55.4946 753.2 64.2736 753.187 73.2258 752.055C73.5588 752.548 73.7853 752.787 73.9052 753.08C76.8893 760.541 80.9124 767.361 86.0014 773.623C91.0636 779.87 93.0353 787.078 91.9029 795.151C91.5699 797.469 90.704 798.894 88.386 799.36C87.8664 799.467 87.3602 799.667 86.854 799.813C82.4978 801.105 78.2748 800.026 73.9452 799.32C67.9904 798.348 63.461 795.47 59.944 790.714C59.6243 790.288 59.3179 789.848 58.9582 789.462C55.5478 785.825 52.0842 782.242 48.7404 778.538C47.9278 777.646 47.2084 776.46 46.9553 775.288C46.1427 771.451 45.41 767.575 44.9171 763.671C44.3975 759.528 44.8638 755.438 46.6356 751.429ZM45.7297 451.023C45.7031 450.197 45.8363 449.371 45.9029 448.359C46.6089 448.505 47.1285 448.572 47.6081 448.718C55.2681 451.036 63.1013 452.542 71.0144 453.674C85.1354 455.699 99.2165 457.91 113.604 456.765C124.142 455.925 134.599 454.873 144.817 452.089C146.442 451.649 148.054 451.143 150.372 450.464C150.372 454.18 150.279 457.364 150.385 460.548C150.732 471.086 151.251 481.623 151.531 492.161C151.957 508.133 152.197 524.119 152.584 540.092C152.943 555.426 153.489 570.759 153.769 586.092C154.116 605.062 154.089 624.019 152.637 642.95C151.957 651.755 150.958 660.548 150.305 669.353C149.506 680.077 149.133 690.828 148.214 701.539C147.268 712.676 145.869 723.773 144.724 734.883C144.311 738.786 144.058 742.716 143.725 746.806C142.459 747.232 141.273 747.712 140.061 748.032C132.028 750.163 123.835 750.509 115.642 749.643C111.779 749.244 107.916 748.165 104.199 746.966C101.348 746.047 100.948 745.114 101.215 742.157C101.828 735.056 102.614 727.956 103.253 720.855C104.465 707.28 105.651 693.705 106.77 680.131C107.383 672.71 107.623 665.237 108.369 657.83C109.927 642.443 110.873 627.043 110.913 611.59C110.98 587.931 110.513 564.298 109.701 540.652C109.088 522.867 109.008 505.069 108.688 487.285C108.675 486.259 108.688 485.233 108.688 484.221C105.158 484.048 94.6472 485.7 91.9562 486.592C90.1311 487.192 89.9313 488.497 89.9446 490.096C90.0645 500.86 90.0246 511.624 90.2777 522.388C90.6773 538.893 91.41 555.386 91.743 571.891C92.0494 586.905 92.2226 601.932 92.0228 616.959C91.8763 628.242 91.1835 639.526 90.4642 650.783C89.6649 663.319 88.5725 675.828 87.6 688.35C86.8939 697.475 86.2412 706.614 85.3886 715.726C84.4827 725.478 83.3503 735.203 82.3778 744.941C82.0448 748.271 82.1514 748.365 78.8076 749.204C68.7364 751.735 58.5852 752.068 48.4074 750.043C46.0228 749.563 43.7181 748.658 41.4667 747.738C40.1612 747.206 39.2287 746.22 39.4019 744.501C40.068 737.827 40.6541 731.14 41.2669 724.465C42.4392 711.756 43.6915 699.034 44.7572 686.312C45.4366 678.239 45.7963 670.153 46.3558 662.08C47.2883 648.598 48.7404 635.13 49.1001 621.621C49.7262 598.402 49.0602 575.182 48.2875 551.962C47.6747 533.658 47.4216 515.327 46.9553 497.01C46.569 481.676 46.116 466.356 45.7297 451.023ZM42.8389 386.199C43.7314 385.906 44.211 385.706 44.7173 385.573C60.3303 381.284 75.5971 376.022 90.664 370.067C96.8852 367.602 103.32 365.657 109.674 363.552C110.753 363.193 111.952 363.139 113.098 363.073C117.014 362.86 120.931 362.713 124.768 362.54C124.448 362.726 124.008 363.006 123.542 363.246C120.118 364.978 116.668 366.643 113.271 368.415C110.673 369.76 110.154 371.878 112.005 374.09C113.977 376.448 115.922 378.952 118.307 380.844C122.716 384.334 127.299 387.651 132.068 390.635C139.195 395.098 146.509 399.241 153.809 403.438C155.301 404.304 155.834 405.263 155.767 406.995C155.541 412.43 155.448 417.852 155.394 423.287C155.328 430.095 155.274 436.915 155.368 443.736C155.394 445.748 154.742 446.92 152.863 447.559C150.559 448.345 148.307 449.331 145.976 450.077C139.262 452.209 132.348 453.581 125.34 454.127C116.761 454.793 108.129 455.393 99.5363 455.259C92.4491 455.139 85.3486 454.074 78.2881 453.141C68.3634 451.822 58.4653 450.397 48.8603 447.426C45.9429 446.52 43.0254 445.601 40.0014 444.642C40.9605 424.966 41.893 405.569 42.8389 386.199ZM4.87189 358.144C8.94834 340.532 13.238 322.961 17.4743 305.39C17.9405 303.458 18.6466 301.58 19.286 299.515C27.1858 300.94 34.686 302.632 41.6932 306.908C35.5252 324.706 31.7952 343.037 27.2391 361.328C25.2009 361.701 23.1893 361.914 21.271 362.473C19.5391 362.993 17.2878 362.327 15.6492 364.898C24.5615 363.792 32.781 361.621 41.4667 360.568C42.9188 360.169 44.3576 359.809 45.8096 359.543C45.8496 359.529 45.8896 359.516 45.9295 359.503C53.5363 357.944 61.1696 356.465 68.763 354.827C78.1149 352.815 87.5334 351.003 96.7654 348.499C105.171 346.221 113.431 343.343 121.61 340.319C130.882 336.896 140.341 336.789 149.946 337.682C152.224 337.895 154.169 338.88 155.901 340.466C160.776 344.915 165.772 349.232 170.701 353.628C171.647 354.48 172.646 355.32 173.379 356.345C173.712 356.798 173.725 357.877 173.405 358.304C173.072 358.743 172.1 358.93 171.487 358.81C170.688 358.65 169.888 358.197 169.209 357.704C167.051 356.159 164.933 354.547 162.815 352.935C160.11 350.857 157.553 348.579 154.702 346.727C152.823 345.515 150.972 344.422 149.853 342.411C149.799 342.318 149.466 342.397 148.8 342.397C149.24 343.676 149.599 344.835 150.052 345.954C151.251 348.872 151.904 351.843 151.385 355C150.918 357.891 149.586 359.303 146.695 359.862C146.882 357.837 147.162 355.852 147.188 353.854C147.202 351.883 147.814 349.791 146.442 347.899C145.963 348.859 145.869 349.831 145.789 350.804C145.51 353.881 145.416 356.971 144.923 360.009C144.417 363.126 143.032 363.672 139.968 362.38C140.234 353.828 139.688 350.657 137.263 348.592C137.636 350.803 138.169 352.629 138.223 354.48C138.316 357.211 138.502 360.062 137.863 362.673C136.864 366.736 133.24 367.389 130.363 364.298C129.55 363.419 128.897 362.367 128.071 361.261C129.43 360.622 130.376 360.182 131.242 359.769C131.908 360.315 132.494 360.795 133.587 361.687C133.134 358.903 132.255 357.158 130.656 355.519C130.176 358.85 130.176 358.916 127.206 359.822C122.063 361.381 116.855 362.194 111.473 361.154C110.247 360.915 108.981 360.821 107.663 360.648C107.529 361.9 107.25 362.686 105.957 363.033C102.667 363.925 99.3764 364.858 96.2325 366.15C82.2313 371.892 67.9904 376.914 53.5496 381.404C50.2458 382.429 46.902 383.269 43.1453 384.321C42.6124 384.667 41.9863 384.654 41.3602 384.561C35.6185 386.626 21.1511 389.623 15.8091 389.756C13.5843 389.81 11.3463 389.57 9.13486 389.317C7.00338 389.077 5.41808 387.771 4.23245 386.066C2.99352 384.268 2.56724 382.203 2.51395 380.018C2.32745 372.625 3.21999 365.324 4.87189 358.144Z" fill="black"/>
<path d="M150.385 460.562C150.731 471.099 151.251 481.637 151.531 492.174C151.957 508.147 152.197 524.133 152.583 540.106C152.943 555.439 153.489 570.772 153.769 586.106C154.115 605.076 154.089 624.033 152.636 642.963C151.957 651.769 150.958 660.561 150.305 669.367C149.506 680.091 149.133 690.841 148.214 701.552C147.268 712.689 145.869 723.786 144.723 734.896C144.31 738.8 144.057 742.73 143.724 746.819C142.459 747.246 141.273 747.725 140.061 748.045C132.028 750.176 123.835 750.523 115.642 749.657C111.779 749.257 107.915 748.178 104.199 746.979C101.348 746.06 100.948 745.128 101.215 742.17C101.827 735.07 102.613 727.969 103.253 720.869C104.465 707.294 105.651 693.719 106.77 680.144C107.382 672.724 107.622 665.25 108.368 657.843C109.927 642.457 110.873 627.057 110.913 611.604C110.979 587.944 110.513 564.311 109.7 540.665C109.088 522.881 109.008 505.083 108.688 487.298C108.675 486.273 108.688 485.247 108.688 484.234C105.158 484.061 94.6469 485.713 91.9559 486.606C90.1308 487.205 89.931 488.511 89.9443 490.109C90.0642 500.873 90.0243 511.637 90.2774 522.401C90.677 538.907 91.4097 555.399 91.7427 571.905C92.0491 586.918 92.2223 601.945 92.0225 616.972C91.876 628.256 91.1832 639.539 90.4638 650.796C89.6645 663.332 88.5722 675.841 87.5997 688.364C86.8936 697.489 86.2409 706.628 85.3883 715.74C84.4824 725.491 83.35 735.216 82.3775 744.954C82.0445 748.285 82.1511 748.378 78.8073 749.217C68.7361 751.748 58.5849 752.082 48.4071 750.057C46.0225 749.577 43.7178 748.671 41.4664 747.752C40.1609 747.219 39.2284 746.233 39.4016 744.515C40.0677 737.841 40.6538 731.153 41.2666 724.479C42.4389 711.77 43.6912 699.048 44.7569 686.325C45.4363 678.252 45.796 670.166 46.3555 662.093C47.288 648.611 48.7401 635.143 49.0998 621.635C49.7259 598.415 49.0599 575.195 48.2872 551.975C47.6744 533.671 47.4213 515.341 46.955 497.023C46.5687 481.69 46.1157 466.357 45.7161 451.023C45.6894 450.197 45.8227 449.371 45.8893 448.359C46.5953 448.505 47.1149 448.572 47.5945 448.719C55.2545 451.037 63.0877 452.542 71.0008 453.674C85.1218 455.699 99.2029 457.911 113.59 456.765C124.128 455.926 134.586 454.873 144.803 452.089C146.429 451.649 148.04 451.143 150.358 450.464C150.358 454.167 150.265 457.364 150.385 460.562Z" fill="#2D291E"/>
<path d="M10.5735 292.627C15.3426 279.972 20.0586 267.303 24.961 254.7C28.7044 245.069 33.0073 235.704 38.0163 226.631C42.2526 218.958 48.6737 214.722 56.8799 212.657C57.3861 212.524 57.9057 212.337 58.4252 212.284C65.8188 211.431 73.2257 210.632 80.6193 209.766C81.7649 209.633 82.3777 210.192 83.0571 210.912C86.2144 214.229 90.0777 216.507 94.394 217.852C107.17 221.822 119.306 220.224 130.363 212.684C133.107 210.832 135.585 210.179 138.635 210.739C139.581 210.912 140.54 210.938 141.5 211.032C148.507 211.724 155.461 212.697 162.028 215.454C169.129 218.439 174.764 222.888 178.348 229.962C187.66 248.333 195.026 267.503 202.074 286.819C202.567 288.165 202.447 289.337 201.661 290.429C200.728 291.721 199.769 293.027 198.65 294.146C193.002 299.781 186.447 304.097 179.107 307.201C177.841 307.734 176.496 308.134 175.15 308.44C172.539 309.053 172.086 308.84 170.941 306.375C168.423 300.967 165.945 295.531 163.507 290.096C163.134 289.244 162.788 288.258 162.828 287.352C163.001 283.635 163.374 279.932 163.574 276.215C163.654 274.59 164.28 272.938 163.587 271.286C163.254 271.392 162.894 271.419 162.881 271.499C159.604 294.359 160.363 317.472 158.685 340.759C158.005 340.253 157.446 339.986 157.073 339.547C155.301 337.442 152.876 336.736 150.332 336.283C149.066 336.07 147.788 335.883 146.522 335.843C138.955 335.63 131.388 335.417 124.075 337.881C118.426 339.786 112.805 341.758 107.143 343.636C102.8 345.075 98.497 346.7 94.0476 347.7C79.407 350.99 64.7131 354.041 50.0325 357.158C48.2874 357.531 46.5022 357.771 44.4507 358.117C44.9036 342.624 45.3566 327.464 45.7962 312.237C48.3273 311.464 49.1133 309.506 49.8327 307.441C56.2671 288.951 61.2094 269.914 70.3082 252.422C70.4681 252.103 70.2283 251.57 70.175 251.13C69.9352 251.077 69.7087 251.037 69.4689 250.984C59.7174 268.755 54.8949 288.458 48.0875 307.361C45.5431 307.694 43.8512 306.216 42.0128 305.27C31.7284 300.008 20.9778 296.85 8.97485 297.636C9.4944 295.984 9.93402 294.266 10.5735 292.627Z" fill="#29BFE4"/>
<path d="M153.929 63.1867C154.409 65.891 154.648 68.6752 154.688 71.4328C154.888 84.315 154.835 97.1971 155.141 110.079C155.488 124.84 153.956 139.414 151.345 153.894C150.359 159.356 148.947 164.778 145.603 169.334C141.447 174.996 137.17 180.591 132.707 186.013C130.416 188.797 127.685 191.222 124.994 193.633C122.916 195.498 120.451 196.977 117.627 197.19C113.085 197.523 108.502 197.55 103.932 197.63C100.429 197.696 97.2849 196.444 94.1676 194.979C84.9489 190.663 77.2756 184.281 70.4682 176.875C67.9104 174.09 65.6191 170.813 64.1537 167.363C61.9556 162.194 60.397 156.732 58.9715 151.297C57.7992 146.821 57.2131 142.185 56.3871 137.788C53.7494 137.229 51.2582 136.749 48.7804 136.177C46.9153 135.75 45.5032 134.631 44.5574 132.993C41.4135 127.557 40.6674 121.789 42.2661 115.741C43.0121 112.903 45.0636 111.172 47.8745 110.679C50.5788 110.212 52.1375 112.144 53.5362 114.102C54.0292 114.795 54.5087 115.501 55.4013 116.793C55.5878 115.141 55.721 114.329 55.7743 113.503C56.2805 105.896 58.5452 99.1021 64.7665 94.1598C65.7656 93.3604 65.8189 92.5611 65.4592 91.3755C64.6999 88.8444 63.9405 86.2599 63.5809 83.6489C62.8215 78.0937 63.2345 72.6051 65.4459 67.3564C65.7257 66.7036 66.1653 66.0642 66.6715 65.5713C68.0836 64.2124 69.589 62.9336 71.3208 61.3882C77.662 61.4282 82.1913 57.6315 85.9614 52.2895C90.1444 54.8472 94.2609 54.714 98.4572 52.5293C99.0434 52.2229 100.043 52.5559 100.815 52.7691C102.667 53.262 104.439 54.0213 106.304 54.381C111.046 55.2869 115.602 54.4476 119.972 52.4227C120.918 51.9831 121.757 51.3037 122.929 52.0497C126.699 54.4609 130.483 54.7007 134.16 51.5435C137.41 54.6341 141.247 55.0471 145.31 54.2478C145.35 57.3784 142.472 58.3642 141.3 60.9886C145.55 61.8412 148.494 59.9761 151.891 57.1119C152.703 59.4699 153.583 61.295 153.929 63.1867ZM70.4282 115.488C80.5661 119.631 90.2643 119.338 100.202 115.768C100.309 118.166 97.7112 118.858 97.2716 120.817C99.9226 120.244 101.921 117.939 102.4 115.035C102.92 111.851 101.908 109.16 99.7627 106.842C96.5655 103.405 92.4491 101.766 87.9464 101.074C83.8033 100.434 79.6069 100.514 75.7303 102.299C73.6521 103.258 71.5739 104.564 70.0286 106.216C66.6449 109.839 67.1244 115.155 70.8012 118.499C71.0677 118.738 71.5073 118.765 71.867 118.898C72.0002 118.725 72.1334 118.552 72.2666 118.379C71.7737 117.593 71.2808 116.82 70.4282 115.488ZM118.946 116.42C124.035 118.299 128.618 119.338 133.32 119.404C137.93 119.471 142.539 119.138 147.455 118.978C146.442 120.19 145.55 121.243 144.297 122.748C145.323 122.642 145.789 122.722 146.082 122.535C149.826 120.23 151.238 115.328 149.306 111.358C148.054 108.774 146.016 106.909 143.525 105.603C137.583 102.486 131.375 101.993 125.021 104.191C122.57 105.044 120.438 106.429 118.84 108.521C115.882 112.371 116.575 117.806 120.398 120.75C120.585 120.896 120.958 120.83 121.917 120.95C120.838 119.338 120.105 118.219 118.946 116.42ZM127.765 100.234C131.695 100.088 135.625 99.8748 139.541 99.5684C142.712 99.3153 145.416 100.141 147.708 102.353C148.374 102.992 149.173 103.512 149.932 104.098C152.29 99.4884 149.693 92.681 144.963 92.5611C138.183 92.3879 131.389 92.0283 124.621 92.2547C119.692 92.4279 118.36 94.7992 119.306 100.261C122.117 100.261 124.954 100.341 127.765 100.234ZM70.3217 100.261C72.4531 98.5559 74.8377 98.0497 77.4888 98.3961C81.805 98.9556 86.1346 99.5018 90.4508 100.035C92.2359 100.248 94.0344 100.408 95.8328 100.594C97.3382 100.741 98.2974 100.075 98.6038 98.5959C98.8169 97.5568 99.0167 96.5044 99.0434 95.4519C99.0967 93.1739 98.324 91.8684 96.1259 91.602C88.9588 90.7094 81.7651 89.697 74.5713 91.2556C70.0686 92.2414 67.0312 96.5843 67.3642 102.113C68.6165 101.353 69.5357 100.901 70.3217 100.261ZM85.6816 157.891C86.2545 158.85 86.441 159.623 86.9073 159.889C89.2119 161.168 91.4633 162.727 93.9544 163.459C104.665 166.59 115.349 166.15 125.86 162.367C129.177 161.181 130.043 160.489 131.375 158.437C116.242 165.524 101.215 166.657 85.6816 157.891ZM111.979 114.182C114.936 120.417 115.496 127.038 115.163 133.792C114.99 137.269 114.23 137.962 110.673 138.108C108.342 138.188 105.997 138.095 103.666 138.135C103.093 138.148 102.547 138.375 101.908 139.014C102.307 139.187 102.72 139.507 103.133 139.507C106.21 139.52 109.301 139.64 112.352 139.387C115.229 139.147 116.295 138.002 116.548 135.111C117.174 128.037 116.495 121.11 113.657 114.515C113.271 113.623 112.672 112.824 112.165 111.984C111.939 112.077 111.726 112.184 111.499 112.277C111.659 112.917 111.712 113.596 111.979 114.182ZM79.9533 156.452C78.448 160.995 80.2197 165.964 84.3228 167.256C83.8299 166.577 83.3637 165.884 82.8708 165.218C80.646 162.207 80.2331 159.01 81.9516 155.64C83.0306 153.535 84.8291 152.269 87.0937 151.67C87.8531 151.47 88.6391 151.297 89.4117 151.11C85.4552 149.592 81.3654 152.149 79.9533 156.452ZM134.373 152.789C136.597 153.881 137.663 156.212 137.45 158.704C137.25 161.075 136.571 163.38 136.104 165.671C138.596 164.765 139.875 159.756 138.542 155.813C136.997 151.217 132.308 148.992 127.086 150.751C129.857 151.497 132.294 151.79 134.373 152.789Z" fill="#EDD8C5"/>
<path d="M123.542 363.233C120.118 364.964 116.668 366.63 113.271 368.402C110.673 369.747 110.154 371.865 112.005 374.077C113.977 376.435 115.922 378.939 118.306 380.831C122.716 384.321 127.299 387.638 132.068 390.622C139.195 395.085 146.509 399.228 153.809 403.424C155.301 404.29 155.834 405.25 155.767 406.981C155.541 412.417 155.448 417.839 155.394 423.274C155.328 430.081 155.274 436.902 155.368 443.723C155.394 445.734 154.741 446.907 152.863 447.546C150.558 448.332 148.307 449.318 145.976 450.064C139.262 452.195 132.348 453.567 125.34 454.114C116.761 454.78 108.129 455.379 99.5361 455.246C92.4489 455.126 85.3485 454.06 78.2879 453.128C68.3632 451.809 58.4652 450.384 48.8602 447.413C45.9427 446.507 43.0253 445.588 40.0012 444.629C40.9604 424.952 41.9062 405.543 42.8387 386.186C43.7313 385.893 44.2109 385.693 44.7171 385.56C60.3302 381.27 75.5969 375.995 90.6638 370.053C96.8851 367.589 103.32 365.644 109.674 363.539C110.753 363.179 111.952 363.126 113.098 363.06C117.014 362.846 120.931 362.7 124.768 362.527C124.448 362.713 124.008 363.006 123.542 363.233Z" fill="#29BFE4"/>
<path d="M181.212 407.168C182.344 400.454 183.503 393.74 184.622 387.025C186.647 374.849 188.632 362.673 190.657 350.497C192.109 341.785 193.601 333.086 195.027 324.373C195.44 321.869 196.678 320.203 198.996 319.018C219.299 308.707 239.575 298.316 259.864 287.952C272.293 281.597 284.695 275.243 297.124 268.915C298.403 268.262 299.669 267.29 301.614 268.142C301.494 269.421 301.494 270.78 301.241 272.085C299.296 282.103 297.298 292.121 295.299 302.139C292.502 316.22 289.664 330.301 286.893 344.396C286.48 346.501 285.628 347.966 283.669 349.112C277.701 352.615 271.88 356.359 265.992 359.996C265.232 360.475 264.393 360.808 263.46 361.274C262.701 358.504 262.155 356.012 261.342 353.614C260.077 349.871 258.531 349.418 255.347 351.563C254.228 350.391 253.136 349.218 252.337 348.379C254.029 346.581 255.934 344.982 257.292 343.024C259.89 339.28 261.102 334.937 261.475 330.435C261.609 328.676 261.435 326.811 260.983 325.093C260.237 322.255 258.718 321.309 255.854 321.296C253.509 321.296 251.378 321.989 249.712 323.587C247.967 325.252 246.462 327.157 244.743 329.089C244.037 328.876 243.145 328.543 242.226 328.303C235.072 326.465 227.438 330.967 228.104 339.587C228.451 344.129 230.382 347.74 233.913 350.51C238.216 353.881 242.292 353.508 245.982 349.498C247.634 347.7 247.634 347.7 250.179 348.725C249.393 350.084 248.593 351.443 247.701 352.975C245.649 352.189 244.637 353.508 243.891 355.186C243.504 356.066 243.158 356.972 242.918 357.891C242.172 360.755 241.493 363.646 240.72 366.763C237.683 366.35 236.777 368.588 236.151 370.906C235.578 373.051 235.312 375.289 234.872 377.7C217.301 387.958 199.569 398.296 181.358 408.926C181.265 407.821 181.172 407.501 181.212 407.168ZM244.264 325.133C247.075 323.614 248.38 318.592 246.928 314.355C242.758 316.433 241.653 321.229 244.264 325.133Z" fill="#B7B7B7"/>
<path d="M88.1994 7.47514C90.3042 9.83309 87.0403 11.5782 87.7597 13.723C89.3583 12.2577 90.6106 10.4858 92.3158 9.71318C94.1542 8.88723 96.4722 8.56753 98.4838 8.794C100.296 9.00715 102.001 10.2461 104.265 11.2718C103.333 9.08708 101.188 7.92807 101.801 5.88985C104.212 6.96891 106.503 8.008 108.875 9.07374C111.472 6.02306 114.044 3.42532 118.173 3.89158C122.21 4.34452 123.982 7.78154 126.193 10.4326C133.427 6.58258 138.942 7.67496 144.217 13.803C144.564 14.2026 144.857 14.6556 145.243 15.0153C145.443 15.2018 145.803 15.2151 146.096 15.3083C146.375 14.7089 146.629 14.176 146.908 13.5632C150.745 14.4025 153.942 15.9211 156.234 19.7445C152.863 19.2915 149.986 18.5722 147.255 20.3573C148.414 20.4905 149.573 20.637 151.025 20.8102C150.598 21.4896 150.385 21.8227 150.172 22.169C149.919 22.5687 149.666 22.9817 149.2 23.7543C153.476 25.0599 155.567 27.9507 156.38 32.187C150.758 28.9765 149.533 28.75 147.508 30.3619C149.32 30.8681 151.398 31.1079 153.09 32.0271C154.835 32.973 156.234 34.5982 158.298 36.3833C158.298 34.425 158.298 33.1728 158.298 31.7873C162.375 34.1719 163.494 36.41 162.961 40.6729C161.402 39.7671 160.377 37.8487 158.112 37.9953C158.245 40.1134 158.671 42.1117 158.432 44.0433C158.179 46.0016 157.139 47.7734 155.128 48.5461C153.836 47.3072 154.262 45.2023 151.851 44.3364C152.837 47.7068 154.142 50.7975 152.21 53.7549C150.479 56.4059 148.574 58.9371 144.684 59.4433C145.869 57.1386 147.548 55.3136 146.802 52.5426C142.499 53.3553 138.249 54.0613 135.039 50.2646C135.225 49.079 135.385 47.9999 135.558 46.9342C135.358 46.8143 135.145 46.7077 134.945 46.5878C133.467 48.7992 132.881 51.8899 129.657 52.3961C126.646 52.8624 124.341 51.2771 122.037 49.9449C111.752 53.9281 105.864 54.1812 101.095 50.7309C102.201 49.6785 103.386 48.7459 104.332 47.6136C105.278 46.4946 106.73 45.562 106.45 43.0442C105.451 44.1366 104.905 44.8427 104.239 45.4421C102.107 47.3471 100.136 49.5186 97.751 51.024C94.1675 53.2887 90.3308 53.5018 86.694 50.7975C86.3876 50.5577 85.9479 50.4911 85.455 50.3046C84.9088 51.0506 84.4026 51.73 83.923 52.4094C80.8191 56.8189 76.8492 59.7897 71.2274 59.8296C69.762 59.843 69.2824 60.7222 68.643 61.7613C67.151 64.1858 65.4058 64.7986 62.6615 64.0659C61.8089 63.8262 60.943 63.5997 59.7441 63.2667C60.2903 65.5447 62.475 65.1051 63.3676 66.2241C59.3577 70.3671 48.8868 69.741 46.0227 65.4248C46.2891 64.5722 46.5689 63.6263 46.9818 62.2276C43.9045 63.7462 44.7571 66.5038 43.8645 68.4488C41.8796 65.3715 41.6398 62.1476 43.718 59.2968C45.1301 57.3651 45.3033 56.0196 43.8379 53.9814C41.7197 51.0373 42.4924 45.8551 45.1035 43.7103C46.0493 42.9376 47.3415 42.5646 48.5005 42.085C49.7128 41.6055 50.4455 42.5114 51.3247 43.0975C51.7377 43.3773 52.4038 43.3107 53.736 43.5105C49.2998 39.5539 48.0476 35.3842 50.1657 30.5351C49.0067 29.5226 48.0609 30.2154 47.1683 30.7216C46.2891 31.2145 45.4898 31.8406 44.6505 32.4135C46.9152 24.7268 52.164 21.2498 60.0771 21.4896C59.2245 17.7062 60.0371 14.6822 63.0079 12.0179C63.7806 15.0952 64.2735 17.8395 67.4174 19.3848C68.9494 15.8945 70.7612 12.7772 74.2914 11.1919C78.1281 9.47339 81.2987 11.0987 84.2961 13.2701C86.8405 12.0845 87.3201 9.60662 88.1994 7.47514Z" fill="#8D7958"/>
<path d="M2.52718 380.045C2.58046 382.243 2.99343 384.294 4.24567 386.093C5.43131 387.798 7.00329 389.103 9.14809 389.343C11.3728 389.596 13.5975 389.836 15.8223 389.783C21.1776 389.636 35.6317 386.639 41.3734 384.587C41.9995 384.681 42.6257 384.694 43.1585 384.348C43.1186 384.361 43.0919 384.361 43.0519 384.374C46.8486 383.322 50.2324 382.469 53.5628 381.43C68.0036 376.941 82.2445 371.918 96.2457 366.177C99.3896 364.884 102.693 363.952 105.971 363.059C107.263 362.7 107.543 361.927 107.676 360.675C109.008 360.848 110.26 360.941 111.486 361.181C116.854 362.233 122.077 361.421 127.219 359.849C130.19 358.943 130.19 358.876 130.669 355.546C132.281 357.184 133.147 358.93 133.6 361.714C132.494 360.808 131.921 360.342 131.255 359.796C130.389 360.195 129.444 360.648 128.085 361.288C128.911 362.393 129.55 363.446 130.376 364.325C133.254 367.416 136.877 366.763 137.876 362.7C138.516 360.089 138.316 357.238 138.236 354.507C138.183 352.655 137.663 350.83 137.277 348.619C139.701 350.683 140.247 353.854 139.981 362.407C143.045 363.699 144.431 363.153 144.937 360.035C145.443 356.998 145.536 353.907 145.803 350.83C145.896 349.858 145.976 348.885 146.455 347.926C147.828 349.818 147.228 351.896 147.201 353.881C147.175 355.866 146.882 357.864 146.709 359.889C149.599 359.329 150.931 357.917 151.398 355.026C151.904 351.869 151.251 348.898 150.066 345.981C149.613 344.862 149.253 343.703 148.813 342.424C149.493 342.424 149.812 342.357 149.866 342.437C150.985 344.436 152.837 345.528 154.715 346.754C157.566 348.605 160.124 350.897 162.828 352.962C164.933 354.573 167.064 356.185 169.222 357.731C169.902 358.224 170.701 358.69 171.5 358.836C172.113 358.943 173.086 358.756 173.419 358.33C173.738 357.904 173.725 356.825 173.392 356.372C172.659 355.359 171.66 354.507 170.714 353.654C165.785 349.271 160.79 344.942 155.914 340.492C154.182 338.907 152.237 337.921 149.959 337.708C140.354 336.816 130.896 336.909 121.624 340.346C113.457 343.37 105.185 346.247 96.7786 348.525C87.5466 351.03 78.1281 352.842 68.7763 354.853C61.1829 356.478 53.5495 357.957 45.9428 359.529C45.9028 359.542 45.8628 359.556 45.8229 359.569C44.3708 359.849 42.9321 360.195 41.48 360.595C32.7942 361.647 24.5747 363.819 15.6624 364.924C17.301 362.353 19.5524 363.006 21.2842 362.5C23.1892 361.94 25.2141 361.727 27.2523 361.354C31.8084 343.063 35.5385 324.733 41.7065 306.935C34.6992 302.659 27.1991 300.967 19.2993 299.541C18.6598 301.606 17.9538 303.485 17.4875 305.416C13.2512 323.001 8.96159 340.559 4.88513 358.17C3.21991 365.324 2.32735 372.624 2.52718 380.045Z" fill="#EDD8C5"/>
<path d="M89.5849 194.659C101.468 200.801 113.218 200.92 125.367 196.018C125.727 201.227 126.873 206.249 130.656 210.192C118.906 221.01 93.6614 221.209 84.0564 209.246C88.4659 205.543 89.1586 200.268 89.5849 194.659Z" fill="#EDD8C5"/>
<path d="M241.08 371.439C241.307 375.049 241.493 378.659 241.76 382.269C241.853 383.548 242.133 384.827 242.332 386.106C242.572 386.106 242.799 386.106 243.038 386.106C243.185 385.667 243.491 385.214 243.465 384.787C243.238 380.964 243.118 377.127 242.665 373.331C241.999 367.669 243.105 362.327 244.89 357.038C245.21 356.092 245.41 355.013 246.955 354.52C247.368 356.079 247.968 357.464 248.074 358.89C248.407 363.566 248.527 368.242 248.78 372.918C248.887 374.929 249.087 376.941 249.353 378.939C249.42 379.365 249.979 379.712 250.632 380.471C250.472 375.888 250.392 371.865 250.166 367.855C249.939 363.925 249.446 360.022 249.326 356.092C249.273 354.574 249.766 352.962 250.365 351.536C251.032 349.951 252.51 349.951 253.123 351.55C253.802 353.308 254.282 355.213 254.469 357.091C255.001 362.713 255.334 368.335 255.787 373.957C255.854 374.689 255.574 375.742 257.053 375.808C257.106 375.049 257.253 374.33 257.2 373.61C256.84 368.202 256.467 362.793 256.054 357.384C255.881 355.2 256.04 353.188 257.932 351.723C259.637 352.296 259.811 353.788 260.224 355.053C261.649 359.436 262.129 363.965 262.462 368.548C262.701 371.879 262.115 374.969 260.477 377.753C256.946 383.708 252.217 388.651 246.316 392.234C239.801 396.191 232.394 394.113 229.064 387.492C230.782 386.532 232.514 385.573 234.126 384.667C234.899 385.307 235.405 385.72 236.418 386.559C236.484 384.734 236.497 383.508 236.591 382.283C236.831 379.006 236.977 375.715 237.417 372.451C237.617 370.973 237.896 369.267 239.588 368.455C240.987 369.054 240.974 370.28 241.08 371.439Z" fill="#EDD8C5"/>
<path d="M176.203 407.567C170.608 404.477 165.039 401.359 159.458 398.255C144.937 390.183 130.416 382.123 115.922 374.037C114.697 373.344 113.578 372.451 111.846 371.279C117.174 367.895 122.33 365.79 127.192 363.246C132.894 369.96 135.958 368.335 139.395 364.392C141.846 364.671 144.484 365.164 146.003 362.233C146.109 362.02 146.536 361.954 146.829 361.834C149.36 360.808 151.891 359.796 154.502 358.743C156.047 360.035 157.539 361.234 158.965 362.5C160.403 363.765 161.816 364.125 163.587 363.073C165.226 362.1 166.984 361.328 168.73 360.528C169.169 360.315 169.742 360.382 170.248 360.328C166.971 362.686 163.507 364.485 160.044 366.257C152.277 370.213 144.484 374.156 136.731 378.153C135.678 378.699 134.16 378.912 134.266 380.911C135.532 381.643 136.891 382.456 138.263 383.229C149.107 389.343 159.991 395.405 170.781 401.626C172.886 402.838 174.564 403.158 176.563 401.573C177.722 400.653 179.187 400.107 181.012 399.121C180.359 402.825 179.827 405.809 179.24 409.086C178.041 408.5 177.096 408.074 176.203 407.567Z" fill="#B7B7B7"/>
<path d="M64.1003 92.6545C57.8524 97.6368 55.2946 104.431 54.3355 112.371C53.3497 111.505 52.8434 110.959 52.2306 110.559C51.5246 110.093 50.7652 109.533 49.9793 109.427C48.4473 109.227 47.8478 108.241 47.3282 107.015C43.5582 98.1297 42.0262 89.0976 45.2634 79.6791C46.4224 76.282 47.5414 72.8717 49.4064 70.0475C51.9376 70.2207 54.1623 70.5937 56.3604 70.4338C58.5318 70.2739 60.6633 69.5812 63.1412 69.0483C60.9031 77.068 61.6891 84.8879 64.1003 92.6545Z" fill="#5C4833"/>
<path d="M247.314 328.663C248.687 327.078 249.992 325.386 251.617 324.107C253.443 322.668 255.814 322.149 257.919 323.294C259.877 324.36 260.09 326.625 260.01 328.663C259.797 333.858 258.412 338.734 255.427 343.037C253.856 345.315 251.857 346.994 248.78 346.514C247.141 346.261 245.996 346.994 244.93 348.219C241.866 351.723 238.322 352.016 234.712 349.112C231.262 346.341 229.557 342.691 229.65 338.268C229.743 333.885 232.501 330.741 236.817 329.729C239.908 329.009 242.652 329.942 245.516 331.42C246.182 330.395 246.648 329.462 247.314 328.663Z" fill="#F2F2F2"/>
<path d="M201.301 316.113C196.146 318.085 192.948 321.402 192.922 327.224C192.922 327.863 192.509 328.782 192.003 329.076C190.391 329.995 188.659 330.687 186.86 331.513C183.85 323.973 180.946 316.726 178.001 309.359C186.368 306.069 193.361 301.326 199.889 295.332C202.247 301.406 204.512 307.201 206.856 313.236C204.858 314.302 203.153 315.421 201.301 316.113Z" fill="#EDD8C5"/>
<path d="M159.591 60.3492C162.601 63.7729 163.974 67.8361 164.253 72.2988C164.36 74.0973 164.32 75.909 164.28 77.7208C164.014 88.1118 162.841 98.3029 157.832 107.668C157.592 108.134 157.259 108.534 156.62 109.48C156.62 107.975 156.633 107.135 156.62 106.283C156.473 94.2664 156.38 82.2502 156.167 70.234C156.087 65.6646 155.861 61.0686 153.276 57.0188C152.557 55.8731 152.943 55.0472 154.382 54.1013C156.194 56.2861 157.846 58.3643 159.591 60.3492Z" fill="#5C4833"/>
<path d="M179.373 411.191C178.468 412.736 177.788 413.882 177.055 415.121C176.043 414.588 175.284 414.228 174.564 413.802C163.001 407.008 151.424 400.241 139.874 393.406C134.839 390.422 129.83 387.385 124.874 384.268C121.73 382.296 119.079 379.725 116.721 376.768C137.663 387.971 158.418 399.494 179.373 411.191Z" fill="#898989"/>
<path d="M188.379 348.925C183.929 351.15 179.48 353.348 175.164 355.493C171.913 352.708 168.929 350.164 165.639 347.34C170.221 344.995 174.538 342.744 178.894 340.612C179.44 340.346 180.359 340.439 180.945 340.719C183.903 342.144 186.807 343.676 189.764 345.195C189.738 346.727 189.938 348.152 188.379 348.925Z" fill="#F2F2F2"/>
<path d="M233.02 383.628C231.368 384.361 229.783 385.24 228.224 386.146C213.237 394.885 198.264 403.651 183.277 412.403C182.424 412.896 181.505 413.243 180.319 413.802C181.239 410.578 181.239 410.578 183.81 409.086C199.196 400.174 214.57 391.262 229.956 382.363C231.422 381.523 232.9 380.711 234.699 379.712C235.325 381.87 234.632 382.896 233.02 383.628Z" fill="#898989"/>
<path d="M183.877 361.021C179.214 363.086 174.738 365.591 170.182 367.895C168.69 368.655 167.158 369.361 165.612 370.107C164.254 369.188 163.041 368.375 161.456 367.322C170.568 362.673 179.267 358.25 188.206 353.694C188.672 357.771 186.994 359.649 183.877 361.021Z" fill="#F2F2F2"/>
<path d="M182.464 339.586C180.586 338.507 178.96 338.587 177.082 339.626C173.445 341.638 169.715 343.45 166.025 345.355C165.319 345.715 164.626 346.154 163.374 345.182C173.072 340.346 182.397 335.697 192.349 330.728C191.589 335.324 190.963 339.16 190.231 343.61C187.3 342.118 184.809 340.959 182.464 339.586Z" fill="#B7B7B7"/>
<path d="M160.27 374.716C161.815 375.742 163.094 376.608 164.72 377.687C163.627 378.34 162.948 378.793 162.215 379.166C158.605 381.004 154.862 382.603 151.425 384.707C148.307 386.626 145.736 386.413 142.792 383.575C148.813 380.511 154.555 377.607 160.27 374.716Z" fill="#F2F2F2"/>
<path d="M166.172 359.969C161.349 362.46 161.469 362.287 157.206 359.09C154.822 357.291 154.715 355.266 155.115 352.722C156.22 352.229 157.259 351.776 158.272 351.323C161.482 353.907 164.52 356.359 167.824 359.023C167.078 359.436 166.625 359.716 166.172 359.969Z" fill="#F2F2F2"/>
<path d="M285.414 353.228C278.74 357.158 272.119 361.154 265.458 365.111C265.045 365.364 264.553 365.457 264.1 365.617C263.18 363.912 264.046 363.126 265.245 362.38C271.933 358.264 278.58 354.121 285.268 350.004C285.867 349.631 286.587 349.498 287.359 349.205C287.772 351.243 286.933 352.335 285.414 353.228Z" fill="#898989"/>
<path d="M155.314 389.437C154.235 389.996 153.329 389.996 152.357 389.33C151.531 388.757 150.652 388.251 149.386 387.452C153.276 385.48 156.74 383.682 160.243 382.003C160.696 381.79 161.496 381.963 161.989 382.23C162.988 382.789 163.867 383.535 165.266 384.534C161.576 386.346 158.418 387.838 155.314 389.437Z" fill="#F2F2F2"/>
<path d="M168.277 398.309C166.625 397.363 165.093 396.484 163.121 395.351C166.491 393.7 169.422 392.274 172.46 390.795C173.818 391.741 175.111 392.634 177.002 393.939C173.739 395.565 171.021 396.923 168.277 398.309Z" fill="#F2F2F2"/>
<path d="M176.496 386.985C173.765 388.344 171.54 389.437 169.236 390.582C167.491 389.477 165.812 388.437 163.76 387.145C166.278 385.88 168.396 384.801 170.754 383.615C172.646 384.721 174.351 385.72 176.496 386.985Z" fill="#F2F2F2"/>
<path d="M180.173 379.006C180.945 379.525 181.465 379.885 181.984 380.231C182.238 380.404 182.531 380.564 182.77 380.764C184.143 381.896 184.169 383.149 182.664 384.041C181.225 384.894 179.64 385.52 178.108 386.266C176.296 385.147 174.618 384.108 172.513 382.802C175.404 381.364 177.828 380.165 180.173 379.006Z" fill="#F2F2F2"/>
<path d="M170.634 376.754C172.007 377.727 173.259 378.619 174.871 379.765C171.94 381.217 169.409 382.469 166.824 383.762C165.492 382.776 164.32 381.91 162.708 380.724C165.719 379.219 168.17 377.98 170.634 376.754Z" fill="#F2F2F2"/>
<path d="M8.69531 300.34C11.6794 298.862 14.4237 298.169 17.5543 299.634C16.9948 301.593 16.4486 303.498 15.7292 306.029C13.1714 303.924 9.88095 303.618 8.69531 300.34Z" fill="#8BDBE8"/>
<path d="M166.451 377.021C164.999 376.008 163.667 375.076 161.935 373.877C164.533 372.545 166.598 371.506 168.783 370.386C170.221 371.372 171.594 372.305 173.445 373.57C170.714 374.916 168.636 375.942 166.451 377.021Z" fill="#F2F2F2"/>
<path d="M155.874 391.155C162.188 387.412 162.974 387.438 166.997 391.568C165.079 392.527 163.241 393.446 161.309 394.419C159.524 393.353 157.792 392.314 155.874 391.155Z" fill="#F2F2F2"/>
<path d="M181.572 369.334C179.054 370.64 177.042 371.692 174.977 372.771C173.499 371.745 172.153 370.813 170.381 369.587C172.819 368.335 174.764 367.349 176.802 366.31C178.281 367.243 179.667 368.135 181.572 369.334Z" fill="#F2F2F2"/>
<path d="M175.404 374.356C179.187 372.411 179.187 372.425 182.411 375.302C182.518 375.382 182.478 375.648 182.504 375.822C176.51 379.312 176.803 379.552 172.673 375.875C173.632 375.342 174.498 374.809 175.404 374.356Z" fill="#F2F2F2"/>
<path d="M143.351 376.554C144.617 377.46 145.829 378.326 147.308 379.378C143.591 381.257 140.514 384.401 136.597 379.978C138.928 378.806 141.073 377.727 143.351 376.554Z" fill="#F2F2F2"/>
<path d="M178.401 393.073C177.202 392.181 175.896 391.208 174.218 389.956C177.268 388.477 179.8 387.252 182.677 385.853C182.89 391.088 182.704 391.382 178.401 393.073Z" fill="#F2F2F2"/>
<path d="M154.462 375.795C153.156 376.488 151.798 377.074 150.545 377.833C149.36 378.553 148.387 378.433 147.401 377.554C146.722 376.954 146.003 376.395 145.137 375.675C146.456 374.983 147.468 374.45 148.494 373.917C152.051 372.092 152.131 372.105 155.221 375.276C154.982 375.449 154.755 375.675 154.462 375.795Z" fill="#F2F2F2"/>
<path d="M159.817 368.162C161.189 369.134 162.721 369.6 163.587 371.172C160.257 372.558 157.313 376.341 153.583 371.346C155.741 370.253 157.779 369.214 159.817 368.162Z" fill="#F2F2F2"/>
<path d="M181.598 363.872C181.971 363.672 182.344 363.446 182.744 363.326C183.73 363.046 185.901 363.952 186.261 364.978C186.474 365.564 186.354 366.483 186.008 367.003C185.222 368.188 183.357 368.495 182.051 367.789C180.959 367.189 179.92 366.483 178.494 365.604C179.826 364.858 180.719 364.352 181.598 363.872Z" fill="#F2F2F2"/>
<path d="M177.642 399.121C176.35 399.854 175.084 400.574 173.738 401.333C172.579 400.68 171.514 400.067 170.328 399.388C174.911 396.337 175.564 396.55 177.642 399.121Z" fill="#F2F2F2"/>
<path d="M180.586 371.759C182.544 370.786 183.983 370.054 185.941 369.081C185.595 371.266 185.342 372.798 184.982 375.089C183.29 373.81 182.104 372.918 180.586 371.759Z" fill="#F2F2F2"/>
<path d="M175.763 357.544C179.88 355.013 184.09 352.709 188.699 351.177C184.569 353.641 180.399 356.066 175.763 357.544Z" fill="#B7B7B7"/>
<path d="M180.373 397.536C178.934 398.109 177.962 397.03 176.776 395.884C178.468 395.072 179.84 394.392 181.438 393.62C181.585 395.365 182.011 396.897 180.373 397.536Z" fill="#F2F2F2"/>
<path d="M43.0919 307.721C44.544 308.32 45.7563 308.813 47.2883 309.439C45.663 310.878 44.131 311.131 42.0928 310.958C42.4525 309.812 42.7322 308.867 43.0919 307.721Z" fill="#8BDBE8"/>
<path d="M153.449 350.484C154.235 349.724 154.981 348.765 156.567 350.257C155.474 350.684 154.608 351.017 153.743 351.35C153.649 351.057 153.556 350.763 153.449 350.484Z" fill="#B7B7B7"/>
<path d="M184.689 377.061C184.343 378.18 184.143 378.833 183.89 379.672C183.237 379.139 182.837 378.819 181.998 378.14C182.984 377.754 183.597 377.5 184.689 377.061Z" fill="#F2F2F2"/>
<path d="M185.781 362.061C185.968 361.768 186.407 361.648 186.741 361.448C186.874 361.674 187.14 361.927 187.1 362.127C187.047 362.434 186.78 362.713 186.434 363.26C186.088 362.647 185.701 362.207 185.781 362.061Z" fill="#F2F2F2"/>
<path d="M153.516 355.04C153.356 355.812 153.196 356.572 153.037 357.331C152.85 357.278 152.664 357.238 152.477 357.184C152.664 356.438 152.85 355.679 153.037 354.933C153.196 354.973 153.356 355.013 153.516 355.04Z" fill="#EDD8C5"/>
<path d="M71.8669 118.899C71.5072 118.765 71.0542 118.739 70.8011 118.499C67.1243 115.155 66.6448 109.84 70.0285 106.216C71.5738 104.564 73.652 103.259 75.7302 102.3C79.5935 100.501 83.8032 100.435 87.9463 101.074C92.449 101.767 96.5654 103.405 99.7626 106.842C101.921 109.16 102.933 111.851 102.4 115.035C101.921 117.926 99.9225 120.244 97.2715 120.817C97.7111 118.872 100.309 118.179 100.202 115.768C90.2642 119.338 80.566 119.618 70.4281 115.488C71.2807 116.82 71.7736 117.606 72.2665 118.379C72.1333 118.552 72.0001 118.725 71.8669 118.899ZM97.9242 107.122C92.0627 101.634 80.4461 100.581 73.7053 104.924C71.6671 106.23 70.1484 107.908 69.4689 110.319C69.0426 111.798 69.3357 112.93 70.7212 113.49C73.3589 114.556 75.9833 115.835 78.7542 116.394C85.0154 117.66 91.25 117.207 97.3247 115.102C98.124 114.835 98.9233 114.502 99.696 114.156C100.069 113.983 100.415 113.73 100.962 113.383C101.028 110.612 99.6561 108.747 97.9242 107.122Z" fill="black"/>
<path d="M120.385 120.763C116.575 117.819 115.882 112.384 118.826 108.534C120.425 106.443 122.556 105.057 125.008 104.204C131.362 102.006 137.57 102.499 143.511 105.617C145.989 106.922 148.041 108.787 149.293 111.372C151.225 115.341 149.813 120.244 146.069 122.549C145.776 122.722 145.31 122.642 144.284 122.762C145.55 121.256 146.429 120.204 147.441 118.992C142.539 119.151 137.916 119.484 133.307 119.418C128.618 119.351 124.035 118.312 118.933 116.434C120.118 118.219 120.851 119.338 121.917 120.95C120.958 120.83 120.585 120.91 120.385 120.763ZM146.735 117.007C148.72 116.674 149 116.061 148.64 114.142C148.187 111.718 146.815 109.88 144.937 108.361C139.382 103.885 129.75 103.059 123.515 106.536C121.517 107.641 119.839 109.08 118.959 111.265C118.2 113.157 118.32 114.129 120.185 114.928C122.703 115.994 125.381 116.727 128.045 117.38C129.79 117.806 131.628 117.859 133.427 118.006C134.479 118.086 135.545 118.019 136.611 118.019C136.624 118.126 136.637 118.246 136.651 118.352C140.008 117.913 143.392 117.566 146.735 117.007Z" fill="black"/>
<path d="M124.621 92.2683C131.388 92.0285 138.182 92.4015 144.963 92.5747C149.679 92.7079 152.277 99.5153 149.932 104.111C149.173 103.512 148.374 103.006 147.707 102.366C145.403 100.155 142.698 99.3288 139.541 99.5819C135.625 99.9016 131.695 100.101 127.765 100.248C124.941 100.341 122.116 100.261 119.305 100.261C118.373 94.7861 119.692 92.4281 124.621 92.2683ZM132.92 98.3696C135.252 98.2231 137.583 98.0366 139.914 97.9434C142.512 97.8368 145.003 98.1965 147.121 99.9017C147.601 100.275 148.134 100.581 148.707 100.967C149.439 96.6911 147.907 94.2133 144.004 94.0134C137.65 93.6937 131.295 93.5738 124.941 93.6937C121.144 93.7603 120.451 94.866 120.664 99.169C124.901 98.8892 128.91 98.6228 132.92 98.3696Z" fill="black"/>
<path d="M74.5713 91.2556C81.7651 89.6969 88.9588 90.7094 96.1259 91.6019C98.324 91.8684 99.11 93.1739 99.0434 95.4519C99.0167 96.5043 98.8169 97.5567 98.6038 98.5958C98.2974 100.075 97.3382 100.741 95.8328 100.594C94.0344 100.408 92.236 100.248 90.4508 100.035C86.1213 99.5017 81.805 98.9555 77.4888 98.396C74.8378 98.0497 72.4398 98.5426 70.3217 100.261C69.549 100.901 68.6165 101.34 67.3643 102.113C67.0179 96.5843 70.0553 92.2414 74.5713 91.2556ZM92.8221 92.681C88.9189 92.4412 85.0022 92.1348 81.0856 92.0149C79.4071 91.9616 77.7019 92.2547 76.0234 92.4279C72.28 92.8142 70.1352 94.9857 69.1227 98.6225C69.4691 98.6758 69.8554 98.8623 69.9886 98.7557C72.5198 96.6642 75.4639 96.7042 78.4613 97.0772C82.8708 97.6234 87.2803 98.2228 91.7031 98.7424C93.355 98.9422 95.0335 98.9955 96.8053 99.1287C98.2174 93.5869 97.7912 92.9741 92.8221 92.681Z" fill="black"/>
<path d="M125.86 162.367C115.349 166.151 104.665 166.59 93.9544 163.46C91.4633 162.74 89.2119 161.182 86.9073 159.889C86.4277 159.623 86.2412 158.85 85.6816 157.891C101.215 166.657 116.242 165.524 131.375 158.437C130.043 160.489 129.164 161.182 125.86 162.367Z" fill="black"/>
<path d="M112.165 111.971C112.671 112.81 113.271 113.61 113.657 114.502C116.481 121.097 117.174 128.024 116.548 135.098C116.295 137.989 115.229 139.134 112.351 139.374C109.301 139.64 106.21 139.507 103.133 139.494C102.733 139.494 102.32 139.174 101.907 139.001C102.547 138.348 103.106 138.135 103.666 138.122C105.997 138.082 108.342 138.188 110.673 138.095C114.23 137.949 114.989 137.256 115.162 133.779C115.495 127.025 114.949 120.404 111.978 114.169C111.712 113.596 111.659 112.917 111.499 112.278C111.725 112.184 111.952 112.078 112.165 111.971Z" fill="black"/>
<path d="M87.0805 151.67C84.8159 152.269 83.0174 153.535 81.9384 155.64C80.2199 159.01 80.6462 162.207 82.8576 165.218C83.3638 165.884 83.8301 166.577 84.3096 167.256C80.2065 165.964 78.4348 160.995 79.9401 156.452C81.3789 152.15 85.4553 149.592 89.4119 151.11C88.6259 151.297 87.8532 151.47 87.0805 151.67Z" fill="black"/>
<path d="M138.542 155.826C139.861 159.769 138.582 164.778 136.105 165.684C136.557 163.393 137.25 161.075 137.45 158.717C137.663 156.226 136.597 153.895 134.373 152.802C132.295 151.79 129.857 151.497 127.086 150.751C132.308 148.992 136.984 151.23 138.542 155.826Z" fill="black"/>
<path d="M244.264 325.132C241.653 321.229 242.745 316.433 246.928 314.355C248.38 318.591 247.075 323.614 244.264 325.132ZM246.329 317.179C244.37 319.071 244.344 319.138 244.557 322.135C244.77 322.162 244.996 322.201 245.223 322.228C245.556 320.669 245.902 319.111 246.329 317.179Z" fill="black"/>
<path d="M99.6828 114.156C98.9101 114.502 98.1108 114.822 97.3115 115.102C91.2368 117.207 85.0022 117.673 78.741 116.394C75.9834 115.835 73.3457 114.569 70.708 113.49C69.3225 112.93 69.0427 111.798 69.4557 110.319C70.1351 107.895 71.6671 106.23 73.692 104.924C80.4328 100.594 92.0494 101.634 97.911 107.122C99.6561 108.747 101.028 110.612 100.962 113.383C100.415 113.73 100.069 113.996 99.6828 114.156ZM84.8823 111.665C85.9081 111.905 86.2678 110.972 86.3077 110.066C86.361 108.987 85.3619 107.775 84.4427 108.041C83.6967 108.254 83.0972 109.027 81.9648 109.906C83.257 110.719 84.0031 111.465 84.8823 111.665Z" fill="white"/>
<path d="M136.611 118.019C135.558 118.019 134.479 118.086 133.427 118.006C131.628 117.859 129.79 117.806 128.045 117.38C125.381 116.74 122.703 116.008 120.185 114.928C118.32 114.116 118.2 113.157 118.959 111.265C119.839 109.08 121.531 107.641 123.515 106.536C129.75 103.059 139.382 103.898 144.937 108.361C146.815 109.879 148.201 111.718 148.64 114.142C148.987 116.061 148.72 116.66 146.735 117.007C143.392 117.579 140.008 117.913 136.651 118.352C136.637 118.232 136.624 118.126 136.611 118.019ZM131.469 109.027C131.136 109.946 130.35 111.012 130.603 111.665C130.882 112.397 132.108 112.757 132.947 113.29C134.266 110.466 134.266 110.466 131.469 109.027Z" fill="white"/>
<path d="M124.941 93.6936C131.295 93.5737 137.663 93.6936 144.004 94.0133C147.908 94.2131 149.44 96.6909 148.707 100.967C148.147 100.594 147.601 100.288 147.122 99.9015C145.003 98.1963 142.512 97.8366 139.915 97.9432C137.583 98.0364 135.252 98.2229 132.921 98.3695C128.911 98.6226 124.914 98.889 120.665 99.1688C120.438 94.8659 121.131 93.7735 124.941 93.6936Z" fill="#8D7958"/>
<path d="M91.6898 98.7292C87.2669 98.2097 82.8708 97.6102 78.4479 97.064C75.4505 96.7043 72.5064 96.651 69.9753 98.7426C69.8421 98.8624 69.4557 98.676 69.1094 98.6093C70.1218 94.9725 72.2666 92.7877 76.01 92.4147C77.7019 92.2549 79.3938 91.9485 81.0723 92.0018C84.9889 92.1216 88.8922 92.428 92.8088 92.6678C97.7911 92.9742 98.2041 93.587 96.8053 99.1289C95.0335 98.9957 93.3683 98.9424 91.6898 98.7292Z" fill="#8D7958"/>
<path d="M244.557 322.135C244.344 319.137 244.357 319.071 246.329 317.179C245.902 319.111 245.569 320.669 245.223 322.228C244.996 322.201 244.77 322.175 244.557 322.135Z" fill="#F2F2F2"/>
<path d="M84.4427 108.041C85.3752 107.775 86.361 108.987 86.3077 110.066C86.2678 110.985 85.9081 111.904 84.8823 111.665C84.0031 111.465 83.2571 110.719 81.9648 109.906C83.0972 109.027 83.6967 108.254 84.4427 108.041Z" fill="black"/>
<path d="M130.603 111.665C130.35 111.012 131.122 109.959 131.469 109.027C134.266 110.479 134.266 110.479 132.947 113.29C132.108 112.757 130.882 112.397 130.603 111.665Z" fill="black"/>
</g>
<defs>
<clipPath id="clip0">
<rect width="302" height="680" fill="white"/>
</clipPath>
</defs>
</svg>
