<svg width="330" height="800" viewBox="0 0 330 800" fill="none" xmlns="http://www.w3.org/2000/svg">
<path d="M180.712 314.196C179.708 313.871 178.663 313.64 177.55 313.451C177.55 315.591 177.55 318.3 177.55 320.59C177.862 321.091 178.296 321.741 179.477 321.145C179.721 321.023 180.752 322.418 181.933 323.651C181.811 321.104 181.729 319.357 182.571 317.582C183.195 316.241 182.082 314.643 180.712 314.196ZM179.585 318.707C179.409 317.528 179.233 316.35 179.056 315.171C180.834 316.065 181.173 317.217 179.585 318.707Z" fill="#C73E41"/>
<path d="M177.549 313.437C177.536 313.437 177.523 313.437 177.523 313.437C177.536 313.45 177.549 313.45 177.549 313.463C177.549 313.463 177.549 313.45 177.549 313.437Z" fill="black"/>
<path d="M177.55 314.372C177.55 314.074 177.55 313.749 177.55 313.464C177.537 313.451 177.523 313.451 177.523 313.437C176.275 313.22 174.958 313.017 173.479 312.733C175.148 315.171 175.148 315.185 172.679 316.458C172.76 316.756 172.814 317.068 172.869 317.366C173.52 317.515 174.578 317.447 174.904 317.907C175.895 319.303 174.429 319.926 173.791 321.199C174.891 320.901 175.99 320.603 177.319 320.237C177.401 320.319 177.469 320.441 177.55 320.576C177.55 319.587 177.55 318.531 177.55 317.474C177.184 317.244 176.749 317.013 176.193 316.797C175.379 315.984 176.994 315.185 177.55 314.372Z" fill="#C73E41"/>
<path d="M176.193 316.797C176.749 317.013 177.183 317.244 177.55 317.474C177.55 316.404 177.55 315.347 177.55 314.358C176.993 315.184 175.378 315.984 176.193 316.797Z" fill="#AEE8E2"/>
<path d="M328.467 337.388C327.531 334.312 326.024 331.63 324.111 329.111C314.179 316.065 303.608 303.589 291.721 292.25C288.736 289.405 285.792 286.533 282.901 283.594C282.291 282.971 281.517 281.873 281.694 281.21C282.277 278.88 281.355 277.254 279.903 275.656C278.451 274.043 277.135 272.323 275.723 270.67C268.396 262.095 261.014 253.574 253.741 244.959C247.649 237.766 241.841 230.315 234.839 223.934C230.687 220.155 226.06 217.297 220.741 215.454C212.124 212.46 203.169 211.756 194.172 211.322C192.381 211.241 191.174 210.848 190.074 209.372C187.401 205.795 186.519 201.759 186.682 197.437C186.709 196.584 187.211 195.527 187.849 194.945C194.471 188.903 199.41 181.466 204.987 174.543C208.61 170.046 210.835 164.939 212.07 159.385C215.083 145.811 216.684 132.075 216.874 118.176C216.901 116.496 217.321 114.762 217.878 113.164C218.678 110.82 219.872 108.598 220.714 106.255C222.057 102.489 223.59 98.7499 224.445 94.862C225.965 87.9804 226.372 80.9361 226.291 73.8783C226.223 68.1752 224.69 63.0003 220.714 58.6925C219.099 56.945 217.634 55.062 216.073 53.2468C214.309 51.2012 214.296 50.7406 216.426 49.1828C219.072 47.2456 220.456 44.7259 220.442 41.4341C220.442 40.9735 220.578 40.5265 220.741 39.4021C222.098 41.2851 223.048 42.5991 224.079 44.0351C226.019 40.391 225.246 34.2273 222.328 31.7482C219.547 29.3911 216.534 27.3456 214.648 24.0944C214.255 23.4035 213.291 23.0513 212.613 22.5094C212.369 22.3198 212.206 22.0353 211.907 21.6966C212.301 20.9651 212.694 20.2607 213.142 19.4479C215.083 20.1117 216.847 20.7077 218.583 21.3038C218.801 20.8026 218.99 20.5994 218.95 20.4233C218.868 20.0033 218.733 19.5834 218.543 19.2041C216.114 14.3815 212.165 11.618 206.846 10.9542C205.381 10.7781 204.281 10.4123 203.114 9.43693C198.284 5.34584 192.978 3.66607 186.94 6.89017C186.764 6.985 186.519 6.93082 186.316 6.95791C179.382 -1.50874 173.805 -0.208265 167.78 5.72516C164.402 5.65743 162.448 3.39514 160.304 0.252319C159.747 2.62298 159.354 4.32984 159.069 5.56259C155.785 6.06381 152.732 6.53796 149.462 7.03919C148.756 5.72516 148.363 3.54416 145.785 3.46288C145.093 5.83354 145.866 8.67832 143.193 10.2904C142.596 9.93816 141.958 9.55886 141.307 9.1931C137.494 7.05273 133.735 7.36429 130.329 9.92461C128.809 11.0625 127.71 12.7559 126.435 14.2189C125.987 14.7337 125.566 15.2755 125.119 15.8445C122.893 13.4874 123.219 10.9677 123.843 8.1771C122.473 8.67833 121.224 9.22018 120.247 10.0736C117.642 12.3224 116.679 15.3704 116.706 18.6215C105.335 21.3715 99.0793 28.2532 100.911 36.0832C102.444 34.566 103.883 33.13 105.498 31.5315C105.972 34.5795 106.366 37.1127 106.787 39.7949C103.326 40.7026 100.667 42.5856 99.7578 46.4464C98.9029 50.0769 99.6085 53.2739 101.861 56.078C97.6003 62.743 98.6858 71.2638 103.991 72.036C103.991 70.7355 103.991 69.4621 104.005 68.1887C104.005 68.1345 104.168 68.0803 104.453 67.9313C104.941 68.27 105.511 68.6628 106.244 69.1776C98.8758 82.5211 97.9938 96.0135 105.05 109.641C104.385 110.075 104.059 110.346 103.679 110.522C100.572 112.026 99.12 114.586 98.4958 117.905C97.4781 123.229 98.3466 128.227 100.504 133.104C101.929 136.315 104.358 138.279 107.777 139.011C109.663 139.417 111.563 139.783 113.49 140.176C113.775 141.72 114.005 143.102 114.277 144.483C115.118 148.723 115.892 152.991 116.855 157.204C119.61 169.369 125.661 179.474 135.675 187.101C138.864 189.526 142.094 191.91 145.242 194.389C145.934 194.931 146.775 195.798 146.816 196.557C147.033 200.499 146.544 204.332 144.238 207.746C143.139 209.385 141.741 210.388 139.733 210.537C137.467 210.699 135.187 210.862 132.921 211.092C127.751 211.634 122.527 211.919 117.425 212.84C108.551 214.438 101.006 218.976 94.2079 224.693C88.1561 229.8 82.0364 234.867 76.4594 240.448C66.9067 250.025 57.7475 260.009 48.4526 269.79C49.2396 271.51 49.8502 272.851 50.4744 274.233C49.8366 274.761 49.2939 275.127 48.8461 275.574C37.3258 287.048 25.7648 298.495 14.3124 310.05C11.1915 313.207 8.54549 316.837 5.39743 319.953C-0.898683 326.184 -0.0709548 332.863 3.72843 339.839C4.35261 340.977 5.00394 342.115 5.75025 343.172C9.2104 348.022 12.467 353.047 16.2528 357.64C34.9376 380.317 53.7853 402.858 73.6777 424.492C78.8069 430.074 84.126 435.479 89.4723 440.857C90.8835 442.266 92.0776 443.647 92.7153 445.571C94.1808 449.933 96.5826 453.55 101.481 455.135C100.423 556.369 99.3507 657.535 98.2923 758.593C99.5949 759.27 100.545 759.758 101.82 760.408C100.816 761.465 99.9749 762.413 99.0522 763.294C91.9555 770.067 84.126 775.906 75.5774 780.674C70.5297 783.478 68.5079 787.759 67.9787 793.096C67.6394 796.51 68.1415 797.255 71.5202 798.19C76.3644 799.531 81.3444 800.086 86.3378 799.558C90.5307 799.111 94.7372 798.434 98.8215 797.404C107.641 795.183 116.353 792.473 125.2 790.346C129.569 789.303 132.351 786.906 133.979 782.964C136.91 775.865 138.104 768.631 135.038 761.059C136.761 759.541 138.525 758.688 138.647 756.101C139.271 742.798 140.167 729.509 140.94 716.219C141.619 704.542 142.243 692.878 142.894 681.201C143.546 669.524 144.197 657.847 144.848 646.17C145.717 630.496 146.599 614.823 147.454 599.136C148.173 586.05 148.838 572.964 149.557 559.891C150.14 549.189 150.792 538.487 151.389 527.786C151.945 517.626 152.447 507.452 152.99 497.292C153.03 496.547 153.234 495.829 153.41 494.732C157.386 494.109 161.348 493.485 165.311 492.876C165.514 493.648 165.65 493.946 165.677 494.258C166.518 506.463 167.373 518.669 168.187 530.874C168.744 539.192 169.219 547.523 169.775 555.841C170.738 569.983 171.783 584.14 172.747 598.282C173.303 606.491 173.751 614.714 174.321 622.924C175.515 640.317 176.763 657.698 177.957 675.092C178.744 686.539 179.409 697.999 180.183 709.446C181.2 724.564 182.326 739.682 183.29 754.814C183.453 757.306 183.575 759.569 186.343 760.476C183.751 768.184 184.932 775.405 188.107 782.422C189.667 785.863 192.218 787.976 196.072 788.924C204.064 790.888 211.962 793.245 219.913 795.399C226.101 797.066 232.37 798.393 238.815 798.393C243.035 798.393 247.255 797.973 251.299 796.551C252.751 796.036 253.891 795.305 253.809 793.598C253.551 788.111 252.479 783.018 247.092 780.051C246.142 779.523 245.233 778.94 244.311 778.371C236.237 773.427 228.638 767.873 221.867 761.221C220.89 760.259 219.642 759.419 219.832 757.645C220.687 757.144 221.596 756.602 222.328 756.168C222.139 753.92 221.867 751.901 221.813 749.883C221.419 735.157 221.08 720.432 220.727 705.694C220.293 687.609 219.859 669.524 219.438 651.439C218.99 632.704 218.57 613.969 218.122 595.234C217.688 577.041 217.254 558.848 216.833 540.655C216.385 521.811 215.965 502.968 215.517 484.125C215.313 475.346 215.083 466.582 214.893 457.804C214.865 456.842 214.648 455.406 215.178 454.986C217.634 452.981 217.077 450.285 217.118 447.779C217.403 430.995 217.525 414.197 217.905 397.413C218.176 385.288 218.801 373.178 219.221 361.053C219.303 358.805 219.235 356.556 219.235 354.361C220.28 353.942 221.012 353.725 221.664 353.373C224.242 352.018 226.874 350.758 229.357 349.227C231.108 348.144 231.922 346.437 231.705 344.229C231.528 342.427 231.664 340.598 231.664 339.027C233.822 338.133 235.558 337.293 237.377 336.697C238.096 336.466 239.059 336.561 239.765 336.859C240.538 337.184 241.122 337.916 241.814 338.444C245.03 340.883 247.459 340.923 250.675 338.525C252.221 337.374 253.687 336.101 255.18 334.895C257.256 335.586 259.21 336.209 261.15 336.9C273.077 341.194 284.95 345.719 297.434 348.171C304.124 349.485 310.922 350.203 317.666 351.178C323.609 351.977 330.543 344.242 328.467 337.388ZM280.011 280.478C279.401 279.936 278.912 279.503 278.342 279.002C280.147 278.297 280.147 278.297 280.011 280.478ZM224.744 72.6862C224.879 85.3387 223.821 97.7881 217.701 109.249C217.552 109.52 217.416 109.804 217.281 110.088C217.104 110.007 216.928 109.926 216.752 109.858C216.752 108.829 216.752 107.799 216.752 106.756C216.684 94.9569 216.643 83.1577 216.507 71.3586C216.48 68.6628 216.29 65.9264 215.775 63.2848C215.34 61.1038 214.377 59.0041 213.549 56.9179C213.006 55.5632 212.925 55.6039 214.323 53.6803C219.655 59.0718 224.649 64.5582 224.744 72.6862ZM104.086 65.2762C104.385 64.4092 104.724 63.4609 105.131 62.2959C102.906 63.4609 102.906 63.4609 102.214 68.5951C100.016 65.7774 99.7171 61.8218 101.942 58.828C103.354 56.9315 103.381 55.631 102.024 53.6667C99.8935 50.5916 100.396 47.205 102.282 44.1705C104.005 41.3799 106.854 40.9193 109.745 42.5585C110.165 42.8023 110.708 42.8159 111.278 42.9513C110.016 40.689 108.741 38.6977 107.75 36.5573C106.678 34.2273 107.533 31.9244 108.564 29.5943C105.932 28.5919 104.697 30.8948 102.906 31.5451C103.408 25.2594 109.324 20.938 118.103 20.4639C118.225 18.7841 118.063 17.0095 118.538 15.4246C119.012 13.8532 120.125 12.4578 121.346 10.3039C122.405 13.7448 122.663 16.7928 125.919 18.3642C127.588 14.9911 129.271 11.6992 132.88 10.0872C136.775 8.35321 140.058 9.65367 143.044 12.1869C145.757 10.9135 146.382 8.47513 147.047 5.99609C149.543 8.43449 146.341 10.2904 146.436 12.8371C148.227 11.1709 149.53 9.38276 151.28 8.50223C153.031 7.63524 155.283 7.22884 157.223 7.45913C159.205 7.67588 161.063 8.90861 163.18 9.77559C162.217 7.96034 161.348 6.33475 160.181 4.12665C163.262 5.56259 165.623 6.65987 168.025 7.78424C170.833 4.99363 173.303 2.06757 177.523 2.52816C181.662 2.97519 183.602 6.28057 185.868 9.27437C194.389 3.7338 200.401 8.02809 205.91 14.4492C206.208 13.9886 206.425 13.7719 206.48 13.5145C206.561 13.2165 206.493 12.8778 206.493 12.5527C210.971 12.8913 214.296 14.964 216.182 18.6486C213.21 18.3506 210.252 17.5243 207.335 19.3124C208.488 19.4208 209.655 19.5156 211.12 19.6511C210.523 20.6807 210.021 21.5341 209.343 22.6855C213.414 24.0808 215.883 26.8444 216.616 31.3419C214.974 30.502 213.576 29.6079 212.043 29.0525C210.51 28.4971 208.8 27.8875 207.362 29.4453C209.424 30.0143 211.527 30.231 213.251 31.1522C214.988 32.0869 216.331 33.7261 218.339 35.4871C218.488 33.7261 218.597 32.4527 218.719 31.0032C222.681 32.7643 223.631 35.9748 223.658 40.0659C221.989 38.928 220.524 37.9391 219.113 36.9772C217.579 38.061 218.543 39.1041 218.746 40.0523C219.506 43.4932 218.434 46.0535 215.178 48.0448C214.119 46.8798 214.336 44.7666 212.043 43.5338C212.586 45.6336 213.237 47.1101 213.278 48.5867C213.305 50.1581 213.034 51.865 212.369 53.2738C211.69 54.6962 210.455 55.8748 209.316 57.0263C208.189 58.1777 206.832 59.0176 204.512 59.1125C206.113 56.7147 207.416 54.8453 206.887 52.1088C202.545 52.9487 198.216 53.6396 194.797 49.7924C195.041 48.668 195.271 47.5707 195.502 46.4735C195.299 46.3651 195.095 46.2567 194.878 46.1619C194.484 46.785 193.942 47.354 193.711 48.0313C192.273 52.0682 188.433 53.0165 184.606 51.1877C183.548 50.6729 182.544 50.0362 181.404 49.4131C174.701 53.179 167.78 54.046 160.249 50.8626C162.054 48.1261 165.202 46.5547 165.881 43.3984C165.663 43.2358 165.446 43.0868 165.229 42.9242C164.564 43.7099 163.872 44.4956 163.221 45.2949C160.982 48.0178 158.404 50.2665 155.052 51.5534C151.904 52.7591 148.905 52.6643 146.07 50.7C145.635 50.402 145.147 50.1581 144.862 49.9956C142.406 52.4611 140.235 55.0078 137.684 57.1211C135.106 59.275 131.822 59.7898 129.189 59.6814C127.235 61.4154 125.946 63.3119 124.223 63.8809C122.513 64.4498 120.369 63.6641 118.158 63.4474C118.918 65.2897 120.817 65.0052 121.876 65.94C117.099 70.2342 108.985 70.004 104.086 65.2762ZM103.462 79.5272C104.643 76.1948 106.054 72.9436 107.384 69.5976C113.232 70.7219 114.521 70.6406 121.143 68.8931C120.844 72.9436 120.166 77.0211 120.369 81.0445C120.559 84.9865 121.658 88.8744 122.378 92.952C115.729 100.01 115.24 100.999 112.662 112.337C110.79 111.457 108.822 110.671 107.031 109.601C106.285 109.154 105.769 108.151 105.403 107.284C101.576 98.2622 100.07 89.037 103.462 79.5272ZM128.348 177.876C122.215 171.116 119.8 162.663 117.669 154.129C116.421 149.103 115.661 143.969 114.67 138.753C112.255 138.306 110.016 137.94 107.791 137.466C105.199 136.911 103.286 135.421 102.105 133.023C99.5949 127.889 98.6994 122.538 100.165 116.943C100.463 115.819 100.993 114.667 101.712 113.76C104.426 110.278 108.32 110.265 111.102 113.651C111.902 114.627 112.54 115.737 113.748 117.512C113.978 115.643 114.168 114.545 114.236 113.434C114.684 105.984 117.099 99.4543 123.056 94.6182C124.508 93.4396 124.128 92.3559 123.694 90.9064C121.699 84.3905 120.912 77.7797 122.703 71.0741C123.097 69.6111 123.572 68.1752 124.128 66.7799C124.345 66.2109 124.82 65.6961 125.281 65.2762C126.679 64.0028 128.131 62.77 130.071 61.1038C136.3 61.158 141.049 57.3243 144.889 51.7973C149.068 54.344 153.18 54.3034 157.373 52.1766C158.024 51.8515 159.11 51.8921 159.788 52.2037C166.817 55.3465 173.696 54.8859 180.481 51.4992C180.766 51.3502 181.092 51.2825 181.58 51.1199C185.488 53.4364 189.586 54.9672 193.86 51.0387C197.117 53.9783 200.957 54.6827 205.272 53.8428C205.462 56.9179 202.884 58.11 201.418 59.8982C204.119 61.6999 206.249 61.1038 211.704 57.1888C214.065 59.7491 214.445 63.0003 214.594 66.1838C214.947 73.2145 215.191 80.2452 215.218 87.2895C215.273 100.294 215.381 113.299 215.042 126.29C214.77 136.681 213.183 146.99 211.134 157.177C209.899 163.273 207.606 168.962 203.603 173.893C198.27 180.45 193.67 187.602 187.334 193.305C185.502 194.958 183.466 196.448 181.363 197.749C180.115 198.521 178.581 199.117 177.116 199.252C171.39 199.794 165.596 200.566 159.937 199.32C156.504 198.562 153.126 197.085 150.018 195.378C141.782 190.84 134.658 184.825 128.348 177.876ZM148.363 196.57C160.561 202.747 172.624 203.073 185.067 197.925C185.366 203.235 186.546 208.315 190.563 212.488C190.142 212.921 189.857 213.368 189.45 213.625C177.455 221.361 164.781 223 151.402 217.703C148.173 216.43 145.31 214.506 142.718 211.621C147.264 207.706 148.349 202.517 148.363 196.57ZM95.4156 448.131C95.1035 447.562 94.7372 446.98 94.615 446.357C93.7873 442.496 90.9106 440.274 88.2511 437.687C83.6647 433.244 79.4311 428.448 75.1025 423.734C54.8437 401.693 35.6704 378.732 16.6327 355.662C12.7791 351.002 9.59033 345.8 6.13018 340.828C5.57384 340.029 5.15318 339.135 4.69183 338.282C1.38094 332.145 1.25883 326.469 6.46941 321.077C13.3897 313.911 19.9301 306.352 26.8775 299.213C34.137 291.749 41.6815 284.583 49.1175 277.295C49.6467 276.78 50.2844 276.373 51.275 275.628C55.8613 283.296 61.7233 289.744 67.8701 295.84C60.8684 302.884 54.0159 309.82 47.1228 316.702C43.2148 320.617 39.2526 324.464 35.3176 328.352C33.5536 330.086 33.5671 330.099 31.3825 329.937C35.2497 341.004 93.1088 421.607 104.683 431.97C105.484 431.659 106.42 431.415 107.262 430.954C113.246 427.703 119.881 426.43 126.34 424.601C128.877 423.883 131.171 424.398 133.545 425.495C140.221 428.556 146.11 432.769 151.66 437.484C153.668 439.191 155.799 440.897 156.586 444.203C155.337 443.742 154.455 443.471 153.614 443.105C147.657 440.505 141.7 437.944 135.784 435.248C134.495 434.666 133.409 433.636 131.727 433.189C132.093 433.853 132.378 434.598 132.853 435.181C136.096 439.109 139.488 442.916 142.637 446.912C144.767 449.621 146.762 452.493 148.444 455.501C149.625 457.614 150.507 460.052 149.028 463.195C146.639 457.302 143.03 452.764 139.258 448.335C135.58 444.027 131.645 440.017 127.683 436.007C127.398 436.237 127.127 436.468 126.842 436.698C127.263 437.321 127.629 437.998 128.131 438.554C132.527 443.485 137.087 448.28 141.32 453.36C143.383 455.826 144.916 458.752 146.572 461.542C147.074 462.396 147.182 463.48 147.508 464.55C145.459 465.092 144.428 463.981 143.437 463.1C141.402 461.312 139.583 459.28 137.534 457.519C134.196 454.62 130.723 451.857 127.344 448.985C126.543 448.294 125.906 447.4 125.214 446.587C124.494 445.734 123.816 444.839 123.11 443.972C122.853 444.135 122.595 444.298 122.337 444.46C122.635 445.124 122.866 445.842 123.26 446.465C126.272 451.22 129.393 455.907 132.31 460.716C133.423 462.545 134.224 464.618 134.902 466.65C135.323 467.896 135.268 469.305 135.458 470.998C133.355 470.632 132.69 469.332 131.917 468.275C129.081 464.441 126.245 460.608 123.545 456.693C121.903 454.322 119.867 453.32 116.95 453.482C112.838 453.699 108.7 453.496 104.588 453.645C100.246 453.807 97.3696 451.775 95.4156 448.131ZM68.9963 296.964C71.1674 298.265 72.9993 299.376 75.0347 300.595C83.9225 293.429 92.8239 286.263 101.739 279.083C101.97 279.191 102.2 279.286 102.431 279.394C103.218 326.659 100.558 373.828 97.8038 421.431C90.8428 415.538 43.2963 348.713 34.0556 331.928C45.3859 320.088 57.6253 308.98 68.9963 296.964ZM137.589 460.066C135.024 460.675 133.423 460.012 132.432 457.722C131.754 456.151 130.736 454.729 129.881 453.238C130.099 453.008 130.316 452.764 130.533 452.534C132.853 454.999 135.16 457.465 137.589 460.066ZM122.201 458.074C118.823 457.262 115.769 456.517 112.092 455.636C118.076 454.214 120.356 454.756 122.201 458.074ZM135.092 766.802C135.608 772.722 134.78 778.453 131.89 783.763C130.655 786.025 129.013 787.732 126.381 788.423C116.869 790.943 107.411 793.693 97.8581 796.063C93.6788 797.106 89.3366 797.892 85.0487 798.014C80.883 798.136 76.6494 797.499 72.5108 796.795C69.3627 796.253 69.0642 795.44 69.5934 792.229C70.3397 787.759 72.2801 784.278 76.5137 781.893C86.4599 776.285 95.4292 769.349 103.449 760.977C113.3 764.445 123.246 765.637 133.654 761.763C134.169 763.578 134.943 765.163 135.092 766.802ZM237.811 775.96C240.335 777.653 242.832 779.414 245.518 780.783C250.268 783.207 251.733 787.393 252.33 792.216C252.547 793.95 251.842 794.803 250.213 795.25C245.369 796.605 240.457 797.174 235.436 796.7C228.177 796.009 221.175 794.207 214.214 792.067C208.325 790.252 202.314 788.775 196.303 787.366C193.168 786.635 191.065 784.901 189.708 782.124C186.723 776.001 185.624 769.634 187.279 762.914C187.388 762.495 187.564 762.102 187.754 761.722C187.849 761.533 188.039 761.397 188.405 761.004C198.392 763.605 208.027 762.468 217.525 758.729C223.563 765.38 230.416 770.988 237.811 775.96ZM215.978 569.617C216.412 588.352 216.86 607.088 217.294 625.823C217.729 644.016 218.149 662.209 218.583 680.402C219.018 699.137 219.438 717.872 219.913 736.607C220.062 742.771 220.334 748.934 220.565 755.274C215.992 758.2 210.822 759.772 205.435 760.463C199.492 761.221 193.548 761.14 187.741 759.135C185.692 758.431 184.891 757.347 184.782 755.152C184.158 743.583 183.398 732.028 182.611 720.473C181.607 705.68 180.522 690.887 179.518 676.094C178.351 658.917 177.252 641.74 176.112 624.576C175.257 611.72 174.375 598.878 173.506 586.023C172.638 573.275 171.77 560.541 170.915 547.794C169.829 531.7 168.744 515.607 167.645 499.514C167.495 497.36 167.278 495.206 167.088 492.957C168.16 492.51 169.096 492.131 170.779 491.426C169.517 491.115 168.988 490.817 168.499 490.898C163.682 491.643 158.879 492.51 154.062 493.228C152.189 493.499 151.551 494.434 151.47 496.249C151.022 505.989 150.52 515.715 149.964 525.442C149.204 538.948 148.376 552.454 147.616 565.973C147.074 575.7 146.612 585.44 146.07 595.167C145.296 608.889 144.455 622.612 143.695 636.348C143.139 646.4 142.691 656.465 142.134 666.517C141.388 679.806 140.56 693.095 139.814 706.398C139.258 716.341 138.783 726.298 138.24 736.241C137.887 742.73 137.453 749.205 137.155 755.694C137.087 757.157 136.557 758.092 135.363 758.891C132.215 760.977 128.701 762.102 125.01 762.495C117.778 763.24 110.885 762.061 104.005 759.487C100.301 758.092 99.8256 756.182 99.8799 752.849C100.124 738.002 100.124 723.169 100.26 708.322C100.45 688.178 100.68 668.02 100.898 647.876C101.115 627.191 101.332 606.492 101.549 585.806C101.766 565.662 101.983 545.505 102.2 525.361C102.417 504.675 102.621 483.976 102.865 463.29C102.892 460.716 103.109 458.129 103.272 454.932C105.077 455.27 106.461 455.446 107.791 455.799C112.608 457.072 117.384 458.494 122.228 459.659C123.735 460.025 124.766 460.648 125.594 461.895C127.208 464.333 128.904 466.717 130.573 469.115C131.008 469.738 131.442 470.375 131.971 470.903C132.948 471.879 133.966 473.26 135.54 472.434C137.073 471.621 137.182 469.901 136.87 468.411C136.517 466.731 135.811 465.119 135.282 463.48C135.16 463.073 135.106 462.653 134.97 462.003C137.697 462.044 140.235 461.989 142.162 464.211C142.582 464.699 143.166 465.037 143.708 465.39C146.287 467.097 146.68 467.002 149.041 464.753C150.235 463.615 151.646 463.155 153.424 463.168C160.901 463.236 168.391 463.317 175.854 462.924C188.012 462.288 200.021 460.526 211.514 456.219C211.989 456.043 212.532 456.002 213.251 455.853C213.427 460.459 213.644 464.875 213.739 469.305C214.065 484.463 214.323 499.636 214.662 514.794C215.11 533.015 215.557 551.316 215.978 569.617ZM230.212 343.7C230.212 346.125 229.235 347.547 227.458 348.78C224.201 351.07 220.51 352.316 216.697 353.196C205.218 355.838 193.711 356.082 182.299 352.885C179.843 352.194 177.523 350.88 175.27 349.62C173.846 348.821 172.828 347.507 172.828 345.665C172.842 336.372 172.828 327.065 172.828 317.366C172.842 317.366 172.855 317.366 172.855 317.366C172.814 317.054 172.76 316.756 172.665 316.458C172.652 316.458 172.652 316.471 172.638 316.471C172.638 316.431 172.638 316.39 172.638 316.35C172.638 304.943 172.638 293.713 172.638 282.388C191.73 287.319 210.822 288.294 230.077 281.467C230.185 282.348 230.375 283.147 230.375 283.946C230.307 303.86 230.171 323.773 230.212 343.7ZM227.227 280.695C220.795 283.187 214.078 284.217 207.24 284.596C196.574 285.179 186.031 284.366 175.718 281.467C174.714 281.183 173.737 280.803 172.747 280.465C172.692 280.126 172.638 279.787 172.597 279.449C174.171 278.852 175.691 277.958 177.319 277.701C183.303 276.766 189.287 275.737 195.312 275.303C204.499 274.639 213.712 274.87 222.844 276.346C225.368 276.753 227.946 277.105 230.633 279.029C229.222 279.719 228.258 280.302 227.227 280.695ZM228.231 276.075C225.232 275.208 222.139 274.667 218.773 273.908C218.773 271.226 218.773 268.449 218.773 265.428C217.281 266.661 217.281 266.661 217.267 269.329C217.267 270.819 217.267 272.309 217.267 273.691C209.845 273.691 202.802 273.38 195.814 273.786C189.559 274.152 183.358 275.317 177.143 276.157C176.397 276.252 175.678 276.536 174.958 276.78C171.2 278.08 170.82 278.582 170.833 282.646C170.915 303.345 171.037 324.044 171.064 344.743C171.064 347.426 172.163 349.458 174.266 350.745C176.546 352.153 179.002 353.454 181.553 354.24C191.051 357.152 200.767 357.288 210.55 355.946C212.789 355.635 215.015 355.228 217.539 354.809C217.634 355.96 217.796 356.895 217.756 357.816C217.416 367.448 217.023 377.079 216.711 386.711C216.412 395.584 216.141 404.47 215.951 413.344C215.747 423.531 215.639 433.704 215.517 443.891C215.49 445.625 215.571 447.359 215.639 449.093C215.761 452.575 215.842 452.805 212.654 453.916C207.647 455.65 202.599 457.411 197.429 458.508C182.394 461.705 167.143 462.301 151.579 461.515C150.832 453.997 146.273 448.646 141.605 443.336C140.113 441.629 138.715 439.841 136.802 437.524C138.131 437.863 138.81 437.931 139.393 438.202C143.926 440.288 148.431 442.415 152.949 444.528C154.415 445.205 155.853 446.018 157.685 445.463C158.458 444.216 158.268 442.929 157.454 441.873C156.016 440.003 154.577 438.039 152.813 436.495C147.087 431.482 140.873 427.148 133.898 423.964C131.333 422.786 128.823 422.325 126.041 423.111C119.067 425.088 111.916 426.565 105.199 430.466C103.367 428.448 101.481 426.552 99.8392 424.452C99.3236 423.802 99.3371 422.609 99.3778 421.675C99.6357 415.836 99.9613 409.998 100.273 404.159C100.667 397.02 101.115 389.894 101.467 382.755C102.051 371.295 102.648 359.834 103.123 348.36C103.381 342.197 103.449 336.006 103.503 329.842C103.666 313.261 103.815 296.693 103.842 280.112C103.842 278.026 104.385 276.644 106.054 275.479C107.384 274.558 108.591 273.434 109.772 272.323C110.138 271.971 110.233 271.321 110.762 270.074C109.555 270.806 109.012 271.05 108.564 271.415C98.0752 280.004 87.5726 288.565 77.1379 297.235C75.7131 298.414 74.4647 298.59 73.0536 297.655C71.5338 296.653 69.9733 295.637 68.6707 294.377C62.7274 288.633 57.1233 282.605 52.8897 275.452C52.0077 273.976 51.3021 272.391 50.4065 270.657C52.7811 267.934 55.1286 265.265 57.449 262.569C68.2908 249.958 80.1774 238.402 92.946 227.741C95.8498 225.316 98.9165 223.054 102.051 220.927C108.456 216.565 115.62 214.194 123.3 213.395C129.013 212.799 134.739 212.379 140.655 211.878C144.333 215.942 148.838 218.868 154.143 220.399C167.617 224.287 180.115 222.187 191.526 214.032C192.612 213.26 193.575 212.582 195 212.704C204.078 213.463 213.156 214.127 221.786 217.486C226.318 219.247 230.226 221.848 233.794 225.086C239.996 230.735 245.233 237.237 250.634 243.604C259.4 253.94 268.247 264.209 277.053 274.504C277.609 275.154 278.125 275.832 278.79 276.672C272.915 278.758 268.735 282.835 264.692 287.102C263.796 288.051 262.86 288.958 261.937 289.866C261.164 290.625 260.39 290.625 259.291 290.327C257.134 289.744 254.867 289.324 252.642 289.256C249.833 289.175 247.011 289.459 244.202 289.676C243.022 289.771 242.14 289.609 241.393 288.565C239.222 285.531 236.332 283.553 232.383 283.079C232.288 282.388 232.153 281.765 232.125 281.155C231.963 277.755 231.583 277.051 228.231 276.075ZM240.131 289.419C237.092 291.532 234.853 289.405 232.261 288.159C232.261 287.129 232.261 286.005 232.261 284.61C235.83 284.989 238.259 286.655 240.131 289.419ZM231.705 336.588C231.935 336.114 232.058 335.64 232.18 335.64C232.885 335.654 233.591 335.775 234.297 335.857C234.31 336.101 234.31 336.344 234.324 336.575C233.523 336.588 232.723 336.588 231.705 336.588ZM249.196 337.645C246.875 339.257 245.722 339.122 242.994 336.995C245.695 336.087 248.599 336.493 250.851 333.987C247.391 334.434 244.378 335.152 241.38 335.125C238.286 335.098 235.192 334.326 231.922 333.865C231.922 331.102 231.922 328.555 231.922 325.737C232.845 325.832 233.672 325.846 234.473 326.008C236.386 326.388 238.327 326.699 240.186 327.282C244.786 328.718 248.409 326.686 251.923 324.166C252.018 324.098 251.937 323.787 251.937 323.434C250.77 322.893 249.928 323.8 249.101 324.329C246.075 326.252 242.954 326.726 239.48 325.683C237.024 324.938 234.473 324.518 231.881 323.922C231.881 320.752 231.881 317.88 231.881 314.738C235.667 314.561 239.304 314.358 242.954 314.209C245.45 314.114 247.947 314.209 250.43 313.965C251.923 313.83 253.646 313.694 254.65 311.473C246.997 313.532 239.561 312.299 232.003 313.302C232.003 310.091 232.003 307.341 232.003 304.401C236.386 304.131 240.688 304.009 244.948 303.575C249.223 303.142 253.022 301.191 256.957 299.674C255.18 298.549 253.714 299.498 252.303 300.039C246.427 302.329 240.335 302.966 234.107 302.654C233.672 302.627 233.238 302.6 232.818 302.532C232.628 302.491 232.451 302.342 232.044 302.112C232.044 299.145 232.044 296.057 232.044 292.48C234.405 292.142 236.807 291.668 239.222 291.478C243.863 291.112 248.531 290.895 253.185 290.652C254.148 290.597 255.152 290.638 256.102 290.787C259.427 291.315 261.218 293.293 260.838 296.612C260.485 299.674 260.757 302.369 262.67 304.889C263.81 306.393 263.715 308.14 262.887 309.82C261.747 312.137 261.313 314.453 262.181 317C262.914 319.127 262.032 320.969 260.675 322.689C259.617 324.031 258.518 325.466 257.961 327.038C256.279 331.684 253.09 334.936 249.196 337.645ZM263.063 302.139C267.473 305.797 271.205 309.942 275.099 313.952C274.991 314.182 274.882 314.412 274.773 314.643C271.259 313.667 267.758 312.692 264 311.649C265.316 308.208 265.519 305.079 263.063 302.139ZM317.489 349.566C309.986 349.417 302.672 347.751 295.372 346.125C284.666 343.754 274.394 339.934 264.067 336.344C261.611 335.491 259.169 334.638 256.523 333.716C257.703 331.075 258.721 328.704 259.82 326.388C260.187 325.615 260.675 324.857 261.272 324.261C263.742 321.822 264.529 319.005 263.511 315.672C263.321 315.063 263.294 314.412 263.118 313.302C264.257 313.478 265.153 313.532 266.008 313.776C278.017 317.095 290.012 320.427 302.021 323.746C302.97 324.003 303.961 324.152 304.938 324.356C305.046 324.085 305.155 323.814 305.264 323.543C304.748 323.191 304.273 322.662 303.69 322.5C296.376 320.481 289.075 318.463 281.735 316.566C279.658 316.024 278.044 315.063 276.578 313.478C272.467 309.021 268.22 304.672 264 300.324C262.9 299.186 262.195 298.062 262.331 296.341C262.439 294.987 261.964 293.591 261.734 292.033C266.333 287.753 270.309 282.524 276.348 279.354C278.342 281.318 280.215 283.242 282.169 285.084C296.783 298.861 310.515 313.437 322.524 329.585C324.342 332.023 326.079 334.475 326.839 337.509C328.44 343.876 324.084 349.701 317.489 349.566Z" fill="black"/>
<path d="M278.777 276.644C272.901 278.731 268.722 282.808 264.678 287.075C263.783 288.024 262.846 288.931 261.924 289.839C261.15 290.597 260.377 290.597 259.278 290.299C257.12 289.717 254.854 289.297 252.629 289.229C249.82 289.148 246.998 289.432 244.189 289.649C243.008 289.744 242.126 289.581 241.38 288.538C239.209 285.504 236.319 283.526 232.37 283.052C232.275 282.361 232.139 281.738 232.112 281.128C231.963 277.755 231.569 277.051 228.231 276.075C225.232 275.208 222.139 274.667 218.774 273.908C218.774 271.226 218.774 268.449 218.774 265.428C217.281 266.661 217.281 266.661 217.267 269.329C217.267 270.819 217.267 272.309 217.267 273.691C209.845 273.691 202.803 273.38 195.814 273.786C189.559 274.152 183.358 275.317 177.143 276.157C176.397 276.252 175.678 276.536 174.959 276.78C171.2 278.08 170.82 278.582 170.834 282.646C170.915 303.345 171.037 324.044 171.064 344.743C171.064 347.426 172.163 349.458 174.267 350.745C176.546 352.153 179.002 353.454 181.553 354.24C191.052 357.152 200.767 357.288 210.551 355.946C212.79 355.635 215.015 355.228 217.539 354.809C217.634 355.96 217.797 356.895 217.756 357.816C217.417 367.448 217.023 377.079 216.711 386.711C216.413 395.584 216.141 404.471 215.951 413.344C215.748 423.531 215.639 433.704 215.517 443.891C215.49 445.625 215.571 447.359 215.639 449.093C215.761 452.575 215.843 452.805 212.654 453.916C207.647 455.65 202.599 457.411 197.429 458.508C182.394 461.705 167.143 462.301 151.579 461.515C150.833 453.997 146.273 448.646 141.605 443.336C140.113 441.629 138.715 439.841 136.802 437.524C138.132 437.863 138.81 437.931 139.394 438.202C143.926 440.288 148.431 442.415 152.949 444.528C154.415 445.205 155.853 446.018 157.685 445.463C158.458 444.216 158.268 442.929 157.454 441.873C156.016 440.003 154.578 438.039 152.814 436.495C147.087 431.483 140.873 427.148 133.898 423.964C131.334 422.786 128.823 422.325 126.042 423.111C119.067 425.088 111.916 426.565 105.199 430.467C103.367 428.448 101.481 426.552 99.8394 424.452C99.3238 423.802 99.3373 422.609 99.378 421.675C99.6359 415.836 99.9615 409.998 100.274 404.159C100.667 397.02 101.115 389.894 101.468 382.755C102.051 371.295 102.648 359.834 103.123 348.36C103.381 342.197 103.449 336.006 103.503 329.842C103.666 313.261 103.815 296.693 103.842 280.112C103.842 278.026 104.385 276.644 106.054 275.479C107.384 274.558 108.592 273.434 109.772 272.323C110.138 271.971 110.233 271.321 110.763 270.074C109.555 270.806 109.012 271.05 108.564 271.415C98.0754 280.004 87.5728 288.565 77.1381 297.235C75.7133 298.414 74.465 298.59 73.0538 297.655C71.534 296.653 69.9736 295.637 68.6709 294.377C62.7276 288.633 57.1235 282.605 52.8899 275.452C52.0079 273.976 51.3023 272.391 50.4067 270.657C52.7814 267.934 55.1288 265.265 57.4492 262.569C68.291 249.958 80.1776 238.402 92.9462 227.741C95.85 225.316 98.9167 223.054 102.051 220.927C108.456 216.565 115.62 214.194 123.301 213.395C129.013 212.799 134.739 212.379 140.656 211.878C144.333 215.942 148.838 218.868 154.143 220.399C167.618 224.287 180.115 222.187 191.527 214.032C192.612 213.26 193.576 212.582 195 212.704C204.078 213.463 213.156 214.127 221.786 217.486C226.318 219.247 230.226 221.848 233.795 225.086C239.996 230.735 245.234 237.237 250.634 243.604C259.4 253.94 268.247 264.209 277.053 274.504C277.596 275.127 278.112 275.805 278.777 276.644Z" fill="#29BFE4"/>
<path d="M103.286 454.85C105.09 455.189 106.475 455.365 107.804 455.717C112.621 456.991 117.398 458.413 122.242 459.578C123.748 459.944 124.779 460.567 125.607 461.813C127.222 464.252 128.918 466.636 130.587 469.034C131.021 469.657 131.455 470.293 131.985 470.822C132.962 471.797 133.979 473.179 135.553 472.353C137.087 471.54 137.195 469.819 136.883 468.329C136.53 466.649 135.825 465.037 135.296 463.398C135.173 462.992 135.119 462.572 134.983 461.922C137.711 461.962 140.248 461.908 142.175 464.13C142.596 464.617 143.179 464.956 143.722 465.308C146.3 467.015 146.694 466.92 149.055 464.672C150.249 463.534 151.66 463.073 153.438 463.087C160.914 463.154 168.404 463.236 175.868 462.843C188.026 462.206 200.034 460.445 211.527 456.137C212.002 455.961 212.545 455.921 213.264 455.772C213.441 460.377 213.658 464.794 213.753 469.223C214.078 484.382 214.336 499.554 214.676 514.713C215.083 533.014 215.53 551.316 215.951 569.617C216.385 588.352 216.833 607.087 217.267 625.822C217.701 644.016 218.122 662.209 218.556 680.402C218.991 699.137 219.411 717.872 219.886 736.607C220.035 742.771 220.307 748.934 220.537 755.274C215.965 758.2 210.795 759.772 205.408 760.462C199.464 761.221 193.521 761.14 187.714 759.135C185.665 758.431 184.864 757.347 184.755 755.152C184.131 743.583 183.371 732.028 182.584 720.473C181.58 705.68 180.495 690.887 179.491 676.094C178.324 658.917 177.224 641.74 176.085 624.576C175.23 611.72 174.348 598.878 173.479 586.022C172.611 573.275 171.742 560.541 170.888 547.794C169.802 531.7 168.717 515.607 167.617 499.514C167.468 497.36 167.251 495.206 167.061 492.957C168.133 492.51 169.069 492.131 170.752 491.426C169.49 491.115 168.961 490.817 168.472 490.898C163.655 491.643 158.852 492.51 154.035 493.228C152.162 493.499 151.524 494.434 151.443 496.249C150.995 505.989 150.493 515.715 149.937 525.442C149.177 538.948 148.349 552.454 147.589 565.973C147.047 575.7 146.585 585.44 146.042 595.166C145.269 608.889 144.428 622.612 143.668 636.348C143.111 646.4 142.664 656.465 142.107 666.517C141.361 679.806 140.533 693.095 139.787 706.398C139.231 716.341 138.756 726.298 138.213 736.241C137.86 742.73 137.426 749.205 137.127 755.694C137.06 757.157 136.53 758.092 135.336 758.891C132.188 760.977 128.674 762.102 124.983 762.494C117.751 763.24 110.857 762.061 103.978 759.487C100.273 758.092 99.7985 756.182 99.8527 752.849C100.097 738.002 100.097 723.169 100.233 708.321C100.423 688.178 100.653 668.02 100.87 647.876C101.088 627.191 101.305 606.491 101.522 585.806C101.739 565.662 101.956 545.504 102.173 525.361C102.39 504.675 102.594 483.976 102.838 463.29C102.906 460.621 103.123 458.047 103.286 454.85Z" fill="#2D291E"/>
<path d="M114.671 138.753C112.255 138.306 110.016 137.94 107.791 137.466C105.199 136.911 103.286 135.421 102.105 133.023C99.5952 127.889 98.6996 122.538 100.165 116.943C100.464 115.819 100.993 114.667 101.712 113.76C104.426 110.278 108.32 110.265 111.102 113.651C111.902 114.627 112.54 115.737 113.748 117.512C113.979 115.643 114.169 114.545 114.236 113.434C114.684 105.984 117.099 99.4544 123.056 94.6182C124.508 93.4397 124.128 92.3559 123.694 90.9064C121.699 84.3905 120.912 77.7797 122.704 71.0742C123.097 69.6111 123.572 68.1752 124.128 66.7799C124.345 66.2109 124.82 65.6961 125.282 65.2762C126.679 64.0028 128.131 62.7701 130.072 61.1038C136.3 61.158 141.049 57.3243 144.889 51.7973C149.068 54.3441 153.18 54.3034 157.373 52.1766C158.024 51.8515 159.11 51.8921 159.788 52.2037C166.817 55.3465 173.697 54.8859 180.481 51.4993C180.766 51.3503 181.092 51.2825 181.58 51.12C185.488 53.4364 189.586 54.9672 193.86 51.0387C197.117 53.9783 200.957 54.6827 205.272 53.8428C205.462 56.9179 202.884 58.11 201.419 59.8982C204.119 61.6999 206.249 61.1038 211.704 57.1889C214.065 59.7492 214.445 63.0004 214.594 66.1838C214.947 73.2145 215.191 80.2452 215.218 87.2895C215.273 100.294 215.381 113.299 215.042 126.29C214.771 136.681 213.183 146.99 211.134 157.177C209.899 163.273 207.606 168.962 203.603 173.893C198.27 180.45 193.671 187.602 187.334 193.305C185.502 194.958 183.466 196.448 181.363 197.749C180.115 198.521 178.582 199.117 177.116 199.252C171.39 199.794 165.596 200.566 159.937 199.32C156.504 198.562 153.126 197.085 150.018 195.378C141.782 190.84 134.672 184.825 128.362 177.876C122.229 171.116 119.813 162.663 117.683 154.129C116.435 149.103 115.675 143.969 114.671 138.753ZM156.409 121.292C161.498 119.91 162.868 113.922 160.969 110.292C159.503 107.488 157.332 105.469 154.591 104.006C149.421 101.256 143.899 100.592 138.186 101.595C135.065 102.137 132.134 103.302 129.746 105.496C125.648 109.262 125.363 114.627 129.081 118.772C129.434 119.165 130.044 119.3 131.239 119.923C130.411 118.325 129.949 117.444 129.257 116.103C139.611 120.438 149.611 119.883 159.842 116.889C158.689 118.352 157.549 119.815 156.409 121.292ZM207.877 119.219C206.534 120.872 205.652 121.955 204.594 123.269C205.286 123.324 205.666 123.486 205.869 123.351C208.38 121.752 209.967 119.544 210.211 116.51C210.564 112.215 208.271 109.303 205.014 107.04C200.36 103.816 195.068 102.841 189.532 103.478C185.719 103.911 182.137 105.144 179.328 107.989C175.651 111.714 175.691 117.458 179.477 121.021C179.816 121.346 180.481 121.332 181.621 121.657C180.766 120.506 180.291 119.937 179.898 119.314C179.531 118.745 179.26 118.122 178.717 117.038C188.311 120.763 197.714 120.695 207.877 119.219ZM209.981 104.534C210.266 104.412 210.551 104.291 210.836 104.169C210.836 102.8 210.917 101.419 210.822 100.05C210.51 95.2414 208.664 93.2094 203.875 92.7081C200.889 92.3966 197.863 92.3288 194.851 92.3424C190.74 92.3695 186.628 92.4101 182.544 92.7894C179.966 93.0333 179.016 94.3202 178.744 96.8941C178.622 98.1268 178.717 99.3866 178.717 100.823C180.427 100.823 181.716 100.877 182.992 100.809C188.718 100.525 194.457 100.227 200.184 99.8743C202.938 99.6982 205.299 100.47 207.335 102.313C208.176 103.098 209.085 103.803 209.981 104.534ZM126.069 102.367C127.086 101.757 128.023 101.337 128.796 100.714C131.035 98.899 133.559 98.3029 136.381 98.7228C137.453 98.8854 138.525 98.9667 139.597 99.1022C144.523 99.6982 149.448 100.389 154.388 100.877C156.966 101.134 157.617 100.47 157.983 97.883C158.078 97.2463 158.078 96.596 158.092 95.9458C158.133 93.2365 157.359 92.1798 154.727 91.7192C152.922 91.4077 151.077 91.2722 149.258 91.1367C143.763 90.7439 138.24 90.2427 132.799 91.5973C128.538 92.6675 125.363 97.5443 126.069 102.367ZM144.414 159.303C145.283 160.401 145.622 161.2 146.219 161.539C148.485 162.771 150.724 164.221 153.18 164.925C163.995 168.027 174.782 167.607 185.366 163.801C187.171 163.151 188.853 162.094 190.522 161.105C190.875 160.888 190.93 160.157 191.201 159.425C188.392 160.726 186.031 162.108 183.494 162.947C175.338 165.643 166.98 166.172 158.513 164.722C153.994 163.95 149.652 162.69 146.056 159.629C145.866 159.452 145.5 159.493 144.414 159.303ZM171.702 112.608C171.444 112.717 171.173 112.838 170.915 112.947C171.078 113.516 171.159 114.139 171.417 114.667C174.375 121.007 175.081 127.713 174.782 134.594C174.633 138.116 173.792 138.956 170.264 139.105C167.78 139.214 165.284 139.105 162.801 139.16C162.285 139.173 161.769 139.512 161.267 139.701C165.27 140.731 169.205 141.07 173.113 140.121C175.189 139.607 176.017 137.967 176.139 135.99C176.546 128.918 176.071 121.955 173.167 115.358C172.733 114.41 172.19 113.529 171.702 112.608ZM148.349 151.826C144.523 150.674 140.208 153.384 138.742 157.935C137.277 162.473 139.272 167.784 142.976 168.976C141.904 166.795 140.547 164.749 139.896 162.5C139.149 159.899 139.855 157.149 141.958 155.402C143.763 153.898 146.124 153.031 148.349 151.826ZM187.415 151.785C187.402 152.015 187.402 152.232 187.388 152.462C188.284 152.53 189.193 152.598 190.088 152.652C194.634 152.923 197.823 156.283 197.483 160.794C197.361 162.473 196.574 164.099 196.14 165.765C196.004 166.28 196.004 166.822 195.909 167.702C199.261 164.397 199.885 159.33 197.687 155.537C195.611 151.934 191.622 150.485 187.415 151.785Z" fill="#EDD8C5"/>
<path d="M31.3687 329.95C35.236 341.018 93.0951 421.621 104.67 431.984C105.47 431.672 106.406 431.428 107.248 430.968C113.232 427.717 119.867 426.443 126.326 424.614C128.864 423.896 131.157 424.411 133.531 425.508C140.207 428.57 146.096 432.783 151.646 437.497C153.654 439.204 155.785 440.911 156.572 444.216C155.323 443.756 154.441 443.485 153.6 443.119C147.643 440.518 141.686 437.958 135.77 435.262C134.481 434.679 133.396 433.65 131.713 433.203C132.079 433.867 132.364 434.612 132.839 435.194C136.082 439.123 139.475 442.929 142.623 446.926C144.753 449.635 146.748 452.507 148.43 455.514C149.611 457.627 150.493 460.066 149.014 463.209C146.626 457.316 143.016 452.778 139.244 448.348C135.567 444.04 131.632 440.03 127.669 436.021C127.384 436.251 127.113 436.481 126.828 436.711C127.249 437.335 127.615 438.012 128.117 438.567C132.514 443.498 137.073 448.294 141.306 453.374C143.369 455.839 144.902 458.765 146.558 461.556C147.06 462.409 147.168 463.493 147.494 464.563C145.445 465.105 144.414 463.994 143.423 463.114C141.388 461.326 139.57 459.294 137.521 457.533C134.183 454.634 130.709 451.87 127.33 448.998C126.53 448.307 125.892 447.413 125.2 446.601C124.481 445.747 123.802 444.853 123.097 443.986C122.839 444.149 122.581 444.311 122.323 444.474C122.622 445.138 122.852 445.855 123.246 446.479C126.258 451.233 129.379 455.921 132.297 460.73C133.409 462.558 134.21 464.631 134.888 466.663C135.309 467.909 135.255 469.318 135.445 471.012C133.341 470.646 132.676 469.345 131.903 468.289C129.067 464.455 126.231 460.621 123.531 456.706C121.889 454.336 119.854 453.333 116.936 453.496C112.825 453.713 108.686 453.509 104.575 453.658C100.246 453.821 97.3694 451.789 95.4154 448.145C95.1033 447.576 94.7369 446.993 94.6148 446.37C93.7871 442.509 90.9104 440.288 88.2509 437.7C83.6645 433.257 79.4309 428.462 75.1023 423.747C54.8435 401.707 35.6702 378.745 16.6326 355.675C12.7789 351.015 9.59015 345.814 6.13 340.842C5.57367 340.043 5.153 339.149 4.69165 338.295C1.38076 332.159 1.25866 326.482 6.46924 321.091C13.3895 313.925 19.9299 306.366 26.8773 299.227C34.1368 291.776 41.6813 284.596 49.1173 277.308C49.6465 276.793 50.2842 276.387 51.2748 275.642C55.8611 283.309 61.7231 289.758 67.8699 295.854C60.8682 302.898 54.0157 309.834 47.1226 316.715C43.2146 320.63 39.2524 324.478 35.3174 328.365C33.5398 330.099 33.5398 330.113 31.3687 329.95Z" fill="#EDD8C5"/>
<path d="M97.8036 421.417C90.8426 415.524 43.2961 348.699 34.0554 331.915C45.3993 320.102 57.6387 308.98 68.9962 296.964C71.1672 298.265 72.9991 299.376 75.0345 300.595C83.9223 293.429 92.8237 286.262 101.739 279.083C101.969 279.191 102.2 279.286 102.431 279.394C103.218 326.659 100.558 373.814 97.8036 421.417Z" fill="white"/>
<path d="M204.512 59.0989C206.113 56.7011 207.415 54.8317 206.886 52.0953C202.544 52.9351 198.216 53.626 194.796 49.7788C195.04 48.6544 195.271 47.5571 195.502 46.4599C195.298 46.3515 195.095 46.2431 194.878 46.1483C194.484 46.7714 193.941 47.3404 193.711 48.0177C192.272 52.0546 188.432 53.0029 184.606 51.1741C183.547 50.6593 182.543 50.0226 181.403 49.3995C174.7 53.1654 167.78 54.0324 160.249 50.849C162.054 48.1126 165.202 46.5411 165.88 43.3848C165.663 43.2222 165.446 43.0732 165.229 42.9106C164.564 43.6963 163.872 44.4821 163.221 45.2813C160.982 48.0042 158.403 50.2529 155.052 51.5398C151.904 52.7455 148.905 52.6507 146.069 50.6864C145.635 50.3884 145.146 50.1445 144.861 49.982C142.405 52.4475 140.234 54.9942 137.683 57.1075C135.105 59.2614 131.821 59.7762 129.189 59.6678C127.235 61.4018 125.946 63.2983 124.223 63.8673C122.513 64.4362 120.369 63.6505 118.157 63.4338C118.917 65.2761 120.817 64.9917 121.875 65.9264C117.085 70.2748 108.971 70.0445 104.059 65.3168C104.357 64.4498 104.696 63.5015 105.104 62.3365C102.878 63.5015 102.878 63.5015 102.186 68.6357C99.9879 65.818 99.6894 61.8624 101.915 58.8686C103.326 56.972 103.353 55.6716 101.996 53.7073C99.8658 50.6322 100.368 47.2456 102.254 44.2111C103.977 41.4205 106.827 40.9599 109.717 42.5991C110.138 42.8429 110.681 42.8565 111.25 42.9919C109.988 40.7296 108.713 38.7383 107.722 36.5979C106.65 34.2679 107.505 31.965 108.537 29.6349C105.904 28.6325 104.669 30.9354 102.878 31.5857C103.38 25.3 109.296 20.9787 118.076 20.5045C118.198 18.8247 118.035 17.0501 118.51 15.4652C118.985 13.8938 120.098 12.4985 121.319 10.3446C122.377 13.7854 122.635 16.8334 125.892 18.4048C127.561 15.0317 129.243 11.7399 132.853 10.1278C136.747 8.39383 140.031 9.69431 143.016 12.2275C145.73 10.9542 146.354 8.51575 147.019 6.03671C149.516 8.47511 146.313 10.331 146.408 12.8778C148.199 11.2115 149.502 9.42338 151.252 8.54285C153.003 7.67587 155.255 7.26946 157.196 7.49975C159.177 7.7165 161.036 8.94923 163.153 9.81622C162.189 8.00097 161.321 6.37537 160.154 4.16727C163.234 5.60322 165.595 6.70051 167.997 7.82488C170.806 5.03427 173.275 2.10819 177.495 2.56878C181.634 3.01582 183.574 6.32119 185.84 9.315C194.362 3.77442 200.373 8.06872 205.882 14.4898C206.181 14.0292 206.398 13.8125 206.452 13.5551C206.534 13.2571 206.466 12.9184 206.466 12.5933C210.943 12.9319 214.268 15.0046 216.154 18.6893C213.182 18.3912 210.224 17.5649 207.307 19.3531C208.46 19.4614 209.627 19.5563 211.093 19.6917C210.496 20.7213 209.994 21.5747 209.315 22.7262C213.386 24.1215 215.856 26.885 216.588 31.3825C214.946 30.5426 213.549 29.6485 212.015 29.0931C210.482 28.5377 208.772 27.9281 207.334 29.4859C209.397 30.0549 211.5 30.2716 213.223 31.1928C214.96 32.1275 216.303 33.7667 218.312 35.5277C218.461 33.7667 218.569 32.4933 218.692 31.0438C222.654 32.8049 223.604 36.0154 223.631 40.1065C221.962 38.9686 220.496 37.9797 219.085 37.0178C217.552 38.1016 218.515 39.1447 218.719 40.0929C219.479 43.5338 218.407 46.0941 215.15 48.0854C214.092 46.9204 214.309 44.8072 212.015 43.5744C212.558 45.6742 213.21 47.1507 213.25 48.6273C213.277 50.1987 213.006 51.9056 212.341 53.3144C211.663 54.7368 210.428 55.9154 209.288 57.0669C208.189 58.1641 206.832 59.004 204.512 59.0989Z" fill="#8D7958"/>
<path d="M173.479 312.733C175.148 315.184 175.148 315.184 172.652 316.471C172.652 305.024 172.652 293.754 172.652 282.375C191.743 287.305 210.835 288.281 230.09 281.453C230.199 282.334 230.389 283.133 230.389 283.932C230.321 303.859 230.185 323.773 230.226 343.7C230.226 346.125 229.249 347.547 227.471 348.78C224.215 351.069 220.524 352.316 216.711 353.196C205.231 355.838 193.725 356.082 182.313 352.885C179.857 352.194 177.537 350.88 175.284 349.62C173.859 348.821 172.842 347.507 172.842 345.664C172.855 336.371 172.855 327.065 172.855 317.365C173.506 317.514 174.592 317.447 174.918 317.907C175.908 319.303 174.443 319.926 173.805 321.199C174.904 320.901 176.003 320.603 177.333 320.237C177.686 320.644 177.998 321.89 179.49 321.131C179.735 321.009 180.766 322.405 181.947 323.638C181.824 321.091 181.743 319.343 182.584 317.569C183.222 316.228 182.109 314.629 180.739 314.182C178.568 313.491 176.275 313.274 173.479 312.733ZM198.989 329.368C198.989 333.107 198.935 336.642 199.044 340.164C199.057 340.733 199.763 341.641 200.292 341.776C201.839 342.169 203.481 342.467 205.055 342.345C205.978 342.278 207.172 341.546 207.66 340.747C209.953 337.035 207.022 330.763 202.748 329.977C201.595 329.747 200.441 329.598 198.989 329.368ZM196.262 342.291C197.171 338.688 197.063 334.949 196.533 331.251C196.289 329.49 194.634 329.029 193.073 328.853C191.459 328.663 190.156 329.422 189.871 330.953C189.382 333.689 189.138 336.48 188.962 339.257C188.894 340.3 189.491 341.113 191.011 340.95C191.228 339.663 191.459 338.322 191.676 337.049C192.748 336.669 193.535 336.683 193.67 337.929C193.765 338.783 193.697 339.663 193.806 340.517C193.969 341.709 194.512 342.549 196.262 342.291ZM179.64 339.203C181.159 339.69 182.476 340.219 183.819 340.53C185.637 340.964 186.519 340.381 186.655 338.471C186.777 336.764 186.723 335.003 186.424 333.31C185.705 329.232 184.294 328.094 179.626 327.647C179.64 331.413 179.64 335.152 179.64 339.203ZM205.231 309.495C207.212 309.495 208.922 309.603 210.591 309.441C211.202 309.373 212.029 308.75 212.247 308.181C213.101 305.878 212.477 303.656 211.175 301.746C209.926 299.917 208.054 299.308 205.76 299.836C205.258 302.992 205.014 306.054 205.231 309.495ZM179.843 298.59C179.572 298.576 179.3 298.549 179.029 298.522C178.934 299.606 178.866 300.703 178.758 301.787C178.649 302.871 178.921 304.063 178.147 305.485C177.129 302.843 178.622 300.31 176.37 297.831C176.152 299.877 176.003 301.326 175.827 302.979C175.705 300.866 175.596 298.956 175.488 297.046C175.175 297.059 174.877 297.073 174.565 297.1C174.158 300.188 174.049 303.291 174.538 306.379C175.678 306.786 176.56 307.165 177.482 307.422C178.554 307.72 179.477 307.463 179.775 306.284C180.413 303.697 180.386 301.137 179.843 298.59ZM194.62 316.079C194.62 318.598 194.552 320.725 194.647 322.852C194.702 324.112 195.665 324.884 196.818 324.83C197.931 324.789 199.79 324.477 199.98 323.881C200.563 321.971 200.753 319.858 200.591 317.853C200.536 317.203 199.057 316.431 198.107 316.146C197.13 315.848 196.004 316.079 194.62 316.079ZM188.867 309.441C189.898 308.154 190.468 307.422 191.092 306.65C191.431 307.084 194.349 309.82 194.579 309.847C194.254 308.777 193.942 307.774 193.643 306.799C196.262 302.64 195.814 300.297 192.11 299.443C193.63 300.798 194.01 302.383 193.399 304.171C193.06 305.16 192.463 305.905 191.269 305.702C190.115 305.512 190.115 304.632 190.088 303.724C190.047 302.396 189.966 301.082 189.857 299.064C189.057 299.985 188.5 300.324 188.487 300.676C188.378 303.372 188.026 306.122 188.867 309.441ZM186.207 302.979C186.167 302.979 186.126 302.979 186.085 302.965C186.085 302.22 186.153 301.462 186.072 300.717C185.882 299.118 184.606 298.685 183.317 298.481C181.987 298.278 181.472 299.199 181.132 300.351C180.508 302.491 180.59 304.591 181.295 306.677C181.702 307.896 182.625 308.235 183.819 308.221C185.013 308.208 185.597 307.531 185.787 306.487C185.977 305.336 186.072 304.157 186.207 302.979ZM183.941 323.434C184.81 323.489 185.23 323.516 185.651 323.543C189.315 323.868 189.952 323.218 189.355 319.695C189.26 319.167 189.206 318.625 189.03 318.111C188.188 315.564 186.981 315.022 183.928 315.957C183.941 318.314 183.941 320.739 183.941 323.434ZM218.366 306.772C218.393 308.371 219.248 308.804 220.51 308.587C221.854 308.357 222.858 306.826 223.021 305.173C223.305 302.518 220.863 303.047 219.669 302.383C219.099 300.364 220.008 299.091 221.596 297.98C218.488 297.601 217.593 298.17 217.145 300.541C216.724 302.776 217.172 303.25 220.754 304.09C220.632 304.957 220.497 305.851 220.361 306.772C219.56 306.772 218.977 306.772 218.366 306.772ZM210.306 323.326C211.365 325.019 212.816 324.735 214.051 324.125C214.662 323.827 215.15 322.811 215.273 322.053C215.707 319.465 213.006 320.048 211.527 318.869C212.084 317.65 212.613 316.485 213.101 315.401C210.754 315.117 210.089 315.482 209.709 317.609C209.601 318.205 209.533 319.194 209.845 319.425C210.822 320.129 212.002 320.562 213.115 321.091C213.848 323.746 211.378 322.676 210.306 323.326ZM207.172 317.162C207.145 316.973 207.117 316.796 207.09 316.607C206.14 316.607 205.123 316.404 204.254 316.675C203.576 316.878 202.64 317.596 202.545 318.205C202.219 320.373 201.744 322.622 202.938 325.06C204.268 324.87 205.571 324.667 206.873 324.477C206.86 324.288 206.86 324.098 206.846 323.922C205.978 323.841 205.123 323.773 204.146 323.678C204.214 322.594 204.281 321.755 204.336 320.874C205.231 320.657 205.991 320.481 207.226 320.183C206.425 319.993 206.086 319.98 205.828 319.831C205.258 319.492 204.729 319.086 204.173 318.707C204.675 318.273 205.109 317.745 205.679 317.433C206.1 317.203 206.67 317.244 207.172 317.162ZM203.44 308.899C201.73 308.641 200.604 308.465 199.6 308.303C198.609 305.35 200.102 302.207 197.877 299.633C196.94 302.843 196.547 306.027 197.497 309.197C200.699 310.064 200.699 310.064 203.44 308.899ZM218.081 323.434C218.353 323.461 218.624 323.502 218.882 323.529C220.89 321.24 217.823 317.636 220.727 315.333C219.18 315.55 217.634 315.767 215.951 315.997C217.756 317.88 217.729 317.88 217.81 320.739C217.837 321.633 217.986 322.527 218.081 323.434ZM213.644 301.489C213.793 301.665 213.943 301.841 214.092 302.017C214.893 301.746 215.666 301.448 215.517 299.646C214.648 300.5 214.146 301.001 213.644 301.489Z" fill="#AEE8E2"/>
<path d="M256.523 333.716C257.703 331.075 258.721 328.704 259.82 326.388C260.187 325.615 260.675 324.857 261.272 324.261C263.742 321.822 264.529 319.005 263.511 315.672C263.321 315.063 263.294 314.412 263.118 313.301C264.257 313.478 265.153 313.532 266.008 313.776C278.017 317.095 290.012 320.427 302.02 323.746C302.97 324.003 303.961 324.152 304.938 324.356C305.046 324.085 305.155 323.814 305.264 323.543C304.748 323.191 304.273 322.662 303.69 322.5C296.376 320.481 289.075 318.463 281.735 316.566C279.658 316.024 278.044 315.063 276.578 313.478C272.467 309.021 268.22 304.672 264 300.324C262.9 299.186 262.195 298.061 262.331 296.341C262.439 294.986 261.964 293.591 261.734 292.033C266.333 287.752 270.309 282.523 276.348 279.354C278.342 281.318 280.215 283.241 282.169 285.084C296.783 298.861 310.515 313.437 322.524 329.585C324.342 332.023 326.079 334.475 326.839 337.509C328.426 343.903 324.084 349.728 317.476 349.593C309.972 349.444 302.658 347.778 295.358 346.152C284.652 343.781 274.38 339.961 264.054 336.371C261.611 335.491 259.169 334.637 256.523 333.716Z" fill="#EDD8C5"/>
<path d="M188.406 761.005C198.393 763.606 208.027 762.468 217.525 758.729C223.563 765.38 230.429 770.988 237.811 775.96C240.335 777.653 242.832 779.414 245.518 780.783C250.268 783.208 251.733 787.393 252.33 792.216C252.547 793.95 251.842 794.803 250.213 795.251C245.369 796.605 240.457 797.174 235.436 796.7C228.177 796.009 221.175 794.207 214.214 792.067C208.325 790.252 202.314 788.775 196.303 787.366C193.168 786.635 191.065 784.901 189.708 782.124C186.723 776.001 185.624 769.634 187.279 762.915C187.388 762.495 187.564 762.102 187.754 761.723C187.849 761.546 188.039 761.411 188.406 761.005Z" fill="#191919"/>
<path d="M103.422 760.991C113.273 764.459 123.219 765.651 133.627 761.776C134.169 763.564 134.943 765.163 135.079 766.802C135.594 772.722 134.766 778.452 131.876 783.763C130.641 786.025 129 787.732 126.367 788.423C116.855 790.942 107.397 793.692 97.8447 796.063C93.6654 797.106 89.3232 797.892 85.0354 798.014C80.8696 798.136 76.636 797.499 72.4974 796.794C69.3494 796.253 69.0509 795.44 69.5801 792.229C70.3264 787.759 72.2668 784.277 76.5004 781.893C86.433 776.312 95.4158 769.362 103.422 760.991Z" fill="#191919"/>
<path d="M242.994 337.008C245.695 336.101 248.598 336.507 250.851 334.001C247.391 334.448 244.378 335.166 241.38 335.139C238.286 335.112 235.192 334.34 231.922 333.879C231.922 331.116 231.922 328.569 231.922 325.751C232.845 325.846 233.672 325.859 234.473 326.022C236.386 326.401 238.326 326.713 240.185 327.295C244.785 328.731 248.408 326.699 251.923 324.18C252.018 324.112 251.936 323.8 251.936 323.448C250.769 322.906 249.928 323.814 249.1 324.342C246.075 326.266 242.954 326.74 239.48 325.697C237.024 324.952 234.473 324.532 231.881 323.936C231.881 320.766 231.881 317.894 231.881 314.751C235.667 314.575 239.303 314.372 242.954 314.223C245.45 314.128 247.947 314.223 250.43 313.979C251.923 313.844 253.646 313.708 254.65 311.486C246.997 313.546 239.561 312.313 232.003 313.315C232.003 310.105 232.003 307.355 232.003 304.415C236.386 304.144 240.688 304.022 244.948 303.589C249.223 303.155 253.022 301.205 256.957 299.687C255.179 298.563 253.714 299.511 252.303 300.053C246.427 302.342 240.335 302.979 234.106 302.668C233.672 302.64 233.238 302.613 232.817 302.546C232.627 302.505 232.451 302.356 232.044 302.126C232.044 299.159 232.044 296.07 232.044 292.494C234.405 292.155 236.807 291.681 239.222 291.492C243.863 291.126 248.531 290.909 253.185 290.665C254.148 290.611 255.152 290.652 256.102 290.801C259.427 291.329 261.218 293.307 260.838 296.626C260.485 299.687 260.756 302.383 262.67 304.903C263.809 306.406 263.714 308.154 262.887 309.834C261.747 312.15 261.313 314.467 262.181 317.013C262.914 319.14 262.032 320.983 260.675 322.703C259.617 324.044 258.517 325.48 257.961 327.052C256.306 331.671 253.117 334.936 249.223 337.645C246.875 339.257 245.708 339.122 242.994 337.008Z" fill="#EDD8C5"/>
<path d="M148.363 196.57C160.561 202.747 172.624 203.072 185.067 197.925C185.366 203.235 186.546 208.315 190.563 212.487C190.142 212.921 189.857 213.368 189.45 213.625C177.455 221.36 164.781 222.999 151.402 217.703C148.173 216.429 145.309 214.506 142.718 211.62C147.263 207.705 148.349 202.517 148.363 196.57Z" fill="#EDD8C5"/>
<path d="M107.384 69.5976C113.232 70.722 114.521 70.6407 121.143 68.8932C120.844 72.9436 120.166 77.0212 120.37 81.0445C120.559 84.9866 121.659 88.8745 122.378 92.952C115.729 100.01 115.24 100.999 112.662 112.337C110.79 111.457 108.822 110.671 107.031 109.601C106.285 109.154 105.769 108.151 105.403 107.284C101.563 98.2623 100.056 89.0506 103.449 79.5408C104.643 76.1948 106.054 72.9436 107.384 69.5976Z" fill="#5C4833"/>
<path d="M172.583 279.448C174.158 278.852 175.677 277.958 177.306 277.701C183.276 276.766 189.274 275.737 195.298 275.303C204.485 274.639 213.698 274.87 222.83 276.346C225.354 276.753 227.932 277.105 230.619 279.028C229.221 279.733 228.258 280.315 227.227 280.708C220.795 283.201 214.078 284.23 207.239 284.61C196.574 285.192 186.031 284.379 175.718 281.48C174.714 281.196 173.737 280.817 172.746 280.478C172.692 280.126 172.638 279.787 172.583 279.448Z" fill="white"/>
<path d="M216.738 109.858C216.738 108.829 216.738 107.799 216.738 106.756C216.67 94.9568 216.629 83.1577 216.493 71.3585C216.466 68.6628 216.276 65.9263 215.761 63.2847C215.326 61.1037 214.363 59.004 213.535 56.9178C212.992 55.5632 212.911 55.6038 214.309 53.6802C219.641 59.0717 224.649 64.5581 224.73 72.6861C224.866 85.3387 223.807 97.788 217.687 109.248C217.538 109.519 217.403 109.804 217.267 110.088C217.09 110.021 216.914 109.939 216.738 109.858Z" fill="#5C4833"/>
<path d="M232.261 284.61C235.83 284.989 238.259 286.655 240.131 289.419C237.092 291.532 234.853 289.405 232.261 288.159C232.261 287.129 232.261 286.005 232.261 284.61Z" fill="white"/>
<path d="M130.533 452.52C132.853 454.999 135.16 457.465 137.589 460.066C135.024 460.675 133.423 460.011 132.432 457.722C131.754 456.151 130.736 454.728 129.881 453.238C130.098 452.994 130.316 452.751 130.533 452.52Z" fill="#29BFE4"/>
<path d="M122.201 458.075C118.823 457.262 115.77 456.517 112.092 455.636C118.076 454.213 120.356 454.755 122.201 458.075Z" fill="#29BFE4"/>
<path d="M179.056 315.171C180.834 316.079 181.173 317.217 179.585 318.707C179.409 317.528 179.232 316.35 179.056 315.171Z" fill="#AEE8E2"/>
<path d="M234.324 336.588C233.523 336.588 232.722 336.588 231.718 336.588C231.949 336.114 232.071 335.64 232.193 335.64C232.899 335.654 233.604 335.776 234.31 335.857C234.296 336.101 234.31 336.344 234.324 336.588Z" fill="white"/>
<path d="M280.011 280.478C279.401 279.936 278.912 279.503 278.342 279.002C280.147 278.297 280.147 278.297 280.011 280.478Z" fill="white"/>
<path d="M156.409 121.292C157.549 119.828 158.689 118.352 159.842 116.889C149.611 119.883 139.611 120.438 129.257 116.103C129.963 117.458 130.411 118.325 131.238 119.923C130.044 119.3 129.42 119.151 129.081 118.772C125.349 114.627 125.634 109.262 129.746 105.496C132.148 103.302 135.065 102.137 138.186 101.595C143.898 100.592 149.421 101.256 154.591 104.006C157.332 105.456 159.503 107.487 160.969 110.292C162.868 113.922 161.484 119.91 156.409 121.292ZM160.277 113.909C159.734 110.563 158.92 109.072 156.626 107.149C150.642 102.109 139.76 101.039 133.043 105.022C131.51 105.93 130.058 107.244 129.027 108.693C127.032 111.524 127.588 113.34 130.655 114.897C131.903 115.534 133.233 116.035 134.576 116.442C139.977 118.054 145.459 118.067 150.968 117.173C154.265 116.604 157.495 115.805 160.277 113.909Z" fill="black"/>
<path d="M207.877 119.219C197.714 120.695 188.31 120.763 178.69 117.038C179.246 118.108 179.518 118.731 179.87 119.314C180.264 119.937 180.739 120.506 181.594 121.657C180.454 121.332 179.802 121.346 179.45 121.02C175.664 117.458 175.623 111.714 179.3 107.989C182.109 105.144 185.692 103.911 189.504 103.478C195.041 102.841 200.333 103.816 204.987 107.04C208.257 109.303 210.537 112.215 210.184 116.509C209.94 119.544 208.352 121.752 205.842 123.351C205.638 123.472 205.258 123.323 204.566 123.269C205.652 121.955 206.547 120.871 207.877 119.219ZM208.569 117.268C209.302 113.502 207.66 111.01 205.177 109.045C200.604 105.415 195.299 104.25 189.572 104.968C186.18 105.388 182.91 106.363 180.508 108.923C176.302 113.407 177.821 115.412 182.109 116.672C185.407 117.647 188.867 118.216 192.3 118.569C197.714 119.124 203.101 118.758 208.569 117.268Z" fill="black"/>
<path d="M209.98 104.534C209.085 103.803 208.176 103.098 207.321 102.326C205.272 100.484 202.911 99.7118 200.17 99.8879C194.444 100.24 188.718 100.538 182.978 100.823C181.702 100.89 180.427 100.836 178.703 100.836C178.703 99.4002 178.595 98.1404 178.731 96.9076C179.002 94.3473 179.952 93.0469 182.53 92.803C186.614 92.4237 190.739 92.3831 194.837 92.356C197.85 92.3424 200.876 92.4102 203.861 92.7217C208.651 93.2094 210.496 95.255 210.808 100.064C210.903 101.432 210.822 102.8 210.822 104.182C210.55 104.304 210.265 104.412 209.98 104.534ZM180.481 99.5221C183.127 99.346 185.8 99.1564 188.473 98.9938C192.585 98.7364 196.683 98.5061 200.794 98.2623C204.01 98.0727 206.547 99.7524 209.112 101.554C209.424 96.5283 207.904 94.4422 203.427 94.1983C198.04 93.8867 192.625 93.8732 187.225 93.7648C186.153 93.7377 185.054 93.8055 183.982 93.9545C180.44 94.4557 179.816 95.404 180.481 99.5221Z" fill="black"/>
<path d="M126.068 102.367C125.363 97.5442 128.551 92.6674 132.812 91.5973C138.253 90.2426 143.763 90.7303 149.272 91.1367C151.104 91.2722 152.935 91.4076 154.74 91.7192C157.372 92.1662 158.146 93.2228 158.105 95.9457C158.092 96.5959 158.078 97.2462 157.997 97.8829C157.63 100.47 156.993 101.134 154.401 100.877C149.462 100.375 144.536 99.6981 139.61 99.1021C138.538 98.9666 137.453 98.8853 136.394 98.7228C133.572 98.3028 131.062 98.8989 128.809 100.714C128.022 101.337 127.072 101.757 126.068 102.367ZM156.056 99.6168C156.341 98.2757 156.558 97.5578 156.626 96.8263C156.884 93.9815 156.423 93.3719 153.6 93.0061C151.782 92.7758 149.95 92.5997 148.118 92.4642C143.152 92.112 138.172 91.7192 133.26 92.9113C130.017 93.697 128.185 95.9999 127.941 99.9149C130.858 96.7043 134.346 97.0565 137.819 97.4629C141.035 97.8287 144.251 98.2486 147.467 98.628C150.249 98.9666 153.017 99.2782 156.056 99.6168Z" fill="black"/>
<path d="M144.414 159.303C145.486 159.493 145.852 159.452 146.042 159.615C149.638 162.676 153.98 163.936 158.499 164.708C166.966 166.158 175.324 165.63 183.48 162.934C186.017 162.094 188.378 160.726 191.187 159.412C190.902 160.143 190.861 160.875 190.508 161.092C188.839 162.08 187.17 163.137 185.352 163.787C174.755 167.594 163.981 168.014 153.166 164.912C150.723 164.207 148.471 162.758 146.205 161.525C145.621 161.2 145.282 160.401 144.414 159.303Z" fill="black"/>
<path d="M171.702 112.608C172.19 113.516 172.747 114.41 173.154 115.345C176.058 121.942 176.533 128.905 176.126 135.976C176.017 137.954 175.176 139.607 173.1 140.108C169.192 141.07 165.27 140.731 161.254 139.688C161.769 139.498 162.271 139.16 162.787 139.146C165.27 139.092 167.767 139.2 170.25 139.092C173.778 138.943 174.619 138.103 174.769 134.581C175.067 127.713 174.362 120.994 171.403 114.654C171.159 114.125 171.064 113.502 170.901 112.933C171.173 112.838 171.444 112.73 171.702 112.608Z" fill="black"/>
<path d="M148.349 151.826C146.124 153.031 143.763 153.898 141.958 155.402C139.855 157.15 139.163 159.9 139.895 162.5C140.533 164.749 141.904 166.795 142.976 168.976C139.271 167.77 137.263 162.473 138.742 157.935C140.208 153.384 144.523 150.674 148.349 151.826Z" fill="black"/>
<path d="M187.415 151.785C191.621 150.485 195.61 151.934 197.686 155.524C199.885 159.331 199.26 164.397 195.909 167.689C196.004 166.808 196.004 166.266 196.14 165.752C196.574 164.085 197.361 162.46 197.483 160.78C197.822 156.269 194.633 152.896 190.088 152.639C189.192 152.584 188.283 152.517 187.387 152.449C187.387 152.232 187.401 152.002 187.415 151.785Z" fill="black"/>
<path d="M198.989 329.368C200.455 329.598 201.608 329.761 202.748 329.964C207.036 330.763 209.967 337.022 207.66 340.733C207.172 341.533 205.978 342.264 205.055 342.332C203.481 342.454 201.839 342.156 200.292 341.763C199.749 341.628 199.057 340.72 199.044 340.151C198.921 336.642 198.989 333.107 198.989 329.368ZM203.101 331.562C202.3 333.12 201.472 338.688 202.015 339.948C202.219 340.435 202.992 341.126 203.318 341.031C204.064 340.842 205.001 340.368 205.299 339.745C206.276 337.767 204.933 333.188 203.101 331.562Z" fill="#C73E41"/>
<path d="M196.262 342.291C194.512 342.549 193.969 341.709 193.82 340.517C193.711 339.663 193.779 338.783 193.684 337.929C193.548 336.683 192.748 336.67 191.689 337.049C191.472 338.336 191.241 339.663 191.024 340.95C189.505 341.113 188.894 340.286 188.975 339.257C189.165 336.48 189.396 333.689 189.885 330.953C190.156 329.422 191.459 328.664 193.087 328.853C194.647 329.043 196.303 329.49 196.547 331.251C197.063 334.949 197.171 338.688 196.262 342.291ZM193.603 330.086C191.974 331.82 191.649 333.269 192.056 334.854C192.123 335.112 192.911 335.179 193.603 335.423C193.603 333.689 193.603 332.213 193.603 330.086Z" fill="#C73E41"/>
<path d="M179.64 339.203C179.64 335.152 179.64 331.414 179.64 327.661C184.294 328.095 185.719 329.233 186.438 333.324C186.736 335.003 186.777 336.778 186.668 338.485C186.533 340.395 185.651 340.977 183.833 340.544C182.476 340.205 181.173 339.691 179.64 339.203ZM182.448 329.625C181.539 331.901 181.363 336.345 182.15 337.713C182.516 338.336 183.263 338.729 184.226 339.555C185.569 335.518 184.267 332.714 182.448 329.625Z" fill="#C73E41"/>
<path d="M205.231 309.495C205.014 306.054 205.258 302.993 205.76 299.836C208.04 299.308 209.926 299.917 211.174 301.746C212.477 303.67 213.115 305.892 212.246 308.181C212.043 308.75 211.201 309.373 210.591 309.441C208.922 309.603 207.212 309.495 205.231 309.495ZM207.673 301.381C207.673 303.819 207.592 305.634 207.741 307.436C207.768 307.842 208.569 308.479 209.03 308.479C209.437 308.479 210.197 307.761 210.197 307.368C210.17 305.323 209.899 303.318 207.673 301.381Z" fill="#C73E41"/>
<path d="M179.843 298.59C180.386 301.137 180.413 303.697 179.762 306.271C179.463 307.449 178.527 307.707 177.469 307.409C176.546 307.151 175.664 306.772 174.524 306.366C174.049 303.277 174.144 300.175 174.551 297.086C174.863 297.073 175.162 297.059 175.474 297.032C175.582 298.942 175.691 300.852 175.813 302.966C175.99 301.313 176.139 299.863 176.356 297.818C178.608 300.297 177.116 302.83 178.133 305.472C178.907 304.049 178.636 302.857 178.744 301.773C178.853 300.69 178.921 299.606 179.016 298.509C179.287 298.549 179.572 298.563 179.843 298.59Z" fill="#C73E41"/>
<path d="M194.62 316.079C195.991 316.079 197.13 315.848 198.107 316.146C199.057 316.431 200.55 317.203 200.591 317.853C200.74 319.858 200.564 321.971 199.98 323.881C199.79 324.491 197.931 324.789 196.818 324.83C195.665 324.884 194.715 324.098 194.647 322.852C194.552 320.725 194.62 318.585 194.62 316.079ZM196.669 320.793C198.107 320.617 199.193 320.17 199.125 318.693C199.057 317.284 198.053 316.756 196.533 316.81C196.466 317.528 196.357 318.151 196.371 318.774C196.398 319.397 196.547 320.007 196.669 320.793ZM199.315 322.865C198.637 322.432 198.243 321.998 197.85 321.998C197.483 321.998 197.117 322.459 196.751 322.716C197.13 323.082 197.456 323.638 197.904 323.759C198.175 323.827 198.65 323.299 199.315 322.865Z" fill="#C73E41"/>
<path d="M188.867 309.441C188.026 306.122 188.378 303.385 188.487 300.676C188.5 300.324 189.057 299.985 189.857 299.064C189.966 301.083 190.047 302.41 190.088 303.724C190.115 304.618 190.115 305.512 191.269 305.702C192.463 305.892 193.073 305.147 193.399 304.171C194.009 302.383 191.377 300.432 189.857 299.064C196.384 299.267 196.262 302.64 193.643 306.799C193.942 307.788 194.254 308.791 194.579 309.847C194.349 309.82 191.431 307.07 191.092 306.65C190.468 307.422 189.898 308.14 188.867 309.441Z" fill="#C73E41"/>
<path d="M186.207 302.979C186.072 304.144 185.977 305.323 185.773 306.488C185.583 307.531 185.013 308.208 183.806 308.222C182.612 308.235 181.689 307.896 181.282 306.677C180.59 304.591 180.509 302.491 181.119 300.351C181.445 299.199 181.96 298.278 183.304 298.481C184.593 298.685 185.868 299.118 186.058 300.717C186.14 301.462 186.072 302.22 186.072 302.965C186.126 302.979 186.167 302.979 186.207 302.979ZM183.941 299.267C182.557 302.898 182.639 305.092 184.064 307.124C184.946 304.618 185.027 302.302 183.941 299.267Z" fill="#C73E41"/>
<path d="M183.941 323.434C183.941 320.739 183.941 318.327 183.941 315.957C186.994 315.036 188.188 315.564 189.043 318.111C189.206 318.612 189.274 319.154 189.369 319.696C189.952 323.218 189.328 323.868 185.664 323.543C185.23 323.502 184.809 323.489 183.941 323.434ZM187.347 322.581C188.025 320.427 187.55 318.571 186.058 316.973C185.664 319.018 185.094 321.091 187.347 322.581Z" fill="#C73E41"/>
<path d="M218.366 306.772C218.977 306.772 219.561 306.772 220.375 306.772C220.51 305.851 220.646 304.957 220.768 304.09C217.186 303.25 216.738 302.776 217.159 300.541C217.607 298.17 218.502 297.601 221.609 297.98C220.035 299.078 219.126 300.365 219.683 302.383C220.877 303.047 223.306 302.505 223.034 305.174C222.858 306.84 221.854 308.371 220.524 308.587C219.248 308.804 218.394 308.371 218.366 306.772Z" fill="#C73E41"/>
<path d="M210.306 323.326C211.365 322.662 213.848 323.746 213.129 321.091C212.03 320.563 210.849 320.129 209.859 319.425C209.533 319.194 209.614 318.205 209.723 317.609C210.103 315.483 210.768 315.117 213.115 315.401C212.627 316.485 212.097 317.65 211.541 318.869C213.02 320.048 215.707 319.452 215.286 322.053C215.164 322.811 214.676 323.827 214.065 324.125C212.817 324.735 211.365 325.033 210.306 323.326Z" fill="#C73E41"/>
<path d="M207.172 317.162C206.67 317.244 206.1 317.203 205.693 317.433C205.123 317.745 204.689 318.273 204.186 318.707C204.729 319.086 205.272 319.492 205.842 319.831C206.1 319.98 206.439 319.993 207.24 320.183C206.005 320.481 205.245 320.657 204.349 320.874C204.295 321.755 204.241 322.581 204.159 323.678C205.136 323.759 205.991 323.841 206.86 323.922C206.873 324.112 206.873 324.301 206.887 324.477C205.584 324.667 204.281 324.857 202.952 325.06C201.758 322.622 202.232 320.373 202.558 318.205C202.653 317.609 203.576 316.891 204.268 316.675C205.136 316.404 206.154 316.607 207.104 316.607C207.117 316.796 207.145 316.986 207.172 317.162Z" fill="#C73E41"/>
<path d="M203.44 308.899C200.699 310.064 200.699 310.064 197.497 309.197C196.547 306.041 196.94 302.844 197.877 299.633C200.116 302.207 198.623 305.35 199.6 308.303C200.618 308.452 201.73 308.628 203.44 308.899Z" fill="#C73E41"/>
<path d="M218.081 323.434C217.986 322.54 217.837 321.633 217.824 320.739C217.742 317.88 217.756 317.88 215.965 315.997C217.647 315.767 219.194 315.55 220.741 315.333C217.837 317.636 220.904 321.24 218.896 323.529C218.611 323.502 218.353 323.461 218.081 323.434Z" fill="#C73E41"/>
<path d="M213.644 301.489C214.146 300.988 214.662 300.5 215.517 299.647C215.666 301.435 214.906 301.746 214.092 302.017C213.943 301.855 213.794 301.679 213.644 301.489Z" fill="#C73E41"/>
<path d="M160.276 113.909C157.508 115.819 154.279 116.618 150.968 117.16C145.459 118.054 139.963 118.054 134.576 116.428C133.233 116.022 131.903 115.521 130.655 114.884C127.602 113.326 127.032 111.511 129.026 108.68C130.044 107.23 131.496 105.916 133.043 105.009C139.746 101.039 150.642 102.096 156.626 107.135C158.906 109.073 159.72 110.549 160.276 113.909ZM144.265 112.554C145.526 109.669 145.526 109.669 142.69 108.273C142.365 109.222 141.605 110.292 141.863 110.955C142.148 111.673 143.396 112.012 144.265 112.554Z" fill="white"/>
<path d="M208.569 117.268C203.101 118.758 197.714 119.124 192.3 118.569C188.867 118.216 185.406 117.647 182.109 116.672C177.821 115.412 176.301 113.394 180.508 108.923C182.91 106.363 186.18 105.388 189.572 104.968C195.298 104.25 200.604 105.415 205.177 109.045C207.66 111.01 209.302 113.489 208.569 117.268ZM191.363 109.587C190.956 110.359 190.156 111.172 190.223 111.89C190.359 113.34 191.689 113.475 192.883 113.543C194.172 111.104 194.172 111.104 191.363 109.587Z" fill="white"/>
<path d="M180.481 99.5221C179.829 95.4039 180.44 94.4556 183.995 93.9544C185.067 93.8054 186.153 93.7377 187.238 93.7648C192.639 93.8731 198.039 93.8867 203.44 94.1983C207.918 94.4556 209.438 96.5283 209.125 101.554C206.561 99.7524 204.023 98.0726 200.808 98.2622C196.696 98.5061 192.598 98.7364 188.487 98.9937C185.786 99.1563 183.113 99.346 180.481 99.5221Z" fill="#8D7958"/>
<path d="M156.056 99.6168C153.017 99.2646 150.249 98.9666 147.481 98.6415C144.265 98.2621 141.049 97.8422 137.833 97.4764C134.346 97.0836 130.858 96.7178 127.955 99.9284C128.212 96.0134 130.044 93.7105 133.274 92.9248C138.186 91.7191 143.166 92.1255 148.132 92.4777C149.964 92.5996 151.796 92.7758 153.614 93.0196C156.423 93.3854 156.898 93.9949 156.64 96.8397C156.558 97.5577 156.328 98.2757 156.056 99.6168Z" fill="#8D7958"/>
<path d="M203.101 331.562C204.919 333.188 206.276 337.767 205.313 339.745C205 340.368 204.064 340.842 203.331 341.032C202.992 341.113 202.232 340.436 202.029 339.948C201.486 338.688 202.314 333.12 203.101 331.562Z" fill="#AEE8E2"/>
<path d="M193.602 330.086C193.602 332.213 193.602 333.689 193.602 335.423C192.897 335.179 192.11 335.112 192.056 334.854C191.648 333.269 191.974 331.833 193.602 330.086Z" fill="#AEE8E2"/>
<path d="M182.449 329.625C184.281 332.7 185.57 335.518 184.226 339.541C183.276 338.715 182.517 338.322 182.15 337.699C181.35 336.358 181.54 331.915 182.449 329.625Z" fill="#AEE8E2"/>
<path d="M207.674 301.38C209.899 303.318 210.184 305.323 210.184 307.368C210.184 307.761 209.424 308.479 209.017 308.479C208.569 308.479 207.769 307.842 207.728 307.436C207.592 305.634 207.674 303.819 207.674 301.38Z" fill="#AEE8E2"/>
<path d="M196.669 320.793C196.547 320.021 196.398 319.398 196.384 318.774C196.371 318.151 196.479 317.528 196.547 316.81C198.067 316.756 199.071 317.284 199.139 318.693C199.193 320.17 198.108 320.617 196.669 320.793Z" fill="#AEE8E2"/>
<path d="M199.315 322.866C198.65 323.313 198.189 323.841 197.89 323.76C197.443 323.638 197.117 323.082 196.737 322.717C197.103 322.459 197.47 321.999 197.836 321.999C198.243 321.985 198.637 322.432 199.315 322.866Z" fill="#AEE8E2"/>
<path d="M183.941 299.267C185.027 302.315 184.932 304.618 184.063 307.124C182.638 305.079 182.557 302.884 183.941 299.267Z" fill="#AEE8E2"/>
<path d="M187.347 322.581C185.108 321.091 185.664 319.018 186.058 316.973C187.537 318.571 188.025 320.441 187.347 322.581Z" fill="#AEE8E2"/>
<path d="M144.265 112.554C143.396 112.012 142.162 111.673 141.877 110.955C141.619 110.292 142.379 109.221 142.704 108.273C145.513 109.682 145.513 109.682 144.265 112.554Z" fill="black"/>
<path d="M191.364 109.587C194.172 111.105 194.172 111.105 192.883 113.543C191.689 113.489 190.359 113.34 190.224 111.89C190.142 111.172 190.943 110.359 191.364 109.587Z" fill="black"/>
</svg>
