<svg width="303" height="800" viewBox="0 0 303 800" fill="none" xmlns="http://www.w3.org/2000/svg">
<path d="M0.0485492 378.045C0.101836 380.789 0.528136 383.467 2.44647 385.478C3.72536 386.824 5.37724 388.089 7.09575 388.649C10.2264 389.661 13.5168 389.675 16.8473 389.248C24.041 388.316 31.1149 386.877 38.1221 385.039C38.7083 384.879 39.3611 384.919 40.147 384.852C40.2136 385.572 40.3602 386.184 40.3335 386.784C39.7474 399.972 39.1612 413.161 38.5084 426.349C38.2953 430.719 37.9756 435.075 37.5892 439.418C37.2296 443.548 37.163 443.534 41.0529 444.92C41.6524 445.133 42.2252 445.386 43.0112 445.693C43.1844 448.503 43.4375 451.354 43.5174 454.192C43.8638 466.967 44.2102 479.756 44.4766 492.532C44.743 505.534 44.8496 518.523 45.156 531.525C45.5157 547.284 46.1019 563.044 46.4083 578.804C46.6614 591.806 46.8745 604.808 46.6614 617.796C46.4349 631.638 45.3825 645.452 43.9704 659.227C43.1311 667.38 42.9979 675.599 42.3185 683.766C41.266 696.381 40.0138 708.984 38.8548 721.599C38.2687 727.967 37.4028 734.322 37.1896 740.69C37.0297 745.725 36.5368 745.725 41.7989 748.15C42.4517 748.456 43.1178 748.762 43.9837 749.162C40.8398 757.488 42.7847 765.628 44.4633 773.767C44.8363 775.579 45.7688 776.965 47.2075 778.27C50.0318 780.828 52.5895 783.705 55.2006 786.503C56.1464 787.515 56.9458 788.661 57.7717 789.767C61.5151 794.749 66.2843 797.84 72.5855 798.892C77.2348 799.678 81.7775 800.677 86.4668 799.358C86.7732 799.265 87.0929 799.225 87.3993 799.132C91.7289 797.8 91.9287 797.267 92.5814 792.658C93.8603 783.665 90.9029 776.072 85.2944 769.318C80.9649 764.096 77.6344 758.314 75.05 752.08C74.8102 751.493 74.6237 750.894 74.2907 749.948C76.1691 749.375 77.9542 748.869 79.726 748.296C82.5635 747.377 82.5901 747.217 82.8832 744.286C84.0688 732.537 85.3477 720.787 86.4801 709.024C87.1195 702.456 87.5325 695.862 88.0387 689.281C89.0512 676.012 90.2102 662.757 91.0361 649.475C91.7821 637.473 92.4615 625.443 92.6214 613.413C92.8212 598.187 92.6347 582.947 92.3283 567.706C91.982 550.761 91.2093 533.843 90.8363 516.911C90.6098 506.906 90.7963 496.888 90.7963 486.777C93.5406 485.125 98.2565 484.192 105.97 483.886C106.063 484.659 106.223 485.458 106.236 486.257C106.329 494.783 106.29 503.309 106.489 511.835C106.836 526.529 107.449 541.223 107.688 555.917C108.035 576.166 108.301 596.402 108.288 616.651C108.274 629.32 107.222 641.962 105.93 654.578C105.184 661.771 104.771 669.005 104.358 676.239C103.452 691.865 102.24 707.465 100.241 722.998C99.4555 729.113 99.3222 735.308 98.7361 741.449C98.4963 743.953 99.8285 745.232 101.773 746.098C103.798 747.017 105.917 747.723 108.235 748.603C107.595 750.974 106.902 753.105 106.476 755.277C104.971 762.924 106.663 770.29 108.634 777.617C109.407 780.495 111.112 782.24 114.283 782.267C115.455 782.28 116.614 782.64 117.773 782.586C124.727 782.307 131.241 784.078 137.716 786.383C142.418 788.048 147.227 789.54 152.103 790.526C157.738 791.672 163.52 792.258 169.235 790.966C172.006 790.34 174.67 789.234 177.454 788.315C177.561 782.36 176.282 777.338 171.939 773.314C168.302 769.944 164.199 767.333 159.963 764.842C155.926 762.457 151.903 760.033 147.96 757.515C144.083 755.037 140.806 751.866 137.436 748.323C138.994 747.817 140.247 747.31 141.552 747.004C143.484 746.551 144.376 745.552 144.523 743.487C144.949 737.546 145.535 731.604 146.135 725.676C147.134 715.924 148.253 706.199 149.172 696.448C149.665 691.252 149.758 686.03 150.158 680.822C151.077 668.925 152.103 657.056 152.996 645.159C153.435 639.431 153.862 633.676 153.955 627.934C154.195 612.801 154.488 597.667 154.341 582.547C154.181 566.254 153.489 549.962 153.115 533.669C152.849 522.066 152.796 510.45 152.489 498.846C152.236 488.842 151.703 478.837 151.357 468.832C151.117 461.918 150.984 455.004 150.811 448.277C151.104 447.944 151.21 447.704 151.384 447.651C154.834 446.625 155.98 444.44 155.953 440.764C155.846 429.373 156.166 417.97 156.326 406.567C156.339 405.754 156.433 404.941 156.513 403.822C157.605 404.395 158.444 404.808 159.244 405.274C164.306 408.232 169.381 411.163 174.39 414.2C175.842 415.079 177.081 415.159 178.547 414.32C182.05 412.308 185.674 410.483 189.164 408.445C200.754 401.677 212.304 394.857 223.881 388.063C224.613 387.623 225.359 387.223 226.199 386.757C226.971 387.57 227.717 388.303 228.397 389.102C233.286 394.883 240.013 394.963 245.782 391.779C252.416 388.103 257.598 382.641 261.142 375.913C262.381 373.569 262.66 370.638 262.993 367.92C263.18 366.362 263.713 365.456 265.032 364.683C271.466 360.9 277.847 357.05 284.241 353.213C288.171 350.855 288.944 348.577 287.572 344.021C287.345 343.262 287.479 342.329 287.639 341.516C291.502 322.107 295.405 302.684 299.295 283.274C300.148 278.997 301.027 274.721 301.84 270.432C302.053 269.286 302.146 268.1 302.106 266.941C302.039 264.743 300.601 263.624 298.496 264.13C297.577 264.344 296.737 264.863 295.885 265.303C267.536 279.797 239.174 294.304 210.825 308.798C209.8 309.318 208.747 309.811 207.601 310.37C207.282 309.891 206.989 309.584 206.842 309.225C204.831 304.189 202.872 299.113 200.821 294.091C200.235 292.652 200.288 291.507 201.314 290.281C203.072 288.176 203.418 286.045 202.286 283.274C196.758 269.779 191.602 256.124 186.047 242.642C183.782 237.141 180.785 231.945 178.267 226.536C175.216 219.995 169.901 215.879 163.64 212.868C158.524 210.404 153.049 208.925 147.4 208.326C142.431 207.793 137.436 207.406 132.453 207.087C131.255 207.007 130.508 206.54 129.776 205.688C126.818 202.264 126.019 198.108 126.006 193.792C126.006 192.779 126.698 191.527 127.471 190.794C134.718 183.933 140.367 175.767 146.241 167.801C149.532 163.338 150.744 157.929 151.757 152.601C154.128 140.132 155.633 127.556 155.74 114.847C155.753 113.501 156.06 112.103 156.539 110.837C157.605 108.053 158.817 105.322 160.029 102.604C163.84 94.0516 164.652 84.9395 164.785 75.7475C164.825 72.4703 164.599 69.1532 164.093 65.916C163.586 62.7188 162.001 59.9079 159.83 57.4567C158.058 55.4718 156.326 53.4336 154.621 51.3953C153.342 49.85 153.315 48.9708 154.847 47.9716C158.164 45.8135 159.363 42.7495 159.07 38.7929C161.402 38.9928 161.029 41.7371 162.894 42.5097C163.187 42.0568 163.573 41.6838 163.693 41.2308C164.772 37.0878 163.027 31.6259 159.563 29.2546C157.432 27.8025 155.607 26.2305 154.288 23.9525C153.582 22.7269 152.183 21.9143 150.891 20.7286C151.104 20.1825 151.397 19.4364 151.797 18.424C153.702 19.0768 155.46 19.6895 157.605 20.4356C157.472 19.4364 157.538 18.6904 157.259 18.1176C154.887 13.3617 150.971 10.7107 145.749 10.0579C144.43 9.88475 143.391 9.6183 142.352 8.71242C137.436 4.44946 132.027 2.86417 125.753 6.30118C124.967 5.40863 124.247 4.52939 123.461 3.70345C119.438 -0.572837 114.323 -0.8526 109.78 2.86417C108.834 3.62351 107.715 4.80916 106.729 4.76919C104.824 4.68926 103.079 3.66349 101.92 1.97162C101.507 1.37215 101.107 0.785983 100.561 0C98.7761 1.46539 99.5621 3.49031 99.1358 4.79584C95.9119 5.23546 92.9145 5.64842 89.4642 6.11468C88.7448 5.12887 88.5317 2.81089 86.0272 2.66435C84.7216 4.63597 86.1737 7.71329 83.3761 9.33854C80.392 7.58007 77.1549 6.10137 73.3582 7.54012C69.8545 8.87229 67.7231 11.5899 65.8314 14.8804C63.4201 12.709 63.4468 10.2844 64.7123 7.64669C60.6625 7.75327 58.3312 10.8706 56.9324 17.7579C51.5904 18.3441 47.0077 20.6221 43.9304 25.2314C42.1053 27.9757 41.2794 31.1196 41.1728 34.3701C41.3993 34.5033 41.6124 34.6232 41.8389 34.7565C43.2643 33.3044 44.6897 31.8523 46.3949 30.1205C46.7813 33.1179 47.1143 35.6623 47.4473 38.2201C39.8673 41.777 38.2287 47.2789 42.5982 54.4327C38.5884 61.4399 39.4143 68.4338 44.8762 70.4588C44.783 69.0067 44.7031 67.7145 44.6098 66.0892C45.4491 66.3956 46.0619 66.6354 47.0743 67.0084C40.0405 80.1437 38.7482 93.3988 45.7555 106.867C45.3292 107.28 45.0761 107.653 44.7297 107.813C41.1195 109.452 39.6408 112.476 39.2145 116.192C38.6949 120.722 39.1879 125.091 40.9463 129.341C42.4917 133.084 45.0627 135.456 49.1259 136.135C50.6978 136.401 52.2565 136.761 54.0683 137.121C54.4279 139.066 54.8276 141.024 55.1473 142.996C56.253 149.843 57.9848 156.531 60.3428 163.058C62.7274 169.653 66.7239 175.114 71.8928 179.684C76.1158 183.414 80.6052 186.851 85.108 190.248C86.4534 191.26 87.1595 192.22 86.973 193.911C86.6266 196.989 86.3868 200.039 84.7749 202.824C83.4161 205.182 81.5511 206.287 78.8334 206.434C73.9443 206.714 69.0685 207.18 64.1928 207.606C56.8658 208.232 50.0184 210.377 43.6906 214.174C42.0121 215.173 40.7199 216.452 39.5742 218.064C31.9275 228.868 26.8253 240.924 22.0561 253.14C17.2869 265.329 12.7575 277.625 8.14818 289.881C7.46877 291.666 7.00251 293.545 6.40303 295.357C5.4039 298.341 6.03003 300.299 8.65441 302.084C9.53365 302.684 10.4928 303.163 11.3987 303.723C12.3046 304.282 13.1838 304.882 14.1829 305.534C14.0497 306.294 13.9565 307.013 13.7966 307.706C9.8134 324.585 5.73694 341.45 1.86031 358.355C0.381594 364.803 -0.177921 371.397 0.0485492 378.045ZM7.69524 298.341C10.6793 296.862 13.4236 296.169 16.5542 297.635C15.9947 299.593 15.4485 301.498 14.7291 304.029C12.1714 301.924 8.88088 301.618 7.69524 298.341ZM48.3932 68.0475C50.9243 68.2207 53.149 68.5937 55.3471 68.4338C57.5186 68.274 59.6501 67.5813 62.1279 67.0484C59.8899 75.0681 60.6759 82.8879 63.1004 90.6679C56.8525 95.6502 54.2947 102.444 53.3356 110.384C52.3498 109.518 51.8435 108.972 51.2307 108.572C50.5247 108.106 49.7653 107.547 48.9793 107.44C47.4473 107.24 46.8479 106.254 46.3283 105.029C42.5583 96.1431 41.0263 87.111 44.2635 77.6925C45.4358 74.2821 46.5415 70.8717 48.3932 68.0475ZM150.851 42.3365C151.837 45.7069 153.142 48.7976 151.21 51.755C149.479 54.4061 147.574 56.9372 143.684 57.4434C144.869 55.1387 146.548 53.3137 145.802 50.5427C141.499 51.3554 137.249 52.0614 134.039 48.2647C134.225 47.0791 134.385 46 134.558 44.9343C134.358 44.8144 134.145 44.7078 133.946 44.5879C132.467 46.7993 131.881 49.89 128.657 50.3962C125.646 50.8625 123.341 49.2772 121.037 47.945C110.752 51.9282 104.864 52.1813 100.095 48.731C101.201 47.6786 102.386 46.746 103.332 45.6137C104.278 44.4947 105.73 43.5621 105.45 41.0443C104.451 42.1367 103.905 42.8428 103.239 43.4422C101.107 45.3606 99.1358 47.532 96.7512 49.0374C93.1676 51.3021 89.331 51.5152 85.6941 48.8109C85.3877 48.5711 84.9481 48.5045 84.4552 48.318C83.909 49.064 83.4027 49.7434 82.9232 50.4228C79.8192 54.8323 75.8493 57.8031 70.2275 57.8431C68.7621 57.8564 68.2826 58.7356 67.6431 59.7747C66.1511 62.1993 64.4059 62.8121 61.6617 62.0794C60.8091 61.8396 59.9431 61.6131 58.7442 61.2801C59.2904 63.5581 61.4752 63.1185 62.3677 64.2375C58.3579 68.3806 47.887 67.7544 45.0228 63.4382C45.2892 62.5856 45.569 61.6398 45.9819 60.241C42.9179 61.7597 43.7705 64.5173 42.878 66.4622C40.893 63.3849 40.6532 60.161 42.7314 57.3102C44.1435 55.3785 44.3167 54.033 42.8513 51.9948C40.7332 49.0507 41.5058 43.8685 44.1169 41.7237C45.0628 40.9511 46.355 40.5781 47.514 40.0985C48.7262 39.6189 49.4589 40.5248 50.3382 41.1109C50.7511 41.3907 51.4172 41.3241 52.7494 41.5239C48.3133 37.5673 47.061 33.3976 49.1792 28.5485C48.0202 27.5361 47.0743 28.2288 46.1818 28.735C45.3026 29.2279 44.5032 29.854 43.664 30.4269C45.9287 22.7402 51.1774 19.2633 59.0906 19.503C58.238 15.7197 59.0506 12.6956 62.0214 10.0313C62.794 13.1086 63.2869 15.8529 66.4308 17.3982C67.9628 13.9079 69.7746 10.7906 73.3049 9.20534C77.1415 7.48683 80.3121 9.11208 83.3095 11.2835C85.8406 10.0979 86.3335 7.62005 87.2128 5.43528C89.3176 7.79323 86.0538 9.53838 86.7732 11.6832C88.3718 10.2178 89.624 8.44598 91.3292 7.67332C93.1676 6.84737 95.4856 6.52767 97.4972 6.75414C99.3089 6.96729 101.014 8.20621 103.279 9.23199C102.346 7.04722 100.202 5.88821 100.814 3.84999C103.226 4.92905 105.517 5.96814 107.888 7.03388C110.486 3.9832 113.057 1.38546 117.187 1.85172C121.223 2.30466 122.995 5.74168 125.206 8.39271C132.44 4.54272 137.955 5.6351 143.231 11.7631C143.577 12.1628 143.87 12.6157 144.257 12.9754C144.456 13.1619 144.816 13.1752 145.109 13.2685C145.389 12.669 145.642 12.1361 145.922 11.5233C149.758 12.3626 152.956 13.8813 155.247 17.7046C151.877 17.2517 148.999 16.5323 146.268 18.3174C147.427 18.4506 148.586 18.5972 150.038 18.7703C149.612 19.4498 149.399 19.7828 149.186 20.1292C148.932 20.5288 148.679 20.9418 148.213 21.7145C152.489 23.02 154.581 25.9108 155.394 30.1471C149.772 26.9366 148.546 26.7101 146.521 28.322C148.333 28.8283 150.411 29.0681 152.103 29.9873C153.848 30.9331 155.247 32.5584 157.312 34.3435C157.312 32.3852 157.312 31.1329 157.312 29.7475C161.388 32.1321 162.507 34.3701 161.974 38.6331C160.416 37.7272 159.39 35.8089 157.125 35.9554C157.259 38.0736 157.685 40.0718 157.445 42.0035C157.192 43.9618 156.153 45.7336 154.141 46.5062C152.849 45.2673 153.275 43.1625 150.851 42.3365ZM155.18 68.234C155.1 63.6647 154.874 59.0687 152.29 55.0188C151.57 53.8732 151.956 53.0472 153.395 52.1014C155.207 54.2861 156.859 56.3643 158.604 58.3493C161.615 61.773 162.987 65.8361 163.267 70.2989C163.373 72.0973 163.333 73.9091 163.293 75.7208C163.027 86.1118 161.855 96.303 156.846 105.668C156.606 106.134 156.273 106.534 155.633 107.48C155.633 105.975 155.647 105.135 155.633 104.283C155.487 92.2665 155.394 80.2502 155.18 68.234ZM123.994 191.633C121.916 193.498 119.451 194.977 116.627 195.19C112.085 195.523 107.502 195.55 102.932 195.63C99.4288 195.697 96.2849 194.444 93.1676 192.979C83.9489 188.663 76.2756 182.282 69.4682 174.875C66.9104 172.09 64.6191 168.813 63.1537 165.363C60.9556 160.194 59.397 154.732 57.9715 149.297C56.7992 144.821 56.2131 140.185 55.3871 135.789C52.7494 135.229 50.2582 134.75 47.7804 134.177C45.9153 133.75 44.5032 132.631 43.5574 130.993C40.4135 125.558 39.6674 119.789 41.2661 113.741C42.0121 110.904 44.0636 109.172 46.8745 108.679C49.5788 108.213 51.1375 110.144 52.5362 112.103C53.0292 112.795 53.5087 113.501 54.4013 114.794C54.5878 113.142 54.721 112.329 54.7743 111.503C55.2805 103.896 57.5452 97.1023 63.7665 92.1599C64.7656 91.3606 64.8189 90.5613 64.4592 89.3756C63.6999 86.8445 62.9405 84.2601 62.5809 81.649C61.8215 76.0938 62.2345 70.6053 64.4459 65.3565C64.7257 64.7038 65.1653 64.0643 65.6715 63.5714C67.0836 62.2126 68.589 60.9337 70.3208 59.3884C76.662 59.4283 81.1913 55.6316 84.9614 50.2896C89.1444 52.8474 93.2609 52.7142 97.4572 50.5294C98.0434 50.223 99.0425 50.5561 99.8152 50.7692C101.667 51.2621 103.439 52.0215 105.304 52.3811C110.046 53.287 114.602 52.4478 118.972 50.4228C119.918 49.9832 120.757 49.3038 121.929 50.0498C125.699 52.4611 129.483 52.7009 133.16 49.5436C136.41 52.6343 140.247 53.0472 144.31 52.2479C144.35 55.3785 141.472 56.3643 140.3 58.9887C144.55 59.8413 147.494 57.9763 150.891 55.1121C151.703 57.47 152.583 59.2951 152.916 61.2135C153.395 63.9178 153.635 66.702 153.675 69.4596C153.875 82.3418 153.822 95.2239 154.128 108.106C154.474 122.867 152.942 137.441 150.331 151.921C149.345 157.383 147.933 162.805 144.59 167.361C140.433 173.023 136.157 178.618 131.694 184.04C129.416 186.811 126.672 189.249 123.994 191.633ZM129.656 208.179C117.906 218.996 92.6614 219.196 83.0564 207.233C87.4659 203.543 88.1586 198.254 88.5849 192.659C100.468 198.801 112.218 198.92 124.367 194.018C124.727 199.227 125.873 204.249 129.656 208.179ZM197.637 292.133C191.988 297.768 185.434 302.084 178.094 305.188C176.828 305.721 175.483 306.121 174.137 306.427C171.526 307.04 171.073 306.827 169.928 304.362C167.41 298.953 164.932 293.518 162.494 288.083C162.121 287.23 161.775 286.245 161.815 285.339C161.988 281.622 162.361 277.918 162.561 274.202C162.641 272.576 163.267 270.924 162.574 269.273C162.241 269.379 161.881 269.406 161.868 269.486C158.591 292.346 159.35 315.459 157.672 338.746C156.992 338.239 156.433 337.973 156.06 337.533C154.288 335.428 151.863 334.722 149.319 334.269C148.053 334.056 146.788 333.87 145.509 333.83C137.942 333.617 130.375 333.404 123.062 335.868C117.413 337.773 111.791 339.745 106.13 341.623C101.787 343.062 97.4838 344.687 93.0344 345.686C78.3938 348.977 63.6999 352.027 49.0193 355.145C47.2742 355.518 45.4891 355.757 43.4375 356.104C43.8904 340.611 44.3434 325.45 44.783 310.224C47.3141 309.451 48.1001 307.493 48.8195 305.428C55.2539 286.937 60.1963 267.9 69.295 250.409C69.4549 250.089 69.2151 249.556 69.1618 249.117C68.922 249.064 68.6956 249.024 68.4558 248.97C58.7042 266.741 53.8818 286.444 47.0743 305.348C44.5299 305.681 42.838 304.202 40.9996 303.256C30.7152 297.994 19.9646 294.837 7.96167 295.623C8.48122 293.971 8.92084 292.266 9.54697 290.614C14.3162 277.958 19.032 265.289 23.9344 252.687C27.6779 243.055 31.9808 233.69 36.9898 224.618C41.2261 216.945 47.6472 212.708 55.8534 210.644C56.3596 210.51 56.8792 210.324 57.3987 210.271C64.7923 209.418 72.1992 208.619 79.5927 207.753C80.7384 207.62 81.3512 208.179 82.0306 208.898C85.1879 212.216 89.0512 214.494 93.3674 215.839C106.143 219.809 118.279 218.21 129.336 210.67C132.08 208.818 134.558 208.166 137.609 208.725C138.555 208.898 139.514 208.925 140.473 209.018C147.48 209.711 154.434 210.684 161.002 213.441C168.102 216.425 173.738 220.875 177.321 227.949C186.633 246.319 194 265.489 201.047 284.806C201.54 286.151 201.42 287.324 200.634 288.416C199.702 289.708 198.743 291 197.637 292.133ZM43.2377 311.076C42.7714 326.117 42.3051 341.183 41.8389 356.49C37.3095 357.316 33.0732 358.102 28.2374 358.995C28.5038 357.489 28.6104 356.557 28.8235 355.651C30.8218 347.271 32.7801 338.892 34.8849 330.539C36.4036 324.571 38.1621 318.656 39.7607 312.702C40.2403 310.916 41.1195 310.197 43.2377 311.076ZM41.0929 308.958C41.4526 307.812 41.7456 306.867 42.092 305.721C43.5441 306.32 44.7564 306.813 46.2884 307.439C44.6631 308.878 43.1311 309.131 41.0929 308.958ZM185.008 364.989C184.222 366.175 182.357 366.481 181.051 365.775C179.959 365.176 178.92 364.47 177.494 363.591C178.826 362.845 179.719 362.352 180.612 361.859C180.985 361.659 181.358 361.432 181.757 361.313C182.743 361.033 184.915 361.939 185.274 362.965C185.474 363.564 185.367 364.47 185.008 364.989ZM184.781 360.06C184.968 359.767 185.407 359.647 185.74 359.448C185.874 359.674 186.14 359.927 186.1 360.127C186.047 360.433 185.78 360.713 185.434 361.259C185.088 360.647 184.701 360.207 184.781 360.06ZM165.838 381.762C164.506 380.776 163.333 379.91 161.721 378.724C164.719 377.219 167.183 375.98 169.648 374.741C171.02 375.713 172.272 376.606 173.884 377.752C170.953 379.217 168.422 380.469 165.838 381.762ZM169.754 381.602C171.646 382.721 173.351 383.706 175.496 384.972C172.765 386.331 170.54 387.423 168.236 388.569C166.491 387.463 164.812 386.424 162.76 385.132C165.278 383.866 167.396 382.801 169.754 381.602ZM171.673 373.888C172.632 373.355 173.511 372.823 174.417 372.356C178.2 370.411 178.2 370.425 181.424 373.302C181.517 373.382 181.477 373.649 181.504 373.822C175.509 377.312 175.802 377.552 171.673 373.888ZM165.451 375.021C163.999 374.008 162.667 373.076 160.935 371.877C163.533 370.545 165.598 369.506 167.783 368.386C169.222 369.372 170.594 370.305 172.445 371.57C169.714 372.916 167.636 373.942 165.451 375.021ZM169.395 367.6C171.833 366.348 173.778 365.362 175.816 364.323C177.281 365.242 178.68 366.135 180.572 367.334C178.054 368.64 176.042 369.692 173.977 370.771C172.499 369.745 171.153 368.813 169.395 367.6ZM184.941 367.081C184.595 369.266 184.342 370.798 183.982 373.089C182.29 371.81 181.104 370.918 179.586 369.759C181.531 368.786 182.983 368.053 184.941 367.081ZM183.689 375.061C183.343 376.18 183.143 376.832 182.89 377.672C182.237 377.139 181.837 376.819 180.998 376.14C181.984 375.753 182.597 375.5 183.689 375.061ZM181.664 382.028C180.225 382.881 178.64 383.507 177.108 384.253C175.296 383.134 173.618 382.095 171.513 380.789C174.404 379.35 176.828 378.151 179.173 376.992C179.945 377.512 180.465 377.872 180.985 378.218C181.238 378.391 181.531 378.551 181.771 378.751C183.143 379.883 183.169 381.135 181.664 382.028ZM177.401 391.073C176.202 390.181 174.897 389.208 173.218 387.956C176.269 386.477 178.8 385.252 181.677 383.853C181.89 389.088 181.704 389.382 177.401 391.073ZM179.373 395.536C177.934 396.109 176.961 395.03 175.776 393.884C177.468 393.072 178.84 392.392 180.438 391.62C180.585 393.365 181.011 394.897 179.373 395.536ZM176.642 397.121C175.349 397.854 174.084 398.574 172.738 399.333C171.579 398.68 170.514 398.067 169.328 397.388C173.911 394.337 174.564 394.55 176.642 397.121ZM167.277 396.309C165.625 395.363 164.093 394.484 162.121 393.351C165.491 391.7 168.422 390.274 171.46 388.795C172.818 389.741 174.111 390.634 176.002 391.939C172.738 393.565 170.021 394.923 167.277 396.309ZM160.309 392.419C158.524 391.34 156.792 390.314 154.874 389.155C161.188 385.412 161.974 385.438 165.998 389.568C164.079 390.527 162.254 391.446 160.309 392.419ZM154.314 387.437C153.235 387.996 152.33 387.996 151.357 387.33C150.531 386.757 149.652 386.251 148.386 385.452C152.276 383.48 155.74 381.682 159.244 380.003C159.696 379.79 160.496 379.963 160.989 380.229C161.988 380.789 162.867 381.535 164.266 382.534C160.576 384.346 157.418 385.838 154.314 387.437ZM141.792 381.575C147.813 378.524 153.555 375.62 159.27 372.716C160.815 373.742 162.094 374.608 163.72 375.687C162.627 376.34 161.948 376.792 161.215 377.165C157.605 379.004 153.862 380.603 150.425 382.707C147.307 384.612 144.736 384.413 141.792 381.575ZM135.597 377.991C137.929 376.806 140.074 375.727 142.352 374.568C143.617 375.474 144.829 376.34 146.308 377.392C142.591 379.257 139.514 382.401 135.597 377.991ZM144.137 373.662C145.455 372.969 146.468 372.436 147.494 371.903C151.051 370.078 151.131 370.092 154.221 373.262C153.981 373.435 153.742 373.649 153.475 373.795C152.17 374.488 150.811 375.074 149.559 375.833C148.373 376.553 147.4 376.433 146.415 375.554C145.735 374.954 145.016 374.395 144.137 373.662ZM152.569 369.332C154.741 368.24 156.766 367.201 158.817 366.162C160.189 367.134 161.721 367.6 162.587 369.172C159.257 370.558 156.313 374.355 152.569 369.332ZM160.456 365.322C169.568 360.673 178.267 356.25 187.206 351.694C187.672 355.771 185.994 357.649 182.876 359.021C178.214 361.086 173.738 363.591 169.182 365.895C167.689 366.655 166.157 367.361 164.612 368.107C163.253 367.188 162.041 366.375 160.456 365.322ZM174.763 355.544C178.88 353.013 183.089 350.708 187.699 349.176C183.569 351.641 179.399 354.066 174.763 355.544ZM174.164 353.493C170.913 350.708 167.929 348.164 164.639 345.34C169.221 342.995 173.538 340.744 177.894 338.612C178.44 338.346 179.359 338.439 179.946 338.719C182.903 340.144 185.807 341.676 188.765 343.195C188.738 344.727 188.938 346.152 187.379 346.938C182.93 349.15 178.48 351.348 174.164 353.493ZM162.374 343.168C172.072 338.333 181.398 333.683 191.349 328.714C190.59 333.31 189.963 337.147 189.231 341.596C186.313 340.104 183.822 338.945 181.451 337.587C179.573 336.507 177.947 336.587 176.069 337.627C172.432 339.638 168.702 341.45 165.012 343.355C164.306 343.728 163.613 344.167 162.374 343.168ZM161.255 341.929C159.03 341.183 159.417 339.518 159.47 338.093C159.99 324.065 160.522 310.037 161.082 296.023C161.149 294.397 161.402 292.772 161.641 290.494C162.334 291.813 162.734 292.519 163.08 293.252C164.612 296.529 166.118 299.819 167.663 303.083C170.061 308.132 170.074 308.132 175.683 308.172C178.533 315.326 181.424 322.613 184.488 330.34C176.455 334.349 168.782 338.186 161.255 341.929ZM205.856 311.236C203.845 312.289 202.153 313.408 200.301 314.114C195.146 316.085 191.948 319.402 191.922 325.224C191.922 325.863 191.509 326.783 191.003 327.076C189.391 327.995 187.659 328.688 185.86 329.514C182.85 321.973 179.945 314.726 177.001 307.359C185.367 304.069 192.361 299.326 198.889 293.332C201.26 299.406 203.512 305.201 205.856 311.236ZM264.246 360.367C270.933 356.25 277.581 352.107 284.268 347.991C284.868 347.618 285.587 347.485 286.36 347.192C286.786 349.23 285.933 350.336 284.415 351.228C277.74 355.158 271.12 359.154 264.459 363.111C264.046 363.364 263.553 363.457 263.1 363.617C262.181 361.912 263.047 361.113 264.246 360.367ZM262.434 359.261C261.674 356.49 261.128 353.999 260.316 351.601C259.05 347.858 257.505 347.405 254.321 349.55C253.202 348.377 252.109 347.205 251.31 346.366C253.002 344.567 254.907 342.969 256.266 341.01C258.864 337.267 260.076 332.924 260.449 328.421C260.582 326.663 260.409 324.798 259.956 323.079C259.21 320.242 257.691 319.296 254.827 319.282C252.482 319.282 250.351 319.975 248.686 321.574C246.941 323.239 245.435 325.144 243.717 327.076C243.011 326.863 242.118 326.53 241.199 326.29C234.045 324.451 226.412 328.954 227.078 337.573C227.424 342.116 229.356 345.726 232.886 348.497C237.189 351.867 241.266 351.495 244.956 347.485C246.608 345.686 246.608 345.686 249.152 346.712C248.366 348.071 247.567 349.43 246.674 350.962C244.623 350.176 243.61 351.494 242.864 353.173C242.478 354.052 242.131 354.958 241.892 355.877C241.146 358.742 240.466 361.632 239.694 364.75C236.656 364.337 235.75 366.575 235.124 368.893C234.551 371.037 234.285 373.276 233.845 375.687C216.274 385.945 198.543 396.282 180.332 406.913C180.239 405.807 180.145 405.474 180.199 405.181C181.331 398.467 182.49 391.753 183.609 385.039C185.634 372.863 187.619 360.686 189.644 348.51C191.096 339.798 192.588 331.099 194.013 322.386C194.426 319.882 195.665 318.217 197.983 317.031C218.285 306.72 238.561 296.329 258.85 285.965C271.279 279.61 283.682 273.256 296.111 266.928C297.39 266.275 298.656 265.303 300.601 266.155C300.481 267.434 300.481 268.793 300.228 270.099C298.283 280.117 296.284 290.134 294.286 300.152C291.489 314.234 288.651 328.315 285.88 342.409C285.467 344.514 284.615 345.979 282.656 347.125C276.688 350.629 270.866 354.372 264.978 358.009C264.219 358.488 263.38 358.821 262.434 359.261ZM247.767 344.514C246.128 344.261 244.982 344.993 243.917 346.219C240.853 349.723 237.309 350.016 233.699 347.112C230.248 344.341 228.543 340.691 228.637 336.268C228.73 331.885 231.487 328.741 235.804 327.728C238.894 327.009 241.639 327.942 244.503 329.42C245.169 328.395 245.648 327.449 246.314 326.676C247.687 325.091 248.992 323.399 250.617 322.12C252.442 320.681 254.814 320.162 256.919 321.307C258.877 322.373 259.09 324.638 259.01 326.676C258.797 331.872 257.412 336.747 254.427 341.05C252.842 343.315 250.844 344.993 247.767 344.514ZM228.09 385.492C229.809 384.532 231.541 383.573 233.153 382.667C233.925 383.32 234.431 383.733 235.444 384.572C235.511 382.747 235.524 381.522 235.617 380.296C235.857 377.019 236.003 373.729 236.443 370.465C236.643 368.986 236.923 367.281 238.614 366.468C240.013 367.081 240 368.293 240.067 369.452C240.293 373.062 240.48 376.673 240.746 380.283C240.839 381.562 241.119 382.841 241.319 384.119C241.559 384.119 241.785 384.119 242.025 384.119C242.171 383.68 242.478 383.227 242.451 382.801C242.225 378.977 242.105 375.141 241.652 371.344C240.986 365.682 242.091 360.34 243.877 355.051C244.196 354.106 244.396 353.026 245.941 352.534C246.354 354.092 246.954 355.478 247.061 356.903C247.394 361.579 247.513 366.255 247.767 370.931C247.873 372.942 248.073 374.954 248.339 376.952C248.406 377.379 248.966 377.725 249.618 378.484C249.458 373.902 249.378 369.879 249.152 365.869C248.926 361.939 248.433 358.035 248.313 354.106C248.259 352.587 248.752 350.975 249.352 349.55C250.018 347.964 251.497 347.964 252.109 349.563C252.789 351.321 253.268 353.226 253.455 355.105C253.988 360.726 254.321 366.348 254.774 371.97C254.84 372.703 254.561 373.755 256.039 373.822C256.093 373.062 256.239 372.343 256.186 371.624C255.826 366.215 255.453 360.806 255.04 355.398C254.867 353.213 255.027 351.188 256.919 349.736C258.624 350.309 258.797 351.801 259.21 353.066C260.635 357.449 261.115 361.979 261.448 366.561C261.688 369.892 261.102 372.982 259.463 375.767C255.933 381.722 251.204 386.664 245.302 390.247C238.788 394.204 231.381 392.126 228.09 385.492ZM179.333 411.815C180.252 408.592 180.252 408.592 182.823 407.1C198.21 398.187 213.583 389.275 228.97 380.376C230.435 379.537 231.914 378.724 233.712 377.725C234.338 379.883 233.646 380.909 232.02 381.628C230.368 382.361 228.783 383.24 227.224 384.146C212.237 392.885 197.264 401.651 182.277 410.403C181.438 410.896 180.505 411.243 179.333 411.815ZM178.24 407.073C177.055 406.487 176.109 406.074 175.203 405.567C169.608 402.477 164.039 399.36 158.458 396.256C143.937 388.183 129.416 380.123 114.922 372.037C113.696 371.344 112.577 370.451 110.846 369.279C116.174 365.895 121.33 363.79 126.192 361.246C131.894 367.96 134.958 366.335 138.395 362.392C140.846 362.671 143.484 363.164 145.003 360.234C145.109 360.02 145.535 359.954 145.828 359.834C148.36 358.808 150.891 357.796 153.502 356.743C155.047 358.035 156.539 359.234 157.965 360.5C159.403 361.766 160.815 362.125 162.587 361.073C164.226 360.1 165.984 359.328 167.729 358.528C168.169 358.315 168.742 358.382 169.248 358.329C165.971 360.686 162.507 362.485 159.044 364.257C151.277 368.213 143.484 372.156 135.731 376.153C134.678 376.699 133.16 376.912 133.266 378.911C134.532 379.643 135.89 380.456 137.263 381.229C148.107 387.343 158.99 393.405 169.781 399.626C171.886 400.838 173.564 401.158 175.563 399.573C176.722 398.653 178.187 398.107 180.012 397.121C179.346 400.825 178.813 403.809 178.24 407.073ZM152.463 348.484C153.249 347.724 153.995 346.765 155.58 348.257C154.488 348.684 153.622 349.017 152.756 349.35C152.649 349.057 152.556 348.764 152.463 348.484ZM152.516 353.04C152.356 353.812 152.196 354.572 152.036 355.331C151.85 355.278 151.663 355.238 151.477 355.185C151.663 354.439 151.85 353.679 152.036 352.933C152.196 352.973 152.356 353.013 152.516 353.04ZM157.272 349.323C160.482 351.907 163.52 354.359 166.824 357.023C166.078 357.449 165.625 357.716 165.158 357.956C160.336 360.447 160.456 360.273 156.193 357.076C153.808 355.278 153.702 353.253 154.101 350.709C155.22 350.216 156.259 349.763 157.272 349.323ZM138.875 391.393C133.839 388.409 128.83 385.372 123.874 382.254C120.73 380.283 118.079 377.712 115.721 374.754C136.663 385.971 157.418 397.481 178.374 409.191C177.468 410.736 176.788 411.882 176.056 413.121C175.043 412.588 174.284 412.228 173.564 411.802C161.988 405.021 150.411 398.24 138.875 391.393ZM110.1 748.749C111.711 748.922 113.27 749.162 114.842 749.269C120.917 749.668 126.965 749.748 133 748.829C134.252 748.643 135.438 748.429 136.517 749.615C143.284 757.062 151.85 762.044 160.456 766.96C164.346 769.171 167.996 771.716 171.233 774.86C174.683 778.217 175.776 782.347 175.736 787.182C174.097 787.795 172.539 788.448 170.94 788.954C165.065 790.833 159.084 790.153 153.249 789.074C148.053 788.128 142.978 786.423 137.942 784.745C131.867 782.72 125.819 780.788 119.292 781.028C117.6 781.094 115.908 780.668 114.216 780.628C111.925 780.575 110.766 779.323 110.18 777.258C107.528 767.919 105.837 758.581 110.1 748.749ZM45.6356 749.429C54.4946 751.2 63.2736 751.187 72.2258 750.055C72.5588 750.548 72.7853 750.787 72.9052 751.08C75.8893 758.541 79.9124 765.361 85.0014 771.623C90.0636 777.87 92.0353 785.078 90.9029 793.151C90.5699 795.469 89.704 796.894 87.386 797.36C86.8664 797.467 86.3602 797.667 85.854 797.813C81.4978 799.105 77.2748 798.026 72.9452 797.32C66.9904 796.348 62.461 793.47 58.944 788.714C58.6243 788.288 58.3179 787.848 57.9582 787.462C54.5478 783.825 51.0842 780.242 47.7404 776.538C46.9278 775.646 46.2084 774.46 45.9553 773.288C45.1427 769.451 44.41 765.575 43.9171 761.671C43.3975 757.528 43.8638 753.438 45.6356 749.429ZM44.7297 449.023C44.7031 448.197 44.8363 447.371 44.9029 446.359C45.6089 446.505 46.1285 446.572 46.6081 446.718C54.2681 449.036 62.1013 450.542 70.0144 451.674C84.1354 453.699 98.2165 455.91 112.604 454.765C123.142 453.925 133.599 452.873 143.817 450.089C145.442 449.649 147.054 449.143 149.372 448.464C149.372 452.18 149.279 455.364 149.385 458.548C149.732 469.086 150.251 479.623 150.531 490.161C150.957 506.133 151.197 522.119 151.584 538.092C151.943 553.426 152.489 568.759 152.769 584.092C153.116 603.062 153.089 622.019 151.637 640.95C150.957 649.755 149.958 658.548 149.305 667.353C148.506 678.077 148.133 688.828 147.214 699.539C146.268 710.676 144.869 721.773 143.724 732.883C143.311 736.786 143.058 740.716 142.725 744.806C141.459 745.232 140.273 745.712 139.061 746.032C131.028 748.163 122.835 748.509 114.642 747.643C110.779 747.244 106.916 746.165 103.199 744.966C100.348 744.047 99.9484 743.114 100.215 740.157C100.828 733.056 101.614 725.956 102.253 718.855C103.465 705.28 104.651 691.705 105.77 678.131C106.383 670.71 106.623 663.237 107.369 655.83C108.927 640.443 109.873 625.043 109.913 609.59C109.98 585.931 109.513 562.298 108.701 538.652C108.088 520.867 108.008 503.069 107.688 485.285C107.675 484.259 107.688 483.233 107.688 482.221C104.158 482.048 93.6472 483.7 90.9562 484.592C89.1311 485.192 88.9313 486.497 88.9446 488.096C89.0645 498.86 89.0246 509.624 89.2777 520.388C89.6773 536.893 90.41 553.386 90.743 569.891C91.0494 584.905 91.2226 599.932 91.0228 614.959C90.8763 626.242 90.1835 637.526 89.4642 648.783C88.6649 661.319 87.5725 673.828 86.6 686.35C85.8939 695.475 85.2412 704.614 84.3886 713.726C83.4827 723.478 82.3503 733.203 81.3778 742.941C81.0448 746.271 81.1514 746.365 77.8076 747.204C67.7364 749.735 57.5852 750.068 47.4074 748.043C45.0228 747.563 42.7181 746.658 40.4667 745.738C39.1612 745.206 38.2287 744.22 38.4019 742.501C39.068 735.827 39.6541 729.14 40.2669 722.465C41.4392 709.756 42.6915 697.034 43.7572 684.312C44.4366 676.239 44.7963 668.153 45.3558 660.08C46.2883 646.598 47.7404 633.13 48.1001 619.621C48.7262 596.402 48.0602 573.182 47.2875 549.962C46.6747 531.658 46.4216 513.327 45.9553 495.01C45.569 479.676 45.116 464.356 44.7297 449.023ZM41.8389 384.199C42.7314 383.906 43.211 383.706 43.7173 383.573C59.3303 379.284 74.5971 374.022 89.664 368.067C95.8852 365.602 102.32 363.657 108.674 361.552C109.753 361.193 110.952 361.139 112.098 361.073C116.014 360.86 119.931 360.713 123.768 360.54C123.448 360.726 123.008 361.006 122.542 361.246C119.118 362.978 115.668 364.643 112.271 366.415C109.673 367.76 109.154 369.878 111.005 372.09C112.977 374.448 114.922 376.952 117.307 378.844C121.716 382.334 126.299 385.651 131.068 388.635C138.195 393.098 145.509 397.241 152.809 401.438C154.301 402.304 154.834 403.263 154.767 404.995C154.541 410.43 154.448 415.852 154.394 421.287C154.328 428.095 154.274 434.915 154.368 441.736C154.394 443.748 153.742 444.92 151.863 445.559C149.559 446.345 147.307 447.331 144.976 448.077C138.262 450.209 131.348 451.581 124.34 452.127C115.761 452.793 107.129 453.393 98.5363 453.259C91.4491 453.139 84.3486 452.074 77.2881 451.141C67.3634 449.822 57.4653 448.397 47.8603 445.426C44.9429 444.52 42.0254 443.601 39.0014 442.642C39.9605 422.966 40.893 403.569 41.8389 384.199ZM3.87189 356.144C7.94834 338.532 12.238 320.961 16.4743 303.39C16.9405 301.458 17.6466 299.58 18.286 297.515C26.1858 298.94 33.686 300.632 40.6932 304.908C34.5252 322.706 30.7952 341.037 26.2391 359.328C24.2009 359.701 22.1893 359.914 20.271 360.473C18.5391 360.993 16.2878 360.327 14.6492 362.898C23.5615 361.792 31.781 359.621 40.4667 358.568C41.9188 358.169 43.3576 357.809 44.8096 357.543C44.8496 357.529 44.8896 357.516 44.9295 357.503C52.5363 355.944 60.1696 354.465 67.763 352.827C77.1149 350.815 86.5334 349.003 95.7654 346.499C104.171 344.221 112.431 341.343 120.61 338.319C129.882 334.896 139.341 334.789 148.946 335.682C151.224 335.895 153.169 336.88 154.901 338.466C159.776 342.915 164.772 347.232 169.701 351.628C170.647 352.48 171.646 353.32 172.379 354.345C172.712 354.798 172.725 355.877 172.405 356.304C172.072 356.743 171.1 356.93 170.487 356.81C169.688 356.65 168.888 356.197 168.209 355.704C166.051 354.159 163.933 352.547 161.815 350.935C159.11 348.857 156.553 346.579 153.702 344.727C151.823 343.515 149.972 342.422 148.853 340.411C148.799 340.318 148.466 340.397 147.8 340.397C148.24 341.676 148.599 342.835 149.052 343.954C150.251 346.872 150.904 349.843 150.385 353C149.918 355.891 148.586 357.303 145.695 357.862C145.882 355.837 146.162 353.852 146.188 351.854C146.202 349.883 146.814 347.791 145.442 345.899C144.963 346.859 144.869 347.831 144.789 348.804C144.51 351.881 144.416 354.971 143.923 358.009C143.417 361.126 142.032 361.672 138.968 360.38C139.234 351.828 138.688 348.657 136.263 346.592C136.636 348.803 137.169 350.629 137.223 352.48C137.316 355.211 137.502 358.062 136.863 360.673C135.864 364.736 132.24 365.389 129.363 362.298C128.55 361.419 127.897 360.367 127.071 359.261C128.43 358.622 129.376 358.182 130.242 357.769C130.908 358.315 131.494 358.795 132.587 359.687C132.134 356.903 131.255 355.158 129.656 353.519C129.176 356.85 129.176 356.916 126.206 357.822C121.063 359.381 115.855 360.194 110.473 359.154C109.247 358.915 107.981 358.821 106.663 358.648C106.529 359.9 106.25 360.686 104.957 361.033C101.667 361.925 98.3764 362.858 95.2325 364.15C81.2313 369.892 66.9904 374.914 52.5496 379.404C49.2458 380.429 45.902 381.269 42.1453 382.321C41.6124 382.667 40.9863 382.654 40.3602 382.561C34.6185 384.626 20.1511 387.623 14.8091 387.756C12.5843 387.81 10.3463 387.57 8.13486 387.317C6.00338 387.077 4.41808 385.771 3.23245 384.066C1.99352 382.268 1.56724 380.203 1.51395 378.018C1.32745 370.625 2.21999 363.324 3.87189 356.144Z" fill="black"/>
<path d="M149.385 458.561C149.732 469.099 150.251 479.636 150.531 490.174C150.957 506.147 151.197 522.133 151.583 538.106C151.943 553.439 152.489 568.772 152.769 584.106C153.115 603.076 153.089 622.033 151.637 640.963C150.957 649.769 149.958 658.561 149.305 667.367C148.506 678.091 148.133 688.841 147.214 699.552C146.268 710.689 144.869 721.786 143.724 732.896C143.311 736.8 143.058 740.73 142.724 744.819C141.459 745.246 140.273 745.725 139.061 746.045C131.028 748.176 122.835 748.523 114.642 747.657C110.779 747.257 106.916 746.178 103.199 744.979C100.348 744.06 99.9483 743.127 100.215 740.17C100.828 733.07 101.614 725.969 102.253 718.869C103.465 705.294 104.651 691.719 105.77 678.144C106.383 670.724 106.623 663.25 107.369 655.843C108.927 640.457 109.873 625.057 109.913 609.604C109.98 585.944 109.513 562.311 108.701 538.665C108.088 520.881 108.008 503.083 107.688 485.298C107.675 484.272 107.688 483.247 107.688 482.234C104.158 482.061 93.6471 483.713 90.9561 484.606C89.131 485.205 88.9312 486.511 88.9446 488.109C89.0645 498.873 89.0245 509.637 89.2776 520.401C89.6773 536.907 90.4099 553.399 90.743 569.905C91.0494 584.918 91.2226 599.945 91.0228 614.972C90.8762 626.256 90.1835 637.539 89.4641 648.796C88.6648 661.332 87.5724 673.841 86.5999 686.363C85.8939 695.489 85.2411 704.628 84.3885 713.74C83.4826 723.491 82.3503 733.216 81.3778 742.954C81.0447 746.285 81.1513 746.378 77.8076 747.217C67.7363 749.748 57.5851 750.081 47.4073 748.056C45.0227 747.577 42.7181 746.671 40.4667 745.752C39.1612 745.219 38.2286 744.233 38.4018 742.515C39.0679 735.84 39.6541 729.153 40.2669 722.479C41.4392 709.77 42.6914 697.048 43.7572 684.325C44.4366 676.252 44.7963 668.166 45.3558 660.093C46.2883 646.611 47.7404 633.143 48.1001 619.635C48.7262 596.415 48.0601 573.195 47.2874 549.975C46.6746 531.671 46.4215 513.341 45.9553 495.023C45.5689 479.69 45.116 464.356 44.7163 449.023C44.6897 448.197 44.8229 447.371 44.8895 446.359C45.5956 446.505 46.1151 446.572 46.5947 446.718C54.2547 449.036 62.0879 450.542 70.001 451.674C84.1221 453.699 98.2032 455.91 112.591 454.765C123.128 453.926 133.586 452.873 143.804 450.089C145.429 449.649 147.041 449.143 149.359 448.464C149.359 452.167 149.265 455.364 149.385 458.561Z" fill="#2D291E"/>
<path d="M9.57346 290.627C14.3426 277.972 19.0586 265.303 23.961 252.7C27.7044 243.069 32.0073 233.704 37.0163 224.631C41.2526 216.958 47.6737 212.722 55.8799 210.657C56.3861 210.524 56.9057 210.337 57.4252 210.284C64.8188 209.431 72.2257 208.632 79.6193 207.766C80.7649 207.633 81.3777 208.192 82.0571 208.912C85.2144 212.229 89.0777 214.507 93.394 215.852C106.17 219.822 118.306 218.224 129.363 210.684C132.107 208.832 134.585 208.179 137.635 208.739C138.581 208.912 139.54 208.938 140.5 209.032C147.507 209.724 154.461 210.697 161.028 213.454C168.129 216.439 173.764 220.888 177.348 227.962C186.66 246.333 194.026 265.503 201.074 284.819C201.567 286.165 201.447 287.337 200.661 288.429C199.728 289.721 198.769 291.027 197.65 292.146C192.002 297.781 185.447 302.097 178.107 305.201C176.841 305.734 175.496 306.134 174.15 306.44C171.539 307.053 171.086 306.84 169.941 304.375C167.423 298.967 164.945 293.531 162.507 288.096C162.134 287.244 161.788 286.258 161.828 285.352C162.001 281.635 162.374 277.932 162.574 274.215C162.654 272.59 163.28 270.938 162.587 269.286C162.254 269.392 161.894 269.419 161.881 269.499C158.604 292.359 159.363 315.472 157.685 338.759C157.005 338.253 156.446 337.986 156.073 337.547C154.301 335.442 151.876 334.736 149.332 334.283C148.066 334.07 146.788 333.883 145.522 333.843C137.955 333.63 130.388 333.417 123.075 335.881C117.426 337.786 111.805 339.758 106.143 341.636C101.8 343.075 97.497 344.7 93.0476 345.7C78.407 348.99 63.7131 352.041 49.0325 355.158C47.2874 355.531 45.5022 355.771 43.4507 356.117C43.9036 340.624 44.3566 325.464 44.7962 310.237C47.3273 309.464 48.1133 307.506 48.8327 305.441C55.2671 286.951 60.2094 267.914 69.3082 250.422C69.4681 250.103 69.2283 249.57 69.175 249.13C68.9352 249.077 68.7087 249.037 68.4689 248.984C58.7174 266.755 53.8949 286.458 47.0875 305.361C44.5431 305.694 42.8512 304.216 41.0128 303.27C30.7284 298.008 19.9778 294.85 7.97485 295.636C8.4944 293.984 8.93402 292.266 9.57346 290.627Z" fill="#29BFE4"/>
<path d="M152.929 61.1868C153.408 63.8911 153.648 66.6753 153.688 69.4329C153.888 82.3151 153.835 95.1972 154.141 108.079C154.487 122.84 152.955 137.414 150.344 151.895C149.359 157.357 147.946 162.778 144.603 167.335C140.446 172.996 136.17 178.591 131.707 184.013C129.416 186.798 126.685 189.222 123.994 191.633C121.916 193.498 119.451 194.977 116.627 195.19C112.084 195.523 107.502 195.55 102.932 195.63C99.4286 195.697 96.2846 194.444 93.1674 192.979C83.9487 188.663 76.2754 182.282 69.4679 174.875C66.9102 172.09 64.6188 168.813 63.1534 165.363C60.9554 160.194 59.3967 154.732 57.9713 149.297C56.799 144.821 56.2128 140.185 55.3869 135.789C52.7492 135.229 50.258 134.75 47.7801 134.177C45.9151 133.75 44.503 132.631 43.5572 130.993C40.4132 125.557 39.6672 119.789 41.2658 113.741C42.0118 110.904 44.0634 109.172 46.8743 108.679C49.5786 108.213 51.1372 110.144 52.536 112.103C53.0289 112.795 53.5085 113.501 54.4011 114.794C54.5876 113.142 54.7208 112.329 54.7741 111.503C55.2803 103.896 57.545 97.1022 63.7663 92.1599C64.7654 91.3606 64.8187 90.5612 64.459 89.3756C63.6996 86.8445 62.9403 84.2601 62.5806 81.649C61.8213 76.0938 62.2342 70.6053 64.4457 65.3565C64.7254 64.7037 65.165 64.0643 65.6713 63.5714C67.0834 62.2126 68.5887 60.9337 70.3206 59.3884C76.6617 59.4283 81.1911 55.6316 84.9611 50.2896C89.1442 52.8474 93.2606 52.7142 97.457 50.5294C98.0431 50.223 99.0423 50.556 99.8149 50.7692C101.667 51.2621 103.438 52.0214 105.303 52.3811C110.046 53.287 114.602 52.4477 118.972 50.4228C119.917 49.9832 120.757 49.3038 121.929 50.0498C125.699 52.461 129.482 52.7008 133.159 49.5436C136.41 52.6342 140.246 53.0472 144.31 52.2479C144.35 55.3785 141.472 56.3643 140.3 58.9887C144.549 59.8413 147.493 57.9762 150.891 55.1121C151.703 57.47 152.582 59.2951 152.929 61.1868ZM69.428 113.488C79.5658 117.631 89.2641 117.338 99.2021 113.768C99.3087 116.166 96.711 116.858 96.2713 118.817C98.9224 118.244 100.921 115.939 101.4 113.035C101.92 109.851 100.907 107.16 98.7625 104.842C95.5653 101.405 91.4489 99.7666 86.9461 99.0738C82.8031 98.4344 78.6067 98.5143 74.7301 100.299C72.6519 101.259 70.5737 102.564 69.0283 104.216C65.6446 107.84 66.1242 113.155 69.801 116.499C70.0674 116.738 70.5071 116.765 70.8667 116.898C71 116.725 71.1332 116.552 71.2664 116.379C70.7735 115.593 70.2806 114.82 69.428 113.488ZM117.946 114.421C123.035 116.299 127.617 117.338 132.32 117.405C136.929 117.471 141.539 117.138 146.454 116.978C145.442 118.191 144.549 119.243 143.297 120.748C144.323 120.642 144.789 120.722 145.082 120.535C148.826 118.231 150.238 113.328 148.306 109.358C147.054 106.774 145.016 104.909 142.524 103.603C136.583 100.486 130.375 99.9931 124.021 102.191C121.569 103.044 119.438 104.429 117.839 106.521C114.882 110.371 115.575 115.806 119.398 118.75C119.584 118.897 119.957 118.83 120.917 118.95C119.838 117.338 119.105 116.219 117.946 114.421ZM126.765 98.2346C130.695 98.088 134.625 97.8749 138.541 97.5685C141.712 97.3154 144.416 98.1413 146.707 100.353C147.374 100.992 148.173 101.512 148.932 102.098C151.29 97.4886 148.692 90.6811 143.963 90.5612C137.182 90.3881 130.388 90.0284 123.621 90.2549C118.692 90.428 117.36 92.7993 118.305 98.2612C121.116 98.2612 123.954 98.3412 126.765 98.2346ZM69.3214 98.2612C71.4529 96.556 73.8375 96.0498 76.4885 96.3962C80.8048 96.9557 85.1343 97.5019 89.4506 98.0348C91.2357 98.2479 93.0341 98.4078 94.8326 98.5943C96.3379 98.7408 97.2971 98.0747 97.6035 96.596C97.8167 95.5569 98.0165 94.5045 98.0431 93.4521C98.0964 91.174 97.3237 89.8685 95.1257 89.6021C87.9585 88.7095 80.7648 87.6971 73.5711 89.2557C69.0683 90.2415 66.0309 94.5844 66.364 100.113C67.6162 99.3536 68.5354 98.9007 69.3214 98.2612ZM84.6814 155.891C85.2542 156.85 85.4408 157.623 85.907 157.889C88.2117 159.168 90.463 160.727 92.9542 161.46C103.665 164.59 114.349 164.151 124.86 160.367C128.177 159.182 129.043 158.489 130.375 156.437C115.241 163.525 100.215 164.657 84.6814 155.891ZM110.979 112.182C113.936 118.417 114.495 125.038 114.162 131.792C113.989 135.269 113.23 135.962 109.673 136.108C107.342 136.188 104.997 136.095 102.666 136.135C102.093 136.148 101.547 136.375 100.907 137.014C101.307 137.187 101.72 137.507 102.133 137.507C105.21 137.52 108.301 137.64 111.352 137.387C114.229 137.147 115.295 136.002 115.548 133.111C116.174 126.037 115.495 119.11 112.657 112.516C112.271 111.623 111.671 110.824 111.165 109.984C110.939 110.078 110.725 110.184 110.499 110.277C110.659 110.917 110.712 111.596 110.979 112.182ZM78.9531 154.452C77.4477 158.995 79.2195 163.964 83.3226 165.256C82.8297 164.577 82.3634 163.884 81.8705 163.218C79.6458 160.207 79.2328 157.01 80.9513 153.64C82.0304 151.535 83.8288 150.269 86.0935 149.67C86.8528 149.47 87.6388 149.297 88.4115 149.11C84.4549 147.592 80.3652 150.149 78.9531 154.452ZM133.372 150.789C135.597 151.881 136.663 154.213 136.45 156.704C136.25 159.075 135.571 161.38 135.104 163.671C137.595 162.765 138.874 157.756 137.542 153.813C135.997 149.217 131.308 146.992 126.085 148.751C128.856 149.497 131.294 149.79 133.372 150.789Z" fill="#EDD8C5"/>
<path d="M122.542 361.233C119.118 362.964 115.668 364.63 112.271 366.402C109.673 367.747 109.154 369.865 111.005 372.077C112.977 374.435 114.922 376.939 117.306 378.831C121.716 382.321 126.299 385.638 131.068 388.622C138.195 393.085 145.509 397.228 152.809 401.424C154.301 402.29 154.834 403.25 154.767 404.981C154.541 410.417 154.448 415.839 154.394 421.274C154.328 428.081 154.274 434.902 154.368 441.723C154.394 443.734 153.741 444.907 151.863 445.546C149.558 446.332 147.307 447.318 144.976 448.064C138.262 450.195 131.348 451.567 124.34 452.114C115.761 452.78 107.129 453.379 98.5361 453.246C91.4489 453.126 84.3485 452.06 77.2879 451.128C67.3632 449.809 57.4652 448.384 47.8602 445.413C44.9427 444.507 42.0253 443.588 39.0012 442.629C39.9604 422.952 40.9062 403.543 41.8387 384.186C42.7313 383.893 43.2109 383.693 43.7171 383.56C59.3302 379.27 74.5969 373.995 89.6638 368.053C95.8851 365.589 102.32 363.644 108.674 361.539C109.753 361.179 110.952 361.126 112.098 361.06C116.014 360.846 119.931 360.7 123.768 360.527C123.448 360.713 123.008 361.006 122.542 361.233Z" fill="#29BFE4"/>
<path d="M180.212 405.168C181.344 398.454 182.503 391.739 183.622 385.025C185.647 372.849 187.632 360.673 189.657 348.497C191.109 339.785 192.601 331.086 194.027 322.373C194.44 319.869 195.678 318.203 197.996 317.018C218.299 306.707 238.575 296.316 258.864 285.951C271.293 279.597 283.695 273.242 296.124 266.915C297.403 266.262 298.669 265.289 300.614 266.142C300.494 267.421 300.494 268.78 300.241 270.085C298.296 280.103 296.298 290.121 294.299 300.139C291.502 314.22 288.664 328.301 285.893 342.396C285.48 344.501 284.628 345.966 282.669 347.112C276.701 350.615 270.88 354.359 264.992 357.995C264.232 358.475 263.393 358.808 262.46 359.274C261.701 356.503 261.155 354.012 260.342 351.614C259.077 347.871 257.531 347.418 254.347 349.563C253.228 348.39 252.136 347.218 251.337 346.379C253.029 344.58 254.934 342.982 256.292 341.024C258.89 337.28 260.102 332.937 260.475 328.434C260.609 326.676 260.435 324.811 259.983 323.092C259.237 320.255 257.718 319.309 254.854 319.296C252.509 319.296 250.378 319.989 248.712 321.587C246.967 323.252 245.462 325.157 243.743 327.089C243.037 326.876 242.145 326.543 241.226 326.303C234.072 324.465 226.438 328.967 227.104 337.587C227.451 342.129 229.382 345.739 232.913 348.51C237.216 351.881 241.292 351.508 244.982 347.498C246.634 345.699 246.634 345.699 249.179 346.725C248.393 348.084 247.593 349.443 246.701 350.975C244.649 350.189 243.637 351.508 242.891 353.186C242.504 354.066 242.158 354.971 241.918 355.891C241.172 358.755 240.493 361.646 239.72 364.763C236.683 364.35 235.777 366.588 235.151 368.906C234.578 371.051 234.312 373.289 233.872 375.7C216.301 385.958 198.569 396.296 180.358 406.926C180.265 405.821 180.172 405.501 180.212 405.168ZM243.264 323.132C246.075 321.614 247.38 316.591 245.928 312.355C241.758 314.433 240.653 319.229 243.264 323.132Z" fill="#B7B7B7"/>
<path d="M87.1994 5.47526C89.3042 7.83321 86.0403 9.57836 86.7597 11.7232C88.3583 10.2578 89.6106 8.48597 91.3158 7.7133C93.1542 6.88736 95.4722 6.56765 97.4838 6.79412C99.2955 7.00727 101.001 8.24619 103.265 9.27197C102.333 7.0872 100.188 5.9282 100.801 3.88997C103.212 4.96903 105.503 6.00813 107.875 7.07387C110.472 4.02318 113.044 1.42544 117.173 1.8917C121.21 2.34464 122.982 5.78166 125.193 8.43269C132.427 4.5827 137.942 5.67509 143.217 11.8031C143.564 12.2027 143.857 12.6557 144.243 13.0154C144.443 13.2019 144.803 13.2152 145.096 13.3085C145.375 12.709 145.629 12.1761 145.908 11.5633C149.745 12.4026 152.942 13.9213 155.234 17.7446C151.863 17.2917 148.986 16.5723 146.255 18.3574C147.414 18.4906 148.573 18.6371 150.025 18.8103C149.598 19.4897 149.385 19.8228 149.172 20.1692C148.919 20.5688 148.666 20.9818 148.2 21.7544C152.476 23.06 154.567 25.9508 155.38 30.1871C149.758 26.9766 148.533 26.7501 146.508 28.362C148.32 28.8682 150.398 29.108 152.09 30.0272C153.835 30.9731 155.234 32.5983 157.298 34.3835C157.298 32.4252 157.298 31.1729 157.298 29.7875C161.375 32.1721 162.494 34.4101 161.961 38.6731C160.402 37.7672 159.377 35.8489 157.112 35.9954C157.245 38.1136 157.671 40.1118 157.432 42.0435C157.179 44.0018 156.139 45.7736 154.128 46.5462C152.836 45.3073 153.262 43.2025 150.851 42.3365C151.837 45.707 153.142 48.7976 151.21 51.755C149.479 54.4061 147.574 56.9372 143.684 57.4434C144.869 55.1388 146.548 53.3137 145.802 50.5428C141.499 51.3554 137.249 52.0614 134.039 48.2647C134.225 47.0791 134.385 46 134.558 44.9343C134.358 44.8144 134.145 44.7078 133.945 44.5879C132.467 46.7993 131.881 49.89 128.657 50.3962C125.646 50.8625 123.341 49.2772 121.037 47.945C110.752 51.9282 104.864 52.1813 100.095 48.731C101.201 47.6786 102.386 46.7461 103.332 45.6137C104.278 44.4947 105.73 43.5621 105.45 41.0443C104.451 42.1367 103.905 42.8428 103.239 43.4423C101.107 45.3473 99.1356 47.5187 96.751 49.0241C93.1675 51.2888 89.3308 51.5019 85.694 48.7976C85.3876 48.5578 84.9479 48.4912 84.455 48.3047C83.9088 49.0507 83.4026 49.7301 82.923 50.4095C79.8191 54.819 75.8492 57.7898 70.2274 57.8298C68.762 57.8431 68.2824 58.7223 67.643 59.7614C66.151 62.186 64.4058 62.7988 61.6615 62.0661C60.8089 61.8263 59.943 61.5998 58.7441 61.2668C59.2903 63.5448 61.475 63.1052 62.3676 64.2242C58.3577 68.3673 47.8868 67.7411 45.0227 63.4249C45.2891 62.5723 45.5689 61.6265 45.9818 60.2277C42.9045 61.7464 43.7571 64.504 42.8645 66.4489C40.8796 63.3716 40.6398 60.1477 42.718 57.2969C44.1301 55.3652 44.3033 54.0197 42.8379 51.9815C40.7197 49.0374 41.4924 43.8552 44.1035 41.7104C45.0493 40.9378 46.3415 40.5648 47.5005 40.0852C48.7128 39.6056 49.4455 40.5115 50.3247 41.0976C50.7377 41.3774 51.4038 41.3108 52.736 41.5106C48.2998 37.554 47.0476 33.3843 49.1657 28.5352C48.0067 27.5228 47.0609 28.2155 46.1683 28.7217C45.2891 29.2146 44.4898 29.8407 43.6505 30.4136C45.9152 22.7269 51.164 19.25 59.0771 19.4897C58.2245 15.7064 59.0371 12.6823 62.0079 10.018C62.7806 13.0953 63.2735 15.8396 66.4174 17.3849C67.9494 13.8946 69.7612 10.7773 73.2914 9.19202C77.1281 7.47351 80.2987 9.09879 83.2961 11.2702C85.8405 10.0846 86.3201 7.60674 87.1994 5.47526Z" fill="#8D7958"/>
<path d="M1.52742 378.045C1.58071 380.243 1.99367 382.294 3.24592 384.093C4.43155 385.798 6.00353 387.103 8.14833 387.343C10.3731 387.596 12.5978 387.836 14.8225 387.783C20.1779 387.636 34.632 384.639 40.3737 382.587C40.9998 382.681 41.6259 382.694 42.1588 382.348C42.1188 382.361 42.0922 382.361 42.0522 382.374C45.8489 381.322 49.2326 380.469 52.5631 379.43C67.0038 374.941 81.2448 369.918 95.2459 364.177C98.3899 362.884 101.694 361.952 104.971 361.059C106.263 360.7 106.543 359.927 106.676 358.675C108.008 358.848 109.26 358.941 110.486 359.181C115.855 360.233 121.077 359.421 126.219 357.849C129.19 356.943 129.19 356.876 129.669 353.546C131.281 355.184 132.147 356.93 132.6 359.714C131.494 358.808 130.922 358.342 130.256 357.796C129.39 358.195 128.444 358.648 127.085 359.288C127.911 360.393 128.55 361.446 129.376 362.325C132.254 365.416 135.877 364.763 136.876 360.7C137.516 358.089 137.316 355.238 137.236 352.507C137.183 350.655 136.663 348.83 136.277 346.619C138.702 348.683 139.248 351.854 138.981 360.407C142.045 361.699 143.431 361.153 143.937 358.035C144.443 354.998 144.536 351.907 144.803 348.83C144.896 347.858 144.976 346.885 145.456 345.926C146.828 347.818 146.228 349.896 146.202 351.881C146.175 353.866 145.882 355.864 145.709 357.889C148.6 357.329 149.932 355.917 150.398 353.026C150.904 349.869 150.251 346.898 149.066 343.981C148.613 342.862 148.253 341.703 147.814 340.424C148.493 340.424 148.813 340.357 148.866 340.437C149.985 342.436 151.837 343.528 153.715 344.754C156.566 346.605 159.124 348.897 161.828 350.962C163.933 352.573 166.064 354.185 168.223 355.731C168.902 356.224 169.701 356.69 170.501 356.836C171.113 356.943 172.086 356.756 172.419 356.33C172.739 355.904 172.725 354.825 172.392 354.372C171.66 353.359 170.66 352.507 169.715 351.654C164.785 347.271 159.79 342.942 154.914 338.492C153.182 336.907 151.237 335.921 148.959 335.708C139.354 334.816 129.896 334.909 120.624 338.346C112.458 341.37 104.185 344.247 95.7788 346.525C86.5468 349.03 77.1284 350.842 67.7765 352.853C60.1831 354.478 52.5497 355.957 44.943 357.529C44.903 357.542 44.8631 357.556 44.8231 357.569C43.371 357.849 41.9323 358.195 40.4802 358.595C31.7945 359.647 23.5749 361.819 14.6627 362.924C16.3012 360.353 18.5526 361.006 20.2845 360.5C22.1895 359.94 24.2144 359.727 26.2526 359.354C30.8086 341.063 34.5387 322.733 40.7067 304.935C33.6995 300.659 26.1993 298.967 18.2995 297.541C17.6601 299.606 16.954 301.485 16.4877 303.416C12.2514 321.001 7.96183 338.559 3.88538 356.17C2.22016 363.324 1.32759 370.624 1.52742 378.045Z" fill="#EDD8C5"/>
<path d="M114.842 749.269C120.917 749.668 126.965 749.748 133 748.829C134.252 748.643 135.438 748.43 136.517 749.615C143.284 757.062 151.85 762.044 160.456 766.96C164.346 769.171 167.996 771.716 171.233 774.86C174.683 778.217 175.776 782.347 175.736 787.182C174.097 787.795 172.539 788.448 170.94 788.954C165.065 790.833 159.084 790.153 153.249 789.074C148.053 788.128 142.978 786.423 137.942 784.745C131.867 782.72 125.819 780.788 119.292 781.028C117.6 781.094 115.908 780.668 114.216 780.628C111.925 780.575 110.766 779.323 110.18 777.258C107.528 767.919 105.837 758.567 110.113 748.763C111.738 748.949 113.297 749.189 114.842 749.269Z" fill="#191919"/>
<path d="M72.9053 751.08C75.8894 758.541 79.9125 765.361 85.0015 771.623C90.0637 777.87 92.0354 785.078 90.903 793.151C90.57 795.469 89.704 796.894 87.3861 797.36C86.8665 797.467 86.3603 797.667 85.8541 797.813C81.4979 799.105 77.2749 798.026 72.9453 797.32C66.9905 796.348 62.4611 793.47 58.9441 788.714C58.6244 788.288 58.318 787.848 57.9583 787.462C54.5479 783.825 51.0843 780.242 47.7405 776.538C46.9279 775.646 46.2085 774.46 45.9554 773.288C45.1428 769.451 44.4101 765.575 43.9172 761.671C43.3976 757.515 43.8639 753.438 45.649 749.442C54.508 751.214 63.287 751.2 72.2392 750.068C72.5723 750.561 72.8121 750.814 72.9053 751.08Z" fill="#191919"/>
<path d="M88.5849 192.659C100.468 198.801 112.218 198.92 124.367 194.018C124.727 199.227 125.873 204.249 129.656 208.192C117.906 219.01 92.6614 219.209 83.0564 207.246C87.4659 203.543 88.1586 198.268 88.5849 192.659Z" fill="#EDD8C5"/>
<path d="M240.08 369.439C240.306 373.049 240.493 376.659 240.759 380.269C240.853 381.548 241.132 382.827 241.332 384.106C241.572 384.106 241.798 384.106 242.038 384.106C242.185 383.667 242.491 383.214 242.465 382.787C242.238 378.964 242.118 375.127 241.665 371.331C240.999 365.669 242.105 360.327 243.89 355.038C244.21 354.092 244.41 353.013 245.955 352.52C246.368 354.079 246.967 355.464 247.074 356.89C247.407 361.566 247.527 366.242 247.78 370.918C247.886 372.929 248.086 374.941 248.353 376.939C248.419 377.365 248.979 377.712 249.632 378.471C249.472 373.888 249.392 369.865 249.165 365.855C248.939 361.925 248.446 358.022 248.326 354.092C248.273 352.574 248.766 350.962 249.365 349.536C250.031 347.951 251.51 347.951 252.123 349.55C252.802 351.308 253.282 353.213 253.468 355.091C254.001 360.713 254.334 366.335 254.787 371.957C254.854 372.689 254.574 373.742 256.053 373.808C256.106 373.049 256.253 372.33 256.199 371.61C255.84 366.202 255.467 360.793 255.054 355.384C254.88 353.2 255.04 351.188 256.932 349.723C258.637 350.296 258.81 351.788 259.223 353.053C260.649 357.436 261.128 361.965 261.461 366.548C261.701 369.879 261.115 372.969 259.476 375.753C255.946 381.708 251.217 386.651 245.315 390.234C238.801 394.191 231.394 392.113 228.064 385.492C229.782 384.532 231.514 383.573 233.126 382.667C233.899 383.307 234.405 383.72 235.417 384.559C235.484 382.734 235.497 381.508 235.591 380.283C235.83 377.006 235.977 373.715 236.416 370.451C236.616 368.973 236.896 367.267 238.588 366.455C239.987 367.054 239.973 368.28 240.08 369.439Z" fill="#EDD8C5"/>
<path d="M175.203 405.568C169.608 402.477 164.039 399.36 158.458 396.256C143.937 388.183 129.416 380.123 114.922 372.037C113.697 371.344 112.578 370.451 110.846 369.279C116.174 365.895 121.33 363.791 126.192 361.246C131.894 367.96 134.958 366.335 138.395 362.392C140.846 362.671 143.484 363.164 145.003 360.234C145.109 360.02 145.536 359.954 145.829 359.834C148.36 358.808 150.891 357.796 153.502 356.743C155.047 358.035 156.539 359.234 157.965 360.5C159.403 361.766 160.816 362.125 162.587 361.073C164.226 360.1 165.984 359.328 167.73 358.528C168.169 358.315 168.742 358.382 169.248 358.329C165.971 360.687 162.507 362.485 159.044 364.257C151.277 368.213 143.484 372.157 135.731 376.153C134.678 376.699 133.16 376.912 133.266 378.911C134.532 379.643 135.891 380.456 137.263 381.229C148.107 387.343 158.991 393.405 169.781 399.626C171.886 400.838 173.564 401.158 175.563 399.573C176.722 398.654 178.187 398.107 180.012 397.122C179.359 400.825 178.827 403.809 178.24 407.086C177.041 406.5 176.096 406.074 175.203 405.568Z" fill="#B7B7B7"/>
<path d="M63.1006 90.6545C56.8527 95.6368 54.2949 102.431 53.3357 110.371C52.3499 109.505 51.8437 108.959 51.2309 108.559C50.5248 108.093 49.7655 107.533 48.9795 107.427C47.4475 107.227 46.848 106.241 46.3285 105.015C42.5584 96.1297 41.0264 87.0976 44.2636 77.6791C45.4226 74.282 46.5416 70.8717 48.4067 68.0475C50.9378 68.2207 53.1625 68.5937 55.3606 68.4338C57.5321 68.2739 59.6635 67.5812 62.1414 67.0483C59.9033 75.068 60.6893 82.8879 63.1006 90.6545Z" fill="#5C4833"/>
<path d="M246.314 326.663C247.687 325.077 248.992 323.386 250.617 322.107C252.443 320.668 254.814 320.148 256.919 321.294C258.877 322.36 259.09 324.624 259.01 326.663C258.797 331.858 257.412 336.734 254.427 341.037C252.856 343.315 250.857 344.993 247.78 344.514C246.141 344.261 244.996 344.993 243.93 346.219C240.866 349.723 237.322 350.016 233.712 347.112C230.262 344.341 228.557 340.691 228.65 336.268C228.743 331.885 231.501 328.741 235.817 327.728C238.908 327.009 241.652 327.942 244.516 329.42C245.182 328.395 245.648 327.462 246.314 326.663Z" fill="#F2F2F2"/>
<path d="M200.301 314.113C195.146 316.085 191.948 319.402 191.922 325.224C191.922 325.863 191.509 326.782 191.003 327.076C189.391 327.995 187.659 328.687 185.86 329.513C182.85 321.973 179.946 314.726 177.001 307.359C185.368 304.069 192.361 299.326 198.889 293.332C201.247 299.406 203.512 305.201 205.856 311.236C203.858 312.302 202.153 313.421 200.301 314.113Z" fill="#EDD8C5"/>
<path d="M158.591 58.3492C161.601 61.7729 162.974 65.8361 163.253 70.2988C163.36 72.0973 163.32 73.909 163.28 75.7208C163.014 86.1118 161.841 96.3029 156.832 105.668C156.592 106.134 156.259 106.534 155.62 107.48C155.62 105.975 155.633 105.135 155.62 104.283C155.473 92.2664 155.38 80.2502 155.167 68.234C155.087 63.6646 154.861 59.0686 152.276 55.0188C151.557 53.8731 151.943 53.0472 153.382 52.1013C155.194 54.2861 156.846 56.3643 158.591 58.3492Z" fill="#5C4833"/>
<path d="M178.374 409.191C177.468 410.736 176.788 411.882 176.056 413.121C175.043 412.588 174.284 412.228 173.565 411.802C162.001 405.008 150.425 398.241 138.875 391.407C133.839 388.423 128.83 385.385 123.874 382.268C120.73 380.296 118.079 377.725 115.721 374.768C136.663 385.971 157.419 397.495 178.374 409.191Z" fill="#898989"/>
<path d="M187.379 346.925C182.929 349.15 178.48 351.348 174.164 353.493C170.913 350.708 167.929 348.164 164.639 345.34C169.221 342.995 173.538 340.744 177.894 338.612C178.44 338.346 179.359 338.439 179.945 338.719C182.903 340.144 185.807 341.676 188.764 343.195C188.738 344.727 188.938 346.152 187.379 346.925Z" fill="#F2F2F2"/>
<path d="M232.02 381.628C230.368 382.361 228.783 383.24 227.224 384.146C212.237 392.885 197.264 401.651 182.277 410.403C181.424 410.896 180.505 411.243 179.319 411.802C180.239 408.578 180.239 408.578 182.81 407.086C198.196 398.174 213.57 389.262 228.956 380.363C230.422 379.523 231.9 378.711 233.699 377.712C234.325 379.87 233.632 380.896 232.02 381.628Z" fill="#898989"/>
<path d="M182.876 359.021C178.214 361.086 173.738 363.591 169.182 365.895C167.69 366.655 166.158 367.361 164.612 368.107C163.253 367.188 162.041 366.375 160.456 365.322C169.568 360.673 178.267 356.25 187.206 351.694C187.672 355.771 185.994 357.649 182.876 359.021Z" fill="#F2F2F2"/>
<path d="M181.464 337.586C179.586 336.507 177.961 336.587 176.082 337.626C172.446 339.638 168.715 341.45 165.025 343.355C164.319 343.715 163.627 344.154 162.374 343.182C172.073 338.346 181.398 333.697 191.349 328.728C190.59 333.324 189.964 337.16 189.231 341.61C186.3 340.118 183.809 338.959 181.464 337.586Z" fill="#B7B7B7"/>
<path d="M159.27 372.716C160.815 373.742 162.094 374.608 163.72 375.687C162.627 376.34 161.948 376.793 161.215 377.166C157.605 379.004 153.862 380.603 150.425 382.707C147.307 384.626 144.736 384.413 141.792 381.575C147.813 378.511 153.555 375.607 159.27 372.716Z" fill="#F2F2F2"/>
<path d="M165.172 357.969C160.349 360.46 160.469 360.287 156.206 357.09C153.822 355.291 153.715 353.266 154.115 350.722C155.22 350.229 156.259 349.776 157.272 349.323C160.482 351.907 163.52 354.359 166.824 357.023C166.078 357.436 165.625 357.716 165.172 357.969Z" fill="#F2F2F2"/>
<path d="M284.415 351.228C277.74 355.158 271.12 359.154 264.459 363.111C264.046 363.364 263.553 363.457 263.1 363.617C262.181 361.912 263.047 361.126 264.246 360.38C270.933 356.264 277.581 352.121 284.268 348.004C284.868 347.631 285.587 347.498 286.36 347.205C286.773 349.243 285.933 350.335 284.415 351.228Z" fill="#898989"/>
<path d="M154.314 387.437C153.235 387.996 152.329 387.996 151.357 387.33C150.531 386.757 149.652 386.251 148.386 385.452C152.276 383.48 155.74 381.682 159.243 380.003C159.696 379.79 160.496 379.963 160.989 380.23C161.988 380.789 162.867 381.535 164.266 382.534C160.576 384.346 157.418 385.838 154.314 387.437Z" fill="#F2F2F2"/>
<path d="M167.277 396.309C165.625 395.363 164.093 394.484 162.121 393.351C165.491 391.7 168.422 390.274 171.46 388.795C172.818 389.741 174.111 390.634 176.002 391.939C172.739 393.565 170.021 394.923 167.277 396.309Z" fill="#F2F2F2"/>
<path d="M175.496 384.985C172.765 386.344 170.54 387.436 168.236 388.582C166.491 387.476 164.812 386.437 162.76 385.145C165.278 383.88 167.396 382.801 169.754 381.615C171.646 382.721 173.351 383.72 175.496 384.985Z" fill="#F2F2F2"/>
<path d="M179.173 377.006C179.945 377.525 180.465 377.885 180.984 378.231C181.238 378.404 181.531 378.564 181.77 378.764C183.143 379.896 183.169 381.149 181.664 382.041C180.225 382.894 178.64 383.52 177.108 384.266C175.296 383.147 173.618 382.108 171.513 380.802C174.404 379.364 176.828 378.165 179.173 377.006Z" fill="#F2F2F2"/>
<path d="M169.634 374.754C171.007 375.727 172.259 376.619 173.871 377.765C170.94 379.217 168.409 380.469 165.824 381.762C164.492 380.776 163.32 379.91 161.708 378.724C164.719 377.219 167.17 375.98 169.634 374.754Z" fill="#F2F2F2"/>
<path d="M7.69507 298.341C10.6791 296.862 13.4234 296.169 16.554 297.635C15.9945 299.593 15.4483 301.498 14.729 304.029C12.1712 301.924 8.8807 301.618 7.69507 298.341Z" fill="#8BDBE8"/>
<path d="M165.451 375.021C163.999 374.008 162.667 373.076 160.935 371.877C163.533 370.545 165.598 369.506 167.783 368.386C169.221 369.372 170.594 370.305 172.445 371.57C169.714 372.916 167.636 373.942 165.451 375.021Z" fill="#F2F2F2"/>
<path d="M154.874 389.155C161.188 385.412 161.974 385.438 165.997 389.568C164.079 390.527 162.241 391.446 160.309 392.419C158.524 391.353 156.792 390.314 154.874 389.155Z" fill="#F2F2F2"/>
<path d="M180.572 367.334C178.054 368.64 176.042 369.692 173.977 370.771C172.499 369.745 171.153 368.813 169.381 367.587C171.819 366.335 173.764 365.349 175.802 364.31C177.281 365.242 178.667 366.135 180.572 367.334Z" fill="#F2F2F2"/>
<path d="M174.404 372.356C178.187 370.411 178.187 370.425 181.411 373.302C181.517 373.382 181.477 373.648 181.504 373.822C175.509 377.312 175.802 377.552 171.673 373.875C172.632 373.342 173.498 372.809 174.404 372.356Z" fill="#F2F2F2"/>
<path d="M142.352 374.554C143.617 375.46 144.829 376.326 146.308 377.379C142.591 379.257 139.514 382.401 135.597 377.978C137.929 376.806 140.074 375.727 142.352 374.554Z" fill="#F2F2F2"/>
<path d="M177.401 391.073C176.202 390.181 174.897 389.208 173.218 387.956C176.269 386.477 178.8 385.252 181.677 383.853C181.89 389.088 181.704 389.382 177.401 391.073Z" fill="#F2F2F2"/>
<path d="M153.462 373.795C152.156 374.488 150.798 375.074 149.545 375.833C148.36 376.553 147.387 376.433 146.401 375.553C145.722 374.954 145.003 374.394 144.137 373.675C145.456 372.982 146.468 372.449 147.494 371.917C151.051 370.092 151.131 370.105 154.221 373.275C153.982 373.449 153.755 373.675 153.462 373.795Z" fill="#F2F2F2"/>
<path d="M158.817 366.162C160.189 367.134 161.721 367.6 162.587 369.172C159.257 370.558 156.313 374.341 152.583 369.346C154.741 368.253 156.779 367.214 158.817 366.162Z" fill="#F2F2F2"/>
<path d="M180.598 361.872C180.971 361.672 181.344 361.446 181.744 361.326C182.73 361.046 184.901 361.952 185.261 362.978C185.474 363.564 185.354 364.483 185.008 365.003C184.222 366.188 182.357 366.495 181.051 365.789C179.959 365.189 178.92 364.483 177.494 363.604C178.826 362.858 179.719 362.352 180.598 361.872Z" fill="#F2F2F2"/>
<path d="M176.642 397.121C175.35 397.854 174.084 398.574 172.738 399.333C171.579 398.68 170.514 398.067 169.328 397.388C173.911 394.337 174.564 394.55 176.642 397.121Z" fill="#F2F2F2"/>
<path d="M179.586 369.759C181.544 368.786 182.983 368.054 184.941 367.081C184.595 369.266 184.342 370.798 183.982 373.089C182.29 371.81 181.104 370.918 179.586 369.759Z" fill="#F2F2F2"/>
<path d="M174.763 355.544C178.88 353.013 183.09 350.709 187.699 349.177C183.569 351.641 179.399 354.066 174.763 355.544Z" fill="#B7B7B7"/>
<path d="M179.373 395.536C177.934 396.109 176.962 395.03 175.776 393.884C177.468 393.072 178.84 392.392 180.438 391.62C180.585 393.365 181.011 394.897 179.373 395.536Z" fill="#F2F2F2"/>
<path d="M42.0919 305.721C43.544 306.32 44.7563 306.813 46.2883 307.439C44.663 308.878 43.131 309.131 41.0928 308.958C41.4525 307.812 41.7322 306.867 42.0919 305.721Z" fill="#8BDBE8"/>
<path d="M152.449 348.484C153.235 347.724 153.981 346.765 155.567 348.257C154.474 348.684 153.608 349.017 152.743 349.35C152.649 349.057 152.556 348.763 152.449 348.484Z" fill="#B7B7B7"/>
<path d="M183.689 375.061C183.343 376.18 183.143 376.832 182.89 377.672C182.237 377.139 181.837 376.819 180.998 376.14C181.984 375.753 182.597 375.5 183.689 375.061Z" fill="#F2F2F2"/>
<path d="M184.781 360.06C184.968 359.767 185.407 359.647 185.741 359.448C185.874 359.674 186.14 359.927 186.1 360.127C186.047 360.433 185.78 360.713 185.434 361.259C185.088 360.647 184.701 360.207 184.781 360.06Z" fill="#F2F2F2"/>
<path d="M152.516 353.04C152.356 353.812 152.196 354.572 152.037 355.331C151.85 355.278 151.664 355.238 151.477 355.184C151.664 354.438 151.85 353.679 152.037 352.933C152.196 352.973 152.356 353.013 152.516 353.04Z" fill="#EDD8C5"/>
<path d="M70.8669 116.898C70.5072 116.765 70.0542 116.739 69.8011 116.499C66.1243 113.155 65.6448 107.84 69.0285 104.216C70.5738 102.564 72.652 101.259 74.7302 100.3C78.5935 98.5011 82.8032 98.4345 86.9463 99.0739C91.449 99.7667 95.5654 101.405 98.7626 104.842C100.921 107.16 101.933 109.851 101.4 113.035C100.921 115.926 98.9225 118.244 96.2715 118.817C96.7111 116.872 99.3088 116.179 99.2022 113.768C89.2642 117.338 79.566 117.618 69.4281 113.488C70.2807 114.82 70.7736 115.606 71.2665 116.379C71.1333 116.552 71.0001 116.725 70.8669 116.898ZM96.9242 105.122C91.0627 99.6334 79.4461 98.581 72.7053 102.924C70.6671 104.229 69.1484 105.908 68.4689 108.319C68.0426 109.798 68.3357 110.93 69.7212 111.49C72.3589 112.556 74.9833 113.834 77.7542 114.394C84.0154 115.66 90.25 115.207 96.3247 113.102C97.124 112.835 97.9233 112.502 98.696 112.156C99.069 111.983 99.4154 111.73 99.9616 111.383C100.028 108.612 98.6561 106.747 96.9242 105.122Z" fill="black"/>
<path d="M119.385 118.763C115.575 115.819 114.882 110.384 117.826 106.534C119.425 104.443 121.556 103.057 124.008 102.204C130.362 100.006 136.57 100.499 142.511 103.617C144.989 104.922 147.041 106.787 148.293 109.372C150.225 113.341 148.813 118.244 145.069 120.549C144.776 120.722 144.31 120.642 143.284 120.762C144.55 119.256 145.429 118.204 146.441 116.992C141.539 117.151 136.916 117.484 132.307 117.418C127.618 117.351 123.035 116.312 117.933 114.434C119.118 116.219 119.851 117.338 120.917 118.95C119.958 118.83 119.585 118.91 119.385 118.763ZM145.735 115.007C147.72 114.674 148 114.061 147.64 112.142C147.187 109.718 145.815 107.88 143.937 106.361C138.382 101.885 128.75 101.059 122.515 104.536C120.517 105.641 118.839 107.08 117.959 109.265C117.2 111.157 117.32 112.129 119.185 112.928C121.703 113.994 124.381 114.727 127.045 115.38C128.79 115.806 130.628 115.859 132.427 116.006C133.479 116.086 134.545 116.019 135.611 116.019C135.624 116.126 135.637 116.246 135.651 116.352C139.008 115.913 142.392 115.566 145.735 115.007Z" fill="black"/>
<path d="M123.621 90.2683C130.388 90.0285 137.182 90.4015 143.963 90.5747C148.679 90.7079 151.277 97.5153 148.932 102.111C148.173 101.512 147.374 101.006 146.707 100.366C144.403 98.1548 141.698 97.3288 138.541 97.5819C134.625 97.9016 130.695 98.1015 126.765 98.248C123.941 98.3413 121.116 98.2613 118.305 98.2613C117.373 92.7861 118.692 90.4281 123.621 90.2683ZM131.92 96.3696C134.252 96.2231 136.583 96.0366 138.914 95.9434C141.512 95.8368 144.003 96.1965 146.121 97.9017C146.601 98.2747 147.134 98.581 147.707 98.9674C148.439 94.6911 146.907 92.2133 143.004 92.0134C136.65 91.6937 130.295 91.5738 123.941 91.6937C120.144 91.7603 119.451 92.866 119.664 97.169C123.901 96.8892 127.91 96.6228 131.92 96.3696Z" fill="black"/>
<path d="M73.5713 89.2557C80.7651 87.697 87.9588 88.7095 95.1259 89.602C97.324 89.8685 98.11 91.174 98.0434 93.452C98.0167 94.5044 97.8169 95.5569 97.6038 96.596C97.2974 98.0747 96.3382 98.7408 94.8328 98.5942C93.0344 98.4077 91.236 98.2479 89.4508 98.0347C85.1213 97.5018 80.805 96.9557 76.4888 96.3961C73.8378 96.0498 71.4398 96.5427 69.3217 98.2612C68.549 98.9006 67.6165 99.3402 66.3643 100.113C66.0179 94.5844 69.0553 90.2415 73.5713 89.2557ZM91.8221 90.6811C87.9189 90.4413 84.0022 90.1349 80.0856 90.015C78.4071 89.9617 76.7019 90.2548 75.0234 90.428C71.28 90.8143 69.1352 92.9858 68.1227 96.6226C68.4691 96.6759 68.8554 96.8624 68.9886 96.7558C71.5198 94.6643 74.4639 94.7043 77.4613 95.0773C81.8708 95.6235 86.2803 96.223 90.7031 96.7425C92.355 96.9423 94.0335 96.9956 95.8053 97.1288C97.2174 91.587 96.7912 90.9742 91.8221 90.6811Z" fill="black"/>
<path d="M124.86 160.367C114.349 164.151 103.665 164.59 92.9544 161.46C90.4633 160.74 88.2119 159.182 85.9073 157.889C85.4277 157.623 85.2412 156.85 84.6816 155.891C100.215 164.657 115.242 163.525 130.375 156.437C129.043 158.489 128.164 159.182 124.86 160.367Z" fill="black"/>
<path d="M111.165 109.971C111.671 110.81 112.271 111.61 112.657 112.502C115.481 119.097 116.174 126.024 115.548 133.098C115.295 135.989 114.229 137.134 111.352 137.374C108.301 137.64 105.21 137.507 102.133 137.494C101.733 137.494 101.32 137.174 100.907 137.001C101.547 136.348 102.106 136.135 102.666 136.122C104.997 136.082 107.342 136.188 109.673 136.095C113.23 135.949 113.989 135.256 114.163 131.779C114.496 125.025 113.949 118.404 110.979 112.169C110.712 111.596 110.659 110.917 110.499 110.278C110.726 110.184 110.952 110.078 111.165 109.971Z" fill="black"/>
<path d="M86.0805 149.67C83.8159 150.269 82.0174 151.535 80.9384 153.64C79.2199 157.01 79.6462 160.207 81.8576 163.218C82.3638 163.884 82.8301 164.577 83.3096 165.256C79.2065 163.964 77.4348 158.995 78.9401 154.452C80.3789 150.149 84.4553 147.592 88.4119 149.11C87.6259 149.297 86.8532 149.47 86.0805 149.67Z" fill="black"/>
<path d="M137.542 153.826C138.861 157.769 137.582 162.778 135.105 163.684C135.557 161.393 136.25 159.075 136.45 156.717C136.663 154.226 135.597 151.895 133.373 150.802C131.295 149.79 128.857 149.497 126.086 148.751C131.308 146.992 135.984 149.23 137.542 153.826Z" fill="black"/>
<path d="M243.264 323.132C240.653 319.229 241.745 314.433 245.928 312.355C247.38 316.591 246.075 321.614 243.264 323.132ZM245.329 315.179C243.37 317.071 243.344 317.138 243.557 320.135C243.77 320.162 243.996 320.202 244.223 320.228C244.556 318.67 244.902 317.111 245.329 315.179Z" fill="black"/>
<path d="M98.6828 112.156C97.9101 112.502 97.1108 112.822 96.3115 113.102C90.2368 115.207 84.0022 115.673 77.741 114.394C74.9834 113.835 72.3457 112.569 69.708 111.49C68.3225 110.93 68.0427 109.798 68.4557 108.319C69.1351 105.895 70.6671 104.23 72.692 102.924C79.4328 98.5944 91.0494 99.6335 96.911 105.122C98.6561 106.747 100.028 108.612 99.9617 111.383C99.4155 111.73 99.0691 111.996 98.6828 112.156ZM83.8823 109.665C84.9081 109.905 85.2678 108.972 85.3077 108.066C85.361 106.987 84.3619 105.775 83.4427 106.041C82.6967 106.254 82.0972 107.027 80.9648 107.906C82.257 108.719 83.0031 109.465 83.8823 109.665Z" fill="white"/>
<path d="M135.611 116.019C134.558 116.019 133.479 116.086 132.427 116.006C130.628 115.859 128.79 115.806 127.045 115.38C124.381 114.74 121.703 114.008 119.185 112.929C117.32 112.116 117.2 111.157 117.959 109.265C118.839 107.08 120.531 105.642 122.515 104.536C128.75 101.059 138.382 101.898 143.937 106.361C145.815 107.88 147.201 109.718 147.64 112.143C147.987 114.061 147.72 114.66 145.735 115.007C142.392 115.58 139.008 115.913 135.651 116.352C135.637 116.232 135.624 116.126 135.611 116.019ZM130.469 107.027C130.136 107.946 129.35 109.012 129.603 109.665C129.882 110.397 131.108 110.757 131.947 111.29C133.266 108.466 133.266 108.466 130.469 107.027Z" fill="white"/>
<path d="M123.941 91.6937C130.295 91.5738 136.663 91.6937 143.004 92.0134C146.908 92.2132 148.44 94.6911 147.707 98.9673C147.147 98.5943 146.601 98.2879 146.122 97.9016C144.003 96.1964 141.512 95.8367 138.915 95.9433C136.583 96.0366 134.252 96.2231 131.921 96.3696C127.911 96.6227 123.914 96.8892 119.665 97.1689C119.438 92.866 120.131 91.7736 123.941 91.6937Z" fill="#8D7958"/>
<path d="M90.6898 96.7292C86.2669 96.2097 81.8708 95.6102 77.4479 95.064C74.4505 94.7043 71.5064 94.651 68.9753 96.7426C68.8421 96.8624 68.4557 96.676 68.1094 96.6093C69.1218 92.9725 71.2666 90.7877 75.01 90.4147C76.7019 90.2549 78.3938 89.9485 80.0723 90.0018C83.9889 90.1216 87.8922 90.428 91.8088 90.6678C96.7911 90.9742 97.2041 91.587 95.8053 97.1289C94.0335 96.9957 92.3683 96.9424 90.6898 96.7292Z" fill="#8D7958"/>
<path d="M243.557 320.135C243.344 317.138 243.357 317.071 245.329 315.179C244.902 317.111 244.569 318.67 244.223 320.228C243.996 320.202 243.77 320.175 243.557 320.135Z" fill="#F2F2F2"/>
<path d="M83.4427 106.041C84.3752 105.775 85.361 106.987 85.3077 108.066C85.2678 108.985 84.9081 109.904 83.8823 109.665C83.0031 109.465 82.2571 108.719 80.9648 107.906C82.0972 107.027 82.6967 106.254 83.4427 106.041Z" fill="black"/>
<path d="M129.603 109.665C129.35 109.012 130.122 107.96 130.469 107.027C133.266 108.479 133.266 108.479 131.947 111.29C131.108 110.757 129.882 110.397 129.603 109.665Z" fill="black"/>
</svg>
