<svg width="3499" height="149" viewBox="0 0 3499 149" fill="none" xmlns="http://www.w3.org/2000/svg">
<path d="M351 69.5C351 62.074 351 57.426 351 50C352.911 49.9464 363.101 49.125 365 49C374.401 48.3931 375.555 46.7484 384.923 45.9272C394.465 45.0972 403.974 44.0172 413.473 42.8926C415.941 42.598 418.332 41.7769 420.701 41.0807C421.52 40.8397 422.579 40.5005 422.328 39.1974C417.491 37.5283 412.032 37.1535 406.507 35.6361C407.304 35.4398 407.545 35.3505 407.807 35.3237C414.478 34.6633 421.148 34.0117 427.819 33.3691C434.752 32.6996 441.674 31.941 448.618 31.4144C459.307 30.6022 470.017 29.9863 480.706 29.2366C484.888 28.942 489.015 28.2904 492.88 26.8802C493.939 26.4964 495.216 26.184 495.642 24.7292C494.594 24.4703 493.579 24.0776 492.53 23.9973C485.15 23.4082 477.78 22.5335 470.378 22.3907C452.308 22.0426 434.239 22.0694 416.159 21.8819C407.61 21.7927 399.05 21.5428 390.502 21.3464C389.661 21.3286 388.82 21.2036 387.99 21.1322C388.831 20.4271 389.792 20.1772 390.676 19.8023C392.674 18.9455 394.76 18.16 396.583 17.0979C398.275 16.1072 398.002 15.0986 396.048 14.4292C395.011 14.0721 393.886 13.7955 392.783 13.7062C388.962 13.3849 385.141 13.0636 381.309 12.9297C371.166 12.5637 361.056 13.9646 351 15C351 10.573 351 5.42704 351 1C353.173 0.866118 355.346 0.550022 357.518 0.523246C366.591 0.407215 375.686 0.103748 384.748 0.326885C394.246 0.567873 403.756 1.19266 413.222 1.91562C418.681 2.33512 424.074 3.26337 429.49 4.04882C430.614 4.20947 431.652 4.75393 432.776 5.13772C432.154 6.5301 430.887 6.79787 429.774 7.08348C426.116 8.02958 422.426 8.88643 418.736 9.77005C417.818 9.99319 416.869 10.136 415.951 10.3859C414.903 10.6715 413.997 11.1535 414.008 12.171C414.019 13.0636 414.783 13.5902 415.755 13.8579C416.497 14.0632 417.262 14.2507 418.037 14.2953C421.956 14.5363 425.876 14.9201 429.796 14.9111C444.644 14.8933 459.482 14.6791 474.33 14.6523C482.005 14.6344 489.703 14.6969 497.367 15.0004C504.682 15.2949 511.997 15.8305 519.28 16.4999C524.826 17.0086 530.318 17.8833 535.82 18.6152C537.131 18.7848 538.211 19.1864 539.052 20.1861C539.642 20.8734 540.755 21.4178 541.771 21.6767C543.332 22.0783 545.002 22.2925 546.64 22.4086C555.178 23.0066 563.727 23.0333 572.287 22.8995C585.563 22.6942 598.828 22.5781 612.104 22.5246C631.484 22.4532 650.874 21.8373 670.254 22.8459C679.84 23.3457 689.448 23.6046 698.924 24.988C700.246 25.1844 701.556 25.3986 702.877 25.6039C702.855 25.7645 702.833 25.9163 702.811 26.0769C701.185 26.2197 699.547 26.4429 697.92 26.4964C690.245 26.7374 682.558 26.9159 674.883 27.1569C662.84 27.5318 650.809 28.0316 638.766 28.2994C631.091 28.469 623.394 28.228 615.707 28.344C607.071 28.4779 598.424 28.7814 589.799 29.0759C581.163 29.3794 572.538 29.7721 563.901 30.1291C561.194 30.2451 558.497 30.3522 555.8 30.5307C553.486 30.6825 553.114 30.9235 553.245 32.7086C553.333 33.9403 552.689 34.6722 551.51 35.056C549.097 35.8414 546.662 36.6983 544.14 37.1624C536.53 38.5548 528.756 38.8761 521.016 39.3491C515.098 39.7062 509.137 39.84 503.274 40.4916C492.902 41.6519 482.562 43.0264 472.256 44.5348C464.875 45.6148 457.582 47.0608 450.256 48.3728C449.492 48.5067 448.727 48.712 448.05 49.0154C446.653 49.6402 446.533 50.6131 447.788 51.3896C448.542 51.8537 449.459 52.1661 450.343 52.4428C452.625 53.1658 454.972 53.7459 457.2 54.5492C458.783 55.1205 460.246 55.9238 461.709 56.7003C462.724 57.2447 462.779 58.0837 461.873 58.6728C460.453 59.6011 459.001 60.6721 457.342 61.1363C454.066 62.0645 450.671 62.8857 447.253 63.2784C437.667 64.3941 428.049 65.3491 418.419 66.2059C411.65 66.8129 404.859 67.1967 398.068 67.5983C388.667 68.1606 379.256 68.6426 369.845 69.1692C363.534 69.5262 357.267 69.1251 351 69.5Z" fill="white"/>
<path d="M351 1C351 8.42601 351 7.57399 351 15C351 15 348.023 14.5446 346.123 14.6696C336.722 15.2765 327.311 15.7674 317.943 16.5886C308.401 17.4186 304 18.0979 293.5 22.168C287.122 26 284.545 28.7639 282.176 29.4601C281.357 29.7011 280.298 30.0402 280.549 31.3434C285.386 33.0124 290.845 33.3873 296.369 34.9046C295.572 35.101 295.332 35.1903 295.07 35.217C288.399 35.8775 281.728 36.5291 275.057 37.1717C268.124 37.8411 261.202 38.5998 254.259 39.1264C243.57 39.9386 232.859 40.5545 222.17 41.3042C217.989 41.5988 213.862 42.2503 209.997 43.6606C208.938 44.0443 207.66 44.3567 207.235 45.8116C208.283 46.0704 209.298 46.4632 210.346 46.5435C217.727 47.1326 225.097 48.0073 232.499 48.1501C250.568 48.4982 268.638 48.4714 286.718 48.6588C295.267 48.7481 303.826 48.998 312.375 49.1944C313.216 49.2122 314.056 49.3372 314.886 49.4086C314.045 50.1137 313.085 50.3636 312.2 50.7385C310.202 51.5953 308.117 52.3808 306.294 53.4429C304.601 54.4336 304.874 55.4422 306.829 56.1116C307.866 56.4686 308.99 56.7453 310.093 56.8346C313.914 57.1559 317.736 57.4772 321.568 57.6111C331.711 57.977 340.945 51.0354 351 50C351 54.427 351 65.073 351 69.5C348.828 69.6339 347.531 69.9907 345.358 70.0175C336.285 70.1336 327.191 70.437 318.129 70.2139C308.63 69.9729 299.121 69.3481 289.655 68.6251C284.196 68.2057 278.802 67.2774 273.387 66.492C272.262 66.3313 271.225 65.7868 270.101 65.403C270.723 64.0107 271.989 63.7429 273.103 63.4573C276.761 62.5112 280.451 61.6543 284.141 60.7707C285.058 60.5476 286.008 60.4048 286.925 60.1549C287.973 59.8692 288.879 59.3873 288.869 58.3698C288.858 57.4772 288.093 56.9506 287.122 56.6828C286.379 56.4776 285.615 56.2901 284.84 56.2455C280.92 56.0045 277.001 55.6207 273.081 55.6296C258.233 55.6475 243.395 55.8617 228.547 55.8885C220.871 55.9063 213.174 55.8438 205.51 55.5404C198.195 55.2458 190.879 54.7103 183.597 54.0409C178.051 53.5321 172.559 52.6574 167.056 51.9256C165.746 51.756 164.665 51.3543 163.825 50.3547C163.235 49.6674 162.121 49.123 161.106 48.8641C159.545 48.4625 157.874 48.2483 156.237 48.1322C147.699 47.5342 139.15 47.5074 130.59 47.6413C117.314 47.8466 104.049 47.9626 90.7723 48.0162C71.3928 48.0876 52.0025 48.7035 32.623 47.6949C23.037 47.195 13.4291 46.9362 3.9523 45.5528C2.63122 45.3564 1.32105 45.1422 -3.05176e-05 44.9369C0.0218055 44.7762 0.0436547 44.6245 0.0654907 44.4638C1.69227 44.321 3.32994 44.0979 4.95673 44.0443C12.6321 43.8034 20.3184 43.6248 27.9937 43.3839C40.0363 43.009 52.068 42.5092 64.1105 42.2414C71.7859 42.0718 79.4831 42.3128 87.1694 42.1968C95.8055 42.0629 104.452 41.7594 113.078 41.4649C121.714 41.1614 130.339 40.7687 138.975 40.4117C141.683 40.2956 144.38 40.1885 147.076 40.01C149.391 39.8583 149.762 39.6173 149.631 37.8322C149.544 36.6005 150.188 35.8686 151.367 35.4848C153.78 34.6994 156.215 33.8425 158.737 33.3784C166.347 31.986 174.12 31.6647 181.861 31.1916C187.779 30.8346 193.74 30.7007 199.603 30.0492C209.975 28.8889 220.314 27.5143 230.621 26.0059C238.002 24.9259 245.295 23.48 252.621 22.168C253.385 22.0341 254.149 21.8288 254.826 21.5253C256.224 20.9005 256.344 19.9277 255.088 19.1512C254.335 18.687 253.418 18.3746 252.533 18.0979C250.252 17.375 247.904 16.7948 245.677 15.9915C244.094 15.4203 242.631 14.617 241.168 13.8405C240.152 13.296 240.098 12.457 241.004 11.868C242.423 10.9397 243.875 9.86864 245.535 9.40451C248.81 8.47626 252.206 7.65512 255.623 7.2624C265.209 6.14671 274.828 5.19169 284.458 4.33484C291.227 3.72791 298.018 3.34411 304.809 2.94246C314.209 2.38015 323.621 1.89817 333.032 1.37157C339.343 1.01455 344.733 1.37487 351 1Z" fill="white"/>
<path d="M1456.98 1.44238C1543.25 1.44238 1629.81 1 1716.08 1C1716.08 5.70817 1716.08 10.7918 1716.08 15.5C1706.22 15.3841 1696.05 15.344 1686.18 15.2281C1678.94 15.1478 1671.7 15.1211 1664.48 14.9605C1651.19 14.6663 1637.91 14.1313 1624.62 13.9886C1607.61 13.8013 1590.59 13.8459 1573.59 13.9083C1568.81 13.9262 1564.04 14.3364 1559.27 14.6306C1558.02 14.7109 1556.74 14.907 1555.58 15.2548C1554.86 15.4688 1553.95 16.0306 1553.89 16.4854C1553.84 16.8777 1554.81 17.4216 1555.47 17.7516C1556.01 18.028 1556.74 18.0904 1557.4 18.2331C1569.58 20.9171 1582 22.7986 1594.57 24.2342C1600.92 24.9654 1607.25 25.9017 1613.57 26.8202C1615.03 27.0342 1616.43 27.5513 1617.85 27.9259C1615.03 29.094 1612.15 29.3347 1609.26 29.5933C1605 29.9679 1600.74 30.3691 1596.5 30.8596C1595.39 30.9844 1594.26 31.3946 1593.33 31.885C1592.17 32.4914 1592.26 33.4901 1593.5 33.9805C1594.51 34.3729 1595.69 34.6136 1596.83 34.7117C1607.29 35.6569 1617.08 35.1331 1627.58 35.891C1636.43 36.5331 1643.21 34.072 1652.08 34.5C1662.9 35.0083 1673.74 35.6146 1684.57 35.891C1694.04 36.1407 1706.59 32.9732 1716.08 33C1716.08 35.2828 1716.08 44.7172 1716.08 47C1714.13 47.0178 1711.89 47.3292 1709.95 47.2757C1698.81 46.9815 1687.68 46.6605 1676.54 46.3484C1669.61 46.1522 1662.67 46.0363 1655.75 45.7777C1642.57 45.2783 1629.4 44.7612 1616.23 44.1459C1605.41 43.6465 1594.59 43.0669 1583.8 42.3803C1578.64 42.0504 1573.51 41.4351 1568.61 40.1243C1566.97 39.6874 1565.31 39.1702 1563.9 38.4479C1561.8 37.36 1562.02 36.1919 1564.38 35.4251C1566.07 34.8811 1567.89 34.5601 1569.64 34.1053C1571.85 33.5347 1574.08 32.9996 1576.22 32.313C1576.91 32.0901 1577.89 31.3946 1577.82 31.0111C1577.71 30.4405 1576.88 29.8341 1576.14 29.4774C1575.18 29.0137 1574.04 28.7106 1572.93 28.4609C1570.49 27.9348 1568.06 27.3195 1565.57 27.0342C1554.84 25.8393 1544.11 24.7692 1533.37 23.6279C1513.15 21.4878 1493.13 18.5987 1473.44 14.5593C1466.99 13.2307 1461.09 11.0192 1455.49 8.36197C1454.43 7.86262 1453.44 7.26518 1452.53 6.61424C1450.35 5.04485 1450.48 4.34041 1453.06 3.15445C1454.36 2.57484 1455.68 2.01307 1456.98 1.44238Z" fill="white"/>
<path d="M1974.9 47.2939C1888.63 47.2939 1802.35 47 1716.08 47C1716.08 42.2918 1716.08 37.7082 1716.08 33C1725.95 33.1159 1735.84 33.3923 1745.71 33.5083C1752.94 33.5885 1760.18 33.6153 1767.41 33.7758C1780.7 34.07 1793.98 34.6051 1807.27 34.7477C1824.27 34.935 1841.29 34.8904 1858.3 34.828C1863.08 34.8102 1867.85 34.4 1872.62 34.1057C1873.86 34.0255 1875.15 33.8293 1876.31 33.4815C1877.03 33.2675 1877.93 32.7057 1878 32.251C1878.04 31.8586 1877.08 31.3147 1876.42 30.9848C1875.88 30.7083 1875.15 30.6459 1874.49 30.5032C1862.31 27.8192 1849.89 25.9377 1837.32 24.5021C1830.96 23.7709 1824.64 22.8346 1818.32 21.9162C1816.85 21.7022 1815.46 21.185 1814.04 20.8105C1816.85 19.6423 1819.74 19.4016 1822.62 19.143C1826.89 18.7685 1831.14 18.3672 1835.39 17.8768C1836.5 17.7519 1837.62 17.3418 1838.55 16.8513C1839.72 16.245 1839.63 15.2463 1838.38 14.7558C1837.38 14.3635 1836.19 14.1227 1835.06 14.0246C1824.59 13.0794 1814.13 12.054 1803.62 11.296C1794.77 10.654 1785.89 10.3062 1777.02 9.87823C1766.2 9.36996 1757.42 12.2764 1746.58 12C1737.11 11.7503 1725.57 15.5268 1716.08 15.5C1716.08 13.2172 1716.08 3.28275 1716.08 1C1718.04 0.982166 1723.64 1.4465 1725.58 1.5C1736.72 1.79426 1744.2 2.07586 1755.34 2.38795C1762.27 2.58412 1769.22 2.70005 1776.14 2.95864C1789.32 3.45799 1802.49 3.97517 1815.65 4.59045C1826.47 5.0898 1837.29 5.66941 1848.09 6.35602C1853.25 6.68595 1858.37 7.30122 1863.28 8.61201C1864.91 9.04895 1866.58 9.56613 1867.98 10.2884C1870.09 11.3763 1869.87 12.5444 1867.51 13.3113C1865.82 13.8552 1864 14.1762 1862.25 14.631C1860.04 15.2017 1857.81 15.7367 1855.67 16.4233C1854.97 16.6462 1854 17.3418 1854.07 17.7252C1854.18 18.2959 1855.01 18.9022 1855.74 19.2589C1856.71 19.7226 1857.85 20.0258 1858.96 20.2754C1861.39 20.8016 1863.83 21.4168 1866.32 21.7022C1877.04 22.897 1887.78 23.9671 1898.51 25.1085C1918.73 27.2485 1938.76 30.1376 1958.45 34.177C1964.9 35.5057 1970.79 37.7171 1976.39 40.3744C1977.46 40.8737 1978.45 41.4711 1979.35 42.1221C1981.54 43.6915 1981.41 44.3959 1978.83 45.5819C1977.53 46.1615 1976.21 46.7233 1974.9 47.2939Z" fill="white"/>
<path d="M1198.93 79.0642C1202.71 81.5249 1206.58 82.384 1210.38 83.6779C1209.51 83.7522 1208.62 83.9113 1207.76 83.8795C1203.43 83.7204 1199.11 83.5401 1194.79 83.3279C1186.79 82.9143 1178.8 82.384 1170.8 82.0658C1158.93 81.5991 1147.05 81.1855 1135.16 80.9203C1127.95 80.7506 1120.83 80.0082 1113.76 78.7779C1112.21 78.5021 1110.47 78.4278 1109.27 76.5824C1110.36 76.2111 1111.24 75.8611 1112.16 75.596C1114.54 74.9278 1116.94 74.3551 1119.31 73.6232C1120.6 73.2202 1122.21 72.7217 1122.19 71.2368C1122.17 69.561 1120.31 69.5716 1119.04 69.3171C1111.79 67.864 1104.44 67.6943 1097.04 67.9171C1085.71 68.2459 1074.39 68.5322 1063.06 67.811C1060.67 67.6625 1058.26 67.6095 1055.88 67.6201C1052.35 67.6413 1049.65 68.808 1048.46 72.1808C1047.59 74.599 1045.43 75.7869 1042.83 76.1687C1040.11 76.5612 1037.36 76.8581 1034.6 76.943C1027.24 77.1657 1019.85 77.0384 1012.5 77.4627C1002.32 78.046 992.252 77.1445 982.145 76.4975C976.809 76.1581 971.473 75.999 966.138 75.7445C962.185 75.5536 958.221 75.3626 954.268 75.1505C953.841 75.1293 953.415 74.9808 953 74.5672C956.319 74.2066 959.626 73.8247 962.945 73.4853C975.876 72.1702 988.864 71.9686 1001.85 71.6611C1010.32 71.4702 1018.79 71.205 1027.26 70.8444C1029.36 70.7595 1031.45 70.2717 1033.5 69.7838C1036.04 69.1792 1038.01 67.7792 1038.87 65.4246C1040.24 61.6806 1043.28 59.7715 1047.25 59.2412C1053.71 58.3821 1060.21 57.4063 1066.72 57.2366C1079.43 56.9078 1092.16 57.1093 1104.87 57.0775C1117.86 57.0669 1130.84 57.0351 1143.84 57.0139C1145.5 57.0139 1147.16 56.9714 1148.82 57.0351C1151.15 57.1305 1153.35 57.1836 1155.63 58.2972C1158.84 59.8563 1162.5 60.6094 1165.97 61.723C1166.9 62.02 1167.82 62.3912 1169.12 62.8685C1167.44 64.0034 1165.84 64.3109 1164.29 64.5125C1158.36 65.2655 1152.42 65.9019 1146.48 66.6019C1142.29 67.1004 1138.08 67.5565 1133.91 68.2246C1132.25 68.4898 1130.46 68.9247 1129.49 70.9929C1130.31 71.3323 1131.05 71.8096 1131.85 71.9474C1135.74 72.6156 1139.62 73.4217 1143.55 73.7505C1152.36 74.4823 1161.19 74.9702 1170.01 75.5217C1173.1 75.7127 1176.01 75.1929 1178.8 73.7929C1180.09 73.1459 1181.82 72.9975 1183.34 73.0187C1190.8 73.1247 1198.26 73.3475 1205.72 73.5596C1209.04 73.655 1212.34 73.9202 1215.66 73.9202C1227.74 73.9096 1239.81 73.8035 1251.88 73.7399C1256.39 73.7187 1260.91 73.7399 1265.45 73.8141C1260.27 74.2914 1255.1 74.7793 1249.92 75.246C1235.06 76.593 1220.12 76.7415 1205.21 77.3036C1203.93 77.3566 1202.64 77.5475 1201.4 77.8445C1200.68 78.0036 1200.06 78.4915 1198.93 79.0642Z" fill="white"/>
<path d="M3432.58 82.1597C3436.35 84.631 3440.22 85.4939 3444.02 86.7934C3443.14 86.868 3442.25 87.0278 3441.39 86.9958C3437.08 86.836 3432.76 86.655 3428.45 86.4419C3420.46 86.0265 3412.47 85.4939 3404.49 85.1743C3392.63 84.7056 3380.77 84.2902 3368.9 84.0239C3361.7 83.8534 3354.59 83.1078 3347.53 81.8721C3345.98 81.5952 3344.24 81.5206 3343.05 79.6671C3344.14 79.2943 3345.01 78.9428 3345.93 78.6765C3348.31 78.0054 3350.71 77.4302 3353.07 76.6952C3354.36 76.2904 3355.97 75.7898 3355.95 74.2985C3355.92 72.6154 3354.07 72.6261 3352.8 72.3704C3345.57 70.9111 3338.22 70.7406 3330.84 70.9643C3319.52 71.2945 3308.21 71.5822 3296.9 70.8578C3294.52 70.7087 3292.11 70.6554 3289.73 70.6661C3286.21 70.6874 3283.52 71.8591 3282.32 75.2465C3281.46 77.6752 3279.29 78.8682 3276.7 79.2517C3273.99 79.6458 3271.24 79.9441 3268.49 80.0293C3261.13 80.253 3253.76 80.1252 3246.41 80.5513C3236.25 81.1371 3226.2 80.2317 3216.1 79.5819C3210.78 79.2411 3205.45 79.0813 3200.12 78.8256C3196.17 78.6339 3192.21 78.4421 3188.27 78.2291C3187.84 78.2078 3187.41 78.0587 3187 77.6432C3190.31 77.2811 3193.62 76.8976 3196.93 76.5567C3209.84 75.2358 3222.81 75.0335 3235.78 74.7245C3244.24 74.5328 3252.7 74.2665 3261.16 73.9043C3263.25 73.8191 3265.33 73.3291 3267.38 72.8391C3269.93 72.2319 3271.89 70.8259 3272.74 68.4611C3274.11 64.7009 3277.15 62.7835 3281.11 62.2509C3287.57 61.388 3294.06 60.408 3300.56 60.2376C3313.25 59.9074 3325.96 60.1098 3338.65 60.0778C3351.62 60.0672 3364.59 60.0352 3377.57 60.0139C3379.23 60.0139 3380.88 59.9713 3382.54 60.0352C3384.87 60.1311 3387.06 60.1843 3389.34 61.3028C3392.54 62.8687 3396.2 63.625 3399.66 64.7435C3400.6 65.0417 3401.52 65.4146 3402.81 65.8939C3401.14 67.0337 3399.54 67.3426 3397.98 67.545C3392.07 68.3013 3386.13 68.9404 3380.2 69.6435C3376.02 70.1441 3371.82 70.6022 3367.65 71.2732C3365.99 71.5395 3364.21 71.9763 3363.24 74.0535C3364.06 74.3943 3364.8 74.8737 3365.59 75.0121C3369.48 75.6832 3373.36 76.4928 3377.28 76.823C3386.07 77.558 3394.89 78.048 3403.7 78.6019C3406.79 78.7937 3409.69 78.2717 3412.47 76.8656C3413.76 76.2158 3415.49 76.0667 3417.01 76.088C3424.46 76.1945 3431.91 76.4182 3439.35 76.6313C3442.67 76.7271 3445.97 76.9935 3449.29 76.9935C3461.35 76.9828 3473.4 76.8763 3485.46 76.8124C3489.95 76.7911 3494.47 76.8124 3499 76.8869C3493.83 77.3663 3488.67 77.8563 3483.5 78.325C3468.65 79.6778 3453.74 79.8269 3438.85 80.3915C3437.57 80.4448 3436.28 80.6365 3435.04 80.9348C3434.33 81.0945 3433.7 81.5845 3432.58 82.1597Z" fill="white"/>
<path d="M2512.6 112.799C2512.6 107.137 2512.6 103.594 2512.6 97.9319C2514.06 97.8911 2521.83 97.2647 2523.28 97.1695C2530.44 96.7068 2531.32 95.4528 2538.47 94.8268C2545.74 94.1939 2552.99 93.3705 2560.23 92.5131C2562.12 92.2886 2563.94 91.6625 2565.74 91.1317C2566.37 90.948 2567.18 90.6894 2566.98 89.6959C2563.3 88.4234 2559.14 88.1376 2554.92 86.9808C2555.53 86.8311 2555.71 86.763 2555.91 86.7426C2561 86.2391 2566.09 85.7423 2571.17 85.2524C2576.46 84.742 2581.73 84.1636 2587.03 83.7621C2595.18 83.1429 2603.34 82.6733 2611.49 82.1017C2614.68 81.8772 2617.83 81.3804 2620.77 80.3052C2621.58 80.0126 2622.56 79.7745 2622.88 78.6653C2622.08 78.4679 2621.31 78.1685 2620.51 78.1073C2614.88 77.6582 2609.26 76.9913 2603.62 76.8824C2589.84 76.617 2576.07 76.6374 2562.28 76.4945C2555.76 76.4265 2549.24 76.236 2542.72 76.0862C2542.08 76.0726 2541.44 75.9774 2540.81 75.9229C2541.45 75.3853 2542.18 75.1948 2542.85 74.909C2544.38 74.2557 2545.97 73.6569 2547.36 72.8471C2548.65 72.0918 2548.44 71.3229 2546.95 70.8125C2546.16 70.5403 2545.3 70.3294 2544.46 70.2613C2541.55 70.0163 2538.63 69.7714 2535.71 69.6693C2527.98 69.3903 2520.27 70.4583 2512.6 71.2477C2512.6 67.8725 2512.6 63.9492 2512.6 60.574C2514.26 60.472 2515.92 60.231 2517.57 60.2106C2524.49 60.1221 2531.42 59.8907 2538.33 60.0609C2545.58 60.2446 2552.83 60.7209 2560.04 61.2721C2564.2 61.5919 2568.32 62.2996 2572.45 62.8985C2573.3 63.021 2574.09 63.4361 2574.95 63.7287C2574.48 64.7902 2573.51 64.9944 2572.66 65.2121C2569.87 65.9334 2567.06 66.5867 2564.25 67.2604C2563.55 67.4305 2562.82 67.5394 2562.12 67.7299C2561.32 67.9477 2560.63 68.3151 2560.64 69.0909C2560.65 69.7714 2561.23 70.1728 2561.97 70.377C2562.54 70.5335 2563.12 70.6764 2563.71 70.7104C2566.7 70.8942 2569.69 71.1868 2572.68 71.18C2584 71.1663 2595.31 71.003 2606.63 70.9826C2612.48 70.969 2618.35 71.0166 2624.2 71.248C2629.77 71.4726 2635.35 71.8809 2640.9 72.3912C2645.13 72.7791 2649.32 73.446 2653.51 74.004C2654.51 74.1333 2655.34 74.4395 2655.98 75.2016C2656.43 75.7256 2657.27 76.1407 2658.05 76.338C2659.24 76.6442 2660.51 76.8076 2661.76 76.896C2668.27 77.3519 2674.79 77.3724 2681.31 77.2703C2691.44 77.1138 2701.55 77.0253 2711.67 76.9845C2726.45 76.93 2741.23 76.4605 2756 77.2295C2763.31 77.6105 2770.64 77.8079 2777.86 78.8626C2778.87 79.0123 2779.87 79.1756 2780.88 79.3322C2780.86 79.4546 2780.84 79.5703 2780.83 79.6928C2779.59 79.8017 2778.34 79.9718 2777.1 80.0126C2771.25 80.1964 2765.39 80.3325 2759.53 80.5162C2750.35 80.802 2741.18 81.1831 2732 81.3872C2726.15 81.5165 2720.28 81.3328 2714.42 81.4212C2707.83 81.5233 2701.24 81.7547 2694.67 81.9792C2688.08 82.2106 2681.51 82.51 2674.92 82.7822C2672.86 82.8707 2670.8 82.9523 2668.74 83.0884C2666.98 83.2041 2666.7 83.3878 2666.8 84.7488C2666.86 85.6879 2666.37 86.2459 2665.47 86.5385C2663.63 87.1373 2661.78 87.7906 2659.85 88.1444C2654.05 89.206 2648.13 89.451 2642.22 89.8116C2637.71 90.0838 2633.17 90.1859 2628.7 90.6826C2620.79 91.5673 2612.91 92.6152 2605.05 93.7652C2599.42 94.5886 2593.86 95.691 2588.28 96.6913C2587.69 96.7934 2587.11 96.9499 2586.6 97.1813C2585.53 97.6576 2585.44 98.3993 2586.4 98.9913C2586.97 99.3452 2587.67 99.5834 2588.34 99.7943C2590.08 100.345 2591.87 100.788 2593.57 101.4C2594.78 101.836 2595.89 102.448 2597.01 103.04C2597.78 103.455 2597.82 104.095 2597.13 104.544C2596.05 105.252 2594.94 106.068 2593.68 106.422C2591.18 107.13 2588.59 107.756 2585.99 108.055C2578.68 108.906 2571.35 109.634 2564 110.287C2558.84 110.75 2553.67 111.043 2548.49 111.349C2541.32 111.778 2534.15 112.145 2526.97 112.547C2522.16 112.819 2517.38 112.513 2512.6 112.799Z" fill="white"/>
<path d="M2512.6 60.5739C2512.6 66.2356 2512.6 65.586 2512.6 71.2476C2512.6 71.2476 2510.33 70.9004 2508.89 70.9957C2501.72 71.4584 2494.54 71.8327 2487.4 72.4587C2480.13 73.0916 2476.77 73.6095 2468.77 76.7125C2463.9 79.6341 2461.94 81.7413 2460.13 82.2721C2459.51 82.4558 2458.7 82.7144 2458.89 83.7079C2462.58 84.9804 2466.74 85.2662 2470.95 86.423C2470.35 86.5727 2470.16 86.6408 2469.96 86.6612C2464.88 87.1647 2459.79 87.6615 2454.71 88.1514C2449.42 88.6618 2444.14 89.2402 2438.85 89.6417C2430.7 90.2609 2422.53 90.7305 2414.38 91.3021C2411.2 91.5266 2408.05 92.0234 2405.1 93.0986C2404.3 93.3912 2403.32 93.6293 2403 94.7385C2403.8 94.9359 2404.57 95.2353 2405.37 95.2965C2411 95.7456 2416.61 96.4125 2422.26 96.5214C2436.03 96.7868 2449.81 96.7664 2463.6 96.9093C2470.11 96.9773 2476.64 97.1679 2483.16 97.3176C2483.8 97.3312 2484.44 97.4264 2485.07 97.4809C2484.43 98.0185 2483.7 98.209 2483.02 98.4948C2481.5 99.1481 2479.91 99.7469 2478.52 100.557C2477.23 101.312 2477.44 102.081 2478.93 102.591C2479.72 102.864 2480.58 103.074 2481.42 103.143C2484.33 103.387 2487.24 103.632 2490.17 103.735C2497.9 104.014 2504.94 98.7212 2512.6 97.9318C2512.6 101.307 2512.6 109.423 2512.6 112.799C2510.95 112.901 2509.96 113.173 2508.3 113.193C2501.39 113.282 2494.45 113.513 2487.54 113.343C2480.3 113.159 2473.05 112.683 2465.83 112.132C2461.67 111.812 2457.56 111.104 2453.43 110.505C2452.57 110.383 2451.78 109.968 2450.93 109.675C2451.4 108.614 2452.37 108.409 2453.22 108.192C2456 107.47 2458.82 106.817 2461.63 106.143C2462.33 105.973 2463.05 105.864 2463.75 105.674C2464.55 105.456 2465.24 105.089 2465.23 104.313C2465.23 103.632 2464.64 103.231 2463.9 103.027C2463.34 102.87 2462.75 102.727 2462.16 102.693C2459.18 102.51 2456.19 102.217 2453.2 102.224C2441.88 102.237 2430.57 102.401 2419.25 102.421C2413.39 102.435 2407.52 102.387 2401.68 102.156C2396.1 101.931 2390.53 101.523 2384.98 101.013C2380.75 100.625 2376.56 99.9578 2372.36 99.3998C2371.37 99.2706 2370.54 98.9643 2369.9 98.2022C2369.45 97.6782 2368.6 97.2631 2367.83 97.0658C2366.64 96.7596 2365.36 96.5962 2364.12 96.5078C2357.61 96.0519 2351.09 96.0314 2344.56 96.1335C2334.44 96.29 2324.33 96.3785 2314.21 96.4193C2299.43 96.4738 2284.65 96.9433 2269.87 96.1744C2262.56 95.7933 2255.24 95.5959 2248.01 94.5412C2247.01 94.3915 2246.01 94.2282 2245 94.0717C2245.02 93.9492 2245.03 93.8335 2245.05 93.711C2246.29 93.6021 2247.54 93.432 2248.78 93.3912C2254.63 93.2074 2260.49 93.0713 2266.34 92.8876C2275.52 92.6018 2284.7 92.2207 2293.88 92.0166C2299.73 91.8873 2305.6 92.071 2311.46 91.9826C2318.04 91.8805 2324.64 91.6491 2331.21 91.4246C2337.8 91.1932 2344.37 90.8938 2350.96 90.6216C2353.02 90.5331 2355.08 90.4515 2357.13 90.3154C2358.9 90.1997 2359.18 90.016 2359.08 88.655C2359.01 87.7159 2359.5 87.1579 2360.4 86.8653C2362.24 86.2665 2364.1 85.6132 2366.02 85.2594C2371.82 84.1978 2377.75 83.9529 2383.65 83.5922C2388.16 83.32 2392.71 83.2179 2397.18 82.7212C2405.09 81.8366 2412.97 80.7886 2420.83 79.6386C2426.45 78.8152 2432.01 77.7128 2437.6 76.7125C2438.18 76.6104 2438.76 76.4539 2439.28 76.2226C2440.35 75.7462 2440.44 75.0045 2439.48 74.4125C2438.91 74.0586 2438.21 73.8205 2437.53 73.6095C2435.79 73.0583 2434 72.616 2432.31 72.0036C2431.1 71.5681 2429.98 70.9556 2428.87 70.3636C2428.09 69.9485 2428.05 69.3088 2428.74 68.8597C2429.82 68.152 2430.93 67.3354 2432.2 66.9816C2434.69 66.2739 2437.28 65.6478 2439.89 65.3484C2447.2 64.4978 2454.53 63.7697 2461.87 63.1164C2467.03 62.6537 2472.21 62.3611 2477.39 62.0549C2484.55 61.6262 2491.73 61.2587 2498.91 60.8572C2503.72 60.585 2507.83 60.8597 2512.6 60.5739Z" fill="white"/>
</svg>
