<svg width="1439" height="71" viewBox="0 0 1439 71" fill="none" xmlns="http://www.w3.org/2000/svg">
<path d="M0.149414 70.0467C0.149414 62.6207 0.149414 55.1947 0.149414 47.7687C2.06007 47.7152 3.99255 47.7241 5.89229 47.5991C15.2927 46.9922 24.704 46.5013 34.0717 45.6802C43.614 44.8501 53.1236 43.7701 62.6223 42.6455C65.0897 42.3509 67.4808 41.5298 69.85 40.8336C70.6689 40.5926 71.7279 40.2535 71.4768 38.9503C66.6401 37.2813 61.1811 36.9064 55.6566 35.3891C56.4536 35.1927 56.6938 35.1034 56.9558 35.0767C63.6267 34.4162 70.2976 33.7646 76.9685 33.122C83.9015 32.4526 90.8235 31.6939 97.7674 31.1673C108.456 30.3551 119.167 29.7392 129.855 28.9895C134.037 28.6949 138.164 28.0434 142.029 26.6331C143.088 26.2494 144.365 25.937 144.791 24.4821C143.743 24.2233 142.728 23.8305 141.68 23.7502C134.299 23.1611 126.929 22.2864 119.527 22.1436C101.458 21.7955 83.3883 21.8223 65.3081 21.6349C56.7593 21.5456 48.1996 21.2957 39.6508 21.0993C38.8101 21.0815 37.9694 20.9565 37.1396 20.8851C37.9803 20.18 38.9411 19.9301 39.8255 19.5552C41.8235 18.6984 43.9088 17.9129 45.7321 16.8508C47.4244 15.8601 47.1515 14.8515 45.1971 14.1821C44.1599 13.8251 43.0354 13.5484 41.9326 13.4591C38.1113 13.1378 34.29 12.8165 30.4578 12.6826C20.315 12.3167 10.2158 12.8968 0.160332 13.9322C0.160332 9.50513 0.160332 5.07809 0.160332 0.651046C2.33302 0.517164 4.49478 0.302952 6.66747 0.276176C15.7403 0.160144 24.835 -0.143323 33.897 0.0798146C43.3957 0.320803 52.9052 0.945587 62.3712 1.66855C67.8302 2.08805 73.2237 3.0163 78.639 3.80175C79.7636 3.9624 80.8008 4.50686 81.9253 4.89065C81.303 6.28303 80.0365 6.5508 78.9229 6.83641C75.2653 7.78251 71.575 8.63936 67.8848 9.52298C66.9676 9.74612 66.0178 9.88893 65.1007 10.1388C64.0525 10.4245 63.1463 10.9064 63.1573 11.9239C63.1682 12.8165 63.9324 13.3431 64.9041 13.6109C65.6466 13.8161 66.4108 14.0036 67.186 14.0482C71.1056 14.2892 75.0251 14.673 78.9447 14.6641C93.7932 14.6462 108.631 14.432 123.479 14.4052C131.155 14.3874 138.852 14.4499 146.516 14.7533C153.831 15.0479 161.146 15.5834 168.429 16.2528C173.975 16.7616 179.467 17.6363 184.97 18.3681C186.28 18.5377 187.361 18.9394 188.201 19.939C188.791 20.6263 189.904 21.1708 190.92 21.4296C192.481 21.8312 194.152 22.0454 195.789 22.1615C204.327 22.7595 212.876 22.7863 221.436 22.6524C234.712 22.4471 247.977 22.3311 261.254 22.2775C280.633 22.2061 300.024 21.5902 319.403 22.5988C328.989 23.0987 338.597 23.3575 348.074 24.7409C349.395 24.9373 350.705 25.1515 352.026 25.3568C352.004 25.5175 351.982 25.6692 351.96 25.8299C350.334 25.9727 348.696 26.1958 347.069 26.2494C339.394 26.4903 331.708 26.6689 324.032 26.9098C311.99 27.2847 299.958 27.7845 287.915 28.0523C280.24 28.2219 272.543 27.9809 264.857 28.0969C256.22 28.2308 247.573 28.5343 238.948 28.8288C230.312 29.1323 221.687 29.525 213.051 29.882C210.343 29.9981 207.646 30.1052 204.949 30.2837C202.635 30.4354 202.264 30.6764 202.395 32.4615C202.482 33.6932 201.838 34.4251 200.659 34.8089C198.246 35.5943 195.811 36.4512 193.289 36.9153C185.679 38.3077 177.906 38.629 170.165 39.1021C164.247 39.4591 158.286 39.593 152.423 40.2445C142.051 41.4048 131.711 42.7794 121.405 44.2878C114.024 45.3678 106.731 46.8137 99.4051 48.1257C98.6408 48.2596 97.8765 48.4649 97.1996 48.7684C95.8021 49.3932 95.682 50.366 96.9376 51.1425C97.6909 51.6067 98.608 51.9191 99.4924 52.1958C101.774 52.9187 104.122 53.4989 106.349 54.3022C107.932 54.8734 109.395 55.6767 110.858 56.4532C111.873 56.9977 111.928 57.8367 111.022 58.4258C109.602 59.354 108.15 60.4251 106.491 60.8892C103.215 61.8174 99.8199 62.6386 96.4026 63.0313C86.8166 64.147 77.1978 65.102 67.5681 65.9589C60.799 66.5658 54.008 66.9496 47.217 67.3512C37.8166 67.9135 28.4052 68.3955 18.9939 68.9221C12.6833 69.2792 6.41635 69.6719 0.149414 70.0467Z" fill="white"/>
<path d="M1180.05 1.19531C1266.32 1.19531 1352.59 1.19531 1438.86 1.19531C1438.86 5.90349 1438.86 10.6117 1438.86 15.3198C1428.99 15.2039 1419.11 15.0969 1409.25 14.981C1402.01 14.9007 1394.77 14.874 1387.54 14.7135C1374.25 14.4192 1360.98 13.8842 1347.69 13.7415C1330.68 13.5543 1313.66 13.5989 1296.65 13.6613C1291.87 13.6791 1287.1 14.0893 1282.34 14.3835C1281.09 14.4638 1279.81 14.66 1278.64 15.0077C1277.92 15.2217 1277.02 15.7835 1276.96 16.2383C1276.91 16.6306 1277.87 17.1746 1278.53 17.5045C1279.07 17.7809 1279.81 17.8433 1280.47 17.986C1292.64 20.67 1305.07 22.5515 1317.63 23.9872C1323.99 24.7183 1330.31 25.6546 1336.63 26.5731C1338.1 26.7871 1339.49 27.3043 1340.91 27.6788C1338.1 28.8469 1335.22 29.0877 1332.33 29.3463C1328.06 29.7208 1323.81 30.122 1319.57 30.6125C1318.45 30.7373 1317.33 31.1475 1316.4 31.6379C1315.24 32.2443 1315.32 33.243 1316.57 33.7334C1317.57 34.1258 1318.76 34.3665 1319.9 34.4646C1330.36 35.4098 1340.83 36.4353 1351.33 37.1932C1360.18 37.8353 1369.06 38.183 1377.93 38.611C1388.75 39.1193 1399.59 39.7257 1410.42 40.0021C1419.9 40.2518 1429.38 40.1091 1438.87 40.1358C1438.87 42.4186 1438.87 44.7013 1438.87 46.9841C1436.91 47.0019 1434.96 47.0822 1433.01 47.0287C1421.88 46.7344 1410.75 46.4134 1399.61 46.1013C1392.68 45.9051 1385.73 45.7892 1378.81 45.5306C1365.63 45.0313 1352.47 44.5141 1339.3 43.8988C1328.48 43.3995 1317.66 42.8199 1306.86 42.1332C1301.7 41.8033 1296.58 41.188 1291.68 39.8772C1290.04 39.4403 1288.38 38.9231 1286.97 38.2008C1284.87 37.113 1285.09 35.9448 1287.45 35.178C1289.13 34.634 1290.96 34.313 1292.7 33.8583C1294.92 33.2876 1297.14 32.7526 1299.28 32.066C1299.98 31.843 1300.96 31.1475 1300.88 30.7641C1300.77 30.1934 1299.94 29.587 1299.21 29.2303C1298.24 28.7667 1297.11 28.4635 1295.99 28.2138C1293.56 27.6877 1291.13 27.0724 1288.63 26.7871C1277.91 25.5922 1267.18 24.5222 1256.44 23.3808C1236.22 21.2407 1216.19 18.3516 1196.51 14.3122C1190.05 12.9836 1184.16 10.7722 1178.56 8.1149C1177.5 7.61555 1176.51 7.01811 1175.6 6.36717C1173.41 4.79778 1173.55 4.09334 1176.13 2.90738C1177.42 2.32777 1178.74 1.766 1180.05 1.19531Z" fill="white"/>
<path d="M785.692 42.2273C789.472 44.688 793.344 45.5471 797.147 46.841C796.271 46.9153 795.384 47.0744 794.52 47.0425C790.198 46.8834 785.876 46.7031 781.555 46.491C773.557 46.0774 765.559 45.5471 757.561 45.2289C745.691 44.7622 733.81 44.3486 721.928 44.0834C714.714 43.9137 707.592 43.1713 700.527 41.9409C698.972 41.6652 697.231 41.5909 696.033 39.7454C697.128 39.3742 698.004 39.0242 698.926 38.7591C701.3 38.0909 703.708 37.5181 706.071 36.7863C707.361 36.3833 708.975 35.8848 708.952 34.3999C708.929 32.7241 707.073 32.7347 705.805 32.4802C698.557 31.0271 691.204 30.8574 683.806 31.0802C672.477 31.4089 661.149 31.6953 649.82 30.9741C647.435 30.8256 645.026 30.7726 642.641 30.7832C639.114 30.8044 636.418 31.9711 635.219 35.3439C634.355 37.7621 632.188 38.95 629.595 39.3318C626.875 39.7242 624.121 40.0212 621.367 40.1061C614.003 40.3288 606.616 40.2015 599.263 40.6258C589.087 41.2091 579.015 40.3076 568.908 39.6606C563.572 39.3212 558.237 39.1621 552.901 38.9076C548.948 38.7166 544.984 38.5257 541.031 38.3136C540.604 38.2924 540.178 38.1439 539.763 37.7303C543.082 37.3697 546.39 36.9878 549.709 36.6484C562.639 35.3333 575.627 35.1317 588.615 34.8242C597.085 34.6332 605.556 34.3681 614.026 34.0075C616.123 33.9226 618.209 33.4347 620.261 32.9468C622.807 32.3423 624.778 30.9423 625.631 28.5877C627.002 24.8437 630.045 22.9346 634.009 22.4042C640.474 21.5451 646.974 20.5694 653.485 20.3997C666.196 20.0709 678.919 20.2724 691.631 20.2406C704.619 20.23 717.606 20.1982 730.606 20.1769C732.265 20.1769 733.925 20.1345 735.584 20.1982C737.912 20.2936 740.113 20.3466 742.395 21.4603C745.599 23.0194 749.264 23.7725 752.733 24.8861C753.666 25.1831 754.588 25.5543 755.879 26.0316C754.208 27.1664 752.606 27.474 751.05 27.6755C745.126 28.4286 739.18 29.065 733.245 29.765C729.05 30.2635 724.844 30.7195 720.672 31.3877C719.012 31.6529 717.226 32.0877 716.258 34.156C717.076 34.4954 717.814 34.9726 718.609 35.1105C722.504 35.7787 726.388 36.5848 730.318 36.9136C739.122 37.6454 747.95 38.1333 756.778 38.6848C759.866 38.8757 762.77 38.356 765.559 36.956C766.85 36.309 768.578 36.1605 770.1 36.1818C777.567 36.2878 785.024 36.5105 792.48 36.7227C795.799 36.8181 799.106 37.0833 802.425 37.0833C814.503 37.0727 826.569 36.9666 838.646 36.903C843.152 36.8818 847.67 36.903 852.21 36.9772C847.036 37.4545 841.862 37.9424 836.687 38.4091C821.821 39.7561 806.885 39.9045 791.973 40.4667C790.694 40.5197 789.403 40.7106 788.158 41.0076C787.444 41.1667 786.821 41.6546 785.692 42.2273Z" fill="white"/>
</svg>
