<svg width="1000" height="572" viewBox="0 0 1000 572" fill="none" xmlns="http://www.w3.org/2000/svg">
<ellipse opacity="0.5" cx="439.873" cy="208.517" rx="2.22621" ry="3.33933" fill="#D2EDF7"/>
<ellipse opacity="0.5" cx="389.327" cy="151.192" rx="5.56555" ry="5.56554" fill="#D2EDF7"/>
<circle opacity="0.5" cx="759.038" cy="350.156" r="2.22623" fill="#D2EDF7"/>
<ellipse opacity="0.5" cx="529.478" cy="202.952" rx="2.2262" ry="2.22621" fill="#D2EDF7"/>
<ellipse opacity="0.5" cx="549.514" cy="202.952" rx="2.22626" ry="2.22621" fill="#D2EDF7"/>
<ellipse opacity="0.5" cx="450.169" cy="215.196" rx="3.33934" ry="3.33932" fill="#D2EDF7"/>
<ellipse opacity="0.5" cx="498.033" cy="205.178" rx="6.67863" ry="6.67865" fill="#D2EDF7"/>
<ellipse opacity="0.5" rx="3.35279" ry="5.58798" transform="matrix(0.836981 0.547232 -0.547234 0.83698 470.44 207.3)" fill="#D2EDF7"/>
<ellipse opacity="0.75" rx="2.13715" ry="2.13717" transform="matrix(0.990268 -0.139174 0.139172 0.990268 359.29 198.08)" fill="#D2EDF7"/>
<ellipse opacity="0.7" rx="1.51385" ry="1.60845" transform="matrix(0.874624 -0.484803 0.484817 0.874616 280.754 2.14075)" fill="#D2EDF7"/>
<ellipse opacity="0.84" rx="7.0126" ry="7.79177" transform="matrix(0.788011 0.615661 -0.615662 0.78801 351.753 22.7783)" fill="#D2EDF7"/>
<ellipse opacity="0.81" rx="1.53609" ry="1.53608" transform="matrix(0.309016 0.951057 -0.951056 0.309018 427.722 10.3605)" fill="#D2EDF7"/>
<ellipse opacity="0.95" cx="518.813" cy="10.2874" rx="5.20934" ry="5.20935" transform="rotate(14 518.813 10.2874)" fill="#D2EDF7"/>
<ellipse opacity="0.81" rx="1.91454" ry="1.91454" transform="matrix(-0.642786 -0.766046 0.766043 -0.642789 305.331 211.407)" fill="#D2EDF7"/>
<ellipse opacity="0.73" rx="2.44754" ry="4.07924" transform="matrix(0.766046 -0.642786 0.642789 0.766043 368.331 205.638)" fill="#D2EDF7"/>
<ellipse opacity="0.83" rx="1.93682" ry="1.93686" transform="matrix(-0.358377 -0.933577 0.933584 -0.358359 331.546 17.0872)" fill="#D2EDF7"/>
<ellipse opacity="0.86" rx="3.25028" ry="3.25028" transform="matrix(-0.78801 -0.615662 0.615661 -0.788012 404.75 23.6536)" fill="#D2EDF7"/>
<ellipse opacity="0.83" rx="2.33753" ry="2.33751" transform="matrix(-0.24192 -0.970296 0.970295 -0.241924 427.906 23.1563)" fill="#D2EDF7"/>
<ellipse opacity="0.92" rx="1.73648" ry="1.73645" transform="matrix(-0.99863 -0.052335 0.0523369 -0.998629 451.459 119.483)" fill="#D2EDF7"/>
<ellipse opacity="0.76" rx="5.20935" ry="5.20939" transform="matrix(-0.0871565 -0.996195 0.996195 -0.087155 420.364 27.6149)" fill="#D2EDF7"/>
<circle opacity="0.73" cx="778.501" cy="199.155" r="2.10378" transform="rotate(-66 778.501 199.155)" fill="#D2EDF7"/>
<ellipse opacity="0.97" rx="6.28905" ry="6.44629" transform="matrix(0.866025 0.500001 -0.499999 0.866026 298.67 252.396)" fill="#D2EDF7"/>
<ellipse opacity="0.76" rx="2.27073" ry="3.40611" transform="matrix(0.920504 -0.390732 0.39073 0.920505 308.238 243.691)" fill="#D2EDF7"/>
<ellipse opacity="0.92" rx="3.02766" ry="3.78458" transform="matrix(-0.438372 0.898794 -0.898794 -0.43837 421.914 135.76)" fill="#D2EDF7"/>
<ellipse opacity="0.83" rx="2.07037" ry="2.07038" transform="matrix(0.978147 0.207913 -0.20791 0.978148 372.121 54.9484)" fill="#D2EDF7"/>
<ellipse opacity="0.96" rx="2.18171" ry="3.27257" transform="matrix(-0.707111 -0.707103 0.707111 -0.707103 770.095 203.911)" fill="#D2EDF7"/>
<ellipse opacity="0.87" rx="2.15943" ry="2.15943" transform="matrix(0.258818 0.965926 -0.965926 0.25882 191.369 73.259)" fill="#D2EDF7"/>
<ellipse opacity="0.7" cx="273.337" cy="68.4785" rx="1.49156" ry="2.23734" transform="rotate(-100 273.337 68.4785)" fill="#D2EDF7"/>
<ellipse opacity="0.75" rx="4.00719" ry="4.00716" transform="matrix(0.24192 0.970296 -0.970295 0.241924 274.896 77.4198)" fill="#D2EDF7"/>
<ellipse opacity="0.76" rx="4.45245" ry="4.45245" transform="matrix(-0.798638 -0.601812 0.601818 -0.798633 360.444 61.0395)" fill="#D2EDF7"/>
<ellipse opacity="0.79" rx="1.9813" ry="1.98133" transform="matrix(0.956303 0.292376 -0.292367 0.956306 392.99 72.5317)" fill="#D2EDF7"/>
<ellipse opacity="0.77" rx="3.75512" ry="6.25851" transform="matrix(0.374604 -0.927185 0.927183 0.374609 765.958 231.431)" fill="#D2EDF7"/>
<ellipse opacity="0.8" rx="2.49333" ry="2.64919" transform="matrix(-0.906305 -0.422624 0.422613 -0.90631 517.496 67.1595)" fill="#D2EDF7"/>
<ellipse opacity="0.72" rx="2.80504" ry="2.80503" transform="matrix(-0.927184 0.374605 -0.374608 -0.927183 230.452 73.5501)" fill="#D2EDF7"/>
<ellipse opacity="0.79" rx="1.49155" ry="2.23735" transform="matrix(-0.927182 0.374612 -0.374601 -0.927186 444.458 153.007)" fill="#D2EDF7"/>
<ellipse opacity="0.82" cx="326.547" cy="78.2903" rx="2.9386" ry="3.67325" transform="rotate(163 326.547 78.2903)" fill="#D2EDF7"/>
<circle opacity="0.84" cx="367.771" cy="84.3715" r="5.03125" transform="rotate(63 367.771 84.3715)" fill="#D2EDF7"/>
<ellipse opacity="0.98" rx="7.61366" ry="7.61365" transform="matrix(-0.642787 -0.766045 0.766044 -0.642788 457.196 76.0612)" fill="#D2EDF7"/>
<ellipse opacity="0.76" cx="458.495" cy="77.983" rx="1.49157" ry="2.23737" transform="rotate(90 458.495 77.983)" fill="#D2EDF7"/>
<ellipse opacity="0.77" cx="441.41" cy="168.869" rx="4.45243" ry="5.56555" transform="rotate(-86 441.41 168.869)" fill="#D2EDF7"/>
<ellipse opacity="0.98" rx="1.35799" ry="1.35799" transform="matrix(0.913545 -0.406738 0.406735 0.913546 448.311 91.4053)" fill="#D2EDF7"/>
<ellipse opacity="0.9" cx="755.703" cy="262.605" rx="3.75513" ry="6.25859" transform="rotate(92 755.703 262.605)" fill="#D2EDF7"/>
<ellipse opacity="0.93" cx="177.224" cy="121.179" rx="4.28547" ry="4.39261" transform="rotate(78 177.224 121.179)" fill="#D2EDF7"/>
<ellipse opacity="0.74" cx="221.294" cy="118.773" rx="2.64921" ry="3.9738" transform="rotate(47 221.294 118.773)" fill="#D2EDF7"/>
<ellipse rx="1.62513" ry="1.62513" transform="matrix(0.601813 -0.798637 0.798634 0.601817 270.329 107.127)" fill="#D2EDF7"/>
<ellipse opacity="0.92" cx="441.34" cy="188.789" rx="3.27255" ry="3.27256" transform="rotate(-103 441.34 188.789)" fill="#D2EDF7"/>
<ellipse opacity="0.78" rx="3.56194" ry="3.56195" transform="matrix(-0.978148 0.207912 -0.207911 -0.978148 355.426 113.608)" fill="#D2EDF7"/>
<ellipse opacity="0.97" rx="1.69193" ry="1.69194" transform="matrix(0.438375 -0.898792 0.898796 0.438367 456.294 113.903)" fill="#D2EDF7"/>
<ellipse opacity="0.75" rx="2.51557" ry="2.51559" transform="matrix(-0.788003 -0.615671 0.615652 -0.788019 761.655 277.279)" fill="#D2EDF7"/>
<ellipse opacity="0.92" rx="3.72891" ry="3.72888" transform="matrix(-0.121868 0.992546 -0.992546 -0.121871 530.343 117.929)" fill="#D2EDF7"/>
<ellipse rx="1.75871" ry="2.63806" transform="matrix(0.951057 0.309016 -0.309018 0.951056 2.4878 134.743)" fill="#D2EDF7"/>
<ellipse opacity="0.74" rx="4.09624" ry="4.09624" transform="matrix(0.669129 -0.743146 0.743144 0.669132 144.116 128.883)" fill="#D2EDF7"/>
<ellipse opacity="0.75" cx="232.146" cy="136.837" rx="11.5207" ry="12.8007" transform="rotate(26 232.146 136.837)" fill="#D2EDF7"/>
<ellipse opacity="0.86" cx="243.783" cy="118.421" rx="5.20935" ry="5.20935" transform="rotate(143 243.783 118.421)" fill="#D2EDF7"/>
<ellipse opacity="0.74" rx="2.20395" ry="2.20394" transform="matrix(0.453989 0.891007 -0.891006 0.453992 423.732 211.851)" fill="#D2EDF7"/>
<ellipse opacity="0.75" cx="351.518" cy="130.897" rx="2.42658" ry="2.57823" transform="rotate(26 351.518 130.897)" fill="#D2EDF7"/>
<ellipse opacity="0.88" rx="2.13719" ry="2.13719" transform="matrix(0.731361 0.681991 -0.682006 0.731347 400.129 134.989)" fill="#D2EDF7"/>
<ellipse opacity="0.98" rx="2.00361" ry="2.00361" transform="matrix(-0.42262 0.906307 -0.906309 -0.422616 432.724 134.608)" fill="#D2EDF7"/>
<ellipse opacity="0.7" rx="2.00361" ry="3.0054" transform="matrix(0.84805 -0.529916 0.529923 0.848046 462.076 121.212)" fill="#D2EDF7"/>
<ellipse opacity="0.76" rx="2.00361" ry="2.0036" transform="matrix(-0.90631 0.422614 -0.422622 -0.906306 515.974 125.434)" fill="#D2EDF7"/>
<ellipse opacity="0.81" rx="3.4729" ry="3.47296" transform="matrix(0.0523368 -0.998629 0.99863 0.0523351 792.627 123.952)" fill="#D2EDF7"/>
<ellipse rx="3.77345" ry="3.77345" transform="matrix(-0.573578 0.819151 -0.819153 -0.573575 859.157 131.226)" fill="#D2EDF7"/>
<ellipse opacity="0.94" rx="1.78097" ry="2.67142" transform="matrix(0.224948 0.974371 -0.974369 0.224955 894.791 128.183)" fill="#D2EDF7"/>
<ellipse opacity="0.75" rx="3.92276" ry="6.53793" transform="matrix(0.484809 0.87462 -0.874619 0.48481 972.252 133.282)" fill="#D2EDF7"/>
<ellipse opacity="0.98" rx="2.42659" ry="2.42658" transform="matrix(-0.190808 0.981627 -0.981627 -0.19081 43.3098 148.113)" fill="#D2EDF7"/>
<circle opacity="0.79" cx="78.6656" cy="137.793" r="2.04812" transform="rotate(125 78.6656 137.793)" fill="#D2EDF7"/>
<circle opacity="0.86" cx="130.026" cy="138.419" r="4.17415" transform="rotate(-172 130.026 138.419)" fill="#D2EDF7"/>
<ellipse opacity="0.89" cx="144.949" cy="140.246" rx="2.38205" ry="3.57308" transform="rotate(177 144.949 140.246)" fill="#D2EDF7"/>
<circle opacity="0.76" cx="217.698" cy="147.501" r="2.62693" transform="rotate(27 217.698 147.501)" fill="#D2EDF7"/>
<ellipse opacity="0.91" rx="2.09266" ry="2.22344" transform="matrix(0.874621 0.484807 -0.484812 0.874618 232.908 150.823)" fill="#D2EDF7"/>
<ellipse opacity="0.85" rx="5.17594" ry="5.30538" transform="matrix(-0.17365 -0.984807 0.984808 -0.173647 421.229 207.354)" fill="#D2EDF7"/>
<ellipse opacity="0.96" rx="3.55395" ry="5.92327" transform="matrix(0.829036 0.559196 -0.55919 0.829039 353.997 149.753)" fill="#D2EDF7"/>
<ellipse opacity="0.88" rx="2.04813" ry="2.04811" transform="matrix(-0.190807 0.981628 -0.981627 -0.190811 405.135 139.466)" fill="#D2EDF7"/>
<ellipse opacity="0.83" rx="2.07035" ry="3.10557" transform="matrix(0.906304 0.422626 -0.42261 0.906312 452.925 141.814)" fill="#D2EDF7"/>
<ellipse opacity="0.88" rx="1.64739" ry="1.64743" transform="matrix(-0.190813 0.981626 -0.981628 -0.190805 465.201 143.323)" fill="#D2EDF7"/>
<ellipse opacity="0.88" cx="512.446" cy="133.464" rx="5.944" ry="5.94401" transform="rotate(-145 512.446 133.464)" fill="#D2EDF7"/>
<ellipse opacity="0.97" rx="1.35801" ry="2.03698" transform="matrix(-0.190805 -0.981628 0.981627 -0.190813 817.432 144.751)" fill="#D2EDF7"/>
<ellipse rx="1.53609" ry="1.63214" transform="matrix(0.241929 0.970294 -0.970298 0.241914 828.137 141.679)" fill="#D2EDF7"/>
<ellipse opacity="0.76" rx="1.78098" ry="1.78091" transform="matrix(0.0348982 0.999391 -0.999391 0.0349008 869.117 139.688)" fill="#D2EDF7"/>
<ellipse opacity="0.71" rx="3.80687" ry="3.80682" transform="matrix(0.996195 0.0871545 -0.087157 0.996195 934.147 142.527)" fill="#D2EDF7"/>
<circle opacity="0.78" cx="963.401" cy="153.287" r="5.40971" transform="rotate(44 963.401 153.287)" fill="#D2EDF7"/>
<ellipse opacity="0.99" cx="17.5889" cy="156.064" rx="4.05172" ry="4.05171" transform="rotate(-18 17.5889 156.064)" fill="#D2EDF7"/>
<ellipse opacity="0.88" cx="57.2809" cy="165.495" rx="7.71384" ry="8.57094" transform="rotate(71 57.2809 165.495)" fill="#D2EDF7"/>
<ellipse opacity="0.7" rx="1.55833" ry="1.55837" transform="matrix(-0.990268 0.139177 -0.13917 -0.990269 181.953 158.259)" fill="#D2EDF7"/>
<ellipse opacity="0.95" rx="4.54147" ry="5.67685" transform="matrix(-0.469472 -0.882947 0.882948 -0.469471 273.438 155.136)" fill="#D2EDF7"/>
<ellipse opacity="0.73" rx="1.73646" ry="1.73646" transform="matrix(0.866025 -0.500001 0.499999 0.866026 310.52 155.768)" fill="#D2EDF7"/>
<circle opacity="0.96" cx="357.711" cy="151.73" r="5.34295" transform="rotate(-120 357.711 151.73)" fill="#D2EDF7"/>
<ellipse opacity="0.79" rx="2.17058" ry="2.17054" transform="matrix(0.945521 -0.325561 0.325575 0.945516 398.608 159.539)" fill="#D2EDF7"/>
<ellipse opacity="0.97" rx="2.00357" ry="2.00361" transform="matrix(-0.951054 0.309024 -0.30901 -0.951059 437.871 160.803)" fill="#D2EDF7"/>
<ellipse opacity="0.72" cx="759.383" cy="318.93" rx="4.67507" ry="4.67506" transform="rotate(97 759.383 318.93)" fill="#D2EDF7"/>
<ellipse opacity="0.75" rx="4.63051" ry="5.78815" transform="matrix(-0.358369 0.93358 -0.933581 -0.358367 526.043 162.669)" fill="#D2EDF7"/>
<ellipse opacity="0.89" rx="5.56555" ry="5.70469" transform="matrix(-0.669132 -0.743143 0.743146 -0.669129 785.596 146.066)" fill="#D2EDF7"/>
<ellipse opacity="0.89" rx="3.37274" ry="3.37275" transform="matrix(-0.500003 -0.866024 0.866027 -0.499998 856.742 146.908)" fill="#D2EDF7"/>
<ellipse opacity="0.86" rx="4.67512" ry="4.79193" transform="matrix(0.956306 -0.292367 0.292376 0.956303 906.482 161.688)" fill="#D2EDF7"/>
<ellipse opacity="0.77" rx="5.00903" ry="5.009" transform="matrix(-0.920506 0.390728 -0.390734 -0.920504 916.605 147.47)" fill="#D2EDF7"/>
<ellipse opacity="0.8" rx="1.91459" ry="1.91455" transform="matrix(0.0523348 -0.99863 0.998629 0.0523371 28.1308 176.729)" fill="#D2EDF7"/>
<ellipse opacity="0.89" rx="2.64921" ry="2.64917" transform="matrix(-0.0871544 0.996195 -0.996195 -0.0871571 262.678 179.28)" fill="#D2EDF7"/>
<ellipse opacity="0.85" cx="314.134" cy="167.435" rx="3.69551" ry="4.61937" transform="rotate(94 314.134 167.435)" fill="#D2EDF7"/>
<ellipse opacity="0.73" cx="328.099" cy="168.219" rx="2.29299" ry="2.29302" transform="rotate(179 328.099 168.219)" fill="#D2EDF7"/>
<ellipse opacity="0.85" rx="8.01437" ry="8.01436" transform="matrix(-0.438371 -0.898794 0.898794 -0.438372 762.439 317.812)" fill="#D2EDF7"/>
<ellipse opacity="0.89" rx="2.04815" ry="2.04813" transform="matrix(-0.85717 0.515033 -0.515043 -0.857164 813.438 167.823)" fill="#D2EDF7"/>
<ellipse opacity="0.79" cx="852.576" cy="161.796" rx="2.31527" ry="2.31532" transform="rotate(-89 852.576 161.796)" fill="#D2EDF7"/>
<ellipse opacity="0.87" cx="881.594" cy="176.954" rx="6.28907" ry="6.4463" transform="rotate(132 881.594 176.954)" fill="#D2EDF7"/>
<ellipse opacity="0.71" rx="2.58164" ry="4.30272" transform="matrix(0.390729 -0.920506 0.920504 0.390733 920.351 166.159)" fill="#D2EDF7"/>
<ellipse opacity="0.77" rx="2.38206" ry="2.38203" transform="matrix(0.997564 -0.0697557 0.0697573 0.997564 37.8442 191.359)" fill="#D2EDF7"/>
<ellipse opacity="0.74" rx="1.60289" ry="1.60288" transform="matrix(0.258818 0.965926 -0.965926 0.25882 80.9413 190.556)" fill="#D2EDF7"/>
<ellipse opacity="0.73" rx="2.9052" ry="2.90521" transform="matrix(0.629323 0.777144 -0.777148 0.629318 130.644 193.235)" fill="#D2EDF7"/>
<ellipse opacity="0.9" rx="1.33574" ry="1.41922" transform="matrix(-0.945518 0.32557 -0.325567 -0.945519 218.72 186.294)" fill="#D2EDF7"/>
<ellipse opacity="0.74" rx="3.78458" ry="3.78457" transform="matrix(0.819154 0.573573 -0.57358 0.81915 245.885 195.533)" fill="#D2EDF7"/>
<ellipse opacity="0.92" rx="2.89408" ry="3.6176" transform="matrix(0.882948 0.46947 -0.469473 0.882947 513.649 195.372)" fill="#D2EDF7"/>
<ellipse opacity="0.8" rx="5.39858" ry="5.53357" transform="matrix(-0.173649 -0.984808 0.984808 -0.173647 796.828 183.428)" fill="#D2EDF7"/>
<ellipse opacity="0.76" cx="815.552" cy="170.488" rx="11.4205" ry="12.6894" transform="rotate(174 815.552 170.488)" fill="#D2EDF7"/>
<ellipse opacity="0.9" rx="6.61185" ry="6.61187" transform="matrix(-0.945518 0.325569 -0.325567 -0.945519 898.05 186.998)" fill="#D2EDF7"/>
<ellipse opacity="0.83" rx="3.30599" ry="3.30592" transform="matrix(-0.981628 0.190805 -0.190813 -0.981626 919.019 177.352)" fill="#D2EDF7"/>
<ellipse opacity="0.82" rx="2.40433" ry="2.55457" transform="matrix(0.94552 -0.325564 0.325572 0.945517 969.433 184.103)" fill="#D2EDF7"/>
<ellipse rx="2.44753" ry="4.07923" transform="matrix(-0.469473 0.882947 -0.882948 -0.469471 36.1164 204.734)" fill="#D2EDF7"/>
<ellipse opacity="0.83" cx="59.7583" cy="221.323" rx="9.11636" ry="10.1293" transform="rotate(34 59.7583 221.323)" fill="#D2EDF7"/>
<ellipse opacity="0.99" rx="3.67325" ry="3.67325" transform="matrix(-0.719341 0.694657 -0.69466 -0.719339 130.611 205.788)" fill="#D2EDF7"/>
<ellipse opacity="0.85" cx="212.093" cy="203.481" rx="6.11098" ry="6.78999" transform="rotate(89 212.093 203.481)" fill="#D2EDF7"/>
<circle opacity="0.8" cx="244.822" cy="209.705" r="1.60287" transform="rotate(27 244.822 209.705)" fill="#D2EDF7"/>
<ellipse opacity="0.94" rx="4.76407" ry="5.95512" transform="matrix(-0.965925 -0.258821 0.258817 -0.965926 425.369 201.677)" fill="#D2EDF7"/>
<circle opacity="0.86" cx="492.451" cy="209.058" r="1.53607" transform="rotate(109 492.451 209.058)" fill="#D2EDF7"/>
<ellipse opacity="0.71" rx="2.15943" ry="2.29446" transform="matrix(0.207918 -0.978146 0.978149 0.207905 506.024 197.009)" fill="#D2EDF7"/>
<ellipse opacity="0.83" rx="4.27433" ry="4.27433" transform="matrix(0.681996 -0.731356 0.731351 0.682001 739.34 205.947)" fill="#D2EDF7"/>
<ellipse opacity="0.87" rx="4.60828" ry="4.60824" transform="matrix(0.173647 0.984808 -0.984808 0.17365 787.465 212.887)" fill="#D2EDF7"/>
<ellipse opacity="0.86" rx="1.35799" ry="2.03697" transform="matrix(0.275634 0.961263 -0.961261 0.275641 834.166 205.242)" fill="#D2EDF7"/>
<ellipse opacity="0.8" rx="7.07942" ry="7.07937" transform="matrix(-0.939694 -0.342017 0.342023 -0.939692 909.18 188.457)" fill="#D2EDF7"/>
<ellipse opacity="0.76" rx="2.20389" ry="2.20398" transform="matrix(0.987687 0.156441 -0.156428 0.987689 936.971 200.609)" fill="#D2EDF7"/>
<ellipse opacity="0.87" rx="3.20575" ry="4.00714" transform="matrix(-0.374602 0.927186 -0.927182 -0.374611 995.084 206.237)" fill="#D2EDF7"/>
<ellipse opacity="0.83" cx="4.09092" cy="211.752" rx="2.49336" ry="2.6492" transform="rotate(-38 4.09092 211.752)" fill="#D2EDF7"/>
<ellipse opacity="0.92" rx="2.07038" ry="2.07038" transform="matrix(-0.65606 -0.754709 0.75471 -0.656058 6.84389 220.245)" fill="#D2EDF7"/>
<ellipse opacity="0.71" rx="2.02585" ry="2.02586" transform="matrix(-0.559195 0.829036 -0.829039 -0.559191 47.5387 217.869)" fill="#D2EDF7"/>
<ellipse opacity="0.84" rx="2.27073" ry="2.27074" transform="matrix(0.93358 0.35837 -0.358366 0.933581 97.8735 213.577)" fill="#D2EDF7"/>
<ellipse opacity="0.74" rx="2.67146" ry="4.00718" transform="matrix(0.544637 0.838672 -0.838669 0.544641 191.825 215.066)" fill="#D2EDF7"/>
<ellipse opacity="0.94" rx="2.56014" ry="3.84025" transform="matrix(-0.241924 -0.970295 0.970296 -0.241919 259.194 211.405)" fill="#D2EDF7"/>
<ellipse opacity="0.78" rx="2.4043" ry="3.60648" transform="matrix(0.325571 0.945518 -0.945519 0.325566 423.298 219.656)" fill="#D2EDF7"/>
<ellipse rx="5.14257" ry="5.14254" transform="matrix(-0.939694 0.342018 -0.342023 -0.939692 459.707 213.414)" fill="#D2EDF7"/>
<ellipse opacity="0.89" rx="3.89586" ry="3.99326" transform="matrix(-0.694657 -0.719341 0.719339 -0.694659 539.673 210.354)" fill="#D2EDF7"/>
<circle opacity="0.8" cx="750.641" cy="223.318" r="2.35977" transform="rotate(-6 750.641 223.318)" fill="#D2EDF7"/>
<ellipse opacity="0.95" rx="5.34296" ry="5.34296" transform="matrix(0.719343 -0.694655 0.694661 0.719337 785.401 218.845)" fill="#D2EDF7"/>
<ellipse opacity="0.9" rx="3.96268" ry="3.96264" transform="matrix(0.190807 0.981628 -0.981627 0.190811 842.356 216.402)" fill="#D2EDF7"/>
<ellipse opacity="0.94" rx="2.62693" ry="2.79113" transform="matrix(-0.939692 -0.342022 0.342019 -0.939693 884.348 211.574)" fill="#D2EDF7"/>
<ellipse opacity="0.92" rx="1.98133" ry="2.10517" transform="matrix(0.573579 -0.819151 0.819154 0.573574 941.618 219.968)" fill="#D2EDF7"/>
<ellipse opacity="0.85" rx="2.02585" ry="3.03878" transform="matrix(0.838671 -0.544639 0.544639 0.83867 993.058 218.489)" fill="#D2EDF7"/>
<ellipse opacity="0.86" rx="4.7307" ry="4.73071" transform="matrix(0.224952 -0.97437 0.97437 0.22495 9.53009 226.889)" fill="#D2EDF7"/>
<ellipse opacity="0.78" rx="2.42658" ry="2.57824" transform="matrix(-0.707108 -0.707106 0.707108 -0.707106 73.8338 231.348)" fill="#D2EDF7"/>
<ellipse opacity="0.71" rx="2.63807" ry="2.63807" transform="matrix(-0.66913 0.743145 -0.743144 -0.669131 102.86 235.917)" fill="#D2EDF7"/>
<ellipse opacity="0.82" rx="1.44704" ry="2.17056" transform="matrix(-0.719341 -0.694657 0.69466 -0.719338 164.121 234.825)" fill="#D2EDF7"/>
<ellipse opacity="0.88" rx="2.89409" ry="3.61759" transform="matrix(-0.987689 0.156433 -0.156436 -0.987688 446.154 223.696)" fill="#D2EDF7"/>
<ellipse opacity="0.71" rx="3.30594" ry="3.30592" transform="matrix(0.29237 0.956305 -0.956304 0.292374 491.931 238.18)" fill="#D2EDF7"/>
<ellipse opacity="0.9" rx="7.81402" ry="7.81403" transform="matrix(-0.927184 -0.374607 0.374606 -0.927184 541.033 228.61)" fill="#D2EDF7"/>
<ellipse opacity="0.81" rx="3.50631" ry="3.50633" transform="matrix(0.342022 -0.939692 0.939693 0.342018 725.805 234.182)" fill="#D2EDF7"/>
<ellipse opacity="0.84" rx="2.8384" ry="2.83843" transform="matrix(-0.965925 -0.258821 0.258817 -0.965926 734.631 232.245)" fill="#D2EDF7"/>
<ellipse opacity="0.82" rx="1.69186" ry="1.69192" transform="matrix(-0.997564 0.0697588 -0.0697541 -0.997564 795.241 230.813)" fill="#D2EDF7"/>
<ellipse opacity="0.95" rx="4.07403" ry="4.07399" transform="matrix(0.974371 -0.224949 0.224953 0.97437 838.131 235.157)" fill="#D2EDF7"/>
<circle opacity="0.88" cx="881.094" cy="233.543" r="2.5045" transform="rotate(106 881.094 233.543)" fill="#D2EDF7"/>
<ellipse opacity="0.76" rx="5.45417" ry="5.45424" transform="matrix(-0.997564 -0.0697574 0.0697556 -0.997564 915.052 225.726)" fill="#D2EDF7"/>
<ellipse opacity="0.91" rx="1.75872" ry="1.75873" transform="matrix(-0.309019 -0.951056 0.951057 -0.309015 972.745 225.157)" fill="#D2EDF7"/>
<ellipse opacity="0.93" rx="2.51563" ry="2.51561" transform="matrix(-0.933582 -0.358365 0.358371 -0.933579 154.137 242.523)" fill="#D2EDF7"/>
<ellipse opacity="0.72" rx="3.42835" ry="4.28548" transform="matrix(-0.121871 0.992546 -0.992546 -0.121868 428.489 255.332)" fill="#D2EDF7"/>
<ellipse opacity="0.73" rx="2.63807" ry="2.63808" transform="matrix(0.453994 0.891005 -0.891008 0.453987 492.138 257.67)" fill="#D2EDF7"/>
<ellipse opacity="0.79" rx="4.40791" ry="4.40792" transform="matrix(0.469473 0.882947 -0.882949 0.46947 518.483 257.022)" fill="#D2EDF7"/>
<ellipse opacity="0.78" rx="2.53788" ry="2.5379" transform="matrix(-0.104529 0.994522 -0.994522 -0.104528 738.302 252.484)" fill="#D2EDF7"/>
<ellipse opacity="0.95" cx="41.7286" cy="268.517" rx="2.58241" ry="2.58241" transform="rotate(94 41.7286 268.517)" fill="#D2EDF7"/>
<ellipse opacity="0.93" cx="57.4174" cy="256.933" rx="6.14437" ry="6.14436" transform="rotate(-151 57.4174 256.933)" fill="#D2EDF7"/>
<ellipse opacity="0.92" cx="109.958" cy="272.739" rx="4.586" ry="5.7325" transform="rotate(73 109.958 272.739)" fill="#D2EDF7"/>
<circle opacity="0.94" cx="356.97" cy="170.361" r="1.98132" transform="rotate(34 356.97 170.361)" fill="#D2EDF7"/>
<circle opacity="0.74" cx="506.325" cy="262.541" r="7.07937" transform="rotate(-40 506.325 262.541)" fill="#D2EDF7"/>
<ellipse opacity="0.79" rx="2.34698" ry="3.91159" transform="matrix(-0.94552 -0.325565 0.325572 -0.945517 511.569 260.545)" fill="#D2EDF7"/>
<ellipse opacity="0.91" rx="1.7587" ry="1.75882" transform="matrix(0.0174536 0.999848 -0.999848 0.0174512 728.488 258.448)" fill="#D2EDF7"/>
<ellipse opacity="0.81" rx="2.35985" ry="2.35979" transform="matrix(-0.970297 -0.241916 0.241928 -0.970294 754.955 255.468)" fill="#D2EDF7"/>
<ellipse opacity="0.97" rx="2.88339" ry="4.80565" transform="matrix(0.629319 -0.777147 0.777145 0.629322 782.56 260.782)" fill="#D2EDF7"/>
<ellipse opacity="0.96" rx="4.60828" ry="4.60828" transform="matrix(0.743144 0.669132 -0.66913 0.743146 22.8425 279.619)" fill="#D2EDF7"/>
<ellipse opacity="0.99" rx="1.73644" ry="2.60468" transform="matrix(0.173649 0.984808 -0.984808 0.173647 54.2096 283.622)" fill="#D2EDF7"/>
<ellipse opacity="0.87" cx="98.6287" cy="265.231" rx="2.48107" ry="4.13512" transform="rotate(-151 98.6287 265.231)" fill="#D2EDF7"/>
<ellipse opacity="0.88" cx="156.573" cy="265.87" rx="2.38206" ry="3.57309" transform="rotate(-171 156.573 265.87)" fill="#D2EDF7"/>
<ellipse opacity="0.83" cx="197.041" cy="282.678" rx="7.01258" ry="7.01259" transform="rotate(-4 197.041 282.678)" fill="#D2EDF7"/>
<ellipse opacity="0.93" rx="1.89227" ry="1.89229" transform="matrix(0.809011 0.587794 -0.587776 0.809023 332.241 284.103)" fill="#D2EDF7"/>
<ellipse opacity="0.93" rx="2.67142" ry="2.67146" transform="matrix(-0.978147 -0.207916 0.207908 -0.978148 430.546 268.83)" fill="#D2EDF7"/>
<ellipse opacity="0.99" rx="1.82551" ry="1.82553" transform="matrix(-0.453997 -0.891003 0.89101 -0.453984 501.045 279.004)" fill="#D2EDF7"/>
<ellipse opacity="0.83" rx="3.5063" ry="3.50625" transform="matrix(-0.390725 0.920508 -0.920502 -0.390738 528.231 278.308)" fill="#D2EDF7"/>
<ellipse opacity="0.91" cx="662.048" cy="283.328" rx="1.33575" ry="1.33572" transform="rotate(91 662.048 283.328)" fill="#D2EDF7"/>
<ellipse opacity="0.97" rx="2.27074" ry="2.2707" transform="matrix(0.0871541 -0.996195 0.996195 0.0871574 737.15 279.395)" fill="#D2EDF7"/>
<ellipse opacity="0.76" rx="4.31885" ry="4.31886" transform="matrix(-0.390733 0.920504 -0.920506 -0.390729 792.219 273.729)" fill="#D2EDF7"/>
<ellipse opacity="0.87" rx="4.94218" ry="4.94218" transform="matrix(-0.754708 0.656061 -0.656057 -0.754711 831.56 274.85)" fill="#D2EDF7"/>
<ellipse opacity="0.72" cx="896.985" cy="275.854" rx="2.13716" ry="3.20574" transform="rotate(94 896.985 275.854)" fill="#D2EDF7"/>
<ellipse opacity="0.84" rx="2.02584" ry="2.02594" transform="matrix(0.156442 0.987687 -0.98769 0.156426 990.246 286.003)" fill="#D2EDF7"/>
<circle opacity="0.79" r="3.37273" transform="matrix(0.707105 0.707109 -0.707105 0.707109 25.8408 299.898)" fill="#D2EDF7"/>
<ellipse opacity="0.95" rx="3.77343" ry="3.77342" transform="matrix(0.857169 0.515036 -0.51504 0.857166 64.7212 296.41)" fill="#D2EDF7"/>
<ellipse opacity="0.79" rx="1.8255" ry="2.73826" transform="matrix(-0.788008 0.615664 -0.615659 -0.788013 93.9997 284.076)" fill="#D2EDF7"/>
<ellipse opacity="0.77" rx="4.14077" ry="4.14077" transform="matrix(0.573577 -0.819152 0.819152 0.573576 156.343 285.763)" fill="#D2EDF7"/>
<ellipse opacity="0.7" rx="4.74186" ry="4.74184" transform="matrix(-0.992546 -0.121869 0.12187 -0.992546 207.412 285.113)" fill="#D2EDF7"/>
<ellipse opacity="0.81" rx="1.781" ry="1.78099" transform="matrix(-0.898796 -0.438367 0.438376 -0.898792 268.624 288.016)" fill="#D2EDF7"/>
<circle opacity="0.78" cx="295.127" cy="295.888" r="4.98674" transform="rotate(147 295.127 295.888)" fill="#D2EDF7"/>
<circle opacity="0.82" cx="443.783" cy="287.561" r="1.58062" transform="rotate(122 443.783 287.561)" fill="#D2EDF7"/>
<circle opacity="0.99" cx="499.955" cy="302.524" r="6.87899" transform="rotate(16 499.955 302.524)" fill="#D2EDF7"/>
<ellipse opacity="0.93" rx="12.0216" ry="13.3573" transform="matrix(-0.406736 -0.913546 0.913545 -0.406737 522.331 278.157)" fill="#D2EDF7"/>
<ellipse opacity="0.89" cx="574.699" cy="283.196" rx="2.13717" ry="3.20568" transform="rotate(-91 574.699 283.196)" fill="#D2EDF7"/>
<ellipse opacity="0.71" rx="4.1853" ry="5.23164" transform="matrix(-0.927183 0.374609 -0.374604 -0.927185 615.246 286.28)" fill="#D2EDF7"/>
<ellipse opacity="0.73" rx="1.53606" ry="2.30413" transform="matrix(0.981627 -0.190813 0.190805 0.981628 663.685 295.427)" fill="#D2EDF7"/>
<ellipse opacity="0.79" rx="5.07585" ry="5.07576" transform="matrix(0.939695 0.342013 -0.342027 0.93969 753.029 298.851)" fill="#D2EDF7"/>
<ellipse opacity="0.97" rx="3.4729" ry="4.34114" transform="matrix(-0.838668 0.544643 -0.544635 -0.838673 774.238 288.926)" fill="#D2EDF7"/>
<ellipse opacity="0.88" rx="2.67148" ry="3.33937" transform="matrix(0.207913 0.978147 -0.978148 0.20791 858.918 301.219)" fill="#D2EDF7"/>
<ellipse opacity="0.9" rx="1.80316" ry="1.80325" transform="matrix(0.999848 -0.0174533 0.0174515 0.999848 914.967 291.056)" fill="#D2EDF7"/>
<ellipse opacity="0.75" rx="4.74185" ry="4.74181" transform="matrix(-0.24192 -0.970296 0.970295 -0.241924 924.401 290.771)" fill="#D2EDF7"/>
<ellipse opacity="0.91" cx="987.397" cy="279.179" rx="7.8808" ry="7.88084" transform="rotate(178 987.397 279.179)" fill="#D2EDF7"/>
<ellipse opacity="0.95" rx="2.20396" ry="2.20399" transform="matrix(-0.984807 -0.173651 0.173646 -0.984808 40.7494 302.626)" fill="#D2EDF7"/>
<circle opacity="0.94" cx="89.8549" cy="303.707" r="3.5397" transform="rotate(-119 89.8549 303.707)" fill="#D2EDF7"/>
<circle opacity="0.98" cx="132.019" cy="313.401" r="2.1817" transform="rotate(105 132.019 313.401)" fill="#D2EDF7"/>
<ellipse opacity="0.88" rx="4.18529" ry="5.23161" transform="matrix(-0.573576 -0.819152 0.819152 -0.573577 166.652 294.02)" fill="#D2EDF7"/>
<ellipse opacity="0.76" rx="1.89231" ry="1.89228" transform="matrix(0.0697554 -0.997564 0.997564 0.0697575 185.454 303.146)" fill="#D2EDF7"/>
<circle opacity="0.96" cx="262.896" cy="308.435" r="4.40789" transform="rotate(-110 262.896 308.435)" fill="#D2EDF7"/>
<ellipse opacity="0.94" rx="1.53612" ry="1.53607" transform="matrix(-0.173642 0.984809 -0.984807 -0.173654 302.75 308.93)" fill="#D2EDF7"/>
<ellipse opacity="0.92" rx="5.3986" ry="5.3986" transform="matrix(0.898794 0.438372 -0.43837 0.898794 459.021 313.512)" fill="#D2EDF7"/>
<ellipse opacity="0.83" rx="5.20932" ry="6.51168" transform="matrix(0.342022 -0.939692 0.939693 0.342018 474.199 298.059)" fill="#D2EDF7"/>
<ellipse opacity="0.81" rx="4.54147" ry="4.54148" transform="matrix(0.241923 0.970296 -0.970296 0.241921 505.867 314.859)" fill="#D2EDF7"/>
<ellipse opacity="0.99" rx="3.90704" ry="3.90699" transform="matrix(0.258816 -0.965927 0.965925 0.258822 583.273 308.261)" fill="#D2EDF7"/>
<ellipse opacity="0.79" rx="3.13894" ry="3.13895" transform="matrix(-0.981627 0.19081 -0.190808 -0.981627 614.345 307.149)" fill="#D2EDF7"/>
<ellipse opacity="0.78" rx="6.94579" ry="6.94577" transform="matrix(-0.544636 0.838673 -0.838669 -0.544642 669.382 302.491)" fill="#D2EDF7"/>
<circle opacity="0.78" cx="695.427" cy="315.185" r="1.58062" transform="rotate(75 695.427 315.185)" fill="#D2EDF7"/>
<circle opacity="0.89" cx="758.947" cy="307.682" r="5.67684" transform="rotate(137 758.947 307.682)" fill="#D2EDF7"/>
<ellipse opacity="0.84" rx="2.38204" ry="3.57304" transform="matrix(-0.499996 -0.866028 0.866023 -0.500004 822.325 299.939)" fill="#D2EDF7"/>
<ellipse opacity="0.83" rx="3.94042" ry="3.94038" transform="matrix(-0.996195 0.0871548 -0.0871567 -0.996195 861.257 300.484)" fill="#D2EDF7"/>
<ellipse opacity="0.97" rx="1.80322" ry="1.80323" transform="matrix(-0.920504 0.390733 -0.390729 -0.920506 908.821 301.163)" fill="#D2EDF7"/>
<ellipse opacity="0.81" rx="6.51171" ry="6.51172" transform="matrix(-0.500001 -0.866025 0.866026 -0.499999 945.871 296.285)" fill="#D2EDF7"/>
<ellipse opacity="0.83" rx="2.44885" ry="2.44885" transform="matrix(0.731355 0.681997 -0.682 0.731352 981.755 305.579)" fill="#D2EDF7"/>
<circle opacity="0.73" cx="53.2664" cy="315.82" r="3.43951" transform="rotate(-150 53.2664 315.82)" fill="#D2EDF7"/>
<ellipse opacity="0.74" rx="3.47292" ry="3.47291" transform="matrix(-0.275636 -0.961262 0.961261 -0.275639 164.644 317.892)" fill="#D2EDF7"/>
<ellipse opacity="0.7" cx="255.827" cy="307.823" rx="6.23342" ry="6.23342" transform="rotate(-174 255.827 307.823)" fill="#D2EDF7"/>
<ellipse opacity="0.78" rx="3.17234" ry="3.17239" transform="matrix(-0.956304 -0.292376 0.292368 -0.956306 426.323 319.618)" fill="#D2EDF7"/>
<ellipse opacity="0.94" rx="2.5156" ry="3.77343" transform="matrix(-0.984808 0.173649 -0.173647 -0.984808 498.228 325.031)" fill="#D2EDF7"/>
<ellipse opacity="0.79" rx="2.15942" ry="2.15942" transform="matrix(0.766046 -0.642786 0.64279 0.766043 543.106 319.115)" fill="#D2EDF7"/>
<ellipse opacity="0.84" rx="2.02589" ry="2.02585" transform="matrix(0.961263 0.275631 -0.275644 0.96126 569.024 329.146)" fill="#D2EDF7"/>
<ellipse opacity="0.89" rx="3.87364" ry="3.87361" transform="matrix(-0.422614 0.90631 -0.906306 -0.422622 608.982 319.053)" fill="#D2EDF7"/>
<ellipse opacity="0.79" rx="2.11491" ry="3.17239" transform="matrix(-0.997564 -0.069757 0.069756 -0.997564 678.772 324.72)" fill="#D2EDF7"/>
<ellipse opacity="0.75" rx="2.60467" ry="2.60467" transform="matrix(-0.898795 0.43837 -0.438373 -0.898793 684.435 317.928)" fill="#D2EDF7"/>
<ellipse opacity="0.99" rx="2.4043" ry="2.40429" transform="matrix(-0.656052 0.754715 -0.754704 -0.656066 750.221 315.468)" fill="#D2EDF7"/>
<ellipse opacity="0.92" rx="7.9142" ry="8.79354" transform="matrix(-0.342019 -0.939693 0.939692 -0.342021 803.438 317.309)" fill="#D2EDF7"/>
<ellipse opacity="0.96" rx="3.0846" ry="5.14102" transform="matrix(-0.453993 0.891005 -0.891008 -0.453987 850.918 322.324)" fill="#D2EDF7"/>
<ellipse opacity="0.78" rx="2.71601" ry="3.39499" transform="matrix(-0.529915 0.848051 -0.848045 -0.529924 873.195 320.188)" fill="#D2EDF7"/>
<ellipse opacity="0.91" rx="3.20575" ry="4.00721" transform="matrix(0.857165 -0.515042 0.515034 0.85717 924.089 330.65)" fill="#D2EDF7"/>
<ellipse opacity="0.8" rx="1.93683" ry="1.93683" transform="matrix(-0.669143 -0.743134 0.743156 -0.669118 972.037 320.287)" fill="#D2EDF7"/>
<ellipse opacity="0.81" rx="2.24848" ry="3.37272" transform="matrix(0.544641 0.838669 -0.838672 0.544637 461.355 346.258)" fill="#D2EDF7"/>
<ellipse opacity="0.73" rx="2.53789" ry="3.80687" transform="matrix(0.309021 -0.951055 0.951058 0.309013 646.663 332.115)" fill="#D2EDF7"/>
<ellipse opacity="0.75" rx="6.47828" ry="6.47825" transform="matrix(-0.559187 -0.829042 0.829034 -0.559199 741.726 320.741)" fill="#D2EDF7"/>
<ellipse opacity="0.76" rx="1.49156" ry="1.49157" transform="matrix(-0.500006 -0.866022 0.866029 -0.499994 835.183 332.15)" fill="#D2EDF7"/>
<ellipse opacity="0.7" rx="3.42839" ry="3.42838" transform="matrix(0.275636 -0.961262 0.961261 0.275638 191.293 349.123)" fill="#D2EDF7"/>
<circle opacity="0.87" cx="452.193" cy="360.588" r="4.36337" transform="rotate(-16 452.193 360.588)" fill="#D2EDF7"/>
<ellipse rx="1.91455" ry="1.91457" transform="matrix(-0.453997 0.891003 -0.89101 -0.453984 487.098 347.858)" fill="#D2EDF7"/>
<ellipse opacity="0.84" rx="2.21278" ry="3.68811" transform="matrix(-0.981626 0.190816 -0.190802 -0.981629 528.839 351.337)" fill="#D2EDF7"/>
<ellipse opacity="0.96" cx="585.088" cy="358.87" rx="3.42838" ry="4.28546" transform="rotate(81 585.088 358.87)" fill="#D2EDF7"/>
<ellipse opacity="0.89" rx="4.54147" ry="4.5415" transform="matrix(0.857165 -0.515043 0.515033 0.85717 601.439 354.975)" fill="#D2EDF7"/>
<ellipse opacity="0.78" rx="1.53608" ry="1.53607" transform="matrix(0.499995 -0.866029 0.866022 0.500005 672.74 349.242)" fill="#D2EDF7"/>
<ellipse opacity="0.94" rx="3.02764" ry="3.02764" transform="matrix(0.681997 -0.731355 0.731353 0.682 791.03 359.673)" fill="#D2EDF7"/>
<ellipse opacity="0.97" rx="7.41327" ry="7.41331" transform="matrix(0.956304 -0.292373 0.29237 0.956305 849.737 359.457)" fill="#D2EDF7"/>
<ellipse opacity="0.74" rx="1.358" ry="1.35796" transform="matrix(-0.25881 -0.965928 0.965923 -0.258828 911.032 349.811)" fill="#D2EDF7"/>
<ellipse opacity="0.88" rx="1.71421" ry="1.8213" transform="matrix(-0.95106 -0.309007 0.309027 -0.951053 952.716 350.325)" fill="#D2EDF7"/>
<ellipse opacity="0.71" rx="4.05169" ry="4.0517" transform="matrix(-0.81915 0.57358 -0.573573 -0.819154 961.799 349.922)" fill="#D2EDF7"/>
<ellipse opacity="0.88" rx="4.22982" ry="4.22985" transform="matrix(-0.970295 0.241924 -0.24192 -0.970296 36.0181 361.227)" fill="#D2EDF7"/>
<ellipse opacity="0.88" cx="61.8449" cy="363.334" rx="1.55835" ry="1.55834" transform="rotate(179 61.8449 363.334)" fill="#D2EDF7"/>
<ellipse opacity="0.97" rx="2.84956" ry="3.56194" transform="matrix(0.798637 -0.601813 0.601817 0.798634 143.307 364.046)" fill="#D2EDF7"/>
<circle opacity="0.7" cx="206.453" cy="371.195" r="2.53789" transform="rotate(164 206.453 371.195)" fill="#D2EDF7"/>
<ellipse opacity="0.81" rx="2.57127" ry="2.57126" transform="matrix(0.374605 -0.927184 0.927183 0.374608 420.646 358.991)" fill="#D2EDF7"/>
<ellipse opacity="0.92" rx="1.58061" ry="1.67941" transform="matrix(0.994522 0.104529 -0.104528 0.994522 498.026 368.648)" fill="#D2EDF7"/>
<ellipse opacity="0.95" cx="534.492" cy="362.639" rx="5.16483" ry="6.45603" transform="rotate(-71 534.492 362.639)" fill="#D2EDF7"/>
<ellipse opacity="0.78" cx="583.44" cy="375.6" rx="4.45241" ry="5.56551" transform="rotate(55 583.44 375.6)" fill="#D2EDF7"/>
<ellipse opacity="0.8" rx="3.00541" ry="3.00533" transform="matrix(0.190804 0.981628 -0.981626 0.190814 637.354 372.562)" fill="#D2EDF7"/>
<ellipse opacity="0.92" rx="2.44886" ry="2.44883" transform="matrix(0.325564 0.94552 -0.945517 0.325572 680.255 374.656)" fill="#D2EDF7"/>
<ellipse opacity="0.87" cx="735.248" cy="368.328" rx="6.12213" ry="6.27518" transform="rotate(107 735.248 368.328)" fill="#D2EDF7"/>
<ellipse opacity="0.89" rx="2.00361" ry="3.00542" transform="matrix(-0.69467 -0.719328 0.719351 -0.694647 809.504 369.962)" fill="#D2EDF7"/>
<ellipse opacity="0.8" rx="2.81633" ry="4.69389" transform="matrix(0.615666 -0.788007 0.788014 0.615657 837.843 360.526)" fill="#D2EDF7"/>
<ellipse opacity="0.86" rx="7.71383" ry="8.57092" transform="matrix(0.829038 -0.559192 0.559194 0.829037 587.188 159.469)" fill="#D2EDF7"/>
<ellipse opacity="0.77" rx="1.93682" ry="2.9052" transform="matrix(-0.529912 -0.848053 0.848044 -0.529927 960.23 356.952)" fill="#D2EDF7"/>
<circle opacity="0.79" cx="689.182" cy="152.481" r="7.21295" transform="rotate(-95 689.182 152.481)" fill="#D2EDF7"/>
<ellipse opacity="0.95" rx="2.6047" ry="2.60469" transform="matrix(0.629316 -0.77715 0.777142 0.629325 79.8943 383.436)" fill="#D2EDF7"/>
<ellipse opacity="0.76" rx="2.17931" ry="3.63219" transform="matrix(-0.874619 -0.48481 0.484809 -0.87462 99.7616 378.196)" fill="#D2EDF7"/>
<ellipse opacity="0.8" rx="6.94579" ry="6.94576" transform="matrix(-0.97437 0.22495 -0.224952 -0.97437 131.949 371.658)" fill="#D2EDF7"/>
<ellipse opacity="0.83" rx="2.58242" ry="2.74383" transform="matrix(-0.927183 0.374608 -0.374605 -0.927184 216.745 373.617)" fill="#D2EDF7"/>
<ellipse opacity="0.89" rx="5.2094" ry="6.51172" transform="matrix(-0.190808 0.981627 -0.981627 -0.19081 322.312 300.313)" fill="#D2EDF7"/>
<ellipse opacity="0.75" cx="374.141" cy="288.746" rx="4.3968" ry="4.50667" transform="rotate(-3.00003 374.141 288.746)" fill="#D2EDF7"/>
<ellipse opacity="0.9" rx="6.51168" ry="7.23519" transform="matrix(0.499999 -0.866026 0.866025 0.500001 424.316 381.799)" fill="#D2EDF7"/>
<ellipse opacity="0.72" rx="1.5138" ry="1.51378" transform="matrix(0.559182 0.829045 -0.82903 0.559204 473.403 379.8)" fill="#D2EDF7"/>
<ellipse opacity="0.99" rx="1.78097" ry="1.781" transform="matrix(-0.190812 -0.981627 0.981628 -0.190806 526.445 386.463)" fill="#D2EDF7"/>
<ellipse opacity="0.8" rx="2.04812" ry="2.04814" transform="matrix(0.559205 -0.829029 0.829046 0.559181 571.314 385.216)" fill="#D2EDF7"/>
<ellipse opacity="0.79" rx="6.67864" ry="6.67868" transform="matrix(-0.0871563 0.996195 -0.996195 -0.0871552 629.991 383.492)" fill="#D2EDF7"/>
<ellipse opacity="0.99" cx="643.928" cy="380.27" rx="1.91454" ry="1.9145" transform="rotate(179 643.928 380.27)" fill="#D2EDF7"/>
<ellipse opacity="0.87" rx="1.42484" ry="1.42475" transform="matrix(0.981629 0.190797 -0.190821 0.981625 726.612 384.1)" fill="#D2EDF7"/>
<ellipse opacity="0.77" rx="3.9627" ry="3.96266" transform="matrix(0.965927 0.258816 -0.258822 0.965925 751.963 382.83)" fill="#D2EDF7"/>
<ellipse opacity="0.9" rx="7.54691" ry="7.54688" transform="matrix(-0.920506 0.39073 -0.390733 -0.920504 792.438 372.587)" fill="#D2EDF7"/>
<ellipse opacity="0.88" rx="2.90518" ry="2.90522" transform="matrix(0.965925 0.258822 -0.258816 0.965927 863.405 393.223)" fill="#D2EDF7"/>
<ellipse opacity="0.71" rx="7.11281" ry="7.90309" transform="matrix(-0.913546 0.406735 -0.406738 -0.913545 593.281 178.82)" fill="#D2EDF7"/>
<circle opacity="0.94" cx="620.158" cy="166.121" r="3.60646" transform="rotate(-107 620.158 166.121)" fill="#D2EDF7"/>
<ellipse opacity="0.95" rx="6.12211" ry="6.27515" transform="matrix(-0.809018 0.587783 -0.587787 -0.809016 664.522 175.268)" fill="#D2EDF7"/>
<ellipse opacity="0.73" rx="2.27073" ry="3.40611" transform="matrix(-0.390733 -0.920504 0.920506 -0.39073 67.3482 397.686)" fill="#D2EDF7"/>
<ellipse opacity="0.83" rx="1.73645" ry="1.73645" transform="matrix(-0.848047 -0.52992 0.529918 -0.848049 126.347 390.923)" fill="#D2EDF7"/>
<ellipse opacity="0.83" cx="167.367" cy="398.073" rx="10.1182" ry="11.2424" transform="rotate(108 167.367 398.073)" fill="#D2EDF7"/>
<ellipse opacity="0.93" rx="4.22981" ry="4.33556" transform="matrix(0.719339 -0.694659 0.694658 0.719341 203.959 402.958)" fill="#D2EDF7"/>
<ellipse opacity="0.92" rx="2.13715" ry="2.13715" transform="matrix(0.601813 0.798637 -0.798634 0.601817 330.947 304.477)" fill="#D2EDF7"/>
<ellipse opacity="0.93" rx="6.74544" ry="6.74542" transform="matrix(0.97437 -0.22495 0.224952 0.97437 362.021 304.035)" fill="#D2EDF7"/>
<ellipse opacity="0.8" rx="2.33753" ry="3.50627" transform="matrix(-0.88295 0.469467 -0.469477 -0.882945 416.372 393.822)" fill="#D2EDF7"/>
<ellipse opacity="0.87" rx="6.81225" ry="7.56913" transform="matrix(0.978148 -0.207911 0.207913 0.978147 475.648 401.529)" fill="#D2EDF7"/>
<ellipse opacity="0.81" cx="518.651" cy="399.113" rx="7.01257" ry="7.01256" transform="rotate(81 518.651 399.113)" fill="#D2EDF7"/>
<circle opacity="0.86" cx="570.147" cy="384.96" r="7.21291" transform="rotate(-100 570.147 384.96)" fill="#D2EDF7"/>
<ellipse opacity="0.85" rx="6.21117" ry="6.90129" transform="matrix(-0.829038 0.559192 -0.559194 -0.829037 604.286 391.067)" fill="#D2EDF7"/>
<ellipse opacity="0.72" rx="4.02336" ry="6.70558" transform="matrix(0.453989 0.891007 -0.891006 0.453992 648.962 397.997)" fill="#D2EDF7"/>
<ellipse opacity="0.74" rx="1.78097" ry="2.67145" transform="matrix(-0.669137 -0.743139 0.743151 -0.669124 763.59 391.039)" fill="#D2EDF7"/>
<ellipse opacity="0.79" rx="5.40971" ry="5.40972" transform="matrix(-0.573577 0.819152 -0.819153 -0.573576 805.931 401.044)" fill="#D2EDF7"/>
<ellipse opacity="0.87" rx="1.9368" ry="1.93673" transform="matrix(-0.275628 -0.961264 0.961259 -0.275647 824.833 394.816)" fill="#D2EDF7"/>
<ellipse opacity="0.84" cx="605.953" cy="192.105" rx="5.12032" ry="5.12034" transform="rotate(-3.99999 605.953 192.105)" fill="#D2EDF7"/>
<ellipse opacity="0.95" rx="1.55835" ry="1.5584" transform="matrix(0.342034 0.939688 -0.939698 0.342006 636.312 194.083)" fill="#D2EDF7"/>
<ellipse opacity="0.83" rx="1.35791" ry="1.44285" transform="matrix(0.992545 -0.121875 0.121863 0.992547 698.062 191.404)" fill="#D2EDF7"/>
<ellipse opacity="0.94" rx="2.03698" ry="2.03699" transform="matrix(0.927184 -0.374608 0.374606 0.927184 115.081 412.563)" fill="#D2EDF7"/>
<ellipse opacity="0.96" rx="2.13716" ry="3.20573" transform="matrix(-0.766045 0.642787 -0.642789 -0.766044 187.41 321.911)" fill="#D2EDF7"/>
<circle opacity="0.78" cx="198.55" cy="402.082" r="2.11491" transform="rotate(-144 198.55 402.082)" fill="#D2EDF7"/>
<circle opacity="0.92" cx="384.447" cy="322.128" r="2.17056" transform="rotate(-91 384.447 322.128)" fill="#D2EDF7"/>
<ellipse opacity="0.93" rx="1.86999" ry="2.80506" transform="matrix(-0.996195 0.0871579 -0.0871536 -0.996195 447.193 404.631)" fill="#D2EDF7"/>
<ellipse opacity="0.95" rx="2.4488" ry="2.44883" transform="matrix(-0.207915 0.978147 -0.978148 -0.207909 470.35 408.871)" fill="#D2EDF7"/>
<circle opacity="0.98" cx="511.212" cy="411.949" r="2.57128" transform="rotate(149 511.212 411.949)" fill="#D2EDF7"/>
<ellipse opacity="0.93" rx="2.18164" ry="2.31803" transform="matrix(-0.987688 -0.156437 0.156432 -0.987689 573.357 415.207)" fill="#D2EDF7"/>
<ellipse opacity="0.78" cx="634.08" cy="406.761" rx="2.17926" ry="3.63211" transform="rotate(101 634.08 406.761)" fill="#D2EDF7"/>
<ellipse opacity="0.74" rx="1.93683" ry="1.93682" transform="matrix(-0.438369 -0.898795 0.898793 -0.438373 683.222 413.856)" fill="#D2EDF7"/>
<circle opacity="0.86" cx="692.76" cy="402.421" r="3.72891" transform="rotate(-90 692.76 402.421)" fill="#D2EDF7"/>
<ellipse opacity="0.88" rx="4.67501" ry="4.79196" transform="matrix(-0.906304 0.422626 -0.422611 -0.906311 750.691 404.617)" fill="#D2EDF7"/>
<ellipse opacity="0.81" rx="2.3153" ry="2.31528" transform="matrix(0.891008 -0.453987 0.453994 0.891005 819.084 407.44)" fill="#D2EDF7"/>
<circle opacity="0.84" r="2.1372" transform="matrix(0.707114 0.7071 -0.707114 0.7071 827.123 416.129)" fill="#D2EDF7"/>
<ellipse opacity="0.9" rx="1.98133" ry="2.97198" transform="matrix(-0.629311 -0.777153 0.777139 -0.629329 616.578 198.448)" fill="#D2EDF7"/>
<ellipse opacity="0.83" rx="1.71416" ry="2.57125" transform="matrix(-0.7071 -0.707114 0.7071 -0.707114 639.519 208.568)" fill="#D2EDF7"/>
<ellipse opacity="0.92" rx="3.45065" ry="3.45064" transform="matrix(0.469469 -0.882949 0.882946 0.469474 90.3591 420.896)" fill="#D2EDF7"/>
<ellipse opacity="0.75" rx="3.27255" ry="3.27255" transform="matrix(0.559191 -0.829039 0.829037 0.559195 111.128 428.954)" fill="#D2EDF7"/>
<ellipse opacity="0.89" cx="176.594" cy="326.695" rx="9.61727" ry="10.6859" transform="rotate(-113 176.594 326.695)" fill="#D2EDF7"/>
<ellipse opacity="0.88" rx="4.56373" ry="4.56373" transform="matrix(0.829036 0.559195 -0.559191 0.829039 309.561 348.006)" fill="#D2EDF7"/>
<ellipse opacity="0.82" rx="2.29298" ry="2.29299" transform="matrix(0.587789 -0.809014 0.80902 0.587782 450.277 420.424)" fill="#D2EDF7"/>
<ellipse opacity="0.99" rx="4.14078" ry="4.14077" transform="matrix(-0.241921 -0.970296 0.970296 -0.241923 469.871 428.435)" fill="#D2EDF7"/>
<ellipse opacity="0.85" rx="5.67686" ry="5.67688" transform="matrix(-0.544643 0.838668 -0.838673 -0.544635 514.401 434.567)" fill="#D2EDF7"/>
<ellipse opacity="0.71" rx="2.13719" ry="3.2058" transform="matrix(0.453992 0.891006 -0.891007 0.453989 549.331 424.291)" fill="#D2EDF7"/>
<ellipse opacity="0.91" rx="2.53789" ry="2.53788" transform="matrix(-0.766047 0.642784 -0.642791 -0.766042 787.349 430.359)" fill="#D2EDF7"/>
<ellipse opacity="0.73" rx="3.33931" ry="3.33934" transform="matrix(0.933579 0.358371 -0.358365 0.933582 850.749 430.533)" fill="#D2EDF7"/>
<ellipse rx="3.35281" ry="5.58794" transform="matrix(0.453982 -0.891011 0.891002 0.453999 610.329 227.877)" fill="#D2EDF7"/>
<ellipse opacity="0.71" rx="2.67142" ry="4.00716" transform="matrix(-0.996195 -0.0871565 0.087155 -0.996195 637.157 223.825)" fill="#D2EDF7"/>
<ellipse opacity="0.71" rx="2.78279" ry="4.63807" transform="matrix(0.0349001 -0.999391 0.999391 0.0348989 673.165 225.152)" fill="#D2EDF7"/>
<ellipse opacity="0.79" cx="70.9366" cy="434.819" rx="2.20396" ry="3.30594" transform="rotate(-102 70.9366 434.819)" fill="#D2EDF7"/>
<ellipse opacity="0.72" rx="3.651" ry="4.56378" transform="matrix(-0.956304 0.292374 -0.29237 -0.956305 91.4633 436.591)" fill="#D2EDF7"/>
<ellipse opacity="0.89" rx="2.81634" ry="4.69391" transform="matrix(-0.682001 0.731351 -0.731357 -0.681995 132.977 447.651)" fill="#D2EDF7"/>
<ellipse opacity="0.7" rx="4.71958" ry="4.71959" transform="matrix(0.719339 -0.694659 0.694658 0.719341 220.623 357.404)" fill="#D2EDF7"/>
<circle opacity="0.77" cx="306.001" cy="352.028" r="3.23914" transform="rotate(156 306.001 352.028)" fill="#D2EDF7"/>
<circle opacity="0.95" cx="327.156" cy="360.645" r="4.87543" transform="rotate(116 327.156 360.645)" fill="#D2EDF7"/>
<ellipse opacity="0.82" rx="2.29302" ry="3.43951" transform="matrix(0.453987 -0.891008 0.891005 0.453994 390.873 355.367)" fill="#D2EDF7"/>
<ellipse opacity="0.88" rx="2.01167" ry="3.35279" transform="matrix(0.292373 -0.956304 0.956305 0.29237 426.659 440.336)" fill="#D2EDF7"/>
<ellipse opacity="0.74" rx="2.1793" ry="3.63216" transform="matrix(0.798638 -0.601812 0.601818 0.798633 487.477 440.642)" fill="#D2EDF7"/>
<ellipse opacity="0.73" rx="4.40791" ry="4.40789" transform="matrix(-0.809021 0.58778 -0.587791 -0.809013 520.549 444.757)" fill="#D2EDF7"/>
<ellipse opacity="0.8" rx="2.02583" ry="3.0388" transform="matrix(0.978147 0.207916 -0.207907 0.978149 550.34 448.847)" fill="#D2EDF7"/>
<ellipse opacity="0.99" rx="2.24636" ry="3.74393" transform="matrix(-0.857169 -0.515035 0.515041 -0.857165 594.931 444.427)" fill="#D2EDF7"/>
<ellipse opacity="0.73" rx="2.49336" ry="2.49334" transform="matrix(0.956306 0.292369 -0.292374 0.956304 770.852 443.558)" fill="#D2EDF7"/>
<ellipse opacity="0.79" rx="1.40254" ry="1.40254" transform="matrix(-0.79864 0.601809 -0.601821 -0.798631 819.849 439.055)" fill="#D2EDF7"/>
<ellipse opacity="0.92" rx="1.51384" ry="1.51382" transform="matrix(0.987689 -0.156432 0.156437 0.987688 841.378 445.042)" fill="#D2EDF7"/>
<ellipse opacity="0.83" rx="4.76415" ry="4.76414" transform="matrix(0.731355 -0.681997 0.682 0.731352 609.17 243.067)" fill="#D2EDF7"/>
<ellipse opacity="0.84" rx="1.75858" ry="2.63804" transform="matrix(0.999848 0.0174535 -0.0174513 0.999848 642.573 241.048)" fill="#D2EDF7"/>
<circle opacity="0.71" r="1.93681" transform="matrix(-0.707117 -0.707097 0.707117 -0.707097 697.373 232.579)" fill="#D2EDF7"/>
<ellipse opacity="0.74" rx="5.29838" ry="5.29841" transform="matrix(-0.224952 -0.97437 0.97437 -0.22495 136.158 451.376)" fill="#D2EDF7"/>
<ellipse opacity="0.7" cx="233.898" cy="361.726" rx="7.31312" ry="8.12569" transform="rotate(-38 233.898 361.726)" fill="#D2EDF7"/>
<ellipse opacity="0.99" rx="2.56015" ry="2.56014" transform="matrix(-0.499997 0.866027 -0.866023 -0.500003 279.209 369.946)" fill="#D2EDF7"/>
<ellipse opacity="0.75" rx="3.50631" ry="3.50631" transform="matrix(0.615659 0.788013 -0.788009 0.615664 305.499 369.756)" fill="#D2EDF7"/>
<ellipse opacity="0.87" rx="1.73646" ry="2.60468" transform="matrix(-0.62932 0.777146 -0.777146 -0.629321 422.252 450.763)" fill="#D2EDF7"/>
<ellipse opacity="0.97" rx="6.14436" ry="6.14437" transform="matrix(0.798633 -0.601818 0.601812 0.798638 491.878 461.167)" fill="#D2EDF7"/>
<ellipse opacity="0.71" rx="5.47645" ry="5.47646" transform="matrix(0.798635 -0.601816 0.601814 0.798636 536.324 460.479)" fill="#D2EDF7"/>
<ellipse opacity="0.85" rx="7.27973" ry="7.27972" transform="matrix(-0.587783 -0.809019 0.809015 -0.587788 592.621 453.129)" fill="#D2EDF7"/>
<ellipse opacity="0.7" rx="4.11853" ry="4.22142" transform="matrix(-0.207908 0.978148 -0.978147 -0.207916 752.802 467.004)" fill="#D2EDF7"/>
<ellipse opacity="0.91" rx="2.15943" ry="2.15941" transform="matrix(-0.190807 -0.981628 0.981627 -0.190811 803.485 457.147)" fill="#D2EDF7"/>
<ellipse opacity="0.98" rx="2.18175" ry="3.27261" transform="matrix(-0.82904 0.559189 -0.559197 -0.829035 862.443 462.638)" fill="#D2EDF7"/>
<ellipse opacity="0.74" rx="1.60284" ry="1.60285" transform="matrix(0.939692 -0.342022 0.342018 0.939693 591.133 254.398)" fill="#D2EDF7"/>
<ellipse opacity="0.96" rx="3.40611" ry="3.40609" transform="matrix(-0.438369 -0.898795 0.898793 -0.438374 649.943 251.946)" fill="#D2EDF7"/>
<ellipse opacity="0.97" rx="1.98131" ry="2.972" transform="matrix(-0.275641 0.961261 -0.961263 -0.275634 272.346 388.215)" fill="#D2EDF7"/>
<ellipse opacity="0.92" rx="7.94765" ry="7.94759" transform="matrix(-0.20791 0.978148 -0.978147 -0.207913 290.277 383.233)" fill="#D2EDF7"/>
<ellipse opacity="0.99" cx="446.311" cy="472.34" rx="2.90521" ry="2.90523" transform="rotate(-91 446.311 472.34)" fill="#D2EDF7"/>
<ellipse opacity="0.87" rx="2.40431" ry="3.60648" transform="matrix(-0.891005 -0.453993 0.453988 -0.891008 470.523 462.086)" fill="#D2EDF7"/>
<ellipse opacity="0.72" rx="7.68046" ry="7.68043" transform="matrix(-0.22495 0.97437 -0.97437 -0.224952 499.407 471.869)" fill="#D2EDF7"/>
<ellipse opacity="0.95" rx="4.54148" ry="5.67686" transform="matrix(-0.719341 0.694657 -0.69466 -0.719339 545.119 471.863)" fill="#D2EDF7"/>
<ellipse opacity="0.94" rx="1.89224" ry="2.0105" transform="matrix(-0.731342 -0.682011 0.681985 -0.731366 764.453 464.187)" fill="#D2EDF7"/>
<ellipse opacity="0.84" rx="5.06463" ry="5.19125" transform="matrix(-0.515039 -0.857167 0.857168 -0.515037 595.929 258.146)" fill="#D2EDF7"/>
<ellipse opacity="0.82" rx="5.78816" ry="5.93287" transform="matrix(0.866025 -0.500001 0.499999 0.866026 324.657 394.695)" fill="#D2EDF7"/>
<ellipse opacity="0.82" rx="3.87362" ry="3.87361" transform="matrix(0.258818 -0.965926 0.965926 0.25882 430.669 480.382)" fill="#D2EDF7"/>
<ellipse opacity="0.98" cx="502.251" cy="493.307" rx="4.50807" ry="4.62076" fill="#D2EDF7"/>
<ellipse opacity="0.93" rx="3.907" ry="3.90702" transform="matrix(-0.374609 -0.927183 0.927185 -0.374605 509.386 485.549)" fill="#D2EDF7"/>
<ellipse opacity="0.86" rx="1.66959" ry="1.66963" transform="matrix(0.981626 0.190813 -0.190805 0.981628 566.73 487.583)" fill="#D2EDF7"/>
<ellipse opacity="0.81" rx="3.33929" ry="3.33933" transform="matrix(0.994522 -0.10453 0.104527 0.994522 272.74 408.257)" fill="#D2EDF7"/>
<ellipse opacity="0.78" rx="6.14437" ry="6.14435" transform="matrix(-0.927184 -0.374605 0.374608 -0.927183 286.568 400.904)" fill="#D2EDF7"/>
<circle opacity="0.98" cx="335.177" cy="413.489" r="1.91455" transform="rotate(-60 335.177 413.489)" fill="#D2EDF7"/>
<circle opacity="0.89" cx="399.69" cy="401.424" r="6.0108" transform="rotate(-93 399.69 401.424)" fill="#D2EDF7"/>
<ellipse opacity="0.78" rx="1.40248" ry="2.10378" transform="matrix(-0.984807 -0.173654 0.173643 -0.984809 437.154 500.318)" fill="#D2EDF7"/>
<ellipse opacity="0.93" rx="1.53609" ry="2.30414" transform="matrix(0.587786 -0.809016 0.809018 0.587784 489.935 499.406)" fill="#D2EDF7"/>
<ellipse opacity="0.84" rx="3.97382" ry="3.97376" transform="matrix(0.913549 -0.406729 0.406745 0.913542 546.98 500.196)" fill="#D2EDF7"/>
<circle opacity="0.99" cx="588.787" cy="501.999" r="3.27254" transform="rotate(-98 588.787 501.999)" fill="#D2EDF7"/>
<ellipse opacity="0.95" cx="443.531" cy="524.555" rx="3.67321" ry="3.67324" transform="rotate(88 443.531 524.555)" fill="#D2EDF7"/>
<ellipse opacity="0.8" rx="1.55833" ry="1.55835" transform="matrix(-0.0697571 0.997564 -0.997564 -0.0697558 473.261 521.366)" fill="#D2EDF7"/>
<ellipse opacity="0.95" cx="505.344" cy="531.997" rx="3.82218" ry="6.3703" transform="rotate(13 505.344 531.997)" fill="#D2EDF7"/>
<ellipse opacity="0.87" cx="589.771" cy="507.338" rx="2.29301" ry="3.43954" transform="rotate(179 589.771 507.338)" fill="#D2EDF7"/>
<circle opacity="0.99" cx="270.73" cy="441.733" r="1.78098" transform="rotate(-53 270.73 441.733)" fill="#D2EDF7"/>
<ellipse opacity="0.76" rx="2.1817" ry="3.27255" transform="matrix(0.707111 0.707103 -0.707111 0.707103 436.841 531.602)" fill="#D2EDF7"/>
<ellipse opacity="0.98" rx="2.56018" ry="2.56016" transform="matrix(-0.829042 -0.559186 0.5592 -0.829033 488.982 531.705)" fill="#D2EDF7"/>
<ellipse opacity="0.7" cx="531.142" cy="524.209" rx="2.31526" ry="3.47289" transform="rotate(-135 531.142 524.209)" fill="#D2EDF7"/>
<ellipse opacity="0.89" rx="1.69194" ry="1.69193" transform="matrix(-0.20791 -0.978148 0.978147 -0.207913 436.968 553.044)" fill="#D2EDF7"/>
<ellipse opacity="0.8" rx="1.33572" ry="2.00358" transform="matrix(-0.629318 0.777148 -0.777144 -0.629323 479.762 548.984)" fill="#D2EDF7"/>
<ellipse opacity="0.83" cx="519.325" cy="556.444" rx="5.94399" ry="5.94396" transform="rotate(-6.00003 519.325 556.444)" fill="#D2EDF7"/>
<ellipse opacity="0.75" rx="1.6251" ry="1.62516" transform="matrix(-0.20792 0.978146 -0.978149 -0.207904 438.19 557.727)" fill="#D2EDF7"/>
<circle opacity="0.93" r="3.56197" transform="matrix(-0.707104 0.70711 -0.707104 -0.70711 478.514 566.493)" fill="#D2EDF7"/>
<ellipse opacity="0.98" rx="3.77343" ry="3.77342" transform="matrix(0.325567 0.945519 -0.945518 0.325569 510.731 561.828)" fill="#D2EDF7"/>
</svg>
