<svg width="90" height="78" viewBox="0 0 90 78" fill="none" xmlns="http://www.w3.org/2000/svg">
<ellipse rx="3.77345" ry="3.77345" transform="matrix(-0.573578 0.819151 -0.819153 -0.573575 9.5239 5.37881)" fill="#D2EDF7"/>
<ellipse opacity="0.94" rx="1.78097" ry="2.67142" transform="matrix(0.224948 0.974371 -0.974369 0.224955 45.158 2.33627)" fill="#D2EDF7"/>
<ellipse opacity="0.76" rx="1.78098" ry="1.78091" transform="matrix(0.0348982 0.999391 -0.999391 0.0349008 19.4845 13.8411)" fill="#D2EDF7"/>
<ellipse opacity="0.71" rx="3.80687" ry="3.80682" transform="matrix(0.996195 0.0871545 -0.087157 0.996195 84.5143 16.6798)" fill="#D2EDF7"/>
<ellipse opacity="0.89" rx="3.37274" ry="3.37275" transform="matrix(-0.500003 -0.866024 0.866027 -0.499998 7.10951 21.0607)" fill="#D2EDF7"/>
<ellipse opacity="0.86" rx="4.67512" ry="4.79193" transform="matrix(0.956306 -0.292367 0.292376 0.956303 56.8494 35.8407)" fill="#D2EDF7"/>
<ellipse opacity="0.77" rx="5.00903" ry="5.009" transform="matrix(-0.920506 0.390728 -0.390734 -0.920504 66.973 21.6227)" fill="#D2EDF7"/>
<ellipse opacity="0.79" cx="2.94327" cy="35.9491" rx="2.31527" ry="2.31532" transform="rotate(-89 2.94327 35.9491)" fill="#D2EDF7"/>
<ellipse opacity="0.87" cx="31.9612" cy="51.1064" rx="6.28907" ry="6.4463" transform="rotate(132 31.9612 51.1064)" fill="#D2EDF7"/>
<ellipse opacity="0.71" rx="2.58164" ry="4.30272" transform="matrix(0.390729 -0.920506 0.920504 0.390733 70.7184 40.3116)" fill="#D2EDF7"/>
<ellipse opacity="0.9" rx="6.61185" ry="6.61187" transform="matrix(-0.945518 0.325569 -0.325567 -0.945519 48.4175 61.151)" fill="#D2EDF7"/>
<ellipse opacity="0.83" rx="3.30599" ry="3.30592" transform="matrix(-0.981628 0.190805 -0.190813 -0.981626 69.3866 51.5048)" fill="#D2EDF7"/>
<ellipse opacity="0.8" rx="7.07942" ry="7.07937" transform="matrix(-0.939694 -0.342017 0.342023 -0.939692 59.5476 62.6109)" fill="#D2EDF7"/>
<ellipse opacity="0.76" rx="2.20389" ry="2.20398" transform="matrix(0.987687 0.156441 -0.156428 0.987689 87.3388 74.7619)" fill="#D2EDF7"/>
</svg>
