<?xml version="1.0" encoding="UTF-8"?>
<svg width="400px" height="400px" viewBox="0 0 400 400" version="1.1" xmlns="http://www.w3.org/2000/svg" xmlns:xlink="http://www.w3.org/1999/xlink">
    <g id="atomic" stroke="none" stroke-width="1" fill="none" fill-rule="evenodd">
        <g transform="translate(0.000000, 17.000000)" fill="#FFFFFF" fill-rule="nonzero">
            <path d="M324.998227,173.392521 C324.762703,172.863602 324.469734,172.392175 324.176766,171.920747 C323.820608,171.391828 323.470194,170.980766 323.056591,170.56683 C321.000065,168.50577 317.938255,167.56579 315.117712,168.155074 C314.526031,168.270056 313.997538,168.387914 313.469045,168.623627 C312.883108,168.859341 312.41206,169.15542 311.941012,169.448626 C311.469965,169.741831 310.998917,170.155767 310.585314,170.566829 C310.177455,170.980765 309.821297,171.391827 309.470884,171.920746 C309.177915,172.392174 308.879202,172.863601 308.643678,173.392521 C308.471343,173.924314 308.293264,174.510724 308.178374,175.042517 C308.05774,175.628927 308.000295,176.218212 308.000295,176.807496 C308.000295,179.104269 308.942391,181.401042 310.585314,183.048164 C310.998916,183.459226 311.412519,183.812797 311.941012,184.108876 C312.41206,184.459573 312.883108,184.755652 313.469045,184.931 C313.997538,185.166714 314.526031,185.344937 315.117712,185.462793 C315.646205,185.58065 316.232142,185.638142 316.823825,185.638142 C317.409762,185.638142 318.001444,185.580651 318.529937,185.462793 C319.115875,185.344937 319.644367,185.166714 320.17286,184.931 C320.707097,184.755652 321.23559,184.459573 321.706638,184.108876 C322.177685,183.812797 322.648733,183.459226 323.056592,183.048164 C323.470195,182.637102 323.820608,182.165675 324.176766,181.694247 C324.469735,181.222819 324.762704,180.6939 324.998228,180.162107 C325.176306,179.633188 325.354386,179.104269 325.469275,178.514984 C325.589909,177.925699 325.647354,177.396781 325.647354,176.807496 C325.647354,176.218211 325.589909,175.628927 325.469275,175.042517 C325.354385,174.510725 325.176306,173.924315 324.998227,173.392521 Z" id="Path"></path>
            <path d="M397.059228,184.638514 C397.294392,160.501561 367.765202,135.128189 311.235518,120.115804 C328.000439,64.0708873 321.765159,25.6279728 301.118043,13.2652132 C280.470926,0.902094556 243.765102,13.5594963 202.470869,54.6513193 C162.823868,11.9109367 126.647613,-2.1589491 105.588689,9.37952804 C84.2946,21.036224 76.5887318,59.890919 91.6475412,117.466898 C33.7650329,131.183576 3.17672588,156.262665 2.94156059,180.576403 C2.64751471,204.713357 32.3533253,230.145658 89.1181747,245.099114 C86.4121629,253.988687 84.17684,262.642547 82.5299682,270.943195 C74.3534118,311.917518 80.1768835,340.64658 98.9416035,351.890776 C104.353268,355.128944 110.529666,356.718216 117.294516,356.718216 C134.17684,356.718216 155.00024,346.945816 177.882679,327.989177 C184.353483,322.632078 190.823928,316.568195 197.294372,310.092533 C228.235606,343.413342 257.059279,359.485338 278.235606,359.485338 C284.294602,359.485338 289.765148,358.18999 294.470958,355.599653 C313.647486,345.179758 320.529739,316.686052 313.941532,275.417446 C312.529825,266.586801 310.471145,257.285446 307.941418,247.68945 C366.000568,234.031343 396.765182,209.011182 397.059228,184.638514 Z M282.294442,25.9811845 C286.059234,25.9811845 289.353337,26.805464 292.059349,28.4536645 C306.588588,37.1078834 307.706249,70.4286933 293.765102,115.995124 C278.765174,112.933719 262.235776,110.519808 244.176909,108.930536 C234.176838,93.5652998 224.176766,79.9657618 214.353337,68.1329987 C241.412017,40.8167838 266.176852,25.9811845 282.294442,25.9811845 Z M133.588746,218.842533 C137.000252,225.141769 140.470998,231.205292 143.941745,237.03382 C132.647369,235.679543 122.000324,233.972415 112.000252,231.970644 C115.588761,222.021436 119.823882,211.836873 124.529693,201.534454 C127.411988,207.186196 130.353165,212.955436 133.588746,218.842533 Z M114.412218,131.124647 C124.176766,129.417518 134.529765,127.945744 145.470855,126.88611 C142.000468,132.302138 138.529722,137.894952 135.059335,143.723121 C131.647469,149.374863 128.412247,155.026246 125.294428,160.736916 C121.118186,150.493426 117.471156,140.603146 114.412218,131.124647 Z M134.412002,181.341755 C139.294456,171.804687 144.529836,162.267619 150.177024,152.789479 C156.000496,143.075626 161.882849,133.891769 167.882605,125.178981 C176.647612,124.707913 185.647425,124.472558 195.000525,124.472558 C196.82404,124.472558 198.706436,124.472558 200.588473,124.531127 C212.118014,124.648984 223.235747,125.120053 233.941672,125.944333 C239.706264,135.010332 245.353451,144.606329 250.882878,154.731963 C256.17678,164.445816 261.059234,174.15931 265.58876,183.873164 C260.765188,193.174877 255.529807,202.653016 249.765216,212.307942 C244.059148,221.84501 238.117914,231.028866 232.059276,239.859512 C221.529635,240.448078 210.647426,240.683791 199.412289,240.565934 C187.823868,240.448078 176.706134,239.977368 166.000568,239.153089 C160.294499,230.08673 154.588789,220.491093 149.059362,210.3651 C143.706221,200.474819 138.823767,190.819894 134.412002,181.341755 Z M264.941429,221.373941 C268.353294,215.66363 271.529635,210.011887 274.647455,204.419074 C278.765174,214.42721 282.412204,224.31749 285.529664,233.972414 C275.765116,235.679543 265.353236,237.092389 254.412146,238.210951 C258.000295,232.677066 261.471042,227.084612 264.941429,221.373941 Z M266.353495,146.254529 C262.941629,139.955292 259.470884,133.891769 256.000496,128.063601 C267.294513,129.417518 278.000438,131.124647 288.00051,133.185346 C284.412002,142.89884 280.235761,153.14269 275.412189,163.621536 C272.529894,157.852296 269.529836,152.082697 266.353495,146.254529 Z M201.941658,81.437536 C208.470984,89.3853322 215.059191,98.0391919 221.647397,107.458762 C214.882906,107.105551 207.941414,106.928765 200.765116,106.869837 C194.000266,106.752339 187.470941,106.811268 181.000496,106.987694 C188.000511,97.6859802 195.000525,89.2085468 201.941658,81.437536 Z M114.059291,24.9215507 C116.58866,23.5087022 119.588717,22.8022794 122.941702,22.8022794 C138.941529,22.8022794 163.529722,38.6975155 190.059191,67.6619309 C179.588789,79.2593391 168.941745,92.7410209 158.235819,107.929472 C140.412118,109.106963 124.059363,111.108734 109.235719,113.757999 C96.7062782,66.9555076 99.0593629,33.1047011 114.059291,24.9215507 Z M20.5886194,180.753189 C20.7652624,163.680465 49.5296924,145.607035 96.7062806,134.716049 C101.35321,149.198077 107.353325,164.68117 114.765147,181.106401 C106.882636,197.001275 100.118146,212.77901 94.7061224,228.026389 C48.3535094,216.134338 20.4123359,197.707697 20.5886194,180.753189 Z M166.647541,314.331429 C141.412016,335.230551 119.529836,343.590127 108.000295,336.702325 C96.4711135,329.814163 93.4121747,306.501489 99.8240976,274.357812 C101.412089,266.292518 103.647412,257.815084 106.294542,249.102296 C121.294471,252.222271 137.823868,254.636181 155.882735,256.166884 C165.823925,271.473192 175.765116,285.013443 185.588545,296.846564 C179.294384,303.20473 172.941702,309.150755 166.647541,314.331429 Z M198.000224,283.718454 C191.412017,275.770658 184.823811,267.057869 178.235604,257.638658 C185.059334,257.932941 192.000468,258.168295 199.176766,258.227224 C201.353208,258.286153 203.471128,258.286153 205.588689,258.286153 C210.118215,258.286153 214.588502,258.227224 218.941745,258.109367 C212.059133,267.234655 205.059119,275.770658 198.000224,283.718454 Z M286.000353,340.116582 C271.118186,348.240805 241.764944,332.287002 209.647526,297.140848 C220.470855,285.072371 231.17678,271.649977 241.529779,257.16759 C259.353481,255.990099 275.765116,253.988687 290.647282,251.280493 C293.17701,260.582207 295.176809,269.648207 296.529635,278.184569 C301.706135,310.563601 297.765059,333.699848 286.000353,340.116582 Z M302.941558,230.4403 C298.176866,215.545772 292.176751,200.062679 285.176737,184.40316 C293.529936,167.742575 300.353308,151.965199 305.647569,137.188529 C351.706135,149.139149 379.588811,167.507221 379.412168,184.46173 C379.235885,201.593382 350.294427,219.548955 302.941558,230.4403 Z" id="Shape"></path>
            <path d="M200.000381,148.020945 C181.000496,148.020945 165.529879,163.503679 165.529879,182.519246 C165.529879,201.534454 181.000496,217.017547 200.000381,217.017547 C218.941744,217.017547 234.294599,201.534454 234.294599,182.519246 C234.294599,163.503679 218.941745,148.020945 200.000381,148.020945 Z" id="Path"></path>
            <path d="M272.884256,46.0553079 C273.114036,46.5842271 273.34956,47.1160203 273.705718,47.5845731 C273.998686,48.0560007 274.354845,48.5274282 274.762703,48.9413653 C276.41137,50.5884878 278.70342,51.5313429 281.001214,51.5313429 C281.587152,51.5313429 282.173089,51.4709772 282.764771,51.3531204 C283.293264,51.2352637 283.879201,51.0599153 284.413438,50.8242013 C284.941931,50.5884872 285.412979,50.3527738 285.941471,49.999203 C286.412519,49.7059979 286.820378,49.3524271 287.233981,48.9413653 C287.647584,48.5274288 288.055442,48.0560013 288.354155,47.5845731 C288.647124,47.1160203 288.940093,46.5842265 289.175616,46.0553079 C289.41114,45.5263894 289.589219,44.9371045 289.646664,44.4081854 C289.761554,43.8189005 289.824743,43.2296163 289.824743,42.7006971 C289.824743,42.1114123 289.761554,41.522128 289.646664,40.9328432 C289.589219,40.403924 289.41114,39.8146398 289.175616,39.2857206 C288.940092,38.7539274 288.647124,38.2250082 288.354155,37.7535807 C288.055442,37.2821532 287.647584,36.8135998 287.233981,36.3996633 C286.820378,36.0460925 286.412519,35.6350307 285.941471,35.3418256 C285.412978,34.9882548 284.941931,34.7525407 284.413438,34.5168273 C283.879201,34.2811132 283.293264,34.1057654 282.764771,33.9879081 C279.881039,33.4561149 276.824974,34.3989699 274.762703,36.3996633 C274.354845,36.8135998 273.998686,37.2821526 273.705718,37.7535807 C273.349559,38.2250082 273.114036,38.7539274 272.884256,39.2857206 C272.648732,39.8146398 272.470654,40.403924 272.350019,40.9328432 C272.23513,41.522128 272.177685,42.1114123 272.177685,42.7006971 C272.177685,43.2296163 272.235129,43.8189005 272.350019,44.4081854 C272.470654,44.9371045 272.648733,45.5263894 272.884256,46.0553079 Z" id="Path"></path>
            <path d="M130.765691,303.262221 C130.530166,302.733302 130.237198,302.261874 129.938485,301.732956 C129.588071,301.261528 129.231913,300.847592 128.824055,300.43653 C126.761785,298.375471 123.763163,297.435491 120.879432,298.021901 C120.293494,298.139757 119.765002,298.31798 119.236509,298.493328 C118.702272,298.729042 118.173779,299.025121 117.702731,299.318327 C117.174238,299.671897 116.76638,300.025468 116.352777,300.43653 C115.939174,300.847592 115.588761,301.261528 115.232602,301.732956 C114.939634,302.261875 114.646665,302.733302 114.411141,303.262221 C114.233062,303.79114 114.060728,304.380424 113.940094,304.912218 C113.825204,305.498628 113.762015,306.087912 113.762015,306.677197 C113.762015,308.973969 114.70411,311.267868 116.352778,312.917864 C116.766381,313.328926 117.174239,313.682497 117.702732,313.975702 C118.173779,314.329273 118.702272,314.564987 119.236509,314.8007 C119.765002,315.036415 120.293495,315.214637 120.879432,315.332494 C121.413669,315.447476 121.999607,315.507842 122.585545,315.507842 C124.883339,315.507842 127.175388,314.564987 128.824056,312.917864 C130.466979,311.267868 131.409074,308.973969 131.409074,306.677197 C131.409074,306.087912 131.351629,305.498628 131.236739,304.912218 C131.116104,304.380424 130.938025,303.79114 130.765691,303.262221 Z" id="Path"></path>
            <path d="M270.529018,322.337794 C272.114495,323.984917 274.412289,324.927772 276.761784,324.927772 C277.296021,324.927772 277.881959,324.867406 278.467896,324.74955 C278.996389,324.631693 279.588071,324.456345 280.116564,324.22063 C280.645056,324.045282 281.173549,323.749203 281.644596,323.455998 C282.115644,323.102427 282.586692,322.748856 282.94285,322.337794 C284.648962,320.687798 285.585314,318.391025 285.585314,316.097127 C285.585314,313.742863 284.648962,311.503582 282.94285,309.856459 C282.586692,309.445398 282.115644,309.091827 281.644596,308.738256 C281.173549,308.442176 280.645056,308.148971 280.116564,307.913258 C279.588071,307.737909 278.996389,307.559687 278.467896,307.44183 C275.589909,306.852545 272.528099,307.795401 270.529018,309.856459 C268.880351,311.503582 267.938255,313.742863 267.938255,316.097127 C267.938255,318.451391 268.880351,320.687798 270.529018,322.337794 Z" id="Path"></path>
            <path d="M131.236738,40.9328438 C131.116104,40.4039246 130.938025,39.8146404 130.765691,39.2857212 C130.530166,38.753928 130.237198,38.2250088 129.938485,37.7535813 C129.588071,37.2821538 129.231913,36.8136003 128.824055,36.3996639 C128.410452,36.0460931 127.996849,35.6350312 127.468356,35.3418262 C126.997308,34.9882554 126.526261,34.7525413 125.940323,34.5168278 C125.41183,34.2811138 124.883338,34.105766 124.291656,34.0454003 C123.177226,33.8096863 121.999606,33.8096863 120.879432,34.0454003 C120.293494,34.105766 119.765002,34.2811144 119.236509,34.5168278 C118.702272,34.7525419 118.173779,34.9882554 117.702731,35.3418262 C117.174238,35.6350312 116.76638,36.0460931 116.352777,36.3996639 C115.939174,36.8136003 115.588761,37.2821532 115.232602,37.7535813 C114.939634,38.2250088 114.646665,38.753928 114.411141,39.2857212 C114.233062,39.8146404 114.060728,40.4039246 113.940094,40.9328438 C113.825204,41.5221286 113.762015,42.1114129 113.762015,42.7006977 C113.762015,44.9945955 114.70411,47.2913686 116.352778,48.9413653 C116.766381,49.3524271 117.174239,49.7059979 117.702732,49.999203 C118.173779,50.3527738 118.702272,50.5884878 119.236509,50.8242013 C119.765002,51.0599153 120.293495,51.2352631 120.879432,51.3531204 C121.413669,51.4709772 121.999607,51.5313429 122.585545,51.5313429 C124.940784,51.5313429 127.175388,50.5884878 128.824056,48.9413653 C130.466979,47.2913686 131.409074,44.9945955 131.409074,42.7006977 C131.409073,42.1114129 131.351628,41.5221286 131.236738,40.9328438 Z" id="Path"></path>
            <path d="M57.5866924,180.811758 C57.4718029,180.222473 57.2937235,179.693554 57.0581994,179.10427 C56.8801206,178.572476 56.5871518,178.103923 56.2367382,177.632495 C55.9380253,177.100702 55.5876112,176.68964 55.1740082,176.278578 C51.8824182,172.981459 45.9426206,172.981459 42.7027306,176.278578 C42.2948724,176.68964 41.9387141,177.100702 41.5883006,177.632495 C41.2953318,178.103923 40.9966212,178.572476 40.7610976,179.10427 C40.5887629,179.693554 40.4106841,180.222473 40.2957941,180.811758 C40.17516,181.340677 40.1177153,181.929961 40.1177153,182.519246 C40.1177153,184.813144 41.0598106,187.109917 42.7027306,188.759914 C44.3513976,190.407036 46.5860024,191.349891 48.9412418,191.349891 C51.2332912,191.349891 53.5310853,190.407036 55.1740082,188.759914 C56.8226753,187.109917 57.7647712,184.813144 57.7647712,182.519246 C57.7647712,181.929961 57.7073265,181.340677 57.5866924,180.811758 Z" id="Path"></path>
        </g>
    </g>
</svg>