<?xml version="1.0" ?><svg id="Layer_1" style="enable-background:new 0 0 70 70;" version="1.1" viewBox="0 0 70 70" xml:space="preserve" xmlns="http://www.w3.org/2000/svg" xmlns:xlink="http://www.w3.org/1999/xlink"><style type="text/css">
	.st0{fill:#fff;}
	.st1{fill:#fff;}
</style><g><path class="st0" d="M56.2496986,33.4529762c-0.0400391-0.0898438-0.0898438-0.1699219-0.1396484-0.25   c-0.0605469-0.0898438-0.1201172-0.159668-0.1904297-0.2299805c-0.3496094-0.3500977-0.8701172-0.5097656-1.3496094-0.409668   c-0.1005859,0.0195312-0.1904297,0.0395508-0.2802734,0.0795898c-0.0996094,0.0400391-0.1796875,0.090332-0.2597656,0.1401367   s-0.1601562,0.1201172-0.2304688,0.1899414c-0.0693359,0.0703125-0.1298828,0.1401367-0.1894531,0.2299805   c-0.0498047,0.0800781-0.1005859,0.1601562-0.140625,0.25c-0.0292969,0.090332-0.0595703,0.1899414-0.0791016,0.2802734   c-0.0205078,0.0996094-0.0302734,0.199707-0.0302734,0.2998047c0,0.3901367,0.1601562,0.7802734,0.4394531,1.0600586   c0.0703125,0.0698242,0.140625,0.1298828,0.2304688,0.1801758c0.0800781,0.0595703,0.1601562,0.1098633,0.2597656,0.1396484   c0.0898438,0.0400391,0.1796875,0.0703125,0.2802734,0.090332c0.0898438,0.0200195,0.1894531,0.0297852,0.2900391,0.0297852   c0.0996094,0,0.2001953-0.0097656,0.2900391-0.0297852c0.0996094-0.0200195,0.1894531-0.050293,0.2792969-0.090332   c0.0908203-0.0297852,0.1806641-0.0800781,0.2607422-0.1396484c0.0800781-0.050293,0.1601562-0.1103516,0.2294922-0.1801758   c0.0703125-0.0698242,0.1298828-0.1499023,0.1904297-0.2299805c0.0498047-0.0800781,0.0996094-0.1699219,0.1396484-0.2602539   c0.0302734-0.0898438,0.0605469-0.1796875,0.0800781-0.2797852c0.0205078-0.1000977,0.0302734-0.1899414,0.0302734-0.2900391   s-0.0097656-0.2001953-0.0302734-0.2998047C56.3102455,33.6429176,56.2799721,33.5433083,56.2496986,33.4529762z"/><path class="st1" d="M68.5000687,35.3632545c0.039978-4.0999756-4.9799843-8.4099731-14.5900307-10.960022   c2.8500366-9.5199585,1.7900391-16.0499878-1.7199707-18.1499634c-3.5100098-2.1000366-9.75,0.0499878-16.7700195,7.0299687   c-6.7399902-7.2600102-12.8899536-9.6499634-16.4699707-7.6900029c-3.6199951,1.9800415-4.9299927,8.5800171-2.3699951,18.3600464   C6.7400556,26.2832375,1.5400434,30.5432472,1.5000653,34.6732521c-0.0499878,4.0999756,5,8.4199829,14.6500244,10.960022   c-0.460022,1.5100098-0.8400269,2.9799805-1.1199951,4.3899536c-1.3900146,6.960022-0.4000244,11.8400269,2.789978,13.75   c0.9199829,0.550045,1.9699707,0.8200035,3.1199951,0.8200035c2.8699951,0,6.4099731-1.6599693,10.2999878-4.8800011   c1.1000366-0.9099731,2.2000122-1.9400024,3.2999878-3.039978c5.2600098,5.6599731,10.1600342,8.3900108,13.7600098,8.3900108   c1.0300293,0,1.960022-0.2200317,2.7600098-0.6600342c3.2600098-1.7699547,4.4299927-6.6099815,3.3099976-13.6199913   c-0.2399902-1.5-0.5899658-3.0799561-1.0200195-4.7099609C63.2200966,43.7532692,68.4500809,39.5032692,68.5000687,35.3632545z    M48.9900551,8.4132423c0.6400146,0,1.2000122,0.1400146,1.6600342,0.4199829   c2.4699707,1.4700317,2.6599731,7.1300049,0.289978,14.8700562c-2.5499878-0.5200195-5.3599854-0.9300537-8.4299927-1.2000122   c-1.7000122-2.6099854-3.4000244-4.9200439-5.0700073-6.9299927C42.0400429,10.9332619,46.2500648,8.4132423,48.9900551,8.4132423z    M23.7100868,41.1732521c0.5799561,1.0700073,1.1699829,2.0999756,1.7600098,3.0900269   c-1.9200439-0.2300415-3.7300415-0.5200195-5.4300537-0.8600464c0.6100464-1.6900024,1.3300171-3.4199829,2.1300049-5.1699829   C22.660038,39.1932716,23.160038,40.1732521,23.7100868,41.1732521z M20.4500771,26.2732277   c1.6599731-0.289978,3.4199829-0.539978,5.2799683-0.7199707c-0.5899658,0.9199829-1.1799927,1.8699951-1.7699585,2.8599854   c-0.5800171,0.960022-1.1300049,1.9199829-1.6600342,2.8900146C21.5900917,29.5632668,20.9700966,27.8832741,20.4500771,26.2732277   z M23.8500404,34.803257c0.8300171-1.6199951,1.7200317-3.2399902,2.6800537-4.8499756   c0.9899902-1.6500244,1.9899902-3.210022,3.0099487-4.6900024c1.4900513-0.0800171,3.0200195-0.1199951,4.6100464-0.1199951   c0.3099976,0,0.6300049,0,0.9499512,0.0099487c1.960022,0.0200195,3.8500366,0.1000366,5.6700439,0.2400513   c0.9799805,1.539978,1.9400024,3.1699829,2.8800049,4.8899536c0.8999634,1.6500244,1.7299805,3.2999878,2.5,4.9500122   c-0.8200073,1.5800171-1.710022,3.1900024-2.6900024,4.8300171c-0.9700317,1.6199951-1.9800415,3.1799927-3.0100098,4.6799927   c-1.7900391,0.0999756-3.6400146,0.1400146-5.5499878,0.1199951c-1.9700317-0.0200195-3.8600464-0.0999756-5.6799927-0.2399902   c-0.9700317-1.5400391-1.9400024-3.1699829-2.8800049-4.8900146C25.4300575,38.053257,24.6000404,36.4132423,23.8500404,34.803257z    M46.0400429,41.6032448c0.5800171-0.9699707,1.1199951-1.9299927,1.6500244-2.8800049   c0.7000122,1.7000122,1.3200073,3.3800049,1.8499756,5.0200195c-1.6599731,0.289978-3.4299927,0.5299683-5.289978,0.7199707   C44.8600502,43.5232277,45.4500771,42.5732765,46.0400429,41.6032448z M46.2800941,28.843235   c-0.5800171-1.0700073-1.1700439-2.0999756-1.7600098-3.0899658c1.9199829,0.2299805,3.7399902,0.5199585,5.4400024,0.8699951   c-0.6100464,1.6499634-1.3200073,3.3900146-2.1400146,5.1699829C47.3300819,30.8132668,46.8200722,29.8332253,46.2800941,28.843235   z M35.3300819,17.8332253c1.1099854,1.3500366,2.2299805,2.8200073,3.3499756,4.4200439   c-1.1499634-0.0599976-2.3300171-0.0900269-3.5499878-0.1000366c-1.1500244-0.0199585-2.2600098-0.0099487-3.3599854,0.0200195   C32.9600868,20.593235,34.1500893,19.1532326,35.3300819,17.8332253z M20.3900795,8.2332497   c0.4299927-0.2399907,0.9400024-0.3599858,1.5100098-0.3599858c2.7199707,0,6.8999634,2.7000127,11.4099731,7.6199956   c-1.7799683,1.9699707-3.5899658,4.2600098-5.4099731,6.8399658c-3.0300293,0.2000122-5.8099976,0.5400391-8.3300171,0.9900513   C17.4400673,15.3732643,17.8400917,9.6232643,20.3900795,8.2332497z M4.5000653,34.7032814   c0.0300293-2.9000244,4.9199824-5.9700317,12.9400024-7.8200073c0.789978,2.4599609,1.8099976,5.0899658,3.0700073,7.8800049   c-1.3400269,2.6999512-2.4899902,5.3800049-3.4100342,7.9699707C9.2200966,40.7132301,4.4700971,37.5832253,4.5000653,34.7032814z    M29.3300819,57.3932838c-4.2900391,3.5499878-8.0100098,4.9699707-9.9700317,3.7999878   c-1.9599609-1.1700439-2.4799805-5.1300049-1.3899536-10.5900269c0.2699585-1.3699951,0.6499634-2.8099976,1.0999756-4.289978   c2.5499878,0.5299683,5.3599854,0.9400024,8.4299927,1.2000122c1.6900024,2.5999756,3.3800049,4.8999634,5.0499878,6.9099731   C31.4800453,55.5032692,30.4000893,56.513279,29.3300819,57.3932838z M34.660038,52.1932716   c-1.1199951-1.3500366-2.2399902-2.8300171-3.3599854-4.4299927c1.1600342,0.0499878,2.3400269,0.0899658,3.5599976,0.0999756   c0.3699951,0.0100098,0.7300415,0.0100098,1.0900269,0.0100098c0.7700195,0,1.5299683-0.0100098,2.2700195-0.0300293   C37.0500526,49.3932838,35.8600502,50.843235,34.660038,52.1932716z M49.62006,61.7732277   c-2.5299683,1.3800049-7.5200195-1.3299561-12.9799805-7.2999878c1.8399658-2.0499878,3.6599731-4.3299561,5.4199829-6.789978   c3.0300293-0.2000122,5.8200073-0.539978,8.3499756-1c0.4300537,1.5800171,0.7700195,3.1199951,1,4.5700073   C52.2900429,56.7532692,51.62006,60.6832619,49.62006,61.7732277z M52.5000648,43.1432838   c-0.8099976-2.5300293-1.8300171-5.1600342-3.0200195-7.8200073c1.4200439-2.8300171,2.5800171-5.5100098,3.4800415-8.0200195   c7.8299561,2.0299683,12.5700111,5.1500244,12.5399818,8.0299683   C65.4701004,38.2432594,60.5500526,41.2932472,52.5000648,43.1432838z"/><path class="st0" d="M35.0000648,29.1432838c-3.2299805,0-5.8599854,2.6299438-5.8599854,5.8599854   c0,3.2299805,2.6300049,5.8599854,5.8599854,5.8599854c3.2200317,0,5.8300171-2.6300049,5.8300171-5.8599854   C40.8300819,31.7732277,38.2200966,29.1432838,35.0000648,29.1432838z"/><path class="st0" d="M47.3903236,11.8230934c0.0390625,0.0898438,0.0791016,0.1801758,0.1396484,0.2597656   c0.0498047,0.0800781,0.1103516,0.1601562,0.1796875,0.2304688c0.2802734,0.2797852,0.6699219,0.4399414,1.0605469,0.4399414   c0.0996094,0,0.1992188-0.0102539,0.2998047-0.0302734c0.0898438-0.0200195,0.1894531-0.0498047,0.2802734-0.0898438   c0.0898438-0.0400391,0.1699219-0.0800781,0.2597656-0.1401367c0.0800781-0.0498047,0.1494141-0.1098633,0.2197266-0.1796875   c0.0703125-0.0703125,0.1396484-0.1503906,0.1904297-0.2304688c0.0498047-0.0795898,0.0996094-0.1699219,0.1396484-0.2597656   s0.0703125-0.1899414,0.0800781-0.2797852c0.0195312-0.1000977,0.0302734-0.2001953,0.0302734-0.2900391   c0-0.1000977-0.0107422-0.2001953-0.0302734-0.300293c-0.0097656-0.0898438-0.0400391-0.1899414-0.0800781-0.2797852   c-0.0400391-0.090332-0.0898438-0.1801758-0.1396484-0.2602539c-0.0507812-0.0800781-0.1201172-0.159668-0.1904297-0.2299805   c-0.0703125-0.0600586-0.1396484-0.1298828-0.2197266-0.1796875c-0.0898438-0.0600586-0.1699219-0.1000977-0.2597656-0.1401367   c-0.0908203-0.0400391-0.1904297-0.0698242-0.2802734-0.0898438c-0.4902344-0.090332-1.0097656,0.0698242-1.3603516,0.409668   c-0.0693359,0.0703125-0.1298828,0.1499023-0.1796875,0.2299805c-0.0605469,0.0800781-0.1005859,0.1699219-0.1396484,0.2602539   c-0.0400391,0.0898438-0.0703125,0.1899414-0.0908203,0.2797852c-0.0195312,0.1000977-0.0292969,0.2001953-0.0292969,0.300293   c0,0.0898438,0.0097656,0.1899414,0.0292969,0.2900391C47.3200111,11.633152,47.3502846,11.7332497,47.3903236,11.8230934z"/><path class="st0" d="M23.2301674,55.5130348c-0.0400391-0.0898438-0.0898438-0.1699219-0.140625-0.2597656   c-0.0595703-0.0800781-0.1201172-0.1503906-0.1894531-0.2202148c-0.3505859-0.3500977-0.8603516-0.5097656-1.3505859-0.4101562   c-0.0996094,0.0200195-0.1894531,0.050293-0.2792969,0.0800781c-0.0908203,0.0400391-0.1806641,0.090332-0.2607422,0.1401367   c-0.0898438,0.0600586-0.1591797,0.1201172-0.2294922,0.1899414s-0.1298828,0.1401367-0.1904297,0.2202148   c-0.0498047,0.0898438-0.0996094,0.1699219-0.1396484,0.2597656c-0.0302734,0.0898438-0.0595703,0.1899414-0.0800781,0.2802734   c-0.0195312,0.0996094-0.0302734,0.199707-0.0302734,0.2998047c0,0.3901367,0.1601562,0.7797852,0.4404297,1.0600586   c0.0703125,0.0698242,0.1396484,0.1298828,0.2294922,0.1796875c0.0800781,0.0600586,0.1699219,0.1000977,0.2607422,0.1401367   c0.0898438,0.0400391,0.1796875,0.0703125,0.2792969,0.090332c0.0908203,0.0195312,0.1904297,0.0297852,0.2900391,0.0297852   c0.390625,0,0.7802734-0.1601562,1.0605469-0.4399414c0.2792969-0.2802734,0.4394531-0.6699219,0.4394531-1.0600586   c0-0.1000977-0.0097656-0.2001953-0.0292969-0.2998047C23.2897377,55.7029762,23.2594643,55.6028786,23.2301674,55.5130348z"/><path class="st0" d="M46.989933,58.7532692c0.2695312,0.2797852,0.6601562,0.4399414,1.0595703,0.4399414   c0.0908203,0,0.1904297-0.0102539,0.2900391-0.0302734c0.0898438-0.0200195,0.1904297-0.0498047,0.2802734-0.0898438   c0.0898438-0.0297852,0.1796875-0.0800781,0.2597656-0.1298828c0.0800781-0.0600586,0.1601562-0.1201172,0.2207031-0.1899414   c0.2900391-0.2802734,0.4492188-0.6704102,0.4492188-1.0600586c0-0.3999023-0.1591797-0.7802734-0.4492188-1.0600586   c-0.0605469-0.0698242-0.140625-0.1298828-0.2207031-0.1899414c-0.0800781-0.050293-0.1699219-0.1000977-0.2597656-0.1401367   c-0.0898438-0.0297852-0.1904297-0.0600586-0.2802734-0.0800781c-0.4892578-0.1000977-1.0097656,0.0600586-1.3496094,0.4101562   c-0.2802734,0.2797852-0.4404297,0.6601562-0.4404297,1.0600586S46.7096596,58.4729958,46.989933,58.7532692z"/><path class="st0" d="M23.3102455,10.9529762c-0.0205078-0.0898438-0.0507812-0.1899414-0.0800781-0.2797852   c-0.0400391-0.090332-0.0898438-0.1801758-0.140625-0.2602539c-0.0595703-0.0800781-0.1201172-0.159668-0.1894531-0.2299805   c-0.0703125-0.0600586-0.140625-0.1298828-0.2304688-0.1796875c-0.0800781-0.0600586-0.1601562-0.1000977-0.2597656-0.1401367   c-0.0898438-0.0400391-0.1796875-0.0698242-0.2802734-0.0800781c-0.1894531-0.0400391-0.3896484-0.0400391-0.5800781,0   c-0.0996094,0.0102539-0.1894531,0.0400391-0.2792969,0.0800781c-0.0908203,0.0400391-0.1806641,0.0800781-0.2607422,0.1401367   c-0.0898438,0.0498047-0.1591797,0.1196289-0.2294922,0.1796875c-0.0703125,0.0703125-0.1298828,0.1499023-0.1904297,0.2299805   c-0.0498047,0.0800781-0.0996094,0.1699219-0.1396484,0.2602539c-0.0302734,0.0898438-0.0595703,0.1899414-0.0800781,0.2797852   c-0.0195312,0.1000977-0.0302734,0.2001953-0.0302734,0.300293c0,0.3896484,0.1601562,0.7797852,0.4404297,1.0600586   c0.0703125,0.0698242,0.1396484,0.1298828,0.2294922,0.1796875c0.0800781,0.0600586,0.1699219,0.1000977,0.2607422,0.1401367   c0.0898438,0.0400391,0.1796875,0.0698242,0.2792969,0.0898438c0.0908203,0.0200195,0.1904297,0.0302734,0.2900391,0.0302734   c0.4003906,0,0.7802734-0.1601562,1.0605469-0.4399414c0.2792969-0.2802734,0.4394531-0.6704102,0.4394531-1.0600586   C23.3395424,11.1531715,23.3297768,11.0530739,23.3102455,10.9529762z"/><path class="st0" d="M10.7897377,34.7132301c-0.0195312-0.1000977-0.0498047-0.1899414-0.0898438-0.2900391   c-0.0302734-0.090332-0.0800781-0.1699219-0.1396484-0.25c-0.0507812-0.090332-0.1103516-0.1601562-0.1806641-0.2299805   c-0.5595703-0.5600586-1.5693359-0.5600586-2.1201172,0c-0.0693359,0.0698242-0.1298828,0.1396484-0.1894531,0.2299805   c-0.0498047,0.0800781-0.1005855,0.159668-0.1406245,0.25c-0.0292969,0.1000977-0.0595703,0.1899414-0.0791016,0.2900391   c-0.0205078,0.0898438-0.0302734,0.1899414-0.0302734,0.2900391c0,0.3896484,0.1601562,0.7797852,0.4394526,1.0600586   c0.2802734,0.2797852,0.6601562,0.4399414,1.0605469,0.4399414c0.3896484,0,0.7802734-0.1601562,1.0595703-0.4399414   c0.2802734-0.2802734,0.4404297-0.6704102,0.4404297-1.0600586C10.8200111,34.9031715,10.8102455,34.8030739,10.7897377,34.7132301   z"/></g></svg>