<?xml version="1.0" encoding="UTF-8"?>
<svg width="400px" height="400px" viewBox="0 0 400 400" version="1.1" xmlns="http://www.w3.org/2000/svg" xmlns:xlink="http://www.w3.org/1999/xlink">
    <g id="coffee" stroke="none" stroke-width="1" fill="none" fill-rule="evenodd">
        <g transform="translate(0.000000, 61.000000)" fill="#FFFFFF" fill-rule="nonzero">
            <path d="M334.65834,0 L222.686853,0 L222.686853,0.03939327 L34,0.03939327 L34,72.6490686 C34,150.718651 97.3081081,214 175.410703,214 C232.823086,214 282.14067,179.735734 304.296931,130.604447 L334.666222,130.604447 C370.686896,130.604447 400,101.311612 400,65.2982844 C400,29.2849569 370.686896,0 334.65834,0 Z M334.65834,96.2377586 L314.69327,96.2377586 C315.985916,88.5481923 316.821406,80.7089316 316.821406,72.6490686 L316.821406,34.3666888 L334.65834,34.3666888 C351.722838,34.3666888 365.603015,48.2409985 365.603015,65.2982844 C365.603015,82.3555703 351.722838,96.2377586 334.65834,96.2377586 Z" id="Shape"></path>
            <path d="M27.1706907,267.328438 C31.1207882,273.775213 40.4688278,279 48.054274,279 L302.937857,279 C310.523304,279 319.871343,273.775213 323.821441,267.328438 L351,223 L0,223 L27.1706907,267.328438 Z" id="Path"></path>
        </g>
    </g>
</svg>