<svg xmlns="http://www.w3.org/2000/svg" width="60" height="52.857" viewBox="0 0 60 52.857">
  <g id="elements_logo" data-name="elements/logo" transform="translate(0 0)">
    <path id="Path_1" data-name="Path 1" d="M21.328-74.025H29.25q7.621,0,12.11,3.246t4.489,9.662q0,9.476-9.054,12.311,10.79,3.059,10.79,11.938,0,15.445-19.618,15.445H9.914l-.055-43.8L4.2-67.459v-6.193ZM25.7-44.7H21.328v14.549H27.59a8.927,8.927,0,0,0,6-1.791,6.162,6.162,0,0,0,2.075-4.924q0-4.029-2.414-5.932T25.7-44.7ZM21.328-65.221v12.684H25.7q8.451,0,8.451-6.939a5.227,5.227,0,0,0-1.773-4.29,7.082,7.082,0,0,0-4.64-1.455Z" transform="translate(-4.2 74.025)"/>
    <path id="Path_2" data-name="Path 2" d="M76.242-11.217A6.424,6.424,0,0,1,78.166-16.1a6.4,6.4,0,0,1,4.565-1.828,6.108,6.108,0,0,1,4.716,1.753,7.037,7.037,0,0,1,1.622,4.962,6.588,6.588,0,0,1-1.886,4.962,6.365,6.365,0,0,1-4.6,1.828A6.108,6.108,0,0,1,77.864-6.18,7.152,7.152,0,0,1,76.242-11.217Z" transform="translate(-29.069 57.284)"/>
  </g>
</svg>
