<?xml version="1.0" encoding="UTF-8"?>
<svg width="400px" height="400px" viewBox="0 0 400 400" version="1.1" xmlns="http://www.w3.org/2000/svg" xmlns:xlink="http://www.w3.org/1999/xlink">
    <!-- Generator: Sketch 53.2 (72643) - https://sketchapp.com -->
    <title>performance</title>
    <desc>Created with Sketch.</desc>
    <g id="performance" stroke="none" stroke-width="1" fill="none" fill-rule="evenodd">
        <g transform="translate(5.000000, 7.000000)" fill="#FFFFFF" fill-rule="nonzero" id="Path">
            <path d="M167.084615,192.913098 C167.084615,209.746039 180.753846,223.396863 197.592308,223.396863 C209.423077,223.396863 219.561538,216.602196 224.623077,206.771451 L224.707692,206.848314 L280.4,106.450196 L182.630769,166.35702 L182.723077,166.449255 C173.438462,171.683608 167.084615,181.506667 167.084615,192.913098 Z"></path>
            <path d="M320.5,47.6578824 C289.238462,20.3562353 248.846154,2.92376471 202.692308,0.318117647 L202.692308,46.6432941 C241.153846,49.0875294 263.815385,61.2933333 286.569231,80.3399216 L320.5,47.6578824 Z"></path>
            <path d="M342.276923,178.470588 L388.584615,178.470588 C385.476923,132.352941 367.423077,94.4596078 339.392308,63.4070588 L306.630769,95.9430588 C326.369231,118.540706 339.353846,147.72549 342.276923,178.470588 Z"></path>
            <path d="M342.492308,201.529412 C337.592308,278.392157 273.861538,339.352 196.015385,339.352 C114.976923,339.352 46.6230769,273.680471 46.6230769,192.713255 C46.6230769,115.635294 110.384615,52.5694118 179.615385,46.6509804 L179.615385,0.325803922 C79.6153846,6.31341176 0.469230769,90.3858824 0.469230769,192.913098 C0.469230769,299.314196 88.3153846,385.469647 194.8,385.469647 C298.123077,385.469647 383.953846,301.45098 388.884615,201.529412 L342.492308,201.529412 Z"></path>
        </g>
    </g>
</svg>