<?xml version="1.0" encoding="UTF-8"?>
<svg width="400px" height="400px" viewBox="0 0 400 400" version="1.1" xmlns="http://www.w3.org/2000/svg" xmlns:xlink="http://www.w3.org/1999/xlink">
    <g id="rocket" stroke="none" stroke-width="1" fill="none" fill-rule="evenodd">
        <g transform="translate(64.000000, 6.000000)" fill="#FFFFFF" fill-rule="nonzero">
            <path d="M136,0.037037037 C136,0.037037037 61.2477368,57.9333333 61.2477368,200.155556 C61.2477368,291.37037 88.8837368,348.4 124.868421,358.148148 L124.868421,266.340741 C124.868421,260.207407 129.847947,255.22963 136,255.22963 C142.152053,255.22963 147.131579,260.207407 147.131579,266.340741 L147.131579,358.148148 C183.116263,348.407407 210.752263,291.37037 210.752263,200.155556 C210.752263,56.2888889 136,0.037037037 136,0.037037037 Z M135.124316,109.8 C122.293316,109.8 109.759158,108.651852 98.6572632,106.555556 C109.529105,71.5851852 124.861,48.0296296 136.141,34.2518519 C147.391316,47.8592593 162.649,71.2074074 173.446632,106.214815 C161.914316,108.540741 148.704842,109.8 135.124316,109.8 Z" id="Shape"></path>
            <path d="M41.1886316,263.02963 C18.8735263,263.02963 0.788421053,278.444444 0.788421053,297.459259 L0.788421053,387.962963 L73.9748421,333.918519 C63.1178421,315.42963 55.0066316,291.422222 50.2200526,263.02963 L41.1886316,263.02963 Z" id="Path"></path>
            <path d="M230.811368,263.02963 L221.787368,263.02963 C217.000789,291.422222 208.889579,315.42963 198.032579,333.918519 L271.219,387.962963 L271.219,297.459259 C271.211579,278.444444 253.126474,263.02963 230.811368,263.02963 Z" id="Path"></path>
        </g>
    </g>
</svg>